<?xml version="1.0" encoding="utf-8" standalone="no"?>
<!DOCTYPE svg PUBLIC "-//W3C//DTD SVG 1.1//EN"
  "http://www.w3.org/Graphics/SVG/1.1/DTD/svg11.dtd">
<svg xmlns:xlink="http://www.w3.org/1999/xlink" width="540pt" height="576pt" viewBox="0 0 540 576" xmlns="http://www.w3.org/2000/svg" version="1.1">
 <metadata>
  <rdf:RDF xmlns:dc="http://purl.org/dc/elements/1.1/" xmlns:cc="http://creativecommons.org/ns#" xmlns:rdf="http://www.w3.org/1999/02/22-rdf-syntax-ns#">
   <cc:Work>
    <dc:type rdf:resource="http://purl.org/dc/dcmitype/StillImage"/>
    <dc:date>2024-07-01T13:42:23.810865</dc:date>
    <dc:format>image/svg+xml</dc:format>
    <dc:creator>
     <cc:Agent>
      <dc:title>Matplotlib v3.8.3, https://matplotlib.org/</dc:title>
     </cc:Agent>
    </dc:creator>
   </cc:Work>
  </rdf:RDF>
 </metadata>
 <defs>
  <style type="text/css">*{stroke-linejoin: round; stroke-linecap: butt}</style>
 </defs>
 <g id="figure_1">
  <g id="patch_1">
   <path d="M 0 576 
L 540 576 
L 540 0 
L 0 0 
z
" style="fill: #ffffff"/>
  </g>
  <g id="axes_1"/>
  <g id="axes_2">
   <g id="patch_2">
    <path d="M 70.85 169.426667 
L 254.655 169.426667 
L 254.655 34.08 
L 70.85 34.08 
z
" style="fill: #ffffff"/>
   </g>
   <g id="matplotlib.axis_1">
    <g id="xtick_1">
     <g id="line2d_1">
      <defs>
       <path id="m7d82a26ffc" d="M 0 0 
L 0 3.5 
" style="stroke: #000000; stroke-width: 0.8"/>
      </defs>
      <g>
       <use xlink:href="#m7d82a26ffc" x="70.85" y="169.426667" style="stroke: #000000; stroke-width: 0.8"/>
      </g>
     </g>
     <g id="text_1">
      <!-- 0 -->
      <g transform="translate(66.39625 187.064479) scale(0.14 -0.14)">
       <defs>
        <path id="DejaVuSans-30" d="M 2034 4250 
Q 1547 4250 1301 3770 
Q 1056 3291 1056 2328 
Q 1056 1369 1301 889 
Q 1547 409 2034 409 
Q 2525 409 2770 889 
Q 3016 1369 3016 2328 
Q 3016 3291 2770 3770 
Q 2525 4250 2034 4250 
z
M 2034 4750 
Q 2819 4750 3233 4129 
Q 3647 3509 3647 2328 
Q 3647 1150 3233 529 
Q 2819 -91 2034 -91 
Q 1250 -91 836 529 
Q 422 1150 422 2328 
Q 422 3509 836 4129 
Q 1250 4750 2034 4750 
z
" transform="scale(0.015625)"/>
       </defs>
       <use xlink:href="#DejaVuSans-30"/>
      </g>
     </g>
    </g>
    <g id="xtick_2">
     <g id="line2d_2">
      <g>
       <use xlink:href="#m7d82a26ffc" x="116.80125" y="169.426667" style="stroke: #000000; stroke-width: 0.8"/>
      </g>
     </g>
     <g id="text_2">
      <!-- 50 -->
      <g transform="translate(107.89375 187.064479) scale(0.14 -0.14)">
       <defs>
        <path id="DejaVuSans-35" d="M 691 4666 
L 3169 4666 
L 3169 4134 
L 1269 4134 
L 1269 2991 
Q 1406 3038 1543 3061 
Q 1681 3084 1819 3084 
Q 2600 3084 3056 2656 
Q 3513 2228 3513 1497 
Q 3513 744 3044 326 
Q 2575 -91 1722 -91 
Q 1428 -91 1123 -41 
Q 819 9 494 109 
L 494 744 
Q 775 591 1075 516 
Q 1375 441 1709 441 
Q 2250 441 2565 725 
Q 2881 1009 2881 1497 
Q 2881 1984 2565 2268 
Q 2250 2553 1709 2553 
Q 1456 2553 1204 2497 
Q 953 2441 691 2322 
L 691 4666 
z
" transform="scale(0.015625)"/>
       </defs>
       <use xlink:href="#DejaVuSans-35"/>
       <use xlink:href="#DejaVuSans-30" x="63.623047"/>
      </g>
     </g>
    </g>
    <g id="xtick_3">
     <g id="line2d_3">
      <g>
       <use xlink:href="#m7d82a26ffc" x="162.7525" y="169.426667" style="stroke: #000000; stroke-width: 0.8"/>
      </g>
     </g>
     <g id="text_3">
      <!-- 100 -->
      <g transform="translate(149.39125 187.064479) scale(0.14 -0.14)">
       <defs>
        <path id="DejaVuSans-31" d="M 794 531 
L 1825 531 
L 1825 4091 
L 703 3866 
L 703 4441 
L 1819 4666 
L 2450 4666 
L 2450 531 
L 3481 531 
L 3481 0 
L 794 0 
L 794 531 
z
" transform="scale(0.015625)"/>
       </defs>
       <use xlink:href="#DejaVuSans-31"/>
       <use xlink:href="#DejaVuSans-30" x="63.623047"/>
       <use xlink:href="#DejaVuSans-30" x="127.246094"/>
      </g>
     </g>
    </g>
    <g id="xtick_4">
     <g id="line2d_4">
      <g>
       <use xlink:href="#m7d82a26ffc" x="208.70375" y="169.426667" style="stroke: #000000; stroke-width: 0.8"/>
      </g>
     </g>
     <g id="text_4">
      <!-- 150 -->
      <g transform="translate(195.3425 187.064479) scale(0.14 -0.14)">
       <use xlink:href="#DejaVuSans-31"/>
       <use xlink:href="#DejaVuSans-35" x="63.623047"/>
       <use xlink:href="#DejaVuSans-30" x="127.246094"/>
      </g>
     </g>
    </g>
    <g id="xtick_5">
     <g id="line2d_5">
      <g>
       <use xlink:href="#m7d82a26ffc" x="254.655" y="169.426667" style="stroke: #000000; stroke-width: 0.8"/>
      </g>
     </g>
     <g id="text_5">
      <!-- 200 -->
      <g transform="translate(241.29375 187.064479) scale(0.14 -0.14)">
       <defs>
        <path id="DejaVuSans-32" d="M 1228 531 
L 3431 531 
L 3431 0 
L 469 0 
L 469 531 
Q 828 903 1448 1529 
Q 2069 2156 2228 2338 
Q 2531 2678 2651 2914 
Q 2772 3150 2772 3378 
Q 2772 3750 2511 3984 
Q 2250 4219 1831 4219 
Q 1534 4219 1204 4116 
Q 875 4013 500 3803 
L 500 4441 
Q 881 4594 1212 4672 
Q 1544 4750 1819 4750 
Q 2544 4750 2975 4387 
Q 3406 4025 3406 3419 
Q 3406 3131 3298 2873 
Q 3191 2616 2906 2266 
Q 2828 2175 2409 1742 
Q 1991 1309 1228 531 
z
" transform="scale(0.015625)"/>
       </defs>
       <use xlink:href="#DejaVuSans-32"/>
       <use xlink:href="#DejaVuSans-30" x="63.623047"/>
       <use xlink:href="#DejaVuSans-30" x="127.246094"/>
      </g>
     </g>
    </g>
   </g>
   <g id="matplotlib.axis_2">
    <g id="ytick_1">
     <g id="line2d_6">
      <defs>
       <path id="mf16fa289fb" d="M 0 0 
L -3.5 0 
" style="stroke: #000000; stroke-width: 0.8"/>
      </defs>
      <g>
       <use xlink:href="#mf16fa289fb" x="70.85" y="169.426667" style="stroke: #000000; stroke-width: 0.8"/>
      </g>
     </g>
     <g id="text_6">
      <!-- 0.0 -->
      <g transform="translate(41.585625 174.745573) scale(0.14 -0.14)">
       <defs>
        <path id="DejaVuSans-2e" d="M 684 794 
L 1344 794 
L 1344 0 
L 684 0 
L 684 794 
z
" transform="scale(0.015625)"/>
       </defs>
       <use xlink:href="#DejaVuSans-30"/>
       <use xlink:href="#DejaVuSans-2e" x="63.623047"/>
       <use xlink:href="#DejaVuSans-30" x="95.410156"/>
      </g>
     </g>
    </g>
    <g id="ytick_2">
     <g id="line2d_7">
      <g>
       <use xlink:href="#mf16fa289fb" x="70.85" y="135.59" style="stroke: #000000; stroke-width: 0.8"/>
      </g>
     </g>
     <g id="text_7">
      <!-- 2.5 -->
      <g transform="translate(41.585625 140.908906) scale(0.14 -0.14)">
       <use xlink:href="#DejaVuSans-32"/>
       <use xlink:href="#DejaVuSans-2e" x="63.623047"/>
       <use xlink:href="#DejaVuSans-35" x="95.410156"/>
      </g>
     </g>
    </g>
    <g id="ytick_3">
     <g id="line2d_8">
      <g>
       <use xlink:href="#mf16fa289fb" x="70.85" y="101.753333" style="stroke: #000000; stroke-width: 0.8"/>
      </g>
     </g>
     <g id="text_8">
      <!-- 5.0 -->
      <g transform="translate(41.585625 107.07224) scale(0.14 -0.14)">
       <use xlink:href="#DejaVuSans-35"/>
       <use xlink:href="#DejaVuSans-2e" x="63.623047"/>
       <use xlink:href="#DejaVuSans-30" x="95.410156"/>
      </g>
     </g>
    </g>
    <g id="ytick_4">
     <g id="line2d_9">
      <g>
       <use xlink:href="#mf16fa289fb" x="70.85" y="67.916667" style="stroke: #000000; stroke-width: 0.8"/>
      </g>
     </g>
     <g id="text_9">
      <!-- 7.5 -->
      <g transform="translate(41.585625 73.235573) scale(0.14 -0.14)">
       <defs>
        <path id="DejaVuSans-37" d="M 525 4666 
L 3525 4666 
L 3525 4397 
L 1831 0 
L 1172 0 
L 2766 4134 
L 525 4134 
L 525 4666 
z
" transform="scale(0.015625)"/>
       </defs>
       <use xlink:href="#DejaVuSans-37"/>
       <use xlink:href="#DejaVuSans-2e" x="63.623047"/>
       <use xlink:href="#DejaVuSans-35" x="95.410156"/>
      </g>
     </g>
    </g>
    <g id="ytick_5">
     <g id="line2d_10">
      <g>
       <use xlink:href="#mf16fa289fb" x="70.85" y="34.08" style="stroke: #000000; stroke-width: 0.8"/>
      </g>
     </g>
     <g id="text_10">
      <!-- 10.0 -->
      <g transform="translate(32.678125 39.398906) scale(0.14 -0.14)">
       <use xlink:href="#DejaVuSans-31"/>
       <use xlink:href="#DejaVuSans-30" x="63.623047"/>
       <use xlink:href="#DejaVuSans-2e" x="127.246094"/>
       <use xlink:href="#DejaVuSans-30" x="159.033203"/>
      </g>
     </g>
    </g>
    <g id="text_11">
     <!-- Normalized Loss -->
     <g transform="translate(25.766563 159.02974) rotate(-90) scale(0.14 -0.14)">
      <defs>
       <path id="DejaVuSans-4e" d="M 628 4666 
L 1478 4666 
L 3547 763 
L 3547 4666 
L 4159 4666 
L 4159 0 
L 3309 0 
L 1241 3903 
L 1241 0 
L 628 0 
L 628 4666 
z
" transform="scale(0.015625)"/>
       <path id="DejaVuSans-6f" d="M 1959 3097 
Q 1497 3097 1228 2736 
Q 959 2375 959 1747 
Q 959 1119 1226 758 
Q 1494 397 1959 397 
Q 2419 397 2687 759 
Q 2956 1122 2956 1747 
Q 2956 2369 2687 2733 
Q 2419 3097 1959 3097 
z
M 1959 3584 
Q 2709 3584 3137 3096 
Q 3566 2609 3566 1747 
Q 3566 888 3137 398 
Q 2709 -91 1959 -91 
Q 1206 -91 779 398 
Q 353 888 353 1747 
Q 353 2609 779 3096 
Q 1206 3584 1959 3584 
z
" transform="scale(0.015625)"/>
       <path id="DejaVuSans-72" d="M 2631 2963 
Q 2534 3019 2420 3045 
Q 2306 3072 2169 3072 
Q 1681 3072 1420 2755 
Q 1159 2438 1159 1844 
L 1159 0 
L 581 0 
L 581 3500 
L 1159 3500 
L 1159 2956 
Q 1341 3275 1631 3429 
Q 1922 3584 2338 3584 
Q 2397 3584 2469 3576 
Q 2541 3569 2628 3553 
L 2631 2963 
z
" transform="scale(0.015625)"/>
       <path id="DejaVuSans-6d" d="M 3328 2828 
Q 3544 3216 3844 3400 
Q 4144 3584 4550 3584 
Q 5097 3584 5394 3201 
Q 5691 2819 5691 2113 
L 5691 0 
L 5113 0 
L 5113 2094 
Q 5113 2597 4934 2840 
Q 4756 3084 4391 3084 
Q 3944 3084 3684 2787 
Q 3425 2491 3425 1978 
L 3425 0 
L 2847 0 
L 2847 2094 
Q 2847 2600 2669 2842 
Q 2491 3084 2119 3084 
Q 1678 3084 1418 2786 
Q 1159 2488 1159 1978 
L 1159 0 
L 581 0 
L 581 3500 
L 1159 3500 
L 1159 2956 
Q 1356 3278 1631 3431 
Q 1906 3584 2284 3584 
Q 2666 3584 2933 3390 
Q 3200 3197 3328 2828 
z
" transform="scale(0.015625)"/>
       <path id="DejaVuSans-61" d="M 2194 1759 
Q 1497 1759 1228 1600 
Q 959 1441 959 1056 
Q 959 750 1161 570 
Q 1363 391 1709 391 
Q 2188 391 2477 730 
Q 2766 1069 2766 1631 
L 2766 1759 
L 2194 1759 
z
M 3341 1997 
L 3341 0 
L 2766 0 
L 2766 531 
Q 2569 213 2275 61 
Q 1981 -91 1556 -91 
Q 1019 -91 701 211 
Q 384 513 384 1019 
Q 384 1609 779 1909 
Q 1175 2209 1959 2209 
L 2766 2209 
L 2766 2266 
Q 2766 2663 2505 2880 
Q 2244 3097 1772 3097 
Q 1472 3097 1187 3025 
Q 903 2953 641 2809 
L 641 3341 
Q 956 3463 1253 3523 
Q 1550 3584 1831 3584 
Q 2591 3584 2966 3190 
Q 3341 2797 3341 1997 
z
" transform="scale(0.015625)"/>
       <path id="DejaVuSans-6c" d="M 603 4863 
L 1178 4863 
L 1178 0 
L 603 0 
L 603 4863 
z
" transform="scale(0.015625)"/>
       <path id="DejaVuSans-69" d="M 603 3500 
L 1178 3500 
L 1178 0 
L 603 0 
L 603 3500 
z
M 603 4863 
L 1178 4863 
L 1178 4134 
L 603 4134 
L 603 4863 
z
" transform="scale(0.015625)"/>
       <path id="DejaVuSans-7a" d="M 353 3500 
L 3084 3500 
L 3084 2975 
L 922 459 
L 3084 459 
L 3084 0 
L 275 0 
L 275 525 
L 2438 3041 
L 353 3041 
L 353 3500 
z
" transform="scale(0.015625)"/>
       <path id="DejaVuSans-65" d="M 3597 1894 
L 3597 1613 
L 953 1613 
Q 991 1019 1311 708 
Q 1631 397 2203 397 
Q 2534 397 2845 478 
Q 3156 559 3463 722 
L 3463 178 
Q 3153 47 2828 -22 
Q 2503 -91 2169 -91 
Q 1331 -91 842 396 
Q 353 884 353 1716 
Q 353 2575 817 3079 
Q 1281 3584 2069 3584 
Q 2775 3584 3186 3129 
Q 3597 2675 3597 1894 
z
M 3022 2063 
Q 3016 2534 2758 2815 
Q 2500 3097 2075 3097 
Q 1594 3097 1305 2825 
Q 1016 2553 972 2059 
L 3022 2063 
z
" transform="scale(0.015625)"/>
       <path id="DejaVuSans-64" d="M 2906 2969 
L 2906 4863 
L 3481 4863 
L 3481 0 
L 2906 0 
L 2906 525 
Q 2725 213 2448 61 
Q 2172 -91 1784 -91 
Q 1150 -91 751 415 
Q 353 922 353 1747 
Q 353 2572 751 3078 
Q 1150 3584 1784 3584 
Q 2172 3584 2448 3432 
Q 2725 3281 2906 2969 
z
M 947 1747 
Q 947 1113 1208 752 
Q 1469 391 1925 391 
Q 2381 391 2643 752 
Q 2906 1113 2906 1747 
Q 2906 2381 2643 2742 
Q 2381 3103 1925 3103 
Q 1469 3103 1208 2742 
Q 947 2381 947 1747 
z
" transform="scale(0.015625)"/>
       <path id="DejaVuSans-20" transform="scale(0.015625)"/>
       <path id="DejaVuSans-4c" d="M 628 4666 
L 1259 4666 
L 1259 531 
L 3531 531 
L 3531 0 
L 628 0 
L 628 4666 
z
" transform="scale(0.015625)"/>
       <path id="DejaVuSans-73" d="M 2834 3397 
L 2834 2853 
Q 2591 2978 2328 3040 
Q 2066 3103 1784 3103 
Q 1356 3103 1142 2972 
Q 928 2841 928 2578 
Q 928 2378 1081 2264 
Q 1234 2150 1697 2047 
L 1894 2003 
Q 2506 1872 2764 1633 
Q 3022 1394 3022 966 
Q 3022 478 2636 193 
Q 2250 -91 1575 -91 
Q 1294 -91 989 -36 
Q 684 19 347 128 
L 347 722 
Q 666 556 975 473 
Q 1284 391 1588 391 
Q 1994 391 2212 530 
Q 2431 669 2431 922 
Q 2431 1156 2273 1281 
Q 2116 1406 1581 1522 
L 1381 1569 
Q 847 1681 609 1914 
Q 372 2147 372 2553 
Q 372 3047 722 3315 
Q 1072 3584 1716 3584 
Q 2034 3584 2315 3537 
Q 2597 3491 2834 3397 
z
" transform="scale(0.015625)"/>
      </defs>
      <use xlink:href="#DejaVuSans-4e"/>
      <use xlink:href="#DejaVuSans-6f" x="74.804688"/>
      <use xlink:href="#DejaVuSans-72" x="135.986328"/>
      <use xlink:href="#DejaVuSans-6d" x="175.349609"/>
      <use xlink:href="#DejaVuSans-61" x="272.761719"/>
      <use xlink:href="#DejaVuSans-6c" x="334.041016"/>
      <use xlink:href="#DejaVuSans-69" x="361.824219"/>
      <use xlink:href="#DejaVuSans-7a" x="389.607422"/>
      <use xlink:href="#DejaVuSans-65" x="442.097656"/>
      <use xlink:href="#DejaVuSans-64" x="503.621094"/>
      <use xlink:href="#DejaVuSans-20" x="567.097656"/>
      <use xlink:href="#DejaVuSans-4c" x="598.884766"/>
      <use xlink:href="#DejaVuSans-6f" x="652.847656"/>
      <use xlink:href="#DejaVuSans-73" x="714.029297"/>
      <use xlink:href="#DejaVuSans-73" x="766.128906"/>
     </g>
    </g>
   </g>
   <g id="line2d_11">
    <path d="M 70.85 92.152671 
L 72.68805 101.250167 
L 75.445125 113.456125 
L 78.2022 124.378158 
L 80.04025 130.807901 
L 83.71635 142.136919 
L 85.5544 147.493808 
L 88.311475 154.547539 
L 90.149525 158.85966 
L 91.06855 160.655795 
L 91.987575 162.063746 
L 92.9066 163.173894 
L 93.825625 163.977338 
L 94.74465 164.454781 
L 95.663675 164.689007 
L 99.339775 165.239657 
L 101.177825 165.785487 
L 103.9349 166.697099 
L 105.77295 167.010359 
L 112.206125 167.383655 
L 116.80125 167.984557 
L 119.558325 168.068954 
L 125.072475 168.085732 
L 140.6959 168.599991 
L 168.26665 169.034138 
L 197.67545 169.278977 
L 241.78865 169.403207 
L 253.735975 169.413496 
L 253.735975 169.413496 
" clip-path="url(#p17ad0426f0)" style="fill: none; stroke: #ff0000; stroke-width: 2; stroke-linecap: square"/>
   </g>
   <g id="patch_3">
    <path d="M 70.85 169.426667 
L 70.85 34.08 
" style="fill: none; stroke: #000000; stroke-width: 0.8; stroke-linejoin: miter; stroke-linecap: square"/>
   </g>
   <g id="patch_4">
    <path d="M 254.655 169.426667 
L 254.655 34.08 
" style="fill: none; stroke: #000000; stroke-width: 0.8; stroke-linejoin: miter; stroke-linecap: square"/>
   </g>
   <g id="patch_5">
    <path d="M 70.85 169.426667 
L 254.655 169.426667 
" style="fill: none; stroke: #000000; stroke-width: 0.8; stroke-linejoin: miter; stroke-linecap: square"/>
   </g>
   <g id="patch_6">
    <path d="M 70.85 34.08 
L 254.655 34.08 
" style="fill: none; stroke: #000000; stroke-width: 0.8; stroke-linejoin: miter; stroke-linecap: square"/>
   </g>
   <g id="text_12">
    <!-- S/R: All | All -->
    <g transform="translate(114.52075 28.08) scale(0.168 -0.168)">
     <defs>
      <path id="DejaVuSans-53" d="M 3425 4513 
L 3425 3897 
Q 3066 4069 2747 4153 
Q 2428 4238 2131 4238 
Q 1616 4238 1336 4038 
Q 1056 3838 1056 3469 
Q 1056 3159 1242 3001 
Q 1428 2844 1947 2747 
L 2328 2669 
Q 3034 2534 3370 2195 
Q 3706 1856 3706 1288 
Q 3706 609 3251 259 
Q 2797 -91 1919 -91 
Q 1588 -91 1214 -16 
Q 841 59 441 206 
L 441 856 
Q 825 641 1194 531 
Q 1563 422 1919 422 
Q 2459 422 2753 634 
Q 3047 847 3047 1241 
Q 3047 1584 2836 1778 
Q 2625 1972 2144 2069 
L 1759 2144 
Q 1053 2284 737 2584 
Q 422 2884 422 3419 
Q 422 4038 858 4394 
Q 1294 4750 2059 4750 
Q 2388 4750 2728 4690 
Q 3069 4631 3425 4513 
z
" transform="scale(0.015625)"/>
      <path id="DejaVuSans-2f" d="M 1625 4666 
L 2156 4666 
L 531 -594 
L 0 -594 
L 1625 4666 
z
" transform="scale(0.015625)"/>
      <path id="DejaVuSans-52" d="M 2841 2188 
Q 3044 2119 3236 1894 
Q 3428 1669 3622 1275 
L 4263 0 
L 3584 0 
L 2988 1197 
Q 2756 1666 2539 1819 
Q 2322 1972 1947 1972 
L 1259 1972 
L 1259 0 
L 628 0 
L 628 4666 
L 2053 4666 
Q 2853 4666 3247 4331 
Q 3641 3997 3641 3322 
Q 3641 2881 3436 2590 
Q 3231 2300 2841 2188 
z
M 1259 4147 
L 1259 2491 
L 2053 2491 
Q 2509 2491 2742 2702 
Q 2975 2913 2975 3322 
Q 2975 3731 2742 3939 
Q 2509 4147 2053 4147 
L 1259 4147 
z
" transform="scale(0.015625)"/>
      <path id="DejaVuSans-3a" d="M 750 794 
L 1409 794 
L 1409 0 
L 750 0 
L 750 794 
z
M 750 3309 
L 1409 3309 
L 1409 2516 
L 750 2516 
L 750 3309 
z
" transform="scale(0.015625)"/>
      <path id="DejaVuSans-41" d="M 2188 4044 
L 1331 1722 
L 3047 1722 
L 2188 4044 
z
M 1831 4666 
L 2547 4666 
L 4325 0 
L 3669 0 
L 3244 1197 
L 1141 1197 
L 716 0 
L 50 0 
L 1831 4666 
z
" transform="scale(0.015625)"/>
      <path id="DejaVuSans-7c" d="M 1344 4891 
L 1344 -1509 
L 813 -1509 
L 813 4891 
L 1344 4891 
z
" transform="scale(0.015625)"/>
     </defs>
     <use xlink:href="#DejaVuSans-53"/>
     <use xlink:href="#DejaVuSans-2f" x="63.476562"/>
     <use xlink:href="#DejaVuSans-52" x="97.167969"/>
     <use xlink:href="#DejaVuSans-3a" x="163.525391"/>
     <use xlink:href="#DejaVuSans-20" x="197.216797"/>
     <use xlink:href="#DejaVuSans-41" x="229.003906"/>
     <use xlink:href="#DejaVuSans-6c" x="297.412109"/>
     <use xlink:href="#DejaVuSans-6c" x="325.195312"/>
     <use xlink:href="#DejaVuSans-20" x="352.978516"/>
     <use xlink:href="#DejaVuSans-7c" x="384.765625"/>
     <use xlink:href="#DejaVuSans-20" x="418.457031"/>
     <use xlink:href="#DejaVuSans-41" x="450.244141"/>
     <use xlink:href="#DejaVuSans-6c" x="518.652344"/>
     <use xlink:href="#DejaVuSans-6c" x="546.435547"/>
    </g>
   </g>
   <g id="legend_1">
    <g id="patch_7">
     <path d="M 123.203125 74.731125 
L 202.301875 74.731125 
Q 204.701875 74.731125 204.701875 72.331125 
L 204.701875 42.48 
Q 204.701875 40.08 202.301875 40.08 
L 123.203125 40.08 
Q 120.803125 40.08 120.803125 42.48 
L 120.803125 72.331125 
Q 120.803125 74.731125 123.203125 74.731125 
z
" style="fill: #ffffff; opacity: 0.8; stroke: #cccccc; stroke-linejoin: miter"/>
    </g>
    <g id="line2d_12">
     <path d="M 125.603125 57.764625 
L 137.603125 57.764625 
L 149.603125 57.764625 
" style="fill: none; stroke: #ff0000; stroke-width: 2; stroke-linecap: square"/>
    </g>
    <g id="text_13">
     <!-- S/R =  -->
     <g transform="translate(159.203125 53.998125) scale(0.12 -0.12)">
      <defs>
       <path id="DejaVuSans-3d" d="M 678 2906 
L 4684 2906 
L 4684 2381 
L 678 2381 
L 678 2906 
z
M 678 1631 
L 4684 1631 
L 4684 1100 
L 678 1100 
L 678 1631 
z
" transform="scale(0.015625)"/>
      </defs>
      <use xlink:href="#DejaVuSans-53"/>
      <use xlink:href="#DejaVuSans-2f" x="63.476562"/>
      <use xlink:href="#DejaVuSans-52" x="97.167969"/>
      <use xlink:href="#DejaVuSans-20" x="166.650391"/>
      <use xlink:href="#DejaVuSans-3d" x="198.4375"/>
      <use xlink:href="#DejaVuSans-20" x="282.226562"/>
     </g>
     <!-- Rec:All -->
     <g transform="translate(159.203125 67.4355) scale(0.12 -0.12)">
      <defs>
       <path id="DejaVuSans-63" d="M 3122 3366 
L 3122 2828 
Q 2878 2963 2633 3030 
Q 2388 3097 2138 3097 
Q 1578 3097 1268 2742 
Q 959 2388 959 1747 
Q 959 1106 1268 751 
Q 1578 397 2138 397 
Q 2388 397 2633 464 
Q 2878 531 3122 666 
L 3122 134 
Q 2881 22 2623 -34 
Q 2366 -91 2075 -91 
Q 1284 -91 818 406 
Q 353 903 353 1747 
Q 353 2603 823 3093 
Q 1294 3584 2113 3584 
Q 2378 3584 2631 3529 
Q 2884 3475 3122 3366 
z
" transform="scale(0.015625)"/>
      </defs>
      <use xlink:href="#DejaVuSans-52"/>
      <use xlink:href="#DejaVuSans-65" x="64.982422"/>
      <use xlink:href="#DejaVuSans-63" x="126.505859"/>
      <use xlink:href="#DejaVuSans-3a" x="181.486328"/>
      <use xlink:href="#DejaVuSans-41" x="215.177734"/>
      <use xlink:href="#DejaVuSans-6c" x="283.585938"/>
      <use xlink:href="#DejaVuSans-6c" x="311.369141"/>
     </g>
    </g>
   </g>
  </g>
  <g id="axes_3">
   <g id="patch_8">
    <path d="M 327.8 345.973333 
L 511.605 345.973333 
L 511.605 210.626667 
L 327.8 210.626667 
z
" style="fill: #ffffff"/>
   </g>
   <g id="matplotlib.axis_3">
    <g id="xtick_6">
     <g id="line2d_13">
      <g>
       <use xlink:href="#m7d82a26ffc" x="327.8" y="345.973333" style="stroke: #000000; stroke-width: 0.8"/>
      </g>
     </g>
     <g id="text_14">
      <!-- 0 -->
      <g transform="translate(323.34625 363.611146) scale(0.14 -0.14)">
       <use xlink:href="#DejaVuSans-30"/>
      </g>
     </g>
    </g>
    <g id="xtick_7">
     <g id="line2d_14">
      <g>
       <use xlink:href="#m7d82a26ffc" x="373.75125" y="345.973333" style="stroke: #000000; stroke-width: 0.8"/>
      </g>
     </g>
     <g id="text_15">
      <!-- 50 -->
      <g transform="translate(364.84375 363.611146) scale(0.14 -0.14)">
       <use xlink:href="#DejaVuSans-35"/>
       <use xlink:href="#DejaVuSans-30" x="63.623047"/>
      </g>
     </g>
    </g>
    <g id="xtick_8">
     <g id="line2d_15">
      <g>
       <use xlink:href="#m7d82a26ffc" x="419.7025" y="345.973333" style="stroke: #000000; stroke-width: 0.8"/>
      </g>
     </g>
     <g id="text_16">
      <!-- 100 -->
      <g transform="translate(406.34125 363.611146) scale(0.14 -0.14)">
       <use xlink:href="#DejaVuSans-31"/>
       <use xlink:href="#DejaVuSans-30" x="63.623047"/>
       <use xlink:href="#DejaVuSans-30" x="127.246094"/>
      </g>
     </g>
    </g>
    <g id="xtick_9">
     <g id="line2d_16">
      <g>
       <use xlink:href="#m7d82a26ffc" x="465.65375" y="345.973333" style="stroke: #000000; stroke-width: 0.8"/>
      </g>
     </g>
     <g id="text_17">
      <!-- 150 -->
      <g transform="translate(452.2925 363.611146) scale(0.14 -0.14)">
       <use xlink:href="#DejaVuSans-31"/>
       <use xlink:href="#DejaVuSans-35" x="63.623047"/>
       <use xlink:href="#DejaVuSans-30" x="127.246094"/>
      </g>
     </g>
    </g>
    <g id="xtick_10">
     <g id="line2d_17">
      <g>
       <use xlink:href="#m7d82a26ffc" x="511.605" y="345.973333" style="stroke: #000000; stroke-width: 0.8"/>
      </g>
     </g>
     <g id="text_18">
      <!-- 200 -->
      <g transform="translate(498.24375 363.611146) scale(0.14 -0.14)">
       <use xlink:href="#DejaVuSans-32"/>
       <use xlink:href="#DejaVuSans-30" x="63.623047"/>
       <use xlink:href="#DejaVuSans-30" x="127.246094"/>
      </g>
     </g>
    </g>
   </g>
   <g id="matplotlib.axis_4">
    <g id="ytick_6">
     <g id="line2d_18">
      <g>
       <use xlink:href="#mf16fa289fb" x="327.8" y="345.973333" style="stroke: #000000; stroke-width: 0.8"/>
      </g>
     </g>
     <g id="text_19">
      <!-- 0 -->
      <g transform="translate(311.8925 351.29224) scale(0.14 -0.14)">
       <use xlink:href="#DejaVuSans-30"/>
      </g>
     </g>
    </g>
    <g id="ytick_7">
     <g id="line2d_19">
      <g>
       <use xlink:href="#mf16fa289fb" x="327.8" y="312.136667" style="stroke: #000000; stroke-width: 0.8"/>
      </g>
     </g>
     <g id="text_20">
      <!-- 5 -->
      <g transform="translate(311.8925 317.455573) scale(0.14 -0.14)">
       <use xlink:href="#DejaVuSans-35"/>
      </g>
     </g>
    </g>
    <g id="ytick_8">
     <g id="line2d_20">
      <g>
       <use xlink:href="#mf16fa289fb" x="327.8" y="278.3" style="stroke: #000000; stroke-width: 0.8"/>
      </g>
     </g>
     <g id="text_21">
      <!-- 10 -->
      <g transform="translate(302.985 283.618906) scale(0.14 -0.14)">
       <use xlink:href="#DejaVuSans-31"/>
       <use xlink:href="#DejaVuSans-30" x="63.623047"/>
      </g>
     </g>
    </g>
    <g id="ytick_9">
     <g id="line2d_21">
      <g>
       <use xlink:href="#mf16fa289fb" x="327.8" y="244.463333" style="stroke: #000000; stroke-width: 0.8"/>
      </g>
     </g>
     <g id="text_22">
      <!-- 15 -->
      <g transform="translate(302.985 249.78224) scale(0.14 -0.14)">
       <use xlink:href="#DejaVuSans-31"/>
       <use xlink:href="#DejaVuSans-35" x="63.623047"/>
      </g>
     </g>
    </g>
    <g id="ytick_10">
     <g id="line2d_22">
      <g>
       <use xlink:href="#mf16fa289fb" x="327.8" y="210.626667" style="stroke: #000000; stroke-width: 0.8"/>
      </g>
     </g>
     <g id="text_23">
      <!-- 20 -->
      <g transform="translate(302.985 215.945573) scale(0.14 -0.14)">
       <use xlink:href="#DejaVuSans-32"/>
       <use xlink:href="#DejaVuSans-30" x="63.623047"/>
      </g>
     </g>
    </g>
    <g id="text_24">
     <!-- Mean $g_{Na}$ GT error -->
     <g transform="translate(296.045 342.28) rotate(-90) scale(0.14 -0.14)">
      <defs>
       <path id="DejaVuSans-4d" d="M 628 4666 
L 1569 4666 
L 2759 1491 
L 3956 4666 
L 4897 4666 
L 4897 0 
L 4281 0 
L 4281 4097 
L 3078 897 
L 2444 897 
L 1241 4097 
L 1241 0 
L 628 0 
L 628 4666 
z
" transform="scale(0.015625)"/>
       <path id="DejaVuSans-6e" d="M 3513 2113 
L 3513 0 
L 2938 0 
L 2938 2094 
Q 2938 2591 2744 2837 
Q 2550 3084 2163 3084 
Q 1697 3084 1428 2787 
Q 1159 2491 1159 1978 
L 1159 0 
L 581 0 
L 581 3500 
L 1159 3500 
L 1159 2956 
Q 1366 3272 1645 3428 
Q 1925 3584 2291 3584 
Q 2894 3584 3203 3211 
Q 3513 2838 3513 2113 
z
" transform="scale(0.015625)"/>
       <path id="DejaVuSans-Oblique-67" d="M 3816 3500 
L 3219 434 
Q 3047 -456 2561 -893 
Q 2075 -1331 1253 -1331 
Q 950 -1331 690 -1286 
Q 431 -1241 206 -1147 
L 313 -588 
Q 525 -725 762 -790 
Q 1000 -856 1269 -856 
Q 1816 -856 2167 -557 
Q 2519 -259 2631 300 
L 2681 563 
Q 2441 288 2122 144 
Q 1803 0 1434 0 
Q 903 0 598 351 
Q 294 703 294 1319 
Q 294 1803 478 2267 
Q 663 2731 997 3091 
Q 1219 3328 1514 3456 
Q 1809 3584 2131 3584 
Q 2484 3584 2746 3420 
Q 3009 3256 3138 2956 
L 3238 3500 
L 3816 3500 
z
M 2950 2216 
Q 2950 2641 2750 2872 
Q 2550 3103 2181 3103 
Q 1953 3103 1747 3012 
Q 1541 2922 1394 2759 
Q 1156 2491 1023 2127 
Q 891 1763 891 1375 
Q 891 944 1092 712 
Q 1294 481 1672 481 
Q 2219 481 2584 976 
Q 2950 1472 2950 2216 
z
" transform="scale(0.015625)"/>
       <path id="DejaVuSans-Oblique-4e" d="M 1081 4666 
L 1931 4666 
L 3219 666 
L 4000 4666 
L 4616 4666 
L 3706 0 
L 2853 0 
L 1569 4025 
L 788 0 
L 172 0 
L 1081 4666 
z
" transform="scale(0.015625)"/>
       <path id="DejaVuSans-Oblique-61" d="M 3438 1997 
L 3047 0 
L 2472 0 
L 2578 531 
Q 2325 219 2001 64 
Q 1678 -91 1281 -91 
Q 834 -91 548 182 
Q 263 456 263 884 
Q 263 1497 752 1853 
Q 1241 2209 2100 2209 
L 2900 2209 
L 2931 2363 
Q 2938 2388 2941 2417 
Q 2944 2447 2944 2509 
Q 2944 2788 2717 2942 
Q 2491 3097 2081 3097 
Q 1800 3097 1504 3025 
Q 1209 2953 897 2809 
L 997 3341 
Q 1322 3463 1633 3523 
Q 1944 3584 2234 3584 
Q 2853 3584 3176 3315 
Q 3500 3047 3500 2534 
Q 3500 2431 3484 2292 
Q 3469 2153 3438 1997 
z
M 2816 1759 
L 2241 1759 
Q 1534 1759 1195 1570 
Q 856 1381 856 984 
Q 856 709 1029 553 
Q 1203 397 1509 397 
Q 1978 397 2328 733 
Q 2678 1069 2791 1631 
L 2816 1759 
z
" transform="scale(0.015625)"/>
       <path id="DejaVuSans-47" d="M 3809 666 
L 3809 1919 
L 2778 1919 
L 2778 2438 
L 4434 2438 
L 4434 434 
Q 4069 175 3628 42 
Q 3188 -91 2688 -91 
Q 1594 -91 976 548 
Q 359 1188 359 2328 
Q 359 3472 976 4111 
Q 1594 4750 2688 4750 
Q 3144 4750 3555 4637 
Q 3966 4525 4313 4306 
L 4313 3634 
Q 3963 3931 3569 4081 
Q 3175 4231 2741 4231 
Q 1884 4231 1454 3753 
Q 1025 3275 1025 2328 
Q 1025 1384 1454 906 
Q 1884 428 2741 428 
Q 3075 428 3337 486 
Q 3600 544 3809 666 
z
" transform="scale(0.015625)"/>
       <path id="DejaVuSans-54" d="M -19 4666 
L 3928 4666 
L 3928 4134 
L 2272 4134 
L 2272 0 
L 1638 0 
L 1638 4134 
L -19 4134 
L -19 4666 
z
" transform="scale(0.015625)"/>
      </defs>
      <use xlink:href="#DejaVuSans-4d" transform="translate(0 0.78125)"/>
      <use xlink:href="#DejaVuSans-65" transform="translate(86.279297 0.78125)"/>
      <use xlink:href="#DejaVuSans-61" transform="translate(147.802734 0.78125)"/>
      <use xlink:href="#DejaVuSans-6e" transform="translate(209.082031 0.78125)"/>
      <use xlink:href="#DejaVuSans-20" transform="translate(272.460938 0.78125)"/>
      <use xlink:href="#DejaVuSans-Oblique-67" transform="translate(304.248047 0.78125)"/>
      <use xlink:href="#DejaVuSans-Oblique-4e" transform="translate(367.724609 -15.625) scale(0.7)"/>
      <use xlink:href="#DejaVuSans-Oblique-61" transform="translate(420.087891 -15.625) scale(0.7)"/>
      <use xlink:href="#DejaVuSans-20" transform="translate(465.717773 0.78125)"/>
      <use xlink:href="#DejaVuSans-47" transform="translate(497.504883 0.78125)"/>
      <use xlink:href="#DejaVuSans-54" transform="translate(574.995117 0.78125)"/>
      <use xlink:href="#DejaVuSans-20" transform="translate(636.079102 0.78125)"/>
      <use xlink:href="#DejaVuSans-65" transform="translate(667.866211 0.78125)"/>
      <use xlink:href="#DejaVuSans-72" transform="translate(729.389648 0.78125)"/>
      <use xlink:href="#DejaVuSans-72" transform="translate(770.50293 0.78125)"/>
      <use xlink:href="#DejaVuSans-6f" transform="translate(811.616211 0.78125)"/>
      <use xlink:href="#DejaVuSans-72" transform="translate(872.797852 0.78125)"/>
     </g>
    </g>
   </g>
   <g id="line2d_23">
    <path d="M 327.8 233.768195 
L 328.719025 235.062136 
L 330.557075 238.648694 
L 333.31415 244.870825 
L 336.071225 251.810433 
L 337.909275 256.989314 
L 340.66635 265.511582 
L 350.775625 297.892265 
L 352.613675 303.126099 
L 354.451725 307.764623 
L 356.289775 311.593242 
L 357.2088 312.971604 
L 359.04685 315.237708 
L 360.8849 317.187755 
L 362.72295 318.871689 
L 364.561 320.315385 
L 366.39905 321.538498 
L 368.2371 322.562842 
L 370.994175 323.799396 
L 371.9132 324.141716 
L 374.670275 324.465047 
L 377.42735 325.070795 
L 382.022475 326.317658 
L 386.6176 327.826753 
L 391.212725 329.29845 
L 393.9698 329.934159 
L 398.564925 330.751834 
L 401.322 331.088935 
L 406.83615 331.379572 
L 411.431275 331.5823 
L 415.107375 332.036306 
L 421.54055 333.149583 
L 443.59715 337.335289 
L 452.7874 338.616753 
L 463.8157 339.986291 
L 474.844 341.141028 
L 487.71035 342.287796 
L 499.657675 343.173589 
L 510.685975 343.820805 
L 510.685975 343.820805 
" clip-path="url(#p9745bb9ef0)" style="fill: none; stroke: #ff0000; stroke-width: 2; stroke-linecap: square"/>
   </g>
   <g id="patch_9">
    <path d="M 327.8 345.973333 
L 327.8 210.626667 
" style="fill: none; stroke: #000000; stroke-width: 0.8; stroke-linejoin: miter; stroke-linecap: square"/>
   </g>
   <g id="patch_10">
    <path d="M 511.605 345.973333 
L 511.605 210.626667 
" style="fill: none; stroke: #000000; stroke-width: 0.8; stroke-linejoin: miter; stroke-linecap: square"/>
   </g>
   <g id="patch_11">
    <path d="M 327.8 345.973333 
L 511.605 345.973333 
" style="fill: none; stroke: #000000; stroke-width: 0.8; stroke-linejoin: miter; stroke-linecap: square"/>
   </g>
   <g id="patch_12">
    <path d="M 327.8 210.626667 
L 511.605 210.626667 
" style="fill: none; stroke: #000000; stroke-width: 0.8; stroke-linejoin: miter; stroke-linecap: square"/>
   </g>
  </g>
  <g id="axes_4">
   <g id="patch_13">
    <path d="M 70.85 345.973333 
L 254.655 345.973333 
L 254.655 210.626667 
L 70.85 210.626667 
z
" style="fill: #ffffff"/>
   </g>
   <g id="matplotlib.axis_5">
    <g id="xtick_11">
     <g id="line2d_24">
      <g>
       <use xlink:href="#m7d82a26ffc" x="70.85" y="345.973333" style="stroke: #000000; stroke-width: 0.8"/>
      </g>
     </g>
     <g id="text_25">
      <!-- 0 -->
      <g transform="translate(66.39625 363.611146) scale(0.14 -0.14)">
       <use xlink:href="#DejaVuSans-30"/>
      </g>
     </g>
    </g>
    <g id="xtick_12">
     <g id="line2d_25">
      <g>
       <use xlink:href="#m7d82a26ffc" x="116.80125" y="345.973333" style="stroke: #000000; stroke-width: 0.8"/>
      </g>
     </g>
     <g id="text_26">
      <!-- 50 -->
      <g transform="translate(107.89375 363.611146) scale(0.14 -0.14)">
       <use xlink:href="#DejaVuSans-35"/>
       <use xlink:href="#DejaVuSans-30" x="63.623047"/>
      </g>
     </g>
    </g>
    <g id="xtick_13">
     <g id="line2d_26">
      <g>
       <use xlink:href="#m7d82a26ffc" x="162.7525" y="345.973333" style="stroke: #000000; stroke-width: 0.8"/>
      </g>
     </g>
     <g id="text_27">
      <!-- 100 -->
      <g transform="translate(149.39125 363.611146) scale(0.14 -0.14)">
       <use xlink:href="#DejaVuSans-31"/>
       <use xlink:href="#DejaVuSans-30" x="63.623047"/>
       <use xlink:href="#DejaVuSans-30" x="127.246094"/>
      </g>
     </g>
    </g>
    <g id="xtick_14">
     <g id="line2d_27">
      <g>
       <use xlink:href="#m7d82a26ffc" x="208.70375" y="345.973333" style="stroke: #000000; stroke-width: 0.8"/>
      </g>
     </g>
     <g id="text_28">
      <!-- 150 -->
      <g transform="translate(195.3425 363.611146) scale(0.14 -0.14)">
       <use xlink:href="#DejaVuSans-31"/>
       <use xlink:href="#DejaVuSans-35" x="63.623047"/>
       <use xlink:href="#DejaVuSans-30" x="127.246094"/>
      </g>
     </g>
    </g>
    <g id="xtick_15">
     <g id="line2d_28">
      <g>
       <use xlink:href="#m7d82a26ffc" x="254.655" y="345.973333" style="stroke: #000000; stroke-width: 0.8"/>
      </g>
     </g>
     <g id="text_29">
      <!-- 200 -->
      <g transform="translate(241.29375 363.611146) scale(0.14 -0.14)">
       <use xlink:href="#DejaVuSans-32"/>
       <use xlink:href="#DejaVuSans-30" x="63.623047"/>
       <use xlink:href="#DejaVuSans-30" x="127.246094"/>
      </g>
     </g>
    </g>
   </g>
   <g id="matplotlib.axis_6">
    <g id="ytick_11">
     <g id="line2d_29">
      <g>
       <use xlink:href="#mf16fa289fb" x="70.85" y="314.739487" style="stroke: #000000; stroke-width: 0.8"/>
      </g>
     </g>
     <g id="text_30">
      <!-- 80 -->
      <g transform="translate(46.035 320.058393) scale(0.14 -0.14)">
       <defs>
        <path id="DejaVuSans-38" d="M 2034 2216 
Q 1584 2216 1326 1975 
Q 1069 1734 1069 1313 
Q 1069 891 1326 650 
Q 1584 409 2034 409 
Q 2484 409 2743 651 
Q 3003 894 3003 1313 
Q 3003 1734 2745 1975 
Q 2488 2216 2034 2216 
z
M 1403 2484 
Q 997 2584 770 2862 
Q 544 3141 544 3541 
Q 544 4100 942 4425 
Q 1341 4750 2034 4750 
Q 2731 4750 3128 4425 
Q 3525 4100 3525 3541 
Q 3525 3141 3298 2862 
Q 3072 2584 2669 2484 
Q 3125 2378 3379 2068 
Q 3634 1759 3634 1313 
Q 3634 634 3220 271 
Q 2806 -91 2034 -91 
Q 1263 -91 848 271 
Q 434 634 434 1313 
Q 434 1759 690 2068 
Q 947 2378 1403 2484 
z
M 1172 3481 
Q 1172 3119 1398 2916 
Q 1625 2713 2034 2713 
Q 2441 2713 2670 2916 
Q 2900 3119 2900 3481 
Q 2900 3844 2670 4047 
Q 2441 4250 2034 4250 
Q 1625 4250 1398 4047 
Q 1172 3844 1172 3481 
z
" transform="scale(0.015625)"/>
       </defs>
       <use xlink:href="#DejaVuSans-38"/>
       <use xlink:href="#DejaVuSans-30" x="63.623047"/>
      </g>
     </g>
    </g>
    <g id="ytick_12">
     <g id="line2d_30">
      <g>
       <use xlink:href="#mf16fa289fb" x="70.85" y="273.094359" style="stroke: #000000; stroke-width: 0.8"/>
      </g>
     </g>
     <g id="text_31">
      <!-- 100 -->
      <g transform="translate(37.1275 278.413265) scale(0.14 -0.14)">
       <use xlink:href="#DejaVuSans-31"/>
       <use xlink:href="#DejaVuSans-30" x="63.623047"/>
       <use xlink:href="#DejaVuSans-30" x="127.246094"/>
      </g>
     </g>
    </g>
    <g id="ytick_13">
     <g id="line2d_31">
      <g>
       <use xlink:href="#mf16fa289fb" x="70.85" y="231.449231" style="stroke: #000000; stroke-width: 0.8"/>
      </g>
     </g>
     <g id="text_32">
      <!-- 120 -->
      <g transform="translate(37.1275 236.768137) scale(0.14 -0.14)">
       <use xlink:href="#DejaVuSans-31"/>
       <use xlink:href="#DejaVuSans-32" x="63.623047"/>
       <use xlink:href="#DejaVuSans-30" x="127.246094"/>
      </g>
     </g>
    </g>
    <g id="text_33">
     <!-- $g_{Na}$ Values -->
     <g transform="translate(30.1875 315.26) rotate(-90) scale(0.14 -0.14)">
      <defs>
       <path id="DejaVuSans-56" d="M 1831 0 
L 50 4666 
L 709 4666 
L 2188 738 
L 3669 4666 
L 4325 4666 
L 2547 0 
L 1831 0 
z
" transform="scale(0.015625)"/>
       <path id="DejaVuSans-75" d="M 544 1381 
L 544 3500 
L 1119 3500 
L 1119 1403 
Q 1119 906 1312 657 
Q 1506 409 1894 409 
Q 2359 409 2629 706 
Q 2900 1003 2900 1516 
L 2900 3500 
L 3475 3500 
L 3475 0 
L 2900 0 
L 2900 538 
Q 2691 219 2414 64 
Q 2138 -91 1772 -91 
Q 1169 -91 856 284 
Q 544 659 544 1381 
z
M 1991 3584 
L 1991 3584 
z
" transform="scale(0.015625)"/>
      </defs>
      <use xlink:href="#DejaVuSans-Oblique-67" transform="translate(0 0.015625)"/>
      <use xlink:href="#DejaVuSans-Oblique-4e" transform="translate(63.476562 -16.390625) scale(0.7)"/>
      <use xlink:href="#DejaVuSans-Oblique-61" transform="translate(115.839844 -16.390625) scale(0.7)"/>
      <use xlink:href="#DejaVuSans-20" transform="translate(161.469727 0.015625)"/>
      <use xlink:href="#DejaVuSans-56" transform="translate(193.256836 0.015625)"/>
      <use xlink:href="#DejaVuSans-61" transform="translate(261.665039 0.015625)"/>
      <use xlink:href="#DejaVuSans-6c" transform="translate(322.944336 0.015625)"/>
      <use xlink:href="#DejaVuSans-75" transform="translate(350.727539 0.015625)"/>
      <use xlink:href="#DejaVuSans-65" transform="translate(414.106445 0.015625)"/>
      <use xlink:href="#DejaVuSans-73" transform="translate(475.629883 0.015625)"/>
     </g>
    </g>
   </g>
   <g id="line2d_32">
    <path d="M 70.85 272.053231 
L 83.71635 257.318318 
L 90.149525 249.526966 
L 92.9066 246.483967 
L 95.663675 243.798029 
L 97.501725 242.327333 
L 99.339775 241.208823 
L 101.177825 240.394266 
L 107.611 237.953851 
L 114.044175 234.871581 
L 115.882225 234.345186 
L 117.720275 234.058358 
L 120.47735 233.921465 
L 125.9915 233.971841 
L 130.586625 234.278495 
L 139.776875 235.049476 
L 144.372 235.570263 
L 148.0481 235.773116 
L 155.4003 235.940621 
L 164.59055 235.840791 
L 178.375925 235.375289 
L 190.32325 235.161221 
L 233.517425 234.867387 
L 253.735975 234.76546 
L 253.735975 234.76546 
" clip-path="url(#pb88d1953b7)" style="fill: none; stroke: #1f77b4; stroke-width: 2; stroke-linecap: square"/>
   </g>
   <g id="line2d_33">
    <path d="M 70.85 234.570693 
L 254.655 234.570693 
" clip-path="url(#pb88d1953b7)" style="fill: none; stroke-dasharray: 5.55,2.4; stroke-dashoffset: 0; stroke: #808080; stroke-opacity: 0.2; stroke-width: 1.5"/>
   </g>
   <g id="line2d_34">
    <path d="M 70.85 274.135487 
L 80.959275 285.448685 
L 86.473425 291.242344 
L 91.06855 295.783189 
L 94.74465 299.106821 
L 98.42075 302.070881 
L 102.09685 304.683726 
L 104.853925 306.397895 
L 107.611 307.874564 
L 110.368075 309.100768 
L 113.12515 310.088328 
L 115.882225 310.863645 
L 118.6393 311.444991 
L 121.396375 311.844644 
L 125.072475 312.147787 
L 130.586625 312.334976 
L 147.129075 312.653497 
L 153.56225 313.095043 
L 164.59055 314.121413 
L 184.8091 316.048491 
L 197.67545 317.011427 
L 215.136925 318.066741 
L 232.5984 318.918917 
L 250.9789 319.587193 
L 253.735975 319.669309 
L 253.735975 319.669309 
" clip-path="url(#pb88d1953b7)" style="fill: none; stroke: #ff7f0e; stroke-width: 2; stroke-linecap: square"/>
   </g>
   <g id="line2d_35">
    <path d="M 70.85 320.906284 
L 254.655 320.906284 
" clip-path="url(#pb88d1953b7)" style="fill: none; stroke-dasharray: 5.55,2.4; stroke-dashoffset: 0; stroke: #808080; stroke-opacity: 0.2; stroke-width: 1.5"/>
   </g>
   <g id="line2d_36">
    <path d="M 70.85 274.135487 
L 71.769025 274.862892 
L 72.68805 274.836902 
L 73.607075 274.368381 
L 75.445125 272.888647 
L 78.2022 270.118018 
L 81.8783 265.976207 
L 87.39245 259.620632 
L 90.149525 256.74042 
L 93.825625 253.293558 
L 96.5827 250.942695 
L 99.339775 248.910576 
L 101.177825 247.795862 
L 103.9349 246.448905 
L 107.611 245.014431 
L 118.6393 241.051659 
L 122.3154 240.005225 
L 125.072475 239.456129 
L 127.82955 239.214005 
L 132.424675 239.220121 
L 137.938825 239.121483 
L 143.452975 239.06561 
L 148.0481 239.267367 
L 157.23835 239.889191 
L 166.4286 239.937184 
L 175.61885 239.90271 
L 206.8657 239.136813 
L 241.78865 238.78582 
L 253.735975 238.697126 
L 253.735975 238.697126 
" clip-path="url(#pb88d1953b7)" style="fill: none; stroke: #2ca02c; stroke-width: 2; stroke-linecap: square"/>
   </g>
   <g id="line2d_37">
    <path d="M 70.85 238.42145 
L 254.655 238.42145 
" clip-path="url(#pb88d1953b7)" style="fill: none; stroke-dasharray: 5.55,2.4; stroke-dashoffset: 0; stroke: #808080; stroke-opacity: 0.2; stroke-width: 1.5"/>
   </g>
   <g id="line2d_38">
    <path d="M 70.85 272.053231 
L 73.607075 269.050138 
L 80.959275 261.507884 
L 86.473425 255.475723 
L 89.2305 252.825689 
L 94.74465 248.057605 
L 96.5827 246.62186 
L 98.42075 245.487638 
L 100.2588 244.776056 
L 102.09685 244.459362 
L 103.9349 244.426715 
L 108.530025 244.535314 
L 111.2871 244.245722 
L 114.9632 243.813629 
L 117.720275 243.737645 
L 125.072475 243.919559 
L 128.748575 244.287154 
L 132.424675 244.644072 
L 136.100775 244.693431 
L 139.776875 244.765873 
L 156.319325 245.525161 
L 169.185675 245.364026 
L 184.8091 245.105539 
L 208.70375 245.067841 
L 253.735975 245.005185 
L 253.735975 245.005185 
" clip-path="url(#pb88d1953b7)" style="fill: none; stroke: #d62728; stroke-width: 2; stroke-linecap: square"/>
   </g>
   <g id="line2d_39">
    <path d="M 70.85 244.976796 
L 254.655 244.976796 
" clip-path="url(#pb88d1953b7)" style="fill: none; stroke-dasharray: 5.55,2.4; stroke-dashoffset: 0; stroke: #808080; stroke-opacity: 0.2; stroke-width: 1.5"/>
   </g>
   <g id="line2d_40">
    <path d="M 70.85 274.135487 
L 75.445125 279.184838 
L 77.283175 280.959678 
L 79.121225 282.312083 
L 80.04025 282.757378 
L 80.959275 283.031179 
L 81.8783 283.140493 
L 82.797325 283.099919 
L 83.71635 282.922072 
L 85.5544 282.206566 
L 87.39245 281.099684 
L 89.2305 279.71271 
L 91.06855 278.107584 
L 93.825625 275.380024 
L 99.339775 269.631292 
L 101.177825 268.00607 
L 103.015875 266.685962 
L 104.853925 265.741629 
L 106.691975 265.213662 
L 108.530025 265.09102 
L 110.368075 265.31319 
L 112.206125 265.794293 
L 115.882225 267.13221 
L 118.6393 268.035285 
L 120.47735 268.405136 
L 122.3154 268.525697 
L 124.15345 268.403213 
L 126.910525 267.88095 
L 131.50565 266.61889 
L 135.18175 265.656526 
L 138.85785 264.956176 
L 142.53395 264.513249 
L 148.0481 264.093833 
L 153.56225 263.910917 
L 162.7525 263.663313 
L 169.185675 263.190773 
L 176.537875 262.653973 
L 184.8091 262.313401 
L 232.5984 260.777652 
L 253.735975 260.360841 
L 253.735975 260.360841 
" clip-path="url(#pb88d1953b7)" style="fill: none; stroke: #9467bd; stroke-width: 2; stroke-linecap: square"/>
   </g>
   <g id="line2d_41">
    <path d="M 70.85 259.710295 
L 254.655 259.710295 
" clip-path="url(#pb88d1953b7)" style="fill: none; stroke-dasharray: 5.55,2.4; stroke-dashoffset: 0; stroke: #808080; stroke-opacity: 0.2; stroke-width: 1.5"/>
   </g>
   <g id="line2d_42">
    <path d="M 70.85 274.135487 
L 85.5544 290.634595 
L 91.06855 296.491863 
L 92.9066 298.23269 
L 94.74465 299.70607 
L 96.5827 300.785405 
L 98.42075 301.450551 
L 100.2588 301.756713 
L 102.09685 301.779811 
L 104.853925 301.517321 
L 107.611 301.261551 
L 110.368075 301.268763 
L 113.12515 301.572828 
L 116.80125 302.284711 
L 121.396375 303.147738 
L 125.072475 303.562054 
L 130.586625 304.175839 
L 134.262725 304.8461 
L 146.21005 307.335286 
L 162.7525 309.737192 
L 171.023725 310.947303 
L 188.4852 313.235081 
L 205.946675 315.093165 
L 219.73205 316.272918 
L 232.5984 317.156247 
L 246.383775 317.903461 
L 253.735975 318.226892 
L 253.735975 318.226892 
" clip-path="url(#pb88d1953b7)" style="fill: none; stroke: #8c564b; stroke-width: 2; stroke-linecap: square"/>
   </g>
   <g id="line2d_43">
    <path d="M 70.85 319.814447 
L 254.655 319.814447 
" clip-path="url(#pb88d1953b7)" style="fill: none; stroke-dasharray: 5.55,2.4; stroke-dashoffset: 0; stroke: #808080; stroke-opacity: 0.2; stroke-width: 1.5"/>
   </g>
   <g id="patch_14">
    <path d="M 70.85 345.973333 
L 70.85 210.626667 
" style="fill: none; stroke: #000000; stroke-width: 0.8; stroke-linejoin: miter; stroke-linecap: square"/>
   </g>
   <g id="patch_15">
    <path d="M 254.655 345.973333 
L 254.655 210.626667 
" style="fill: none; stroke: #000000; stroke-width: 0.8; stroke-linejoin: miter; stroke-linecap: square"/>
   </g>
   <g id="patch_16">
    <path d="M 70.85 345.973333 
L 254.655 345.973333 
" style="fill: none; stroke: #000000; stroke-width: 0.8; stroke-linejoin: miter; stroke-linecap: square"/>
   </g>
   <g id="patch_17">
    <path d="M 70.85 210.626667 
L 254.655 210.626667 
" style="fill: none; stroke: #000000; stroke-width: 0.8; stroke-linejoin: miter; stroke-linecap: square"/>
   </g>
  </g>
  <g id="axes_5">
   <g id="patch_18">
    <path d="M 327.8 522.52 
L 511.605 522.52 
L 511.605 387.173333 
L 327.8 387.173333 
z
" style="fill: #ffffff"/>
   </g>
   <g id="matplotlib.axis_7">
    <g id="xtick_16">
     <g id="line2d_44">
      <g>
       <use xlink:href="#m7d82a26ffc" x="327.8" y="522.52" style="stroke: #000000; stroke-width: 0.8"/>
      </g>
     </g>
     <g id="text_34">
      <!-- 0 -->
      <g transform="translate(323.34625 540.157813) scale(0.14 -0.14)">
       <use xlink:href="#DejaVuSans-30"/>
      </g>
     </g>
    </g>
    <g id="xtick_17">
     <g id="line2d_45">
      <g>
       <use xlink:href="#m7d82a26ffc" x="373.75125" y="522.52" style="stroke: #000000; stroke-width: 0.8"/>
      </g>
     </g>
     <g id="text_35">
      <!-- 50 -->
      <g transform="translate(364.84375 540.157813) scale(0.14 -0.14)">
       <use xlink:href="#DejaVuSans-35"/>
       <use xlink:href="#DejaVuSans-30" x="63.623047"/>
      </g>
     </g>
    </g>
    <g id="xtick_18">
     <g id="line2d_46">
      <g>
       <use xlink:href="#m7d82a26ffc" x="419.7025" y="522.52" style="stroke: #000000; stroke-width: 0.8"/>
      </g>
     </g>
     <g id="text_36">
      <!-- 100 -->
      <g transform="translate(406.34125 540.157813) scale(0.14 -0.14)">
       <use xlink:href="#DejaVuSans-31"/>
       <use xlink:href="#DejaVuSans-30" x="63.623047"/>
       <use xlink:href="#DejaVuSans-30" x="127.246094"/>
      </g>
     </g>
    </g>
    <g id="xtick_19">
     <g id="line2d_47">
      <g>
       <use xlink:href="#m7d82a26ffc" x="465.65375" y="522.52" style="stroke: #000000; stroke-width: 0.8"/>
      </g>
     </g>
     <g id="text_37">
      <!-- 150 -->
      <g transform="translate(452.2925 540.157813) scale(0.14 -0.14)">
       <use xlink:href="#DejaVuSans-31"/>
       <use xlink:href="#DejaVuSans-35" x="63.623047"/>
       <use xlink:href="#DejaVuSans-30" x="127.246094"/>
      </g>
     </g>
    </g>
    <g id="xtick_20">
     <g id="line2d_48">
      <g>
       <use xlink:href="#m7d82a26ffc" x="511.605" y="522.52" style="stroke: #000000; stroke-width: 0.8"/>
      </g>
     </g>
     <g id="text_38">
      <!-- 200 -->
      <g transform="translate(498.24375 540.157813) scale(0.14 -0.14)">
       <use xlink:href="#DejaVuSans-32"/>
       <use xlink:href="#DejaVuSans-30" x="63.623047"/>
       <use xlink:href="#DejaVuSans-30" x="127.246094"/>
      </g>
     </g>
    </g>
    <g id="text_39">
     <!-- Epochs -->
     <g transform="translate(394.620625 557.707188) scale(0.14 -0.14)">
      <defs>
       <path id="DejaVuSans-45" d="M 628 4666 
L 3578 4666 
L 3578 4134 
L 1259 4134 
L 1259 2753 
L 3481 2753 
L 3481 2222 
L 1259 2222 
L 1259 531 
L 3634 531 
L 3634 0 
L 628 0 
L 628 4666 
z
" transform="scale(0.015625)"/>
       <path id="DejaVuSans-70" d="M 1159 525 
L 1159 -1331 
L 581 -1331 
L 581 3500 
L 1159 3500 
L 1159 2969 
Q 1341 3281 1617 3432 
Q 1894 3584 2278 3584 
Q 2916 3584 3314 3078 
Q 3713 2572 3713 1747 
Q 3713 922 3314 415 
Q 2916 -91 2278 -91 
Q 1894 -91 1617 61 
Q 1341 213 1159 525 
z
M 3116 1747 
Q 3116 2381 2855 2742 
Q 2594 3103 2138 3103 
Q 1681 3103 1420 2742 
Q 1159 2381 1159 1747 
Q 1159 1113 1420 752 
Q 1681 391 2138 391 
Q 2594 391 2855 752 
Q 3116 1113 3116 1747 
z
" transform="scale(0.015625)"/>
       <path id="DejaVuSans-68" d="M 3513 2113 
L 3513 0 
L 2938 0 
L 2938 2094 
Q 2938 2591 2744 2837 
Q 2550 3084 2163 3084 
Q 1697 3084 1428 2787 
Q 1159 2491 1159 1978 
L 1159 0 
L 581 0 
L 581 4863 
L 1159 4863 
L 1159 2956 
Q 1366 3272 1645 3428 
Q 1925 3584 2291 3584 
Q 2894 3584 3203 3211 
Q 3513 2838 3513 2113 
z
" transform="scale(0.015625)"/>
      </defs>
      <use xlink:href="#DejaVuSans-45"/>
      <use xlink:href="#DejaVuSans-70" x="63.183594"/>
      <use xlink:href="#DejaVuSans-6f" x="126.660156"/>
      <use xlink:href="#DejaVuSans-63" x="187.841797"/>
      <use xlink:href="#DejaVuSans-68" x="242.822266"/>
      <use xlink:href="#DejaVuSans-73" x="306.201172"/>
     </g>
    </g>
   </g>
   <g id="matplotlib.axis_8">
    <g id="ytick_14">
     <g id="line2d_49">
      <g>
       <use xlink:href="#mf16fa289fb" x="327.8" y="522.52" style="stroke: #000000; stroke-width: 0.8"/>
      </g>
     </g>
     <g id="text_40">
      <!-- 0 -->
      <g transform="translate(311.8925 527.838906) scale(0.14 -0.14)">
       <use xlink:href="#DejaVuSans-30"/>
      </g>
     </g>
    </g>
    <g id="ytick_15">
     <g id="line2d_50">
      <g>
       <use xlink:href="#mf16fa289fb" x="327.8" y="488.683333" style="stroke: #000000; stroke-width: 0.8"/>
      </g>
     </g>
     <g id="text_41">
      <!-- 5 -->
      <g transform="translate(311.8925 494.00224) scale(0.14 -0.14)">
       <use xlink:href="#DejaVuSans-35"/>
      </g>
     </g>
    </g>
    <g id="ytick_16">
     <g id="line2d_51">
      <g>
       <use xlink:href="#mf16fa289fb" x="327.8" y="454.846667" style="stroke: #000000; stroke-width: 0.8"/>
      </g>
     </g>
     <g id="text_42">
      <!-- 10 -->
      <g transform="translate(302.985 460.165573) scale(0.14 -0.14)">
       <use xlink:href="#DejaVuSans-31"/>
       <use xlink:href="#DejaVuSans-30" x="63.623047"/>
      </g>
     </g>
    </g>
    <g id="ytick_17">
     <g id="line2d_52">
      <g>
       <use xlink:href="#mf16fa289fb" x="327.8" y="421.01" style="stroke: #000000; stroke-width: 0.8"/>
      </g>
     </g>
     <g id="text_43">
      <!-- 15 -->
      <g transform="translate(302.985 426.328906) scale(0.14 -0.14)">
       <use xlink:href="#DejaVuSans-31"/>
       <use xlink:href="#DejaVuSans-35" x="63.623047"/>
      </g>
     </g>
    </g>
    <g id="ytick_18">
     <g id="line2d_53">
      <g>
       <use xlink:href="#mf16fa289fb" x="327.8" y="387.173333" style="stroke: #000000; stroke-width: 0.8"/>
      </g>
     </g>
     <g id="text_44">
      <!-- 20 -->
      <g transform="translate(302.985 392.49224) scale(0.14 -0.14)">
       <use xlink:href="#DejaVuSans-32"/>
       <use xlink:href="#DejaVuSans-30" x="63.623047"/>
      </g>
     </g>
    </g>
    <g id="text_45">
     <!-- Mean $g_{K}$ GT error -->
     <g transform="translate(296.045 515.396667) rotate(-90) scale(0.14 -0.14)">
      <defs>
       <path id="DejaVuSans-Oblique-4b" d="M 1081 4666 
L 1716 4666 
L 1331 2700 
L 3781 4666 
L 4622 4666 
L 1850 2438 
L 3878 0 
L 3109 0 
L 1247 2272 
L 806 0 
L 172 0 
L 1081 4666 
z
" transform="scale(0.015625)"/>
      </defs>
      <use xlink:href="#DejaVuSans-4d" transform="translate(0 0.78125)"/>
      <use xlink:href="#DejaVuSans-65" transform="translate(86.279297 0.78125)"/>
      <use xlink:href="#DejaVuSans-61" transform="translate(147.802734 0.78125)"/>
      <use xlink:href="#DejaVuSans-6e" transform="translate(209.082031 0.78125)"/>
      <use xlink:href="#DejaVuSans-20" transform="translate(272.460938 0.78125)"/>
      <use xlink:href="#DejaVuSans-Oblique-67" transform="translate(304.248047 0.78125)"/>
      <use xlink:href="#DejaVuSans-Oblique-4b" transform="translate(367.724609 -15.625) scale(0.7)"/>
      <use xlink:href="#DejaVuSans-20" transform="translate(416.362305 0.78125)"/>
      <use xlink:href="#DejaVuSans-47" transform="translate(448.149414 0.78125)"/>
      <use xlink:href="#DejaVuSans-54" transform="translate(525.639648 0.78125)"/>
      <use xlink:href="#DejaVuSans-20" transform="translate(586.723633 0.78125)"/>
      <use xlink:href="#DejaVuSans-65" transform="translate(618.510742 0.78125)"/>
      <use xlink:href="#DejaVuSans-72" transform="translate(680.03418 0.78125)"/>
      <use xlink:href="#DejaVuSans-72" transform="translate(721.147461 0.78125)"/>
      <use xlink:href="#DejaVuSans-6f" transform="translate(762.260742 0.78125)"/>
      <use xlink:href="#DejaVuSans-72" transform="translate(823.442383 0.78125)"/>
     </g>
    </g>
   </g>
   <g id="line2d_54">
    <path d="M 327.8 472.564932 
L 329.63805 477.223855 
L 331.4761 482.492436 
L 336.071225 496.145582 
L 337.909275 500.614728 
L 338.8283 501.506949 
L 340.66635 502.776258 
L 348.01855 507.102374 
L 348.937575 507.201636 
L 350.775625 506.179104 
L 354.451725 503.798341 
L 355.37075 503.397528 
L 356.289775 503.145669 
L 357.2088 503.037852 
L 358.127825 503.06818 
L 359.04685 503.218482 
L 359.965875 503.048382 
L 361.803925 502.555856 
L 364.561 502.26513 
L 365.480025 502.412949 
L 367.318075 503.085757 
L 370.07515 504.59187 
L 372.832225 506.03123 
L 374.670275 506.780683 
L 376.508325 507.329618 
L 379.2654 507.778487 
L 382.9415 508.360493 
L 385.698575 509.131476 
L 388.45565 509.914005 
L 393.050775 510.672572 
L 395.80785 510.980654 
L 403.16005 512.027634 
L 409.593225 513.143903 
L 413.269325 513.640637 
L 423.3786 514.664004 
L 453.706425 517.796942 
L 468.410825 518.937215 
L 482.1962 519.822268 
L 498.73865 520.647704 
L 510.685975 521.119501 
L 510.685975 521.119501 
" clip-path="url(#p8c27936795)" style="fill: none; stroke: #ff0000; stroke-width: 2; stroke-linecap: square"/>
   </g>
   <g id="patch_19">
    <path d="M 327.8 522.52 
L 327.8 387.173333 
" style="fill: none; stroke: #000000; stroke-width: 0.8; stroke-linejoin: miter; stroke-linecap: square"/>
   </g>
   <g id="patch_20">
    <path d="M 511.605 522.52 
L 511.605 387.173333 
" style="fill: none; stroke: #000000; stroke-width: 0.8; stroke-linejoin: miter; stroke-linecap: square"/>
   </g>
   <g id="patch_21">
    <path d="M 327.8 522.52 
L 511.605 522.52 
" style="fill: none; stroke: #000000; stroke-width: 0.8; stroke-linejoin: miter; stroke-linecap: square"/>
   </g>
   <g id="patch_22">
    <path d="M 327.8 387.173333 
L 511.605 387.173333 
" style="fill: none; stroke: #000000; stroke-width: 0.8; stroke-linejoin: miter; stroke-linecap: square"/>
   </g>
  </g>
  <g id="axes_6">
   <g id="patch_23">
    <path d="M 70.85 522.52 
L 254.655 522.52 
L 254.655 387.173333 
L 70.85 387.173333 
z
" style="fill: #ffffff"/>
   </g>
   <g id="matplotlib.axis_9">
    <g id="xtick_21">
     <g id="line2d_55">
      <g>
       <use xlink:href="#m7d82a26ffc" x="70.85" y="522.52" style="stroke: #000000; stroke-width: 0.8"/>
      </g>
     </g>
     <g id="text_46">
      <!-- 0 -->
      <g transform="translate(66.39625 540.157813) scale(0.14 -0.14)">
       <use xlink:href="#DejaVuSans-30"/>
      </g>
     </g>
    </g>
    <g id="xtick_22">
     <g id="line2d_56">
      <g>
       <use xlink:href="#m7d82a26ffc" x="116.80125" y="522.52" style="stroke: #000000; stroke-width: 0.8"/>
      </g>
     </g>
     <g id="text_47">
      <!-- 50 -->
      <g transform="translate(107.89375 540.157813) scale(0.14 -0.14)">
       <use xlink:href="#DejaVuSans-35"/>
       <use xlink:href="#DejaVuSans-30" x="63.623047"/>
      </g>
     </g>
    </g>
    <g id="xtick_23">
     <g id="line2d_57">
      <g>
       <use xlink:href="#m7d82a26ffc" x="162.7525" y="522.52" style="stroke: #000000; stroke-width: 0.8"/>
      </g>
     </g>
     <g id="text_48">
      <!-- 100 -->
      <g transform="translate(149.39125 540.157813) scale(0.14 -0.14)">
       <use xlink:href="#DejaVuSans-31"/>
       <use xlink:href="#DejaVuSans-30" x="63.623047"/>
       <use xlink:href="#DejaVuSans-30" x="127.246094"/>
      </g>
     </g>
    </g>
    <g id="xtick_24">
     <g id="line2d_58">
      <g>
       <use xlink:href="#m7d82a26ffc" x="208.70375" y="522.52" style="stroke: #000000; stroke-width: 0.8"/>
      </g>
     </g>
     <g id="text_49">
      <!-- 150 -->
      <g transform="translate(195.3425 540.157813) scale(0.14 -0.14)">
       <use xlink:href="#DejaVuSans-31"/>
       <use xlink:href="#DejaVuSans-35" x="63.623047"/>
       <use xlink:href="#DejaVuSans-30" x="127.246094"/>
      </g>
     </g>
    </g>
    <g id="xtick_25">
     <g id="line2d_59">
      <g>
       <use xlink:href="#m7d82a26ffc" x="254.655" y="522.52" style="stroke: #000000; stroke-width: 0.8"/>
      </g>
     </g>
     <g id="text_50">
      <!-- 200 -->
      <g transform="translate(241.29375 540.157813) scale(0.14 -0.14)">
       <use xlink:href="#DejaVuSans-32"/>
       <use xlink:href="#DejaVuSans-30" x="63.623047"/>
       <use xlink:href="#DejaVuSans-30" x="127.246094"/>
      </g>
     </g>
    </g>
    <g id="text_51">
     <!-- Epochs -->
     <g transform="translate(137.670625 557.707188) scale(0.14 -0.14)">
      <use xlink:href="#DejaVuSans-45"/>
      <use xlink:href="#DejaVuSans-70" x="63.183594"/>
      <use xlink:href="#DejaVuSans-6f" x="126.660156"/>
      <use xlink:href="#DejaVuSans-63" x="187.841797"/>
      <use xlink:href="#DejaVuSans-68" x="242.822266"/>
      <use xlink:href="#DejaVuSans-73" x="306.201172"/>
     </g>
    </g>
   </g>
   <g id="matplotlib.axis_10">
    <g id="ytick_19">
     <g id="line2d_60">
      <g>
       <use xlink:href="#mf16fa289fb" x="70.85" y="522.52" style="stroke: #000000; stroke-width: 0.8"/>
      </g>
     </g>
     <g id="text_52">
      <!-- 30 -->
      <g transform="translate(46.035 527.838906) scale(0.14 -0.14)">
       <defs>
        <path id="DejaVuSans-33" d="M 2597 2516 
Q 3050 2419 3304 2112 
Q 3559 1806 3559 1356 
Q 3559 666 3084 287 
Q 2609 -91 1734 -91 
Q 1441 -91 1130 -33 
Q 819 25 488 141 
L 488 750 
Q 750 597 1062 519 
Q 1375 441 1716 441 
Q 2309 441 2620 675 
Q 2931 909 2931 1356 
Q 2931 1769 2642 2001 
Q 2353 2234 1838 2234 
L 1294 2234 
L 1294 2753 
L 1863 2753 
Q 2328 2753 2575 2939 
Q 2822 3125 2822 3475 
Q 2822 3834 2567 4026 
Q 2313 4219 1838 4219 
Q 1578 4219 1281 4162 
Q 984 4106 628 3988 
L 628 4550 
Q 988 4650 1302 4700 
Q 1616 4750 1894 4750 
Q 2613 4750 3031 4423 
Q 3450 4097 3450 3541 
Q 3450 3153 3228 2886 
Q 3006 2619 2597 2516 
z
" transform="scale(0.015625)"/>
       </defs>
       <use xlink:href="#DejaVuSans-33"/>
       <use xlink:href="#DejaVuSans-30" x="63.623047"/>
      </g>
     </g>
    </g>
    <g id="ytick_20">
     <g id="line2d_61">
      <g>
       <use xlink:href="#mf16fa289fb" x="70.85" y="483.849524" style="stroke: #000000; stroke-width: 0.8"/>
      </g>
     </g>
     <g id="text_53">
      <!-- 40 -->
      <g transform="translate(46.035 489.16843) scale(0.14 -0.14)">
       <defs>
        <path id="DejaVuSans-34" d="M 2419 4116 
L 825 1625 
L 2419 1625 
L 2419 4116 
z
M 2253 4666 
L 3047 4666 
L 3047 1625 
L 3713 1625 
L 3713 1100 
L 3047 1100 
L 3047 0 
L 2419 0 
L 2419 1100 
L 313 1100 
L 313 1709 
L 2253 4666 
z
" transform="scale(0.015625)"/>
       </defs>
       <use xlink:href="#DejaVuSans-34"/>
       <use xlink:href="#DejaVuSans-30" x="63.623047"/>
      </g>
     </g>
    </g>
    <g id="ytick_21">
     <g id="line2d_62">
      <g>
       <use xlink:href="#mf16fa289fb" x="70.85" y="445.179048" style="stroke: #000000; stroke-width: 0.8"/>
      </g>
     </g>
     <g id="text_54">
      <!-- 50 -->
      <g transform="translate(46.035 450.497954) scale(0.14 -0.14)">
       <use xlink:href="#DejaVuSans-35"/>
       <use xlink:href="#DejaVuSans-30" x="63.623047"/>
      </g>
     </g>
    </g>
    <g id="ytick_22">
     <g id="line2d_63">
      <g>
       <use xlink:href="#mf16fa289fb" x="70.85" y="406.508571" style="stroke: #000000; stroke-width: 0.8"/>
      </g>
     </g>
     <g id="text_55">
      <!-- 60 -->
      <g transform="translate(46.035 411.827478) scale(0.14 -0.14)">
       <defs>
        <path id="DejaVuSans-36" d="M 2113 2584 
Q 1688 2584 1439 2293 
Q 1191 2003 1191 1497 
Q 1191 994 1439 701 
Q 1688 409 2113 409 
Q 2538 409 2786 701 
Q 3034 994 3034 1497 
Q 3034 2003 2786 2293 
Q 2538 2584 2113 2584 
z
M 3366 4563 
L 3366 3988 
Q 3128 4100 2886 4159 
Q 2644 4219 2406 4219 
Q 1781 4219 1451 3797 
Q 1122 3375 1075 2522 
Q 1259 2794 1537 2939 
Q 1816 3084 2150 3084 
Q 2853 3084 3261 2657 
Q 3669 2231 3669 1497 
Q 3669 778 3244 343 
Q 2819 -91 2113 -91 
Q 1303 -91 875 529 
Q 447 1150 447 2328 
Q 447 3434 972 4092 
Q 1497 4750 2381 4750 
Q 2619 4750 2861 4703 
Q 3103 4656 3366 4563 
z
" transform="scale(0.015625)"/>
       </defs>
       <use xlink:href="#DejaVuSans-36"/>
       <use xlink:href="#DejaVuSans-30" x="63.623047"/>
      </g>
     </g>
    </g>
    <g id="text_56">
     <!-- $g_{K}$ Values -->
     <g transform="translate(39.095 488.376667) rotate(-90) scale(0.14 -0.14)">
      <use xlink:href="#DejaVuSans-Oblique-67" transform="translate(0 0.015625)"/>
      <use xlink:href="#DejaVuSans-Oblique-4b" transform="translate(63.476562 -16.390625) scale(0.7)"/>
      <use xlink:href="#DejaVuSans-20" transform="translate(112.114258 0.015625)"/>
      <use xlink:href="#DejaVuSans-56" transform="translate(143.901367 0.015625)"/>
      <use xlink:href="#DejaVuSans-61" transform="translate(212.30957 0.015625)"/>
      <use xlink:href="#DejaVuSans-6c" transform="translate(273.588867 0.015625)"/>
      <use xlink:href="#DejaVuSans-75" transform="translate(301.37207 0.015625)"/>
      <use xlink:href="#DejaVuSans-65" transform="translate(364.750977 0.015625)"/>
      <use xlink:href="#DejaVuSans-73" transform="translate(426.274414 0.015625)"/>
     </g>
    </g>
   </g>
   <g id="line2d_64">
    <path d="M 70.85 462.580762 
L 77.283175 449.26914 
L 80.04025 444.098713 
L 81.8783 441.088941 
L 83.71635 438.484646 
L 85.5544 436.215759 
L 87.39245 434.235753 
L 90.149525 431.672468 
L 92.9066 429.493389 
L 96.5827 427.020605 
L 100.2588 424.500454 
L 103.015875 422.638623 
L 104.853925 421.648774 
L 106.691975 420.986589 
L 108.530025 420.675065 
L 110.368075 420.646343 
L 115.882225 420.886072 
L 118.6393 420.665166 
L 122.3154 420.324743 
L 125.9915 420.229994 
L 131.50565 420.271269 
L 148.0481 421.181488 
L 153.56225 421.516895 
L 159.995425 421.666314 
L 170.1047 421.504356 
L 190.32325 421.256204 
L 222.489125 421.301816 
L 253.735975 421.287139 
L 253.735975 421.287139 
" clip-path="url(#p3eb1517780)" style="fill: none; stroke: #1f77b4; stroke-width: 2; stroke-linecap: square"/>
   </g>
   <g id="line2d_65">
    <path d="M 70.85 421.278804 
L 254.655 421.278804 
" clip-path="url(#p3eb1517780)" style="fill: none; stroke-dasharray: 5.55,2.4; stroke-dashoffset: 0; stroke: #808080; stroke-opacity: 0.2; stroke-width: 1.5"/>
   </g>
   <g id="line2d_66">
    <path d="M 70.85 462.580762 
L 79.121225 445.392813 
L 82.797325 438.174907 
L 86.473425 431.380725 
L 90.149525 425.053536 
L 92.9066 420.715041 
L 95.663675 416.843244 
L 98.42075 413.475288 
L 101.177825 410.577642 
L 103.015875 408.900443 
L 104.853925 407.428866 
L 106.691975 406.162808 
L 108.530025 405.101592 
L 110.368075 404.241307 
L 112.206125 403.571303 
L 114.044175 403.077655 
L 115.882225 402.748562 
L 117.720275 402.577915 
L 119.558325 402.563281 
L 122.3154 402.815947 
L 125.072475 403.336531 
L 128.748575 404.282405 
L 134.262725 405.966922 
L 141.614925 408.234806 
L 147.129075 409.707076 
L 151.7242 410.722267 
L 157.23835 411.715877 
L 164.59055 412.792435 
L 175.61885 414.145601 
L 202.270575 417.136712 
L 215.136925 418.358751 
L 228.003275 419.350532 
L 242.707675 420.257491 
L 253.735975 420.803876 
L 253.735975 420.803876 
" clip-path="url(#p3eb1517780)" style="fill: none; stroke: #ff7f0e; stroke-width: 2; stroke-linecap: square"/>
   </g>
   <g id="line2d_67">
    <path d="M 70.85 422.693853 
L 254.655 422.693853 
" clip-path="url(#p3eb1517780)" style="fill: none; stroke-dasharray: 5.55,2.4; stroke-dashoffset: 0; stroke: #808080; stroke-opacity: 0.2; stroke-width: 1.5"/>
   </g>
   <g id="line2d_68">
    <path d="M 70.85 462.580762 
L 73.607075 457.009726 
L 75.445125 453.671759 
L 77.283175 450.848698 
L 78.2022 449.682863 
L 79.121225 448.717178 
L 80.04025 447.976574 
L 80.959275 447.464766 
L 81.8783 447.150395 
L 83.71635 446.880042 
L 87.39245 446.541315 
L 89.2305 446.021911 
L 91.987575 444.730038 
L 94.74465 443.536322 
L 97.501725 442.757216 
L 99.339775 442.204738 
L 101.177825 441.469016 
L 103.9349 440.060045 
L 107.611 438.080098 
L 109.44905 437.318649 
L 111.2871 436.8001 
L 113.12515 436.474739 
L 115.882225 436.216689 
L 118.6393 436.193794 
L 125.072475 436.452744 
L 126.910525 436.091079 
L 128.748575 435.439588 
L 132.424675 433.986598 
L 134.262725 433.548461 
L 136.100775 433.363564 
L 138.85785 433.405783 
L 143.452975 433.817146 
L 147.129075 434.070801 
L 149.88615 434.015305 
L 154.481275 433.821572 
L 157.23835 433.986229 
L 163.671525 434.564758 
L 167.347625 434.614383 
L 180.213975 434.417641 
L 184.8091 434.331668 
L 195.8374 434.05124 
L 249.14085 433.599973 
L 253.735975 433.576503 
L 253.735975 433.576503 
" clip-path="url(#p3eb1517780)" style="fill: none; stroke: #2ca02c; stroke-width: 2; stroke-linecap: square"/>
   </g>
   <g id="line2d_69">
    <path d="M 70.85 433.396224 
L 254.655 433.396224 
" clip-path="url(#p3eb1517780)" style="fill: none; stroke-dasharray: 5.55,2.4; stroke-dashoffset: 0; stroke: #808080; stroke-opacity: 0.2; stroke-width: 1.5"/>
   </g>
   <g id="line2d_70">
    <path d="M 70.85 466.44781 
L 71.769025 468.254233 
L 72.68805 469.672867 
L 73.607075 470.406878 
L 74.5261 470.480503 
L 75.445125 470.110429 
L 76.36415 469.466949 
L 79.121225 467.167629 
L 80.04025 466.696153 
L 80.959275 466.48758 
L 84.635375 466.453179 
L 85.5544 466.186249 
L 86.473425 465.743966 
L 87.39245 465.111313 
L 88.311475 464.292982 
L 91.987575 460.404943 
L 92.9066 459.721456 
L 93.825625 459.252561 
L 94.74465 458.995677 
L 97.501725 458.731387 
L 98.42075 458.448893 
L 99.339775 457.953121 
L 100.2588 457.274148 
L 102.09685 455.458239 
L 104.853925 452.400052 
L 105.77295 451.55952 
L 106.691975 450.933491 
L 107.611 450.570394 
L 108.530025 450.490706 
L 109.44905 450.676577 
L 110.368075 451.078883 
L 112.206125 452.258614 
L 114.044175 453.484576 
L 115.882225 454.380073 
L 117.720275 454.90467 
L 125.072475 456.240812 
L 126.910525 456.151462 
L 128.748575 455.717307 
L 130.586625 455.226978 
L 132.424675 454.978384 
L 134.262725 455.064932 
L 137.938825 455.515431 
L 139.776875 455.515003 
L 144.372 455.334886 
L 151.7242 455.706509 
L 154.481275 455.704208 
L 161.833475 456.044734 
L 177.4569 455.47004 
L 194.918375 455.372754 
L 218.813025 455.317686 
L 253.735975 455.203125 
L 253.735975 455.203125 
" clip-path="url(#p3eb1517780)" style="fill: none; stroke: #d62728; stroke-width: 2; stroke-linecap: square"/>
   </g>
   <g id="line2d_71">
    <path d="M 70.85 455.137731 
L 254.655 455.137731 
" clip-path="url(#p3eb1517780)" style="fill: none; stroke-dasharray: 5.55,2.4; stroke-dashoffset: 0; stroke: #808080; stroke-opacity: 0.2; stroke-width: 1.5"/>
   </g>
   <g id="line2d_72">
    <path d="M 70.85 462.580762 
L 76.36415 451.241549 
L 78.2022 447.787296 
L 80.04025 444.771888 
L 81.8783 442.368024 
L 83.71635 440.547675 
L 84.635375 439.845527 
L 85.5544 439.289966 
L 86.473425 438.883427 
L 88.311475 438.447738 
L 89.2305 438.38941 
L 90.149525 438.443711 
L 91.06855 438.646339 
L 91.987575 439.012931 
L 92.9066 439.542868 
L 93.825625 440.245414 
L 94.74465 441.12287 
L 96.5827 443.327263 
L 103.015875 451.951397 
L 103.9349 452.836095 
L 104.853925 453.526279 
L 105.77295 453.992814 
L 106.691975 454.219871 
L 107.611 454.205488 
L 108.530025 453.961953 
L 109.44905 453.50986 
L 110.368075 452.875659 
L 112.206125 451.16574 
L 114.044175 449.059844 
L 117.720275 444.645762 
L 119.558325 442.834588 
L 120.47735 442.117541 
L 121.396375 441.545076 
L 122.3154 441.118326 
L 123.234425 440.831333 
L 125.072475 440.609041 
L 126.910525 440.720829 
L 130.586625 441.338715 
L 133.3437 441.752749 
L 136.100775 441.911815 
L 138.85785 441.765701 
L 151.7242 440.274283 
L 164.59055 438.464466 
L 168.26665 438.346645 
L 175.61885 438.209219 
L 182.052025 437.785198 
L 190.32325 437.249154 
L 205.946675 436.520026 
L 250.059875 435.12588 
L 253.735975 435.043021 
L 253.735975 435.043021 
" clip-path="url(#p3eb1517780)" style="fill: none; stroke: #9467bd; stroke-width: 2; stroke-linecap: square"/>
   </g>
   <g id="line2d_73">
    <path d="M 70.85 434.231696 
L 254.655 434.231696 
" clip-path="url(#p3eb1517780)" style="fill: none; stroke-dasharray: 5.55,2.4; stroke-dashoffset: 0; stroke: #808080; stroke-opacity: 0.2; stroke-width: 1.5"/>
   </g>
   <g id="line2d_74">
    <path d="M 70.85 462.580762 
L 82.797325 437.695892 
L 88.311475 426.586716 
L 91.06855 421.304191 
L 92.9066 418.172261 
L 93.825625 416.820998 
L 94.74465 415.676479 
L 95.663675 414.776941 
L 96.5827 414.135393 
L 97.501725 413.741953 
L 98.42075 413.57495 
L 99.339775 413.613614 
L 100.2588 413.835478 
L 101.177825 414.215465 
L 103.015875 415.333342 
L 108.530025 419.246164 
L 110.368075 420.130597 
L 112.206125 420.731298 
L 114.044175 421.092019 
L 116.80125 421.362844 
L 119.558325 421.636324 
L 121.396375 421.976275 
L 124.15345 422.771136 
L 129.6676 424.557513 
L 132.424675 425.122308 
L 135.18175 425.415423 
L 143.452975 425.938072 
L 146.21005 426.464012 
L 157.23835 429.024435 
L 173.7808 431.652878 
L 183.890075 433.074049 
L 197.67545 434.956532 
L 213.298875 436.641579 
L 226.165225 437.775462 
L 238.11255 438.624167 
L 252.81695 439.449461 
L 253.735975 439.492403 
L 253.735975 439.492403 
" clip-path="url(#p3eb1517780)" style="fill: none; stroke: #8c564b; stroke-width: 2; stroke-linecap: square"/>
   </g>
   <g id="line2d_75">
    <path d="M 70.85 441.338804 
L 254.655 441.338804 
" clip-path="url(#p3eb1517780)" style="fill: none; stroke-dasharray: 5.55,2.4; stroke-dashoffset: 0; stroke: #808080; stroke-opacity: 0.2; stroke-width: 1.5"/>
   </g>
   <g id="patch_24">
    <path d="M 70.85 522.52 
L 70.85 387.173333 
" style="fill: none; stroke: #000000; stroke-width: 0.8; stroke-linejoin: miter; stroke-linecap: square"/>
   </g>
   <g id="patch_25">
    <path d="M 254.655 522.52 
L 254.655 387.173333 
" style="fill: none; stroke: #000000; stroke-width: 0.8; stroke-linejoin: miter; stroke-linecap: square"/>
   </g>
   <g id="patch_26">
    <path d="M 70.85 522.52 
L 254.655 522.52 
" style="fill: none; stroke: #000000; stroke-width: 0.8; stroke-linejoin: miter; stroke-linecap: square"/>
   </g>
   <g id="patch_27">
    <path d="M 70.85 387.173333 
L 254.655 387.173333 
" style="fill: none; stroke: #000000; stroke-width: 0.8; stroke-linejoin: miter; stroke-linecap: square"/>
   </g>
  </g>
 </g>
 <defs>
  <clipPath id="p17ad0426f0">
   <rect x="70.85" y="34.08" width="183.805" height="135.346667"/>
  </clipPath>
  <clipPath id="p9745bb9ef0">
   <rect x="327.8" y="210.626667" width="183.805" height="135.346667"/>
  </clipPath>
  <clipPath id="pb88d1953b7">
   <rect x="70.85" y="210.626667" width="183.805" height="135.346667"/>
  </clipPath>
  <clipPath id="p8c27936795">
   <rect x="327.8" y="387.173333" width="183.805" height="135.346667"/>
  </clipPath>
  <clipPath id="p3eb1517780">
   <rect x="70.85" y="387.173333" width="183.805" height="135.346667"/>
  </clipPath>
 </defs>
</svg>
