<?xml version="1.0" encoding="utf-8" standalone="no"?>
<!DOCTYPE svg PUBLIC "-//W3C//DTD SVG 1.1//EN"
  "http://www.w3.org/Graphics/SVG/1.1/DTD/svg11.dtd">
<svg xmlns:xlink="http://www.w3.org/1999/xlink" width="360pt" height="576pt" viewBox="0 0 360 576" xmlns="http://www.w3.org/2000/svg" version="1.1">
 <metadata>
  <rdf:RDF xmlns:dc="http://purl.org/dc/elements/1.1/" xmlns:cc="http://creativecommons.org/ns#" xmlns:rdf="http://www.w3.org/1999/02/22-rdf-syntax-ns#">
   <cc:Work>
    <dc:type rdf:resource="http://purl.org/dc/dcmitype/StillImage"/>
    <dc:date>2024-07-01T15:28:07.726039</dc:date>
    <dc:format>image/svg+xml</dc:format>
    <dc:creator>
     <cc:Agent>
      <dc:title>Matplotlib v3.8.3, https://matplotlib.org/</dc:title>
     </cc:Agent>
    </dc:creator>
   </cc:Work>
  </rdf:RDF>
 </metadata>
 <defs>
  <style type="text/css">*{stroke-linejoin: round; stroke-linecap: butt}</style>
 </defs>
 <g id="figure_1">
  <g id="patch_1">
   <path d="M 0 576 
L 360 576 
L 360 0 
L 0 0 
z
" style="fill: #ffffff"/>
  </g>
  <g id="axes_1">
   <g id="patch_2">
    <path d="M 59.87 160.386667 
L 331.605 160.386667 
L 331.605 20.52 
L 59.87 20.52 
z
" style="fill: #ffffff"/>
   </g>
   <g id="matplotlib.axis_1">
    <g id="xtick_1">
     <g id="line2d_1">
      <defs>
       <path id="m18d5fed2f3" d="M 0 0 
L 0 3.5 
" style="stroke: #000000; stroke-width: 0.8"/>
      </defs>
      <g>
       <use xlink:href="#m18d5fed2f3" x="59.87" y="160.386667" style="stroke: #000000; stroke-width: 0.8"/>
      </g>
     </g>
     <g id="text_1">
      <!-- 0 -->
      <g transform="translate(55.41625 178.024479) scale(0.14 -0.14)">
       <defs>
        <path id="DejaVuSans-30" d="M 2034 4250 
Q 1547 4250 1301 3770 
Q 1056 3291 1056 2328 
Q 1056 1369 1301 889 
Q 1547 409 2034 409 
Q 2525 409 2770 889 
Q 3016 1369 3016 2328 
Q 3016 3291 2770 3770 
Q 2525 4250 2034 4250 
z
M 2034 4750 
Q 2819 4750 3233 4129 
Q 3647 3509 3647 2328 
Q 3647 1150 3233 529 
Q 2819 -91 2034 -91 
Q 1250 -91 836 529 
Q 422 1150 422 2328 
Q 422 3509 836 4129 
Q 1250 4750 2034 4750 
z
" transform="scale(0.015625)"/>
       </defs>
       <use xlink:href="#DejaVuSans-30"/>
      </g>
     </g>
    </g>
    <g id="xtick_2">
     <g id="line2d_2">
      <g>
       <use xlink:href="#m18d5fed2f3" x="127.80375" y="160.386667" style="stroke: #000000; stroke-width: 0.8"/>
      </g>
     </g>
     <g id="text_2">
      <!-- 50 -->
      <g transform="translate(118.89625 178.024479) scale(0.14 -0.14)">
       <defs>
        <path id="DejaVuSans-35" d="M 691 4666 
L 3169 4666 
L 3169 4134 
L 1269 4134 
L 1269 2991 
Q 1406 3038 1543 3061 
Q 1681 3084 1819 3084 
Q 2600 3084 3056 2656 
Q 3513 2228 3513 1497 
Q 3513 744 3044 326 
Q 2575 -91 1722 -91 
Q 1428 -91 1123 -41 
Q 819 9 494 109 
L 494 744 
Q 775 591 1075 516 
Q 1375 441 1709 441 
Q 2250 441 2565 725 
Q 2881 1009 2881 1497 
Q 2881 1984 2565 2268 
Q 2250 2553 1709 2553 
Q 1456 2553 1204 2497 
Q 953 2441 691 2322 
L 691 4666 
z
" transform="scale(0.015625)"/>
       </defs>
       <use xlink:href="#DejaVuSans-35"/>
       <use xlink:href="#DejaVuSans-30" x="63.623047"/>
      </g>
     </g>
    </g>
    <g id="xtick_3">
     <g id="line2d_3">
      <g>
       <use xlink:href="#m18d5fed2f3" x="195.7375" y="160.386667" style="stroke: #000000; stroke-width: 0.8"/>
      </g>
     </g>
     <g id="text_3">
      <!-- 100 -->
      <g transform="translate(182.37625 178.024479) scale(0.14 -0.14)">
       <defs>
        <path id="DejaVuSans-31" d="M 794 531 
L 1825 531 
L 1825 4091 
L 703 3866 
L 703 4441 
L 1819 4666 
L 2450 4666 
L 2450 531 
L 3481 531 
L 3481 0 
L 794 0 
L 794 531 
z
" transform="scale(0.015625)"/>
       </defs>
       <use xlink:href="#DejaVuSans-31"/>
       <use xlink:href="#DejaVuSans-30" x="63.623047"/>
       <use xlink:href="#DejaVuSans-30" x="127.246094"/>
      </g>
     </g>
    </g>
    <g id="xtick_4">
     <g id="line2d_4">
      <g>
       <use xlink:href="#m18d5fed2f3" x="263.67125" y="160.386667" style="stroke: #000000; stroke-width: 0.8"/>
      </g>
     </g>
     <g id="text_4">
      <!-- 150 -->
      <g transform="translate(250.31 178.024479) scale(0.14 -0.14)">
       <use xlink:href="#DejaVuSans-31"/>
       <use xlink:href="#DejaVuSans-35" x="63.623047"/>
       <use xlink:href="#DejaVuSans-30" x="127.246094"/>
      </g>
     </g>
    </g>
    <g id="xtick_5">
     <g id="line2d_5">
      <g>
       <use xlink:href="#m18d5fed2f3" x="331.605" y="160.386667" style="stroke: #000000; stroke-width: 0.8"/>
      </g>
     </g>
     <g id="text_5">
      <!-- 200 -->
      <g transform="translate(318.24375 178.024479) scale(0.14 -0.14)">
       <defs>
        <path id="DejaVuSans-32" d="M 1228 531 
L 3431 531 
L 3431 0 
L 469 0 
L 469 531 
Q 828 903 1448 1529 
Q 2069 2156 2228 2338 
Q 2531 2678 2651 2914 
Q 2772 3150 2772 3378 
Q 2772 3750 2511 3984 
Q 2250 4219 1831 4219 
Q 1534 4219 1204 4116 
Q 875 4013 500 3803 
L 500 4441 
Q 881 4594 1212 4672 
Q 1544 4750 1819 4750 
Q 2544 4750 2975 4387 
Q 3406 4025 3406 3419 
Q 3406 3131 3298 2873 
Q 3191 2616 2906 2266 
Q 2828 2175 2409 1742 
Q 1991 1309 1228 531 
z
" transform="scale(0.015625)"/>
       </defs>
       <use xlink:href="#DejaVuSans-32"/>
       <use xlink:href="#DejaVuSans-30" x="63.623047"/>
       <use xlink:href="#DejaVuSans-30" x="127.246094"/>
      </g>
     </g>
    </g>
   </g>
   <g id="matplotlib.axis_2">
    <g id="ytick_1">
     <g id="line2d_6">
      <defs>
       <path id="m92093b47ed" d="M 0 0 
L -3.5 0 
" style="stroke: #000000; stroke-width: 0.8"/>
      </defs>
      <g>
       <use xlink:href="#m92093b47ed" x="59.87" y="160.386667" style="stroke: #000000; stroke-width: 0.8"/>
      </g>
     </g>
     <g id="text_6">
      <!-- 0 -->
      <g transform="translate(43.9625 165.705573) scale(0.14 -0.14)">
       <use xlink:href="#DejaVuSans-30"/>
      </g>
     </g>
    </g>
    <g id="ytick_2">
     <g id="line2d_7">
      <g>
       <use xlink:href="#m92093b47ed" x="59.87" y="125.42" style="stroke: #000000; stroke-width: 0.8"/>
      </g>
     </g>
     <g id="text_7">
      <!-- 10 -->
      <g transform="translate(35.055 130.738906) scale(0.14 -0.14)">
       <use xlink:href="#DejaVuSans-31"/>
       <use xlink:href="#DejaVuSans-30" x="63.623047"/>
      </g>
     </g>
    </g>
    <g id="ytick_3">
     <g id="line2d_8">
      <g>
       <use xlink:href="#m92093b47ed" x="59.87" y="90.453333" style="stroke: #000000; stroke-width: 0.8"/>
      </g>
     </g>
     <g id="text_8">
      <!-- 20 -->
      <g transform="translate(35.055 95.77224) scale(0.14 -0.14)">
       <use xlink:href="#DejaVuSans-32"/>
       <use xlink:href="#DejaVuSans-30" x="63.623047"/>
      </g>
     </g>
    </g>
    <g id="ytick_4">
     <g id="line2d_9">
      <g>
       <use xlink:href="#m92093b47ed" x="59.87" y="55.486667" style="stroke: #000000; stroke-width: 0.8"/>
      </g>
     </g>
     <g id="text_9">
      <!-- 30 -->
      <g transform="translate(35.055 60.805573) scale(0.14 -0.14)">
       <defs>
        <path id="DejaVuSans-33" d="M 2597 2516 
Q 3050 2419 3304 2112 
Q 3559 1806 3559 1356 
Q 3559 666 3084 287 
Q 2609 -91 1734 -91 
Q 1441 -91 1130 -33 
Q 819 25 488 141 
L 488 750 
Q 750 597 1062 519 
Q 1375 441 1716 441 
Q 2309 441 2620 675 
Q 2931 909 2931 1356 
Q 2931 1769 2642 2001 
Q 2353 2234 1838 2234 
L 1294 2234 
L 1294 2753 
L 1863 2753 
Q 2328 2753 2575 2939 
Q 2822 3125 2822 3475 
Q 2822 3834 2567 4026 
Q 2313 4219 1838 4219 
Q 1578 4219 1281 4162 
Q 984 4106 628 3988 
L 628 4550 
Q 988 4650 1302 4700 
Q 1616 4750 1894 4750 
Q 2613 4750 3031 4423 
Q 3450 4097 3450 3541 
Q 3450 3153 3228 2886 
Q 3006 2619 2597 2516 
z
" transform="scale(0.015625)"/>
       </defs>
       <use xlink:href="#DejaVuSans-33"/>
       <use xlink:href="#DejaVuSans-30" x="63.623047"/>
      </g>
     </g>
    </g>
    <g id="ytick_5">
     <g id="line2d_10">
      <g>
       <use xlink:href="#m92093b47ed" x="59.87" y="20.52" style="stroke: #000000; stroke-width: 0.8"/>
      </g>
     </g>
     <g id="text_10">
      <!-- 40 -->
      <g transform="translate(35.055 25.838906) scale(0.14 -0.14)">
       <defs>
        <path id="DejaVuSans-34" d="M 2419 4116 
L 825 1625 
L 2419 1625 
L 2419 4116 
z
M 2253 4666 
L 3047 4666 
L 3047 1625 
L 3713 1625 
L 3713 1100 
L 3047 1100 
L 3047 0 
L 2419 0 
L 2419 1100 
L 313 1100 
L 313 1709 
L 2253 4666 
z
" transform="scale(0.015625)"/>
       </defs>
       <use xlink:href="#DejaVuSans-34"/>
       <use xlink:href="#DejaVuSans-30" x="63.623047"/>
      </g>
     </g>
    </g>
    <g id="text_11">
     <!-- Normalized Loss -->
     <g transform="translate(28.143438 147.72974) rotate(-90) scale(0.14 -0.14)">
      <defs>
       <path id="DejaVuSans-4e" d="M 628 4666 
L 1478 4666 
L 3547 763 
L 3547 4666 
L 4159 4666 
L 4159 0 
L 3309 0 
L 1241 3903 
L 1241 0 
L 628 0 
L 628 4666 
z
" transform="scale(0.015625)"/>
       <path id="DejaVuSans-6f" d="M 1959 3097 
Q 1497 3097 1228 2736 
Q 959 2375 959 1747 
Q 959 1119 1226 758 
Q 1494 397 1959 397 
Q 2419 397 2687 759 
Q 2956 1122 2956 1747 
Q 2956 2369 2687 2733 
Q 2419 3097 1959 3097 
z
M 1959 3584 
Q 2709 3584 3137 3096 
Q 3566 2609 3566 1747 
Q 3566 888 3137 398 
Q 2709 -91 1959 -91 
Q 1206 -91 779 398 
Q 353 888 353 1747 
Q 353 2609 779 3096 
Q 1206 3584 1959 3584 
z
" transform="scale(0.015625)"/>
       <path id="DejaVuSans-72" d="M 2631 2963 
Q 2534 3019 2420 3045 
Q 2306 3072 2169 3072 
Q 1681 3072 1420 2755 
Q 1159 2438 1159 1844 
L 1159 0 
L 581 0 
L 581 3500 
L 1159 3500 
L 1159 2956 
Q 1341 3275 1631 3429 
Q 1922 3584 2338 3584 
Q 2397 3584 2469 3576 
Q 2541 3569 2628 3553 
L 2631 2963 
z
" transform="scale(0.015625)"/>
       <path id="DejaVuSans-6d" d="M 3328 2828 
Q 3544 3216 3844 3400 
Q 4144 3584 4550 3584 
Q 5097 3584 5394 3201 
Q 5691 2819 5691 2113 
L 5691 0 
L 5113 0 
L 5113 2094 
Q 5113 2597 4934 2840 
Q 4756 3084 4391 3084 
Q 3944 3084 3684 2787 
Q 3425 2491 3425 1978 
L 3425 0 
L 2847 0 
L 2847 2094 
Q 2847 2600 2669 2842 
Q 2491 3084 2119 3084 
Q 1678 3084 1418 2786 
Q 1159 2488 1159 1978 
L 1159 0 
L 581 0 
L 581 3500 
L 1159 3500 
L 1159 2956 
Q 1356 3278 1631 3431 
Q 1906 3584 2284 3584 
Q 2666 3584 2933 3390 
Q 3200 3197 3328 2828 
z
" transform="scale(0.015625)"/>
       <path id="DejaVuSans-61" d="M 2194 1759 
Q 1497 1759 1228 1600 
Q 959 1441 959 1056 
Q 959 750 1161 570 
Q 1363 391 1709 391 
Q 2188 391 2477 730 
Q 2766 1069 2766 1631 
L 2766 1759 
L 2194 1759 
z
M 3341 1997 
L 3341 0 
L 2766 0 
L 2766 531 
Q 2569 213 2275 61 
Q 1981 -91 1556 -91 
Q 1019 -91 701 211 
Q 384 513 384 1019 
Q 384 1609 779 1909 
Q 1175 2209 1959 2209 
L 2766 2209 
L 2766 2266 
Q 2766 2663 2505 2880 
Q 2244 3097 1772 3097 
Q 1472 3097 1187 3025 
Q 903 2953 641 2809 
L 641 3341 
Q 956 3463 1253 3523 
Q 1550 3584 1831 3584 
Q 2591 3584 2966 3190 
Q 3341 2797 3341 1997 
z
" transform="scale(0.015625)"/>
       <path id="DejaVuSans-6c" d="M 603 4863 
L 1178 4863 
L 1178 0 
L 603 0 
L 603 4863 
z
" transform="scale(0.015625)"/>
       <path id="DejaVuSans-69" d="M 603 3500 
L 1178 3500 
L 1178 0 
L 603 0 
L 603 3500 
z
M 603 4863 
L 1178 4863 
L 1178 4134 
L 603 4134 
L 603 4863 
z
" transform="scale(0.015625)"/>
       <path id="DejaVuSans-7a" d="M 353 3500 
L 3084 3500 
L 3084 2975 
L 922 459 
L 3084 459 
L 3084 0 
L 275 0 
L 275 525 
L 2438 3041 
L 353 3041 
L 353 3500 
z
" transform="scale(0.015625)"/>
       <path id="DejaVuSans-65" d="M 3597 1894 
L 3597 1613 
L 953 1613 
Q 991 1019 1311 708 
Q 1631 397 2203 397 
Q 2534 397 2845 478 
Q 3156 559 3463 722 
L 3463 178 
Q 3153 47 2828 -22 
Q 2503 -91 2169 -91 
Q 1331 -91 842 396 
Q 353 884 353 1716 
Q 353 2575 817 3079 
Q 1281 3584 2069 3584 
Q 2775 3584 3186 3129 
Q 3597 2675 3597 1894 
z
M 3022 2063 
Q 3016 2534 2758 2815 
Q 2500 3097 2075 3097 
Q 1594 3097 1305 2825 
Q 1016 2553 972 2059 
L 3022 2063 
z
" transform="scale(0.015625)"/>
       <path id="DejaVuSans-64" d="M 2906 2969 
L 2906 4863 
L 3481 4863 
L 3481 0 
L 2906 0 
L 2906 525 
Q 2725 213 2448 61 
Q 2172 -91 1784 -91 
Q 1150 -91 751 415 
Q 353 922 353 1747 
Q 353 2572 751 3078 
Q 1150 3584 1784 3584 
Q 2172 3584 2448 3432 
Q 2725 3281 2906 2969 
z
M 947 1747 
Q 947 1113 1208 752 
Q 1469 391 1925 391 
Q 2381 391 2643 752 
Q 2906 1113 2906 1747 
Q 2906 2381 2643 2742 
Q 2381 3103 1925 3103 
Q 1469 3103 1208 2742 
Q 947 2381 947 1747 
z
" transform="scale(0.015625)"/>
       <path id="DejaVuSans-20" transform="scale(0.015625)"/>
       <path id="DejaVuSans-4c" d="M 628 4666 
L 1259 4666 
L 1259 531 
L 3531 531 
L 3531 0 
L 628 0 
L 628 4666 
z
" transform="scale(0.015625)"/>
       <path id="DejaVuSans-73" d="M 2834 3397 
L 2834 2853 
Q 2591 2978 2328 3040 
Q 2066 3103 1784 3103 
Q 1356 3103 1142 2972 
Q 928 2841 928 2578 
Q 928 2378 1081 2264 
Q 1234 2150 1697 2047 
L 1894 2003 
Q 2506 1872 2764 1633 
Q 3022 1394 3022 966 
Q 3022 478 2636 193 
Q 2250 -91 1575 -91 
Q 1294 -91 989 -36 
Q 684 19 347 128 
L 347 722 
Q 666 556 975 473 
Q 1284 391 1588 391 
Q 1994 391 2212 530 
Q 2431 669 2431 922 
Q 2431 1156 2273 1281 
Q 2116 1406 1581 1522 
L 1381 1569 
Q 847 1681 609 1914 
Q 372 2147 372 2553 
Q 372 3047 722 3315 
Q 1072 3584 1716 3584 
Q 2034 3584 2315 3537 
Q 2597 3491 2834 3397 
z
" transform="scale(0.015625)"/>
      </defs>
      <use xlink:href="#DejaVuSans-4e"/>
      <use xlink:href="#DejaVuSans-6f" x="74.804688"/>
      <use xlink:href="#DejaVuSans-72" x="135.986328"/>
      <use xlink:href="#DejaVuSans-6d" x="175.349609"/>
      <use xlink:href="#DejaVuSans-61" x="272.761719"/>
      <use xlink:href="#DejaVuSans-6c" x="334.041016"/>
      <use xlink:href="#DejaVuSans-69" x="361.824219"/>
      <use xlink:href="#DejaVuSans-7a" x="389.607422"/>
      <use xlink:href="#DejaVuSans-65" x="442.097656"/>
      <use xlink:href="#DejaVuSans-64" x="503.621094"/>
      <use xlink:href="#DejaVuSans-20" x="567.097656"/>
      <use xlink:href="#DejaVuSans-4c" x="598.884766"/>
      <use xlink:href="#DejaVuSans-6f" x="652.847656"/>
      <use xlink:href="#DejaVuSans-73" x="714.029297"/>
      <use xlink:href="#DejaVuSans-73" x="766.128906"/>
     </g>
    </g>
   </g>
   <g id="line2d_11">
    <path d="M 59.87 140.423012 
L 62.58735 142.773341 
L 66.663375 145.926737 
L 70.7394 148.748433 
L 73.45675 150.40955 
L 80.250125 154.040392 
L 82.967475 155.353167 
L 88.402175 157.656692 
L 91.119525 158.484464 
L 93.836875 158.978838 
L 96.554225 159.162697 
L 104.706275 159.445972 
L 111.49965 159.762416 
L 127.80375 160.014099 
L 141.3905 160.04968 
L 176.71605 160.217186 
L 251.443175 160.352224 
L 330.246325 160.383264 
L 330.246325 160.383264 
" clip-path="url(#p76da334387)" style="fill: none; stroke: #ff0000; stroke-opacity: 0.8; stroke-width: 2; stroke-linecap: square"/>
   </g>
   <g id="line2d_12">
    <path d="M 59.87 135.447895 
L 62.58735 138.487082 
L 65.3047 141.251132 
L 69.380725 144.872581 
L 73.45675 148.259532 
L 76.1741 150.13779 
L 81.6088 153.442895 
L 84.32615 154.885323 
L 88.402175 156.722431 
L 91.119525 157.703724 
L 93.836875 158.322596 
L 96.554225 158.642729 
L 107.423625 159.385851 
L 112.858325 159.711659 
L 118.293025 159.73664 
L 125.0864 159.759378 
L 138.67315 159.953036 
L 296.27945 160.368773 
L 330.246325 160.377795 
L 330.246325 160.377795 
" clip-path="url(#p76da334387)" style="fill: none; stroke: #ccff00; stroke-opacity: 0.8; stroke-width: 2; stroke-linecap: square"/>
   </g>
   <g id="line2d_13">
    <path d="M 59.87 135.157116 
L 63.946025 140.03042 
L 65.3047 141.473462 
L 68.02205 143.819212 
L 74.815425 149.186615 
L 77.532775 150.889085 
L 84.32615 154.808612 
L 87.0435 155.928388 
L 92.4782 157.982132 
L 95.19555 158.52168 
L 97.9129 158.75853 
L 104.706275 158.899332 
L 118.293025 159.65697 
L 159.053275 160.081762 
L 191.661475 160.225568 
L 267.747275 160.336907 
L 330.246325 160.364822 
L 330.246325 160.364822 
" clip-path="url(#p76da334387)" style="fill: none; stroke: #00ff66; stroke-opacity: 0.8; stroke-width: 2; stroke-linecap: square"/>
   </g>
   <g id="line2d_14">
    <path d="M 59.87 136.540033 
L 62.58735 139.415222 
L 65.3047 141.889117 
L 72.098075 147.527098 
L 74.815425 149.559917 
L 80.250125 153.16775 
L 82.967475 154.729819 
L 87.0435 156.818643 
L 88.402175 157.295386 
L 89.76085 157.649238 
L 91.119525 157.878728 
L 97.9129 158.37433 
L 106.06495 159.489255 
L 111.49965 159.796546 
L 118.293025 159.924723 
L 141.3905 160.194007 
L 161.770625 160.250821 
L 273.181975 160.365641 
L 330.246325 160.37891 
L 330.246325 160.37891 
" clip-path="url(#p76da334387)" style="fill: none; stroke: #0066ff; stroke-opacity: 0.8; stroke-width: 2; stroke-linecap: square"/>
   </g>
   <g id="line2d_15">
    <path d="M 59.87 137.050613 
L 63.946025 141.814997 
L 65.3047 143.235006 
L 66.663375 144.393791 
L 72.098075 148.164119 
L 74.815425 149.75779 
L 77.532775 151.226009 
L 81.6088 153.808877 
L 87.0435 156.545125 
L 88.402175 157.11298 
L 91.119525 157.777895 
L 92.4782 157.969297 
L 99.271575 158.348135 
L 106.06495 159.271666 
L 114.217 159.881945 
L 119.6517 160.004196 
L 164.487975 160.269989 
L 330.246325 160.34979 
L 330.246325 160.34979 
" clip-path="url(#p76da334387)" style="fill: none; stroke: #cc00ff; stroke-opacity: 0.8; stroke-width: 2; stroke-linecap: square"/>
   </g>
   <g id="patch_3">
    <path d="M 59.87 160.386667 
L 59.87 20.52 
" style="fill: none; stroke: #000000; stroke-width: 0.8; stroke-linejoin: miter; stroke-linecap: square"/>
   </g>
   <g id="patch_4">
    <path d="M 331.605 160.386667 
L 331.605 20.52 
" style="fill: none; stroke: #000000; stroke-width: 0.8; stroke-linejoin: miter; stroke-linecap: square"/>
   </g>
   <g id="patch_5">
    <path d="M 59.87 160.386667 
L 331.605 160.386667 
" style="fill: none; stroke: #000000; stroke-width: 0.8; stroke-linejoin: miter; stroke-linecap: square"/>
   </g>
   <g id="patch_6">
    <path d="M 59.87 20.52 
L 331.605 20.52 
" style="fill: none; stroke: #000000; stroke-width: 0.8; stroke-linejoin: miter; stroke-linecap: square"/>
   </g>
   <g id="legend_1">
    <g id="patch_7">
     <path d="M 177.944812 120.12 
L 322.224188 120.12 
Q 324.624188 120.12 324.624188 117.72 
L 324.624188 28.92 
Q 324.624188 26.52 322.224188 26.52 
L 177.944812 26.52 
Q 175.544812 26.52 175.544812 28.92 
L 175.544812 117.72 
Q 175.544812 120.12 177.944812 120.12 
z
" style="fill: #ffffff; opacity: 0.8; stroke: #cccccc; stroke-linejoin: miter"/>
    </g>
    <g id="line2d_16">
     <path d="M 180.344812 36.290625 
L 192.344812 36.290625 
L 204.344812 36.290625 
" style="fill: none; stroke: #ff0000; stroke-opacity: 0.8; stroke-width: 2; stroke-linecap: square"/>
    </g>
    <g id="text_12">
     <!-- S/R: All | All -->
     <g transform="translate(213.944812 40.490625) scale(0.12 -0.12)">
      <defs>
       <path id="DejaVuSans-53" d="M 3425 4513 
L 3425 3897 
Q 3066 4069 2747 4153 
Q 2428 4238 2131 4238 
Q 1616 4238 1336 4038 
Q 1056 3838 1056 3469 
Q 1056 3159 1242 3001 
Q 1428 2844 1947 2747 
L 2328 2669 
Q 3034 2534 3370 2195 
Q 3706 1856 3706 1288 
Q 3706 609 3251 259 
Q 2797 -91 1919 -91 
Q 1588 -91 1214 -16 
Q 841 59 441 206 
L 441 856 
Q 825 641 1194 531 
Q 1563 422 1919 422 
Q 2459 422 2753 634 
Q 3047 847 3047 1241 
Q 3047 1584 2836 1778 
Q 2625 1972 2144 2069 
L 1759 2144 
Q 1053 2284 737 2584 
Q 422 2884 422 3419 
Q 422 4038 858 4394 
Q 1294 4750 2059 4750 
Q 2388 4750 2728 4690 
Q 3069 4631 3425 4513 
z
" transform="scale(0.015625)"/>
       <path id="DejaVuSans-2f" d="M 1625 4666 
L 2156 4666 
L 531 -594 
L 0 -594 
L 1625 4666 
z
" transform="scale(0.015625)"/>
       <path id="DejaVuSans-52" d="M 2841 2188 
Q 3044 2119 3236 1894 
Q 3428 1669 3622 1275 
L 4263 0 
L 3584 0 
L 2988 1197 
Q 2756 1666 2539 1819 
Q 2322 1972 1947 1972 
L 1259 1972 
L 1259 0 
L 628 0 
L 628 4666 
L 2053 4666 
Q 2853 4666 3247 4331 
Q 3641 3997 3641 3322 
Q 3641 2881 3436 2590 
Q 3231 2300 2841 2188 
z
M 1259 4147 
L 1259 2491 
L 2053 2491 
Q 2509 2491 2742 2702 
Q 2975 2913 2975 3322 
Q 2975 3731 2742 3939 
Q 2509 4147 2053 4147 
L 1259 4147 
z
" transform="scale(0.015625)"/>
       <path id="DejaVuSans-3a" d="M 750 794 
L 1409 794 
L 1409 0 
L 750 0 
L 750 794 
z
M 750 3309 
L 1409 3309 
L 1409 2516 
L 750 2516 
L 750 3309 
z
" transform="scale(0.015625)"/>
       <path id="DejaVuSans-41" d="M 2188 4044 
L 1331 1722 
L 3047 1722 
L 2188 4044 
z
M 1831 4666 
L 2547 4666 
L 4325 0 
L 3669 0 
L 3244 1197 
L 1141 1197 
L 716 0 
L 50 0 
L 1831 4666 
z
" transform="scale(0.015625)"/>
       <path id="DejaVuSans-7c" d="M 1344 4891 
L 1344 -1509 
L 813 -1509 
L 813 4891 
L 1344 4891 
z
" transform="scale(0.015625)"/>
      </defs>
      <use xlink:href="#DejaVuSans-53"/>
      <use xlink:href="#DejaVuSans-2f" x="63.476562"/>
      <use xlink:href="#DejaVuSans-52" x="97.167969"/>
      <use xlink:href="#DejaVuSans-3a" x="163.525391"/>
      <use xlink:href="#DejaVuSans-20" x="197.216797"/>
      <use xlink:href="#DejaVuSans-41" x="229.003906"/>
      <use xlink:href="#DejaVuSans-6c" x="297.412109"/>
      <use xlink:href="#DejaVuSans-6c" x="325.195312"/>
      <use xlink:href="#DejaVuSans-20" x="352.978516"/>
      <use xlink:href="#DejaVuSans-7c" x="384.765625"/>
      <use xlink:href="#DejaVuSans-20" x="418.457031"/>
      <use xlink:href="#DejaVuSans-41" x="450.244141"/>
      <use xlink:href="#DejaVuSans-6c" x="518.652344"/>
      <use xlink:href="#DejaVuSans-6c" x="546.435547"/>
     </g>
    </g>
    <g id="line2d_17">
     <path d="M 180.344812 54.290625 
L 192.344812 54.290625 
L 204.344812 54.290625 
" style="fill: none; stroke: #ccff00; stroke-opacity: 0.8; stroke-width: 2; stroke-linecap: square"/>
    </g>
    <g id="text_13">
     <!-- S/R: All | [0, 1, -1] -->
     <g transform="translate(213.944812 58.490625) scale(0.12 -0.12)">
      <defs>
       <path id="DejaVuSans-5b" d="M 550 4863 
L 1875 4863 
L 1875 4416 
L 1125 4416 
L 1125 -397 
L 1875 -397 
L 1875 -844 
L 550 -844 
L 550 4863 
z
" transform="scale(0.015625)"/>
       <path id="DejaVuSans-2c" d="M 750 794 
L 1409 794 
L 1409 256 
L 897 -744 
L 494 -744 
L 750 256 
L 750 794 
z
" transform="scale(0.015625)"/>
       <path id="DejaVuSans-2d" d="M 313 2009 
L 1997 2009 
L 1997 1497 
L 313 1497 
L 313 2009 
z
" transform="scale(0.015625)"/>
       <path id="DejaVuSans-5d" d="M 1947 4863 
L 1947 -844 
L 622 -844 
L 622 -397 
L 1369 -397 
L 1369 4416 
L 622 4416 
L 622 4863 
L 1947 4863 
z
" transform="scale(0.015625)"/>
      </defs>
      <use xlink:href="#DejaVuSans-53"/>
      <use xlink:href="#DejaVuSans-2f" x="63.476562"/>
      <use xlink:href="#DejaVuSans-52" x="97.167969"/>
      <use xlink:href="#DejaVuSans-3a" x="163.525391"/>
      <use xlink:href="#DejaVuSans-20" x="197.216797"/>
      <use xlink:href="#DejaVuSans-41" x="229.003906"/>
      <use xlink:href="#DejaVuSans-6c" x="297.412109"/>
      <use xlink:href="#DejaVuSans-6c" x="325.195312"/>
      <use xlink:href="#DejaVuSans-20" x="352.978516"/>
      <use xlink:href="#DejaVuSans-7c" x="384.765625"/>
      <use xlink:href="#DejaVuSans-20" x="418.457031"/>
      <use xlink:href="#DejaVuSans-5b" x="450.244141"/>
      <use xlink:href="#DejaVuSans-30" x="489.257812"/>
      <use xlink:href="#DejaVuSans-2c" x="552.880859"/>
      <use xlink:href="#DejaVuSans-20" x="584.667969"/>
      <use xlink:href="#DejaVuSans-31" x="616.455078"/>
      <use xlink:href="#DejaVuSans-2c" x="680.078125"/>
      <use xlink:href="#DejaVuSans-20" x="711.865234"/>
      <use xlink:href="#DejaVuSans-2d" x="743.652344"/>
      <use xlink:href="#DejaVuSans-31" x="779.736328"/>
      <use xlink:href="#DejaVuSans-5d" x="843.359375"/>
     </g>
    </g>
    <g id="line2d_18">
     <path d="M 180.344812 72.290625 
L 192.344812 72.290625 
L 204.344812 72.290625 
" style="fill: none; stroke: #00ff66; stroke-opacity: 0.8; stroke-width: 2; stroke-linecap: square"/>
    </g>
    <g id="text_14">
     <!-- S/R: All | [0, -1] -->
     <g transform="translate(213.944812 76.490625) scale(0.12 -0.12)">
      <use xlink:href="#DejaVuSans-53"/>
      <use xlink:href="#DejaVuSans-2f" x="63.476562"/>
      <use xlink:href="#DejaVuSans-52" x="97.167969"/>
      <use xlink:href="#DejaVuSans-3a" x="163.525391"/>
      <use xlink:href="#DejaVuSans-20" x="197.216797"/>
      <use xlink:href="#DejaVuSans-41" x="229.003906"/>
      <use xlink:href="#DejaVuSans-6c" x="297.412109"/>
      <use xlink:href="#DejaVuSans-6c" x="325.195312"/>
      <use xlink:href="#DejaVuSans-20" x="352.978516"/>
      <use xlink:href="#DejaVuSans-7c" x="384.765625"/>
      <use xlink:href="#DejaVuSans-20" x="418.457031"/>
      <use xlink:href="#DejaVuSans-5b" x="450.244141"/>
      <use xlink:href="#DejaVuSans-30" x="489.257812"/>
      <use xlink:href="#DejaVuSans-2c" x="552.880859"/>
      <use xlink:href="#DejaVuSans-20" x="584.667969"/>
      <use xlink:href="#DejaVuSans-2d" x="616.455078"/>
      <use xlink:href="#DejaVuSans-31" x="652.539062"/>
      <use xlink:href="#DejaVuSans-5d" x="716.162109"/>
     </g>
    </g>
    <g id="line2d_19">
     <path d="M 180.344812 90.290625 
L 192.344812 90.290625 
L 204.344812 90.290625 
" style="fill: none; stroke: #0066ff; stroke-opacity: 0.8; stroke-width: 2; stroke-linecap: square"/>
    </g>
    <g id="text_15">
     <!-- S/R: All | [0, 1] -->
     <g transform="translate(213.944812 94.490625) scale(0.12 -0.12)">
      <use xlink:href="#DejaVuSans-53"/>
      <use xlink:href="#DejaVuSans-2f" x="63.476562"/>
      <use xlink:href="#DejaVuSans-52" x="97.167969"/>
      <use xlink:href="#DejaVuSans-3a" x="163.525391"/>
      <use xlink:href="#DejaVuSans-20" x="197.216797"/>
      <use xlink:href="#DejaVuSans-41" x="229.003906"/>
      <use xlink:href="#DejaVuSans-6c" x="297.412109"/>
      <use xlink:href="#DejaVuSans-6c" x="325.195312"/>
      <use xlink:href="#DejaVuSans-20" x="352.978516"/>
      <use xlink:href="#DejaVuSans-7c" x="384.765625"/>
      <use xlink:href="#DejaVuSans-20" x="418.457031"/>
      <use xlink:href="#DejaVuSans-5b" x="450.244141"/>
      <use xlink:href="#DejaVuSans-30" x="489.257812"/>
      <use xlink:href="#DejaVuSans-2c" x="552.880859"/>
      <use xlink:href="#DejaVuSans-20" x="584.667969"/>
      <use xlink:href="#DejaVuSans-31" x="616.455078"/>
      <use xlink:href="#DejaVuSans-5d" x="680.078125"/>
     </g>
    </g>
    <g id="line2d_20">
     <path d="M 180.344812 108.290625 
L 192.344812 108.290625 
L 204.344812 108.290625 
" style="fill: none; stroke: #cc00ff; stroke-opacity: 0.8; stroke-width: 2; stroke-linecap: square"/>
    </g>
    <g id="text_16">
     <!-- S/R: All | [0] -->
     <g transform="translate(213.944812 112.490625) scale(0.12 -0.12)">
      <use xlink:href="#DejaVuSans-53"/>
      <use xlink:href="#DejaVuSans-2f" x="63.476562"/>
      <use xlink:href="#DejaVuSans-52" x="97.167969"/>
      <use xlink:href="#DejaVuSans-3a" x="163.525391"/>
      <use xlink:href="#DejaVuSans-20" x="197.216797"/>
      <use xlink:href="#DejaVuSans-41" x="229.003906"/>
      <use xlink:href="#DejaVuSans-6c" x="297.412109"/>
      <use xlink:href="#DejaVuSans-6c" x="325.195312"/>
      <use xlink:href="#DejaVuSans-20" x="352.978516"/>
      <use xlink:href="#DejaVuSans-7c" x="384.765625"/>
      <use xlink:href="#DejaVuSans-20" x="418.457031"/>
      <use xlink:href="#DejaVuSans-5b" x="450.244141"/>
      <use xlink:href="#DejaVuSans-30" x="489.257812"/>
      <use xlink:href="#DejaVuSans-5d" x="552.880859"/>
     </g>
    </g>
   </g>
  </g>
  <g id="axes_2">
   <g id="patch_8">
    <path d="M 59.87 341.453333 
L 331.605 341.453333 
L 331.605 201.586667 
L 59.87 201.586667 
z
" style="fill: #ffffff"/>
   </g>
   <g id="matplotlib.axis_3">
    <g id="xtick_6">
     <g id="line2d_21">
      <g>
       <use xlink:href="#m18d5fed2f3" x="59.87" y="341.453333" style="stroke: #000000; stroke-width: 0.8"/>
      </g>
     </g>
     <g id="text_17">
      <!-- 0 -->
      <g transform="translate(55.41625 359.091146) scale(0.14 -0.14)">
       <use xlink:href="#DejaVuSans-30"/>
      </g>
     </g>
    </g>
    <g id="xtick_7">
     <g id="line2d_22">
      <g>
       <use xlink:href="#m18d5fed2f3" x="127.80375" y="341.453333" style="stroke: #000000; stroke-width: 0.8"/>
      </g>
     </g>
     <g id="text_18">
      <!-- 50 -->
      <g transform="translate(118.89625 359.091146) scale(0.14 -0.14)">
       <use xlink:href="#DejaVuSans-35"/>
       <use xlink:href="#DejaVuSans-30" x="63.623047"/>
      </g>
     </g>
    </g>
    <g id="xtick_8">
     <g id="line2d_23">
      <g>
       <use xlink:href="#m18d5fed2f3" x="195.7375" y="341.453333" style="stroke: #000000; stroke-width: 0.8"/>
      </g>
     </g>
     <g id="text_19">
      <!-- 100 -->
      <g transform="translate(182.37625 359.091146) scale(0.14 -0.14)">
       <use xlink:href="#DejaVuSans-31"/>
       <use xlink:href="#DejaVuSans-30" x="63.623047"/>
       <use xlink:href="#DejaVuSans-30" x="127.246094"/>
      </g>
     </g>
    </g>
    <g id="xtick_9">
     <g id="line2d_24">
      <g>
       <use xlink:href="#m18d5fed2f3" x="263.67125" y="341.453333" style="stroke: #000000; stroke-width: 0.8"/>
      </g>
     </g>
     <g id="text_20">
      <!-- 150 -->
      <g transform="translate(250.31 359.091146) scale(0.14 -0.14)">
       <use xlink:href="#DejaVuSans-31"/>
       <use xlink:href="#DejaVuSans-35" x="63.623047"/>
       <use xlink:href="#DejaVuSans-30" x="127.246094"/>
      </g>
     </g>
    </g>
    <g id="xtick_10">
     <g id="line2d_25">
      <g>
       <use xlink:href="#m18d5fed2f3" x="331.605" y="341.453333" style="stroke: #000000; stroke-width: 0.8"/>
      </g>
     </g>
     <g id="text_21">
      <!-- 200 -->
      <g transform="translate(318.24375 359.091146) scale(0.14 -0.14)">
       <use xlink:href="#DejaVuSans-32"/>
       <use xlink:href="#DejaVuSans-30" x="63.623047"/>
       <use xlink:href="#DejaVuSans-30" x="127.246094"/>
      </g>
     </g>
    </g>
   </g>
   <g id="matplotlib.axis_4">
    <g id="ytick_6">
     <g id="line2d_26">
      <g>
       <use xlink:href="#m92093b47ed" x="59.87" y="341.453333" style="stroke: #000000; stroke-width: 0.8"/>
      </g>
     </g>
     <g id="text_22">
      <!-- 0 -->
      <g transform="translate(43.9625 346.77224) scale(0.14 -0.14)">
       <use xlink:href="#DejaVuSans-30"/>
      </g>
     </g>
    </g>
    <g id="ytick_7">
     <g id="line2d_27">
      <g>
       <use xlink:href="#m92093b47ed" x="59.87" y="306.486667" style="stroke: #000000; stroke-width: 0.8"/>
      </g>
     </g>
     <g id="text_23">
      <!-- 5 -->
      <g transform="translate(43.9625 311.805573) scale(0.14 -0.14)">
       <use xlink:href="#DejaVuSans-35"/>
      </g>
     </g>
    </g>
    <g id="ytick_8">
     <g id="line2d_28">
      <g>
       <use xlink:href="#m92093b47ed" x="59.87" y="271.52" style="stroke: #000000; stroke-width: 0.8"/>
      </g>
     </g>
     <g id="text_24">
      <!-- 10 -->
      <g transform="translate(35.055 276.838906) scale(0.14 -0.14)">
       <use xlink:href="#DejaVuSans-31"/>
       <use xlink:href="#DejaVuSans-30" x="63.623047"/>
      </g>
     </g>
    </g>
    <g id="ytick_9">
     <g id="line2d_29">
      <g>
       <use xlink:href="#m92093b47ed" x="59.87" y="236.553333" style="stroke: #000000; stroke-width: 0.8"/>
      </g>
     </g>
     <g id="text_25">
      <!-- 15 -->
      <g transform="translate(35.055 241.87224) scale(0.14 -0.14)">
       <use xlink:href="#DejaVuSans-31"/>
       <use xlink:href="#DejaVuSans-35" x="63.623047"/>
      </g>
     </g>
    </g>
    <g id="ytick_10">
     <g id="line2d_30">
      <g>
       <use xlink:href="#m92093b47ed" x="59.87" y="201.586667" style="stroke: #000000; stroke-width: 0.8"/>
      </g>
     </g>
     <g id="text_26">
      <!-- 20 -->
      <g transform="translate(35.055 206.905573) scale(0.14 -0.14)">
       <use xlink:href="#DejaVuSans-32"/>
       <use xlink:href="#DejaVuSans-30" x="63.623047"/>
      </g>
     </g>
    </g>
    <g id="text_27">
     <!-- Mean GT error $g_{Na}$ -->
     <g transform="translate(28.115 335.5) rotate(-90) scale(0.14 -0.14)">
      <defs>
       <path id="DejaVuSans-4d" d="M 628 4666 
L 1569 4666 
L 2759 1491 
L 3956 4666 
L 4897 4666 
L 4897 0 
L 4281 0 
L 4281 4097 
L 3078 897 
L 2444 897 
L 1241 4097 
L 1241 0 
L 628 0 
L 628 4666 
z
" transform="scale(0.015625)"/>
       <path id="DejaVuSans-6e" d="M 3513 2113 
L 3513 0 
L 2938 0 
L 2938 2094 
Q 2938 2591 2744 2837 
Q 2550 3084 2163 3084 
Q 1697 3084 1428 2787 
Q 1159 2491 1159 1978 
L 1159 0 
L 581 0 
L 581 3500 
L 1159 3500 
L 1159 2956 
Q 1366 3272 1645 3428 
Q 1925 3584 2291 3584 
Q 2894 3584 3203 3211 
Q 3513 2838 3513 2113 
z
" transform="scale(0.015625)"/>
       <path id="DejaVuSans-47" d="M 3809 666 
L 3809 1919 
L 2778 1919 
L 2778 2438 
L 4434 2438 
L 4434 434 
Q 4069 175 3628 42 
Q 3188 -91 2688 -91 
Q 1594 -91 976 548 
Q 359 1188 359 2328 
Q 359 3472 976 4111 
Q 1594 4750 2688 4750 
Q 3144 4750 3555 4637 
Q 3966 4525 4313 4306 
L 4313 3634 
Q 3963 3931 3569 4081 
Q 3175 4231 2741 4231 
Q 1884 4231 1454 3753 
Q 1025 3275 1025 2328 
Q 1025 1384 1454 906 
Q 1884 428 2741 428 
Q 3075 428 3337 486 
Q 3600 544 3809 666 
z
" transform="scale(0.015625)"/>
       <path id="DejaVuSans-54" d="M -19 4666 
L 3928 4666 
L 3928 4134 
L 2272 4134 
L 2272 0 
L 1638 0 
L 1638 4134 
L -19 4134 
L -19 4666 
z
" transform="scale(0.015625)"/>
       <path id="DejaVuSans-Oblique-67" d="M 3816 3500 
L 3219 434 
Q 3047 -456 2561 -893 
Q 2075 -1331 1253 -1331 
Q 950 -1331 690 -1286 
Q 431 -1241 206 -1147 
L 313 -588 
Q 525 -725 762 -790 
Q 1000 -856 1269 -856 
Q 1816 -856 2167 -557 
Q 2519 -259 2631 300 
L 2681 563 
Q 2441 288 2122 144 
Q 1803 0 1434 0 
Q 903 0 598 351 
Q 294 703 294 1319 
Q 294 1803 478 2267 
Q 663 2731 997 3091 
Q 1219 3328 1514 3456 
Q 1809 3584 2131 3584 
Q 2484 3584 2746 3420 
Q 3009 3256 3138 2956 
L 3238 3500 
L 3816 3500 
z
M 2950 2216 
Q 2950 2641 2750 2872 
Q 2550 3103 2181 3103 
Q 1953 3103 1747 3012 
Q 1541 2922 1394 2759 
Q 1156 2491 1023 2127 
Q 891 1763 891 1375 
Q 891 944 1092 712 
Q 1294 481 1672 481 
Q 2219 481 2584 976 
Q 2950 1472 2950 2216 
z
" transform="scale(0.015625)"/>
       <path id="DejaVuSans-Oblique-4e" d="M 1081 4666 
L 1931 4666 
L 3219 666 
L 4000 4666 
L 4616 4666 
L 3706 0 
L 2853 0 
L 1569 4025 
L 788 0 
L 172 0 
L 1081 4666 
z
" transform="scale(0.015625)"/>
       <path id="DejaVuSans-Oblique-61" d="M 3438 1997 
L 3047 0 
L 2472 0 
L 2578 531 
Q 2325 219 2001 64 
Q 1678 -91 1281 -91 
Q 834 -91 548 182 
Q 263 456 263 884 
Q 263 1497 752 1853 
Q 1241 2209 2100 2209 
L 2900 2209 
L 2931 2363 
Q 2938 2388 2941 2417 
Q 2944 2447 2944 2509 
Q 2944 2788 2717 2942 
Q 2491 3097 2081 3097 
Q 1800 3097 1504 3025 
Q 1209 2953 897 2809 
L 997 3341 
Q 1322 3463 1633 3523 
Q 1944 3584 2234 3584 
Q 2853 3584 3176 3315 
Q 3500 3047 3500 2534 
Q 3500 2431 3484 2292 
Q 3469 2153 3438 1997 
z
M 2816 1759 
L 2241 1759 
Q 1534 1759 1195 1570 
Q 856 1381 856 984 
Q 856 709 1029 553 
Q 1203 397 1509 397 
Q 1978 397 2328 733 
Q 2678 1069 2791 1631 
L 2816 1759 
z
" transform="scale(0.015625)"/>
      </defs>
      <use xlink:href="#DejaVuSans-4d" transform="translate(0 0.78125)"/>
      <use xlink:href="#DejaVuSans-65" transform="translate(86.279297 0.78125)"/>
      <use xlink:href="#DejaVuSans-61" transform="translate(147.802734 0.78125)"/>
      <use xlink:href="#DejaVuSans-6e" transform="translate(209.082031 0.78125)"/>
      <use xlink:href="#DejaVuSans-20" transform="translate(272.460938 0.78125)"/>
      <use xlink:href="#DejaVuSans-47" transform="translate(304.248047 0.78125)"/>
      <use xlink:href="#DejaVuSans-54" transform="translate(381.738281 0.78125)"/>
      <use xlink:href="#DejaVuSans-20" transform="translate(442.822266 0.78125)"/>
      <use xlink:href="#DejaVuSans-65" transform="translate(474.609375 0.78125)"/>
      <use xlink:href="#DejaVuSans-72" transform="translate(536.132812 0.78125)"/>
      <use xlink:href="#DejaVuSans-72" transform="translate(577.246094 0.78125)"/>
      <use xlink:href="#DejaVuSans-6f" transform="translate(618.359375 0.78125)"/>
      <use xlink:href="#DejaVuSans-72" transform="translate(679.541016 0.78125)"/>
      <use xlink:href="#DejaVuSans-20" transform="translate(720.654297 0.78125)"/>
      <use xlink:href="#DejaVuSans-Oblique-67" transform="translate(752.441406 0.78125)"/>
      <use xlink:href="#DejaVuSans-Oblique-4e" transform="translate(815.917969 -15.625) scale(0.7)"/>
      <use xlink:href="#DejaVuSans-Oblique-61" transform="translate(868.28125 -15.625) scale(0.7)"/>
     </g>
    </g>
   </g>
   <g id="line2d_31">
    <path d="M 59.87 225.501023 
L 61.228675 226.838177 
L 62.58735 228.581708 
L 65.3047 232.613578 
L 68.02205 236.974434 
L 70.7394 241.650261 
L 73.45675 246.761723 
L 76.1741 252.344522 
L 80.250125 261.378244 
L 89.76085 283.009796 
L 93.836875 291.766562 
L 96.554225 297.175184 
L 99.271575 301.968615 
L 100.63025 304.058749 
L 101.988925 305.925094 
L 103.3476 307.349488 
L 106.06495 309.69127 
L 108.7823 311.70644 
L 111.49965 313.44661 
L 114.217 314.93852 
L 116.93435 316.202479 
L 119.6517 317.261032 
L 122.36905 318.151978 
L 125.0864 318.892633 
L 127.80375 319.075696 
L 131.879775 319.623251 
L 138.67315 320.864908 
L 144.10785 322.052259 
L 153.618575 324.221581 
L 157.6946 324.878519 
L 164.487975 325.723501 
L 168.564 326.07186 
L 176.71605 326.372203 
L 183.509425 326.581701 
L 188.944125 327.050869 
L 198.45485 328.201325 
L 231.06305 332.526815 
L 244.6498 333.851075 
L 260.9539 335.266349 
L 277.258 336.459649 
L 296.27945 337.644715 
L 313.942225 338.560089 
L 330.246325 339.22892 
L 330.246325 339.22892 
" clip-path="url(#p6a2678064a)" style="fill: none; stroke: #ff0000; stroke-opacity: 0.8; stroke-width: 2; stroke-linecap: square"/>
   </g>
   <g id="line2d_32">
    <path d="M 59.87 224.335467 
L 61.228675 224.500521 
L 62.58735 225.098673 
L 63.946025 226.086877 
L 65.3047 227.409821 
L 66.663375 229.018542 
L 69.380725 232.857134 
L 72.098075 237.246455 
L 76.1741 244.444528 
L 88.402175 266.576612 
L 95.19555 278.521155 
L 97.9129 282.995479 
L 100.63025 287.007652 
L 103.3476 290.373155 
L 104.706275 291.778114 
L 106.06495 292.997424 
L 107.423625 294.041589 
L 108.7823 294.925066 
L 111.49965 296.293041 
L 114.217 297.282001 
L 121.010375 299.484429 
L 131.879775 303.646555 
L 134.597125 304.314888 
L 135.9558 304.512783 
L 152.2599 305.479565 
L 157.6946 306.11849 
L 161.770625 306.799637 
L 165.84665 307.696034 
L 169.922675 308.625919 
L 178.074725 310.00653 
L 186.226775 311.114472 
L 193.02015 312.150473 
L 202.530875 313.949831 
L 216.117625 316.74344 
L 228.3457 319.147914 
L 241.93245 321.62351 
L 255.5192 323.821377 
L 274.54065 326.631917 
L 290.84475 328.817343 
L 308.507525 330.900656 
L 326.1703 332.712757 
L 330.246325 333.091692 
L 330.246325 333.091692 
" clip-path="url(#p6a2678064a)" style="fill: none; stroke: #ccff00; stroke-opacity: 0.8; stroke-width: 2; stroke-linecap: square"/>
   </g>
   <g id="line2d_33">
    <path d="M 59.87 224.335467 
L 61.228675 224.395856 
L 62.58735 224.593527 
L 63.946025 225.055536 
L 65.3047 225.815781 
L 66.663375 226.8404 
L 68.02205 228.117431 
L 69.380725 229.641559 
L 70.7394 231.395272 
L 72.098075 233.35947 
L 74.815425 237.850903 
L 77.532775 242.890505 
L 87.0435 261.142095 
L 89.76085 265.867463 
L 93.836875 272.379802 
L 97.9129 278.335436 
L 100.63025 281.996035 
L 103.3476 285.322696 
L 106.06495 288.217012 
L 108.7823 290.594382 
L 110.140975 291.570332 
L 111.49965 292.40065 
L 112.858325 293.0906 
L 114.217 293.647438 
L 116.93435 294.417643 
L 119.6517 294.86674 
L 126.445075 295.664265 
L 129.162425 295.707687 
L 131.879775 295.977271 
L 137.314475 296.873882 
L 142.749175 297.748325 
L 149.54255 298.547279 
L 157.6946 299.514247 
L 164.487975 300.555584 
L 173.9987 302.252012 
L 197.096175 306.556721 
L 220.19365 310.408286 
L 239.2151 313.473241 
L 271.8233 318.389343 
L 289.486075 320.793835 
L 311.224875 323.480583 
L 330.246325 325.603103 
L 330.246325 325.603103 
" clip-path="url(#p6a2678064a)" style="fill: none; stroke: #00ff66; stroke-opacity: 0.8; stroke-width: 2; stroke-linecap: square"/>
   </g>
   <g id="line2d_34">
    <path d="M 59.87 224.335467 
L 61.228675 224.400053 
L 62.58735 224.702273 
L 63.946025 225.404593 
L 65.3047 226.512365 
L 66.663375 227.953249 
L 68.02205 229.64701 
L 70.7394 233.517507 
L 74.815425 239.912723 
L 81.6088 250.703787 
L 95.19555 271.782965 
L 97.9129 275.398658 
L 100.63025 278.467329 
L 103.3476 280.936612 
L 106.06495 282.861648 
L 108.7823 284.393707 
L 115.575675 287.923534 
L 118.293025 289.689696 
L 121.010375 291.745736 
L 129.162425 298.312115 
L 131.879775 300.063018 
L 134.597125 301.402946 
L 135.9558 301.870569 
L 138.67315 302.344298 
L 141.3905 302.589926 
L 150.901225 303.19369 
L 154.97725 303.843811 
L 164.487975 305.640501 
L 167.205325 305.980443 
L 169.922675 306.104402 
L 183.509425 306.325336 
L 188.944125 306.768182 
L 202.530875 307.995833 
L 212.0416 308.850935 
L 225.62835 310.463951 
L 246.008475 312.688966 
L 259.595225 314.079377 
L 284.051375 316.272966 
L 304.4315 317.845183 
L 326.1703 319.324163 
L 330.246325 319.576505 
L 330.246325 319.576505 
" clip-path="url(#p6a2678064a)" style="fill: none; stroke: #0066ff; stroke-opacity: 0.8; stroke-width: 2; stroke-linecap: square"/>
   </g>
   <g id="line2d_35">
    <path d="M 59.87 224.335467 
L 63.946025 224.479463 
L 65.3047 224.732543 
L 66.663375 225.192934 
L 68.02205 225.884342 
L 69.380725 226.806164 
L 70.7394 227.93759 
L 72.098075 229.269212 
L 73.45675 230.793002 
L 76.1741 234.324714 
L 78.89145 238.331578 
L 82.967475 244.933917 
L 92.4782 260.893195 
L 95.19555 264.962946 
L 97.9129 268.524519 
L 100.63025 271.52358 
L 103.3476 273.954865 
L 106.06495 275.892351 
L 108.7823 277.451363 
L 112.858325 279.386101 
L 118.293025 281.945446 
L 122.36905 284.226946 
L 129.162425 288.499706 
L 134.597125 290.720435 
L 138.67315 292.133397 
L 141.3905 292.886217 
L 145.466525 293.721284 
L 149.54255 294.2669 
L 154.97725 294.722373 
L 165.84665 295.585228 
L 183.509425 297.313891 
L 190.3028 297.64591 
L 205.248225 298.278068 
L 216.117625 299.045676 
L 288.1274 304.65316 
L 319.376925 306.984965 
L 330.246325 307.735277 
L 330.246325 307.735277 
" clip-path="url(#p6a2678064a)" style="fill: none; stroke: #cc00ff; stroke-opacity: 0.8; stroke-width: 2; stroke-linecap: square"/>
   </g>
   <g id="patch_9">
    <path d="M 59.87 341.453333 
L 59.87 201.586667 
" style="fill: none; stroke: #000000; stroke-width: 0.8; stroke-linejoin: miter; stroke-linecap: square"/>
   </g>
   <g id="patch_10">
    <path d="M 331.605 341.453333 
L 331.605 201.586667 
" style="fill: none; stroke: #000000; stroke-width: 0.8; stroke-linejoin: miter; stroke-linecap: square"/>
   </g>
   <g id="patch_11">
    <path d="M 59.87 341.453333 
L 331.605 341.453333 
" style="fill: none; stroke: #000000; stroke-width: 0.8; stroke-linejoin: miter; stroke-linecap: square"/>
   </g>
   <g id="patch_12">
    <path d="M 59.87 201.586667 
L 331.605 201.586667 
" style="fill: none; stroke: #000000; stroke-width: 0.8; stroke-linejoin: miter; stroke-linecap: square"/>
   </g>
  </g>
  <g id="axes_3">
   <g id="patch_13">
    <path d="M 59.87 522.52 
L 331.605 522.52 
L 331.605 382.653333 
L 59.87 382.653333 
z
" style="fill: #ffffff"/>
   </g>
   <g id="matplotlib.axis_5">
    <g id="xtick_11">
     <g id="line2d_36">
      <g>
       <use xlink:href="#m18d5fed2f3" x="59.87" y="522.52" style="stroke: #000000; stroke-width: 0.8"/>
      </g>
     </g>
     <g id="text_28">
      <!-- 0 -->
      <g transform="translate(55.41625 540.157812) scale(0.14 -0.14)">
       <use xlink:href="#DejaVuSans-30"/>
      </g>
     </g>
    </g>
    <g id="xtick_12">
     <g id="line2d_37">
      <g>
       <use xlink:href="#m18d5fed2f3" x="127.80375" y="522.52" style="stroke: #000000; stroke-width: 0.8"/>
      </g>
     </g>
     <g id="text_29">
      <!-- 50 -->
      <g transform="translate(118.89625 540.157812) scale(0.14 -0.14)">
       <use xlink:href="#DejaVuSans-35"/>
       <use xlink:href="#DejaVuSans-30" x="63.623047"/>
      </g>
     </g>
    </g>
    <g id="xtick_13">
     <g id="line2d_38">
      <g>
       <use xlink:href="#m18d5fed2f3" x="195.7375" y="522.52" style="stroke: #000000; stroke-width: 0.8"/>
      </g>
     </g>
     <g id="text_30">
      <!-- 100 -->
      <g transform="translate(182.37625 540.157812) scale(0.14 -0.14)">
       <use xlink:href="#DejaVuSans-31"/>
       <use xlink:href="#DejaVuSans-30" x="63.623047"/>
       <use xlink:href="#DejaVuSans-30" x="127.246094"/>
      </g>
     </g>
    </g>
    <g id="xtick_14">
     <g id="line2d_39">
      <g>
       <use xlink:href="#m18d5fed2f3" x="263.67125" y="522.52" style="stroke: #000000; stroke-width: 0.8"/>
      </g>
     </g>
     <g id="text_31">
      <!-- 150 -->
      <g transform="translate(250.31 540.157812) scale(0.14 -0.14)">
       <use xlink:href="#DejaVuSans-31"/>
       <use xlink:href="#DejaVuSans-35" x="63.623047"/>
       <use xlink:href="#DejaVuSans-30" x="127.246094"/>
      </g>
     </g>
    </g>
    <g id="xtick_15">
     <g id="line2d_40">
      <g>
       <use xlink:href="#m18d5fed2f3" x="331.605" y="522.52" style="stroke: #000000; stroke-width: 0.8"/>
      </g>
     </g>
     <g id="text_32">
      <!-- 200 -->
      <g transform="translate(318.24375 540.157812) scale(0.14 -0.14)">
       <use xlink:href="#DejaVuSans-32"/>
       <use xlink:href="#DejaVuSans-30" x="63.623047"/>
       <use xlink:href="#DejaVuSans-30" x="127.246094"/>
      </g>
     </g>
    </g>
    <g id="text_33">
     <!-- Epochs -->
     <g transform="translate(170.655625 557.707187) scale(0.14 -0.14)">
      <defs>
       <path id="DejaVuSans-45" d="M 628 4666 
L 3578 4666 
L 3578 4134 
L 1259 4134 
L 1259 2753 
L 3481 2753 
L 3481 2222 
L 1259 2222 
L 1259 531 
L 3634 531 
L 3634 0 
L 628 0 
L 628 4666 
z
" transform="scale(0.015625)"/>
       <path id="DejaVuSans-70" d="M 1159 525 
L 1159 -1331 
L 581 -1331 
L 581 3500 
L 1159 3500 
L 1159 2969 
Q 1341 3281 1617 3432 
Q 1894 3584 2278 3584 
Q 2916 3584 3314 3078 
Q 3713 2572 3713 1747 
Q 3713 922 3314 415 
Q 2916 -91 2278 -91 
Q 1894 -91 1617 61 
Q 1341 213 1159 525 
z
M 3116 1747 
Q 3116 2381 2855 2742 
Q 2594 3103 2138 3103 
Q 1681 3103 1420 2742 
Q 1159 2381 1159 1747 
Q 1159 1113 1420 752 
Q 1681 391 2138 391 
Q 2594 391 2855 752 
Q 3116 1113 3116 1747 
z
" transform="scale(0.015625)"/>
       <path id="DejaVuSans-63" d="M 3122 3366 
L 3122 2828 
Q 2878 2963 2633 3030 
Q 2388 3097 2138 3097 
Q 1578 3097 1268 2742 
Q 959 2388 959 1747 
Q 959 1106 1268 751 
Q 1578 397 2138 397 
Q 2388 397 2633 464 
Q 2878 531 3122 666 
L 3122 134 
Q 2881 22 2623 -34 
Q 2366 -91 2075 -91 
Q 1284 -91 818 406 
Q 353 903 353 1747 
Q 353 2603 823 3093 
Q 1294 3584 2113 3584 
Q 2378 3584 2631 3529 
Q 2884 3475 3122 3366 
z
" transform="scale(0.015625)"/>
       <path id="DejaVuSans-68" d="M 3513 2113 
L 3513 0 
L 2938 0 
L 2938 2094 
Q 2938 2591 2744 2837 
Q 2550 3084 2163 3084 
Q 1697 3084 1428 2787 
Q 1159 2491 1159 1978 
L 1159 0 
L 581 0 
L 581 4863 
L 1159 4863 
L 1159 2956 
Q 1366 3272 1645 3428 
Q 1925 3584 2291 3584 
Q 2894 3584 3203 3211 
Q 3513 2838 3513 2113 
z
" transform="scale(0.015625)"/>
      </defs>
      <use xlink:href="#DejaVuSans-45"/>
      <use xlink:href="#DejaVuSans-70" x="63.183594"/>
      <use xlink:href="#DejaVuSans-6f" x="126.660156"/>
      <use xlink:href="#DejaVuSans-63" x="187.841797"/>
      <use xlink:href="#DejaVuSans-68" x="242.822266"/>
      <use xlink:href="#DejaVuSans-73" x="306.201172"/>
     </g>
    </g>
   </g>
   <g id="matplotlib.axis_6">
    <g id="ytick_11">
     <g id="line2d_41">
      <g>
       <use xlink:href="#m92093b47ed" x="59.87" y="522.52" style="stroke: #000000; stroke-width: 0.8"/>
      </g>
     </g>
     <g id="text_34">
      <!-- 0 -->
      <g transform="translate(43.9625 527.838906) scale(0.14 -0.14)">
       <use xlink:href="#DejaVuSans-30"/>
      </g>
     </g>
    </g>
    <g id="ytick_12">
     <g id="line2d_42">
      <g>
       <use xlink:href="#m92093b47ed" x="59.87" y="487.553333" style="stroke: #000000; stroke-width: 0.8"/>
      </g>
     </g>
     <g id="text_35">
      <!-- 5 -->
      <g transform="translate(43.9625 492.87224) scale(0.14 -0.14)">
       <use xlink:href="#DejaVuSans-35"/>
      </g>
     </g>
    </g>
    <g id="ytick_13">
     <g id="line2d_43">
      <g>
       <use xlink:href="#m92093b47ed" x="59.87" y="452.586667" style="stroke: #000000; stroke-width: 0.8"/>
      </g>
     </g>
     <g id="text_36">
      <!-- 10 -->
      <g transform="translate(35.055 457.905573) scale(0.14 -0.14)">
       <use xlink:href="#DejaVuSans-31"/>
       <use xlink:href="#DejaVuSans-30" x="63.623047"/>
      </g>
     </g>
    </g>
    <g id="ytick_14">
     <g id="line2d_44">
      <g>
       <use xlink:href="#m92093b47ed" x="59.87" y="417.62" style="stroke: #000000; stroke-width: 0.8"/>
      </g>
     </g>
     <g id="text_37">
      <!-- 15 -->
      <g transform="translate(35.055 422.938906) scale(0.14 -0.14)">
       <use xlink:href="#DejaVuSans-31"/>
       <use xlink:href="#DejaVuSans-35" x="63.623047"/>
      </g>
     </g>
    </g>
    <g id="ytick_15">
     <g id="line2d_45">
      <g>
       <use xlink:href="#m92093b47ed" x="59.87" y="382.653333" style="stroke: #000000; stroke-width: 0.8"/>
      </g>
     </g>
     <g id="text_38">
      <!-- 20 -->
      <g transform="translate(35.055 387.97224) scale(0.14 -0.14)">
       <use xlink:href="#DejaVuSans-32"/>
       <use xlink:href="#DejaVuSans-30" x="63.623047"/>
      </g>
     </g>
    </g>
    <g id="text_39">
     <!-- Mean GT error $g_{K}$ -->
     <g transform="translate(28.115 513.136667) rotate(-90) scale(0.14 -0.14)">
      <defs>
       <path id="DejaVuSans-Oblique-4b" d="M 1081 4666 
L 1716 4666 
L 1331 2700 
L 3781 4666 
L 4622 4666 
L 1850 2438 
L 3878 0 
L 3109 0 
L 1247 2272 
L 806 0 
L 172 0 
L 1081 4666 
z
" transform="scale(0.015625)"/>
      </defs>
      <use xlink:href="#DejaVuSans-4d" transform="translate(0 0.78125)"/>
      <use xlink:href="#DejaVuSans-65" transform="translate(86.279297 0.78125)"/>
      <use xlink:href="#DejaVuSans-61" transform="translate(147.802734 0.78125)"/>
      <use xlink:href="#DejaVuSans-6e" transform="translate(209.082031 0.78125)"/>
      <use xlink:href="#DejaVuSans-20" transform="translate(272.460938 0.78125)"/>
      <use xlink:href="#DejaVuSans-47" transform="translate(304.248047 0.78125)"/>
      <use xlink:href="#DejaVuSans-54" transform="translate(381.738281 0.78125)"/>
      <use xlink:href="#DejaVuSans-20" transform="translate(442.822266 0.78125)"/>
      <use xlink:href="#DejaVuSans-65" transform="translate(474.609375 0.78125)"/>
      <use xlink:href="#DejaVuSans-72" transform="translate(536.132812 0.78125)"/>
      <use xlink:href="#DejaVuSans-72" transform="translate(577.246094 0.78125)"/>
      <use xlink:href="#DejaVuSans-6f" transform="translate(618.359375 0.78125)"/>
      <use xlink:href="#DejaVuSans-72" transform="translate(679.541016 0.78125)"/>
      <use xlink:href="#DejaVuSans-20" transform="translate(720.654297 0.78125)"/>
      <use xlink:href="#DejaVuSans-Oblique-67" transform="translate(752.441406 0.78125)"/>
      <use xlink:href="#DejaVuSans-Oblique-4b" transform="translate(815.917969 -15.625) scale(0.7)"/>
     </g>
    </g>
   </g>
   <g id="line2d_46">
    <path d="M 59.87 470.896647 
L 62.58735 475.711157 
L 65.3047 481.155687 
L 70.7394 492.626688 
L 73.45675 497.691797 
L 74.815425 499.883185 
L 76.1741 500.805203 
L 78.89145 502.116902 
L 89.76085 506.587491 
L 91.119525 506.690068 
L 93.836875 505.633388 
L 99.271575 503.173118 
L 100.63025 502.758919 
L 101.988925 502.49865 
L 103.3476 502.387231 
L 104.706275 502.418573 
L 106.06495 502.573893 
L 107.423625 502.398113 
L 110.140975 501.889138 
L 114.217 501.588704 
L 115.575675 501.741459 
L 118.293025 502.436736 
L 122.36905 503.993147 
L 126.445075 505.480575 
L 129.162425 506.255057 
L 131.879775 506.822324 
L 135.9558 507.286183 
L 140.031825 507.694641 
L 142.749175 508.119177 
L 150.901225 509.666903 
L 154.97725 510.200543 
L 160.41195 510.595289 
L 171.28135 511.677233 
L 179.4334 512.66194 
L 184.8681 513.244549 
L 247.36715 517.719348 
L 274.54065 519.143115 
L 298.9968 520.134938 
L 327.528975 521.005032 
L 330.246325 521.07273 
L 330.246325 521.07273 
" clip-path="url(#p1e2e9ee770)" style="fill: none; stroke: #ff0000; stroke-opacity: 0.8; stroke-width: 2; stroke-linecap: square"/>
   </g>
   <g id="line2d_47">
    <path d="M 59.87 472.062202 
L 62.58735 478.664604 
L 63.946025 481.569827 
L 65.3047 484.195987 
L 68.02205 488.741806 
L 70.7394 492.50354 
L 73.45675 495.68616 
L 74.815425 497.096637 
L 76.1741 497.428887 
L 78.89145 497.877117 
L 81.6088 498.597902 
L 88.402175 500.771175 
L 89.76085 500.972568 
L 91.119525 500.896695 
L 95.19555 498.902725 
L 99.271575 496.170621 
L 100.63025 495.441264 
L 101.988925 494.864582 
L 103.3476 494.465949 
L 104.706275 494.238377 
L 106.06495 494.162267 
L 108.7823 494.326875 
L 119.6517 495.594179 
L 125.0864 495.595539 
L 126.445075 495.449359 
L 130.5211 494.527973 
L 133.23845 494.305181 
L 135.9558 494.525416 
L 138.67315 495.087341 
L 144.10785 496.367552 
L 148.183875 496.951437 
L 153.618575 497.641342 
L 157.6946 498.495994 
L 163.1293 499.712602 
L 165.84665 500.1199 
L 169.922675 500.484834 
L 173.9987 500.848079 
L 178.074725 501.457329 
L 187.58545 503.096 
L 199.813525 504.629807 
L 210.682925 505.830452 
L 239.2151 508.88398 
L 270.464625 512.150438 
L 288.1274 513.732384 
L 308.507525 515.335592 
L 324.811625 516.443502 
L 330.246325 516.784106 
L 330.246325 516.784106 
" clip-path="url(#p1e2e9ee770)" style="fill: none; stroke: #ccff00; stroke-opacity: 0.8; stroke-width: 2; stroke-linecap: square"/>
   </g>
   <g id="line2d_48">
    <path d="M 59.87 472.062202 
L 63.946025 482.138809 
L 65.3047 485.109747 
L 66.663375 487.781387 
L 68.02205 490.170073 
L 69.380725 492.311334 
L 70.7394 494.236116 
L 72.098075 495.950062 
L 73.45675 497.42424 
L 74.815425 498.654377 
L 76.1741 498.711049 
L 78.89145 498.118076 
L 82.967475 497.076273 
L 85.684825 496.567036 
L 87.0435 496.411035 
L 88.402175 496.368507 
L 92.4782 496.55599 
L 107.423625 490.253829 
L 110.140975 489.542751 
L 112.858325 489.222461 
L 115.575675 489.311648 
L 118.293025 489.779811 
L 123.727725 491.005198 
L 126.445075 491.19668 
L 129.162425 491.210534 
L 133.23845 490.933418 
L 138.67315 490.450089 
L 141.3905 490.376108 
L 144.10785 490.498015 
L 146.8252 490.818651 
L 150.901225 491.575415 
L 159.053275 493.231347 
L 165.84665 494.31085 
L 182.15075 496.657754 
L 209.32425 499.676979 
L 235.139075 502.15217 
L 289.486075 507.495699 
L 312.58355 509.435456 
L 330.246325 510.761841 
L 330.246325 510.761841 
" clip-path="url(#p1e2e9ee770)" style="fill: none; stroke: #00ff66; stroke-opacity: 0.8; stroke-width: 2; stroke-linecap: square"/>
   </g>
   <g id="line2d_49">
    <path d="M 59.87 472.062202 
L 62.58735 478.806911 
L 63.946025 481.819871 
L 65.3047 484.519309 
L 66.663375 486.926673 
L 68.02205 489.059535 
L 70.7394 492.722678 
L 73.45675 496.086486 
L 74.815425 497.602508 
L 78.89145 498.993448 
L 81.6088 500.048559 
L 91.119525 496.792992 
L 92.4782 495.831595 
L 93.836875 495.0807 
L 95.19555 494.569778 
L 96.554225 494.292306 
L 97.9129 494.229716 
L 99.271575 494.364846 
L 100.63025 494.665612 
L 101.988925 495.107587 
L 104.706275 496.355958 
L 108.7823 496.741336 
L 112.858325 497.368967 
L 115.575675 497.565998 
L 118.293025 497.47501 
L 121.010375 497.077712 
L 123.727725 496.432667 
L 127.80375 494.519645 
L 130.5211 493.53619 
L 133.23845 492.961851 
L 135.9558 492.76277 
L 138.67315 492.838005 
L 141.3905 493.117332 
L 145.466525 493.824493 
L 149.54255 494.563254 
L 152.2599 494.871209 
L 156.335925 495.028833 
L 161.770625 495.185047 
L 165.84665 495.515114 
L 169.922675 496.038895 
L 176.71605 497.218527 
L 180.792075 497.83659 
L 186.226775 498.447428 
L 217.4763 501.250752 
L 229.704375 502.079269 
L 252.80185 503.614037 
L 289.486075 505.798066 
L 312.58355 506.964657 
L 330.246325 507.740669 
L 330.246325 507.740669 
" clip-path="url(#p1e2e9ee770)" style="fill: none; stroke: #0066ff; stroke-opacity: 0.8; stroke-width: 2; stroke-linecap: square"/>
   </g>
   <g id="line2d_50">
    <path d="M 59.87 472.062202 
L 63.946025 482.419651 
L 66.663375 488.693311 
L 69.380725 494.006979 
L 72.098075 498.512391 
L 73.45675 500.39485 
L 74.815425 501.971456 
L 76.1741 502.142103 
L 77.532775 502.109734 
L 78.89145 501.931613 
L 80.250125 501.610661 
L 82.967475 500.584407 
L 84.32615 499.866099 
L 87.0435 497.645339 
L 89.76085 495.835687 
L 91.119525 495.136751 
L 92.4782 494.60306 
L 93.836875 494.278351 
L 95.19555 494.164305 
L 96.554225 494.214706 
L 97.9129 493.882407 
L 99.271575 493.709035 
L 100.63025 493.678547 
L 101.988925 493.414876 
L 104.706275 492.453349 
L 107.423625 491.89246 
L 110.140975 491.639287 
L 115.575675 491.541865 
L 119.6517 491.350588 
L 122.36905 491.02523 
L 126.445075 490.261112 
L 130.5211 489.252183 
L 134.597125 487.982999 
L 137.314475 487.340134 
L 140.031825 486.898289 
L 142.749175 486.648019 
L 146.8252 486.567987 
L 152.2599 486.791379 
L 161.770625 487.508122 
L 169.922675 488.066045 
L 184.8681 488.933223 
L 210.682925 491.134406 
L 251.443175 493.499948 
L 330.246325 497.721784 
L 330.246325 497.721784 
" clip-path="url(#p1e2e9ee770)" style="fill: none; stroke: #cc00ff; stroke-opacity: 0.8; stroke-width: 2; stroke-linecap: square"/>
   </g>
   <g id="patch_14">
    <path d="M 59.87 522.52 
L 59.87 382.653333 
" style="fill: none; stroke: #000000; stroke-width: 0.8; stroke-linejoin: miter; stroke-linecap: square"/>
   </g>
   <g id="patch_15">
    <path d="M 331.605 522.52 
L 331.605 382.653333 
" style="fill: none; stroke: #000000; stroke-width: 0.8; stroke-linejoin: miter; stroke-linecap: square"/>
   </g>
   <g id="patch_16">
    <path d="M 59.87 522.52 
L 331.605 522.52 
" style="fill: none; stroke: #000000; stroke-width: 0.8; stroke-linejoin: miter; stroke-linecap: square"/>
   </g>
   <g id="patch_17">
    <path d="M 59.87 382.653333 
L 331.605 382.653333 
" style="fill: none; stroke: #000000; stroke-width: 0.8; stroke-linejoin: miter; stroke-linecap: square"/>
   </g>
  </g>
 </g>
 <defs>
  <clipPath id="p76da334387">
   <rect x="59.87" y="20.52" width="271.735" height="139.866667"/>
  </clipPath>
  <clipPath id="p6a2678064a">
   <rect x="59.87" y="201.586667" width="271.735" height="139.866667"/>
  </clipPath>
  <clipPath id="p1e2e9ee770">
   <rect x="59.87" y="382.653333" width="271.735" height="139.866667"/>
  </clipPath>
 </defs>
</svg>
