<?xml version="1.0" encoding="utf-8" standalone="no"?>
<!DOCTYPE svg PUBLIC "-//W3C//DTD SVG 1.1//EN"
  "http://www.w3.org/Graphics/SVG/1.1/DTD/svg11.dtd">
<svg xmlns:xlink="http://www.w3.org/1999/xlink" width="360pt" height="576pt" viewBox="0 0 360 576" xmlns="http://www.w3.org/2000/svg" version="1.1">
 <metadata>
  <rdf:RDF xmlns:dc="http://purl.org/dc/elements/1.1/" xmlns:cc="http://creativecommons.org/ns#" xmlns:rdf="http://www.w3.org/1999/02/22-rdf-syntax-ns#">
   <cc:Work>
    <dc:type rdf:resource="http://purl.org/dc/dcmitype/StillImage"/>
    <dc:date>2024-07-01T14:28:57.323721</dc:date>
    <dc:format>image/svg+xml</dc:format>
    <dc:creator>
     <cc:Agent>
      <dc:title>Matplotlib v3.8.3, https://matplotlib.org/</dc:title>
     </cc:Agent>
    </dc:creator>
   </cc:Work>
  </rdf:RDF>
 </metadata>
 <defs>
  <style type="text/css">*{stroke-linejoin: round; stroke-linecap: butt}</style>
 </defs>
 <g id="figure_1">
  <g id="patch_1">
   <path d="M 0 576 
L 360 576 
L 360 0 
L 0 0 
z
" style="fill: #ffffff"/>
  </g>
  <g id="axes_1">
   <g id="patch_2">
    <path d="M 59.87 160.386667 
L 331.605 160.386667 
L 331.605 20.52 
L 59.87 20.52 
z
" style="fill: #ffffff"/>
   </g>
   <g id="matplotlib.axis_1">
    <g id="xtick_1">
     <g id="line2d_1">
      <defs>
       <path id="mbb16ec27af" d="M 0 0 
L 0 3.5 
" style="stroke: #000000; stroke-width: 0.8"/>
      </defs>
      <g>
       <use xlink:href="#mbb16ec27af" x="59.87" y="160.386667" style="stroke: #000000; stroke-width: 0.8"/>
      </g>
     </g>
     <g id="text_1">
      <!-- 0 -->
      <g transform="translate(55.41625 178.024479) scale(0.14 -0.14)">
       <defs>
        <path id="DejaVuSans-30" d="M 2034 4250 
Q 1547 4250 1301 3770 
Q 1056 3291 1056 2328 
Q 1056 1369 1301 889 
Q 1547 409 2034 409 
Q 2525 409 2770 889 
Q 3016 1369 3016 2328 
Q 3016 3291 2770 3770 
Q 2525 4250 2034 4250 
z
M 2034 4750 
Q 2819 4750 3233 4129 
Q 3647 3509 3647 2328 
Q 3647 1150 3233 529 
Q 2819 -91 2034 -91 
Q 1250 -91 836 529 
Q 422 1150 422 2328 
Q 422 3509 836 4129 
Q 1250 4750 2034 4750 
z
" transform="scale(0.015625)"/>
       </defs>
       <use xlink:href="#DejaVuSans-30"/>
      </g>
     </g>
    </g>
    <g id="xtick_2">
     <g id="line2d_2">
      <g>
       <use xlink:href="#mbb16ec27af" x="127.80375" y="160.386667" style="stroke: #000000; stroke-width: 0.8"/>
      </g>
     </g>
     <g id="text_2">
      <!-- 50 -->
      <g transform="translate(118.89625 178.024479) scale(0.14 -0.14)">
       <defs>
        <path id="DejaVuSans-35" d="M 691 4666 
L 3169 4666 
L 3169 4134 
L 1269 4134 
L 1269 2991 
Q 1406 3038 1543 3061 
Q 1681 3084 1819 3084 
Q 2600 3084 3056 2656 
Q 3513 2228 3513 1497 
Q 3513 744 3044 326 
Q 2575 -91 1722 -91 
Q 1428 -91 1123 -41 
Q 819 9 494 109 
L 494 744 
Q 775 591 1075 516 
Q 1375 441 1709 441 
Q 2250 441 2565 725 
Q 2881 1009 2881 1497 
Q 2881 1984 2565 2268 
Q 2250 2553 1709 2553 
Q 1456 2553 1204 2497 
Q 953 2441 691 2322 
L 691 4666 
z
" transform="scale(0.015625)"/>
       </defs>
       <use xlink:href="#DejaVuSans-35"/>
       <use xlink:href="#DejaVuSans-30" x="63.623047"/>
      </g>
     </g>
    </g>
    <g id="xtick_3">
     <g id="line2d_3">
      <g>
       <use xlink:href="#mbb16ec27af" x="195.7375" y="160.386667" style="stroke: #000000; stroke-width: 0.8"/>
      </g>
     </g>
     <g id="text_3">
      <!-- 100 -->
      <g transform="translate(182.37625 178.024479) scale(0.14 -0.14)">
       <defs>
        <path id="DejaVuSans-31" d="M 794 531 
L 1825 531 
L 1825 4091 
L 703 3866 
L 703 4441 
L 1819 4666 
L 2450 4666 
L 2450 531 
L 3481 531 
L 3481 0 
L 794 0 
L 794 531 
z
" transform="scale(0.015625)"/>
       </defs>
       <use xlink:href="#DejaVuSans-31"/>
       <use xlink:href="#DejaVuSans-30" x="63.623047"/>
       <use xlink:href="#DejaVuSans-30" x="127.246094"/>
      </g>
     </g>
    </g>
    <g id="xtick_4">
     <g id="line2d_4">
      <g>
       <use xlink:href="#mbb16ec27af" x="263.67125" y="160.386667" style="stroke: #000000; stroke-width: 0.8"/>
      </g>
     </g>
     <g id="text_4">
      <!-- 150 -->
      <g transform="translate(250.31 178.024479) scale(0.14 -0.14)">
       <use xlink:href="#DejaVuSans-31"/>
       <use xlink:href="#DejaVuSans-35" x="63.623047"/>
       <use xlink:href="#DejaVuSans-30" x="127.246094"/>
      </g>
     </g>
    </g>
    <g id="xtick_5">
     <g id="line2d_5">
      <g>
       <use xlink:href="#mbb16ec27af" x="331.605" y="160.386667" style="stroke: #000000; stroke-width: 0.8"/>
      </g>
     </g>
     <g id="text_5">
      <!-- 200 -->
      <g transform="translate(318.24375 178.024479) scale(0.14 -0.14)">
       <defs>
        <path id="DejaVuSans-32" d="M 1228 531 
L 3431 531 
L 3431 0 
L 469 0 
L 469 531 
Q 828 903 1448 1529 
Q 2069 2156 2228 2338 
Q 2531 2678 2651 2914 
Q 2772 3150 2772 3378 
Q 2772 3750 2511 3984 
Q 2250 4219 1831 4219 
Q 1534 4219 1204 4116 
Q 875 4013 500 3803 
L 500 4441 
Q 881 4594 1212 4672 
Q 1544 4750 1819 4750 
Q 2544 4750 2975 4387 
Q 3406 4025 3406 3419 
Q 3406 3131 3298 2873 
Q 3191 2616 2906 2266 
Q 2828 2175 2409 1742 
Q 1991 1309 1228 531 
z
" transform="scale(0.015625)"/>
       </defs>
       <use xlink:href="#DejaVuSans-32"/>
       <use xlink:href="#DejaVuSans-30" x="63.623047"/>
       <use xlink:href="#DejaVuSans-30" x="127.246094"/>
      </g>
     </g>
    </g>
   </g>
   <g id="matplotlib.axis_2">
    <g id="ytick_1">
     <g id="line2d_6">
      <defs>
       <path id="m27a1193ec8" d="M 0 0 
L -3.5 0 
" style="stroke: #000000; stroke-width: 0.8"/>
      </defs>
      <g>
       <use xlink:href="#m27a1193ec8" x="59.87" y="160.386667" style="stroke: #000000; stroke-width: 0.8"/>
      </g>
     </g>
     <g id="text_6">
      <!-- 0 -->
      <g transform="translate(43.9625 165.705573) scale(0.14 -0.14)">
       <use xlink:href="#DejaVuSans-30"/>
      </g>
     </g>
    </g>
    <g id="ytick_2">
     <g id="line2d_7">
      <g>
       <use xlink:href="#m27a1193ec8" x="59.87" y="125.42" style="stroke: #000000; stroke-width: 0.8"/>
      </g>
     </g>
     <g id="text_7">
      <!-- 10 -->
      <g transform="translate(35.055 130.738906) scale(0.14 -0.14)">
       <use xlink:href="#DejaVuSans-31"/>
       <use xlink:href="#DejaVuSans-30" x="63.623047"/>
      </g>
     </g>
    </g>
    <g id="ytick_3">
     <g id="line2d_8">
      <g>
       <use xlink:href="#m27a1193ec8" x="59.87" y="90.453333" style="stroke: #000000; stroke-width: 0.8"/>
      </g>
     </g>
     <g id="text_8">
      <!-- 20 -->
      <g transform="translate(35.055 95.77224) scale(0.14 -0.14)">
       <use xlink:href="#DejaVuSans-32"/>
       <use xlink:href="#DejaVuSans-30" x="63.623047"/>
      </g>
     </g>
    </g>
    <g id="ytick_4">
     <g id="line2d_9">
      <g>
       <use xlink:href="#m27a1193ec8" x="59.87" y="55.486667" style="stroke: #000000; stroke-width: 0.8"/>
      </g>
     </g>
     <g id="text_9">
      <!-- 30 -->
      <g transform="translate(35.055 60.805573) scale(0.14 -0.14)">
       <defs>
        <path id="DejaVuSans-33" d="M 2597 2516 
Q 3050 2419 3304 2112 
Q 3559 1806 3559 1356 
Q 3559 666 3084 287 
Q 2609 -91 1734 -91 
Q 1441 -91 1130 -33 
Q 819 25 488 141 
L 488 750 
Q 750 597 1062 519 
Q 1375 441 1716 441 
Q 2309 441 2620 675 
Q 2931 909 2931 1356 
Q 2931 1769 2642 2001 
Q 2353 2234 1838 2234 
L 1294 2234 
L 1294 2753 
L 1863 2753 
Q 2328 2753 2575 2939 
Q 2822 3125 2822 3475 
Q 2822 3834 2567 4026 
Q 2313 4219 1838 4219 
Q 1578 4219 1281 4162 
Q 984 4106 628 3988 
L 628 4550 
Q 988 4650 1302 4700 
Q 1616 4750 1894 4750 
Q 2613 4750 3031 4423 
Q 3450 4097 3450 3541 
Q 3450 3153 3228 2886 
Q 3006 2619 2597 2516 
z
" transform="scale(0.015625)"/>
       </defs>
       <use xlink:href="#DejaVuSans-33"/>
       <use xlink:href="#DejaVuSans-30" x="63.623047"/>
      </g>
     </g>
    </g>
    <g id="ytick_5">
     <g id="line2d_10">
      <g>
       <use xlink:href="#m27a1193ec8" x="59.87" y="20.52" style="stroke: #000000; stroke-width: 0.8"/>
      </g>
     </g>
     <g id="text_10">
      <!-- 40 -->
      <g transform="translate(35.055 25.838906) scale(0.14 -0.14)">
       <defs>
        <path id="DejaVuSans-34" d="M 2419 4116 
L 825 1625 
L 2419 1625 
L 2419 4116 
z
M 2253 4666 
L 3047 4666 
L 3047 1625 
L 3713 1625 
L 3713 1100 
L 3047 1100 
L 3047 0 
L 2419 0 
L 2419 1100 
L 313 1100 
L 313 1709 
L 2253 4666 
z
" transform="scale(0.015625)"/>
       </defs>
       <use xlink:href="#DejaVuSans-34"/>
       <use xlink:href="#DejaVuSans-30" x="63.623047"/>
      </g>
     </g>
    </g>
    <g id="text_11">
     <!-- Loss -->
     <g transform="translate(28.143438 105.807396) rotate(-90) scale(0.14 -0.14)">
      <defs>
       <path id="DejaVuSans-4c" d="M 628 4666 
L 1259 4666 
L 1259 531 
L 3531 531 
L 3531 0 
L 628 0 
L 628 4666 
z
" transform="scale(0.015625)"/>
       <path id="DejaVuSans-6f" d="M 1959 3097 
Q 1497 3097 1228 2736 
Q 959 2375 959 1747 
Q 959 1119 1226 758 
Q 1494 397 1959 397 
Q 2419 397 2687 759 
Q 2956 1122 2956 1747 
Q 2956 2369 2687 2733 
Q 2419 3097 1959 3097 
z
M 1959 3584 
Q 2709 3584 3137 3096 
Q 3566 2609 3566 1747 
Q 3566 888 3137 398 
Q 2709 -91 1959 -91 
Q 1206 -91 779 398 
Q 353 888 353 1747 
Q 353 2609 779 3096 
Q 1206 3584 1959 3584 
z
" transform="scale(0.015625)"/>
       <path id="DejaVuSans-73" d="M 2834 3397 
L 2834 2853 
Q 2591 2978 2328 3040 
Q 2066 3103 1784 3103 
Q 1356 3103 1142 2972 
Q 928 2841 928 2578 
Q 928 2378 1081 2264 
Q 1234 2150 1697 2047 
L 1894 2003 
Q 2506 1872 2764 1633 
Q 3022 1394 3022 966 
Q 3022 478 2636 193 
Q 2250 -91 1575 -91 
Q 1294 -91 989 -36 
Q 684 19 347 128 
L 347 722 
Q 666 556 975 473 
Q 1284 391 1588 391 
Q 1994 391 2212 530 
Q 2431 669 2431 922 
Q 2431 1156 2273 1281 
Q 2116 1406 1581 1522 
L 1381 1569 
Q 847 1681 609 1914 
Q 372 2147 372 2553 
Q 372 3047 722 3315 
Q 1072 3584 1716 3584 
Q 2034 3584 2315 3537 
Q 2597 3491 2834 3397 
z
" transform="scale(0.015625)"/>
      </defs>
      <use xlink:href="#DejaVuSans-4c"/>
      <use xlink:href="#DejaVuSans-6f" x="53.962891"/>
      <use xlink:href="#DejaVuSans-73" x="115.144531"/>
      <use xlink:href="#DejaVuSans-73" x="167.244141"/>
     </g>
    </g>
   </g>
   <g id="line2d_11">
    <path d="M 59.87 97.26588 
L 61.228675 100.574984 
L 65.3047 108.063808 
L 68.02205 111.453188 
L 70.7394 114.034458 
L 73.45675 116.270875 
L 74.815425 116.709279 
L 76.1741 118.335673 
L 78.89145 118.817651 
L 81.6088 120.514304 
L 85.684825 124.008039 
L 92.4782 128.849613 
L 93.836875 129.710738 
L 95.19555 130.387448 
L 97.9129 131.388813 
L 99.271575 132.439397 
L 103.3476 134.743974 
L 104.706275 136.488489 
L 106.06495 137.112905 
L 108.7823 138.181543 
L 110.140975 138.345523 
L 114.217 138.328034 
L 116.93435 138.115103 
L 118.293025 138.162669 
L 126.445075 139.155305 
L 129.162425 139.23031 
L 138.67315 139.19268 
L 154.97725 139.527089 
L 179.4334 139.837674 
L 195.7375 140.00396 
L 240.573775 140.365753 
L 270.464625 140.542903 
L 289.486075 140.647513 
L 330.246325 140.804778 
L 330.246325 140.804778 
" clip-path="url(#p6886ee6c80)" style="fill: none; stroke: #ff0000; stroke-opacity: 0.8; stroke-width: 2; stroke-linecap: square"/>
   </g>
   <g id="line2d_12">
    <path d="M 59.87 108.594122 
L 61.228675 111.816828 
L 62.58735 114.334132 
L 63.946025 117.276602 
L 65.3047 119.449287 
L 66.663375 121.954793 
L 68.02205 123.350514 
L 69.380725 123.903917 
L 72.098075 124.855722 
L 73.45675 125.909341 
L 76.1741 129.503127 
L 77.532775 130.864694 
L 78.89145 131.800549 
L 80.250125 132.99072 
L 81.6088 133.609513 
L 82.967475 134.767241 
L 85.684825 135.41614 
L 88.402175 135.611506 
L 91.119525 135.929801 
L 92.4782 136.343092 
L 93.836875 136.590703 
L 95.19555 137.032347 
L 96.554225 137.619356 
L 100.63025 138.696986 
L 103.3476 139.022885 
L 104.706275 139.497822 
L 107.423625 139.828334 
L 110.140975 139.813244 
L 112.858325 140.229934 
L 114.217 140.0987 
L 115.575675 140.120939 
L 118.293025 140.556977 
L 119.6517 140.880656 
L 125.0864 141.589681 
L 127.80375 142.231275 
L 129.162425 142.684408 
L 133.23845 143.581567 
L 134.597125 144.178824 
L 135.9558 144.477758 
L 137.314475 144.381481 
L 140.031825 143.684154 
L 141.3905 144.320688 
L 142.749175 144.558497 
L 145.466525 144.305403 
L 146.8252 143.957835 
L 149.54255 143.766782 
L 153.618575 143.766716 
L 157.6946 143.983021 
L 159.053275 144.1319 
L 160.41195 144.481995 
L 164.487975 144.835144 
L 168.564 144.615007 
L 172.640025 144.913859 
L 182.15075 144.828505 
L 184.8681 145.008836 
L 188.944125 144.896432 
L 191.661475 145.066388 
L 199.813525 145.085185 
L 212.0416 145.206381 
L 226.987025 145.38659 
L 229.704375 145.599521 
L 231.06305 145.404871 
L 233.7804 144.741728 
L 240.573775 144.284877 
L 241.93245 144.292391 
L 244.6498 144.641779 
L 246.008475 144.847706 
L 247.36715 144.823701 
L 250.0845 145.079598 
L 254.160525 145.723463 
L 255.5192 145.768848 
L 258.23655 145.551434 
L 259.595225 145.650946 
L 262.312575 145.472735 
L 267.747275 145.223688 
L 271.8233 145.439178 
L 275.899325 145.389353 
L 282.6927 145.544257 
L 282.6927 145.544257 
" clip-path="url(#p6886ee6c80)" style="fill: none; stroke: #00ff00; stroke-opacity: 0.8; stroke-width: 2; stroke-linecap: square"/>
   </g>
   <g id="line2d_13">
    <path d="M 59.87 93.340807 
L 61.228675 95.899601 
L 62.58735 98.783414 
L 66.663375 105.938266 
L 68.02205 108.889795 
L 69.380725 111.339642 
L 70.7394 113.087095 
L 72.098075 114.568467 
L 73.45675 116.719963 
L 74.815425 121.048313 
L 76.1741 124.783669 
L 77.532775 125.779865 
L 78.89145 127.105014 
L 80.250125 128.246976 
L 81.6088 129.041941 
L 85.684825 131.748134 
L 87.0435 132.473809 
L 88.402175 133.643466 
L 92.4782 136.46714 
L 93.836875 137.141566 
L 96.554225 138.854612 
L 99.271575 141.065427 
L 100.63025 141.474896 
L 101.988925 142.071184 
L 103.3476 142.40791 
L 107.423625 142.854305 
L 108.7823 142.848044 
L 110.140975 142.541792 
L 114.217 142.639765 
L 115.575675 143.028489 
L 119.6517 143.273521 
L 121.010375 143.186159 
L 125.0864 143.550792 
L 131.879775 144.151761 
L 134.597125 144.300893 
L 140.031825 144.381968 
L 141.3905 144.450699 
L 142.749175 144.630977 
L 145.466525 144.688372 
L 150.901225 144.637831 
L 153.618575 144.73912 
L 159.053275 144.776287 
L 160.41195 144.880387 
L 163.1293 144.86968 
L 165.84665 145.015179 
L 169.922675 145.006795 
L 172.640025 145.141781 
L 176.71605 145.21951 
L 190.3028 145.369362 
L 197.096175 145.21617 
L 201.1722 145.279812 
L 206.6069 145.501882 
L 207.965575 145.397405 
L 225.62835 145.705381 
L 259.595225 146.004512 
L 293.5621 146.287001 
L 330.246325 146.583924 
L 330.246325 146.583924 
" clip-path="url(#p6886ee6c80)" style="fill: none; stroke: #0000ff; stroke-opacity: 0.8; stroke-width: 2; stroke-linecap: square"/>
   </g>
   <g id="patch_3">
    <path d="M 59.87 160.386667 
L 59.87 20.52 
" style="fill: none; stroke: #000000; stroke-width: 0.8; stroke-linejoin: miter; stroke-linecap: square"/>
   </g>
   <g id="patch_4">
    <path d="M 331.605 160.386667 
L 331.605 20.52 
" style="fill: none; stroke: #000000; stroke-width: 0.8; stroke-linejoin: miter; stroke-linecap: square"/>
   </g>
   <g id="patch_5">
    <path d="M 59.87 160.386667 
L 331.605 160.386667 
" style="fill: none; stroke: #000000; stroke-width: 0.8; stroke-linejoin: miter; stroke-linecap: square"/>
   </g>
   <g id="patch_6">
    <path d="M 59.87 20.52 
L 331.605 20.52 
" style="fill: none; stroke: #000000; stroke-width: 0.8; stroke-linejoin: miter; stroke-linecap: square"/>
   </g>
   <g id="legend_1">
    <g id="patch_7">
     <path d="M 181.4145 82.96125 
L 318.7545 82.96125 
Q 321.1545 82.96125 321.1545 80.56125 
L 321.1545 28.92 
Q 321.1545 26.52 318.7545 26.52 
L 181.4145 26.52 
Q 179.0145 26.52 179.0145 28.92 
L 179.0145 80.56125 
Q 179.0145 82.96125 181.4145 82.96125 
z
" style="fill: #ffffff; opacity: 0.8; stroke: #cccccc; stroke-linejoin: miter"/>
    </g>
    <g id="line2d_14">
     <path d="M 183.8145 36.238125 
L 195.8145 36.238125 
L 207.8145 36.238125 
" style="fill: none; stroke: #ff0000; stroke-opacity: 0.8; stroke-width: 2; stroke-linecap: square"/>
    </g>
    <g id="text_12">
     <!-- Seed: 20230619 -->
     <g transform="translate(217.4145 40.438125) scale(0.12 -0.12)">
      <defs>
       <path id="DejaVuSans-53" d="M 3425 4513 
L 3425 3897 
Q 3066 4069 2747 4153 
Q 2428 4238 2131 4238 
Q 1616 4238 1336 4038 
Q 1056 3838 1056 3469 
Q 1056 3159 1242 3001 
Q 1428 2844 1947 2747 
L 2328 2669 
Q 3034 2534 3370 2195 
Q 3706 1856 3706 1288 
Q 3706 609 3251 259 
Q 2797 -91 1919 -91 
Q 1588 -91 1214 -16 
Q 841 59 441 206 
L 441 856 
Q 825 641 1194 531 
Q 1563 422 1919 422 
Q 2459 422 2753 634 
Q 3047 847 3047 1241 
Q 3047 1584 2836 1778 
Q 2625 1972 2144 2069 
L 1759 2144 
Q 1053 2284 737 2584 
Q 422 2884 422 3419 
Q 422 4038 858 4394 
Q 1294 4750 2059 4750 
Q 2388 4750 2728 4690 
Q 3069 4631 3425 4513 
z
" transform="scale(0.015625)"/>
       <path id="DejaVuSans-65" d="M 3597 1894 
L 3597 1613 
L 953 1613 
Q 991 1019 1311 708 
Q 1631 397 2203 397 
Q 2534 397 2845 478 
Q 3156 559 3463 722 
L 3463 178 
Q 3153 47 2828 -22 
Q 2503 -91 2169 -91 
Q 1331 -91 842 396 
Q 353 884 353 1716 
Q 353 2575 817 3079 
Q 1281 3584 2069 3584 
Q 2775 3584 3186 3129 
Q 3597 2675 3597 1894 
z
M 3022 2063 
Q 3016 2534 2758 2815 
Q 2500 3097 2075 3097 
Q 1594 3097 1305 2825 
Q 1016 2553 972 2059 
L 3022 2063 
z
" transform="scale(0.015625)"/>
       <path id="DejaVuSans-64" d="M 2906 2969 
L 2906 4863 
L 3481 4863 
L 3481 0 
L 2906 0 
L 2906 525 
Q 2725 213 2448 61 
Q 2172 -91 1784 -91 
Q 1150 -91 751 415 
Q 353 922 353 1747 
Q 353 2572 751 3078 
Q 1150 3584 1784 3584 
Q 2172 3584 2448 3432 
Q 2725 3281 2906 2969 
z
M 947 1747 
Q 947 1113 1208 752 
Q 1469 391 1925 391 
Q 2381 391 2643 752 
Q 2906 1113 2906 1747 
Q 2906 2381 2643 2742 
Q 2381 3103 1925 3103 
Q 1469 3103 1208 2742 
Q 947 2381 947 1747 
z
" transform="scale(0.015625)"/>
       <path id="DejaVuSans-3a" d="M 750 794 
L 1409 794 
L 1409 0 
L 750 0 
L 750 794 
z
M 750 3309 
L 1409 3309 
L 1409 2516 
L 750 2516 
L 750 3309 
z
" transform="scale(0.015625)"/>
       <path id="DejaVuSans-20" transform="scale(0.015625)"/>
       <path id="DejaVuSans-36" d="M 2113 2584 
Q 1688 2584 1439 2293 
Q 1191 2003 1191 1497 
Q 1191 994 1439 701 
Q 1688 409 2113 409 
Q 2538 409 2786 701 
Q 3034 994 3034 1497 
Q 3034 2003 2786 2293 
Q 2538 2584 2113 2584 
z
M 3366 4563 
L 3366 3988 
Q 3128 4100 2886 4159 
Q 2644 4219 2406 4219 
Q 1781 4219 1451 3797 
Q 1122 3375 1075 2522 
Q 1259 2794 1537 2939 
Q 1816 3084 2150 3084 
Q 2853 3084 3261 2657 
Q 3669 2231 3669 1497 
Q 3669 778 3244 343 
Q 2819 -91 2113 -91 
Q 1303 -91 875 529 
Q 447 1150 447 2328 
Q 447 3434 972 4092 
Q 1497 4750 2381 4750 
Q 2619 4750 2861 4703 
Q 3103 4656 3366 4563 
z
" transform="scale(0.015625)"/>
       <path id="DejaVuSans-39" d="M 703 97 
L 703 672 
Q 941 559 1184 500 
Q 1428 441 1663 441 
Q 2288 441 2617 861 
Q 2947 1281 2994 2138 
Q 2813 1869 2534 1725 
Q 2256 1581 1919 1581 
Q 1219 1581 811 2004 
Q 403 2428 403 3163 
Q 403 3881 828 4315 
Q 1253 4750 1959 4750 
Q 2769 4750 3195 4129 
Q 3622 3509 3622 2328 
Q 3622 1225 3098 567 
Q 2575 -91 1691 -91 
Q 1453 -91 1209 -44 
Q 966 3 703 97 
z
M 1959 2075 
Q 2384 2075 2632 2365 
Q 2881 2656 2881 3163 
Q 2881 3666 2632 3958 
Q 2384 4250 1959 4250 
Q 1534 4250 1286 3958 
Q 1038 3666 1038 3163 
Q 1038 2656 1286 2365 
Q 1534 2075 1959 2075 
z
" transform="scale(0.015625)"/>
      </defs>
      <use xlink:href="#DejaVuSans-53"/>
      <use xlink:href="#DejaVuSans-65" x="63.476562"/>
      <use xlink:href="#DejaVuSans-65" x="125"/>
      <use xlink:href="#DejaVuSans-64" x="186.523438"/>
      <use xlink:href="#DejaVuSans-3a" x="250"/>
      <use xlink:href="#DejaVuSans-20" x="283.691406"/>
      <use xlink:href="#DejaVuSans-32" x="315.478516"/>
      <use xlink:href="#DejaVuSans-30" x="379.101562"/>
      <use xlink:href="#DejaVuSans-32" x="442.724609"/>
      <use xlink:href="#DejaVuSans-33" x="506.347656"/>
      <use xlink:href="#DejaVuSans-30" x="569.970703"/>
      <use xlink:href="#DejaVuSans-36" x="633.59375"/>
      <use xlink:href="#DejaVuSans-31" x="697.216797"/>
      <use xlink:href="#DejaVuSans-39" x="760.839844"/>
     </g>
    </g>
    <g id="line2d_15">
     <path d="M 183.8145 53.851875 
L 195.8145 53.851875 
L 207.8145 53.851875 
" style="fill: none; stroke: #00ff00; stroke-opacity: 0.8; stroke-width: 2; stroke-linecap: square"/>
    </g>
    <g id="text_13">
     <!-- Seed: 20230620 -->
     <g transform="translate(217.4145 58.051875) scale(0.12 -0.12)">
      <use xlink:href="#DejaVuSans-53"/>
      <use xlink:href="#DejaVuSans-65" x="63.476562"/>
      <use xlink:href="#DejaVuSans-65" x="125"/>
      <use xlink:href="#DejaVuSans-64" x="186.523438"/>
      <use xlink:href="#DejaVuSans-3a" x="250"/>
      <use xlink:href="#DejaVuSans-20" x="283.691406"/>
      <use xlink:href="#DejaVuSans-32" x="315.478516"/>
      <use xlink:href="#DejaVuSans-30" x="379.101562"/>
      <use xlink:href="#DejaVuSans-32" x="442.724609"/>
      <use xlink:href="#DejaVuSans-33" x="506.347656"/>
      <use xlink:href="#DejaVuSans-30" x="569.970703"/>
      <use xlink:href="#DejaVuSans-36" x="633.59375"/>
      <use xlink:href="#DejaVuSans-32" x="697.216797"/>
      <use xlink:href="#DejaVuSans-30" x="760.839844"/>
     </g>
    </g>
    <g id="line2d_16">
     <path d="M 183.8145 71.465625 
L 195.8145 71.465625 
L 207.8145 71.465625 
" style="fill: none; stroke: #0000ff; stroke-opacity: 0.8; stroke-width: 2; stroke-linecap: square"/>
    </g>
    <g id="text_14">
     <!-- Seed: 20230622 -->
     <g transform="translate(217.4145 75.665625) scale(0.12 -0.12)">
      <use xlink:href="#DejaVuSans-53"/>
      <use xlink:href="#DejaVuSans-65" x="63.476562"/>
      <use xlink:href="#DejaVuSans-65" x="125"/>
      <use xlink:href="#DejaVuSans-64" x="186.523438"/>
      <use xlink:href="#DejaVuSans-3a" x="250"/>
      <use xlink:href="#DejaVuSans-20" x="283.691406"/>
      <use xlink:href="#DejaVuSans-32" x="315.478516"/>
      <use xlink:href="#DejaVuSans-30" x="379.101562"/>
      <use xlink:href="#DejaVuSans-32" x="442.724609"/>
      <use xlink:href="#DejaVuSans-33" x="506.347656"/>
      <use xlink:href="#DejaVuSans-30" x="569.970703"/>
      <use xlink:href="#DejaVuSans-36" x="633.59375"/>
      <use xlink:href="#DejaVuSans-32" x="697.216797"/>
      <use xlink:href="#DejaVuSans-32" x="760.839844"/>
     </g>
    </g>
   </g>
  </g>
  <g id="axes_2">
   <g id="patch_8">
    <path d="M 59.87 341.453333 
L 331.605 341.453333 
L 331.605 201.586667 
L 59.87 201.586667 
z
" style="fill: #ffffff"/>
   </g>
   <g id="matplotlib.axis_3">
    <g id="xtick_6">
     <g id="line2d_17">
      <g>
       <use xlink:href="#mbb16ec27af" x="59.87" y="341.453333" style="stroke: #000000; stroke-width: 0.8"/>
      </g>
     </g>
     <g id="text_15">
      <!-- 0 -->
      <g transform="translate(55.41625 359.091146) scale(0.14 -0.14)">
       <use xlink:href="#DejaVuSans-30"/>
      </g>
     </g>
    </g>
    <g id="xtick_7">
     <g id="line2d_18">
      <g>
       <use xlink:href="#mbb16ec27af" x="127.80375" y="341.453333" style="stroke: #000000; stroke-width: 0.8"/>
      </g>
     </g>
     <g id="text_16">
      <!-- 50 -->
      <g transform="translate(118.89625 359.091146) scale(0.14 -0.14)">
       <use xlink:href="#DejaVuSans-35"/>
       <use xlink:href="#DejaVuSans-30" x="63.623047"/>
      </g>
     </g>
    </g>
    <g id="xtick_8">
     <g id="line2d_19">
      <g>
       <use xlink:href="#mbb16ec27af" x="195.7375" y="341.453333" style="stroke: #000000; stroke-width: 0.8"/>
      </g>
     </g>
     <g id="text_17">
      <!-- 100 -->
      <g transform="translate(182.37625 359.091146) scale(0.14 -0.14)">
       <use xlink:href="#DejaVuSans-31"/>
       <use xlink:href="#DejaVuSans-30" x="63.623047"/>
       <use xlink:href="#DejaVuSans-30" x="127.246094"/>
      </g>
     </g>
    </g>
    <g id="xtick_9">
     <g id="line2d_20">
      <g>
       <use xlink:href="#mbb16ec27af" x="263.67125" y="341.453333" style="stroke: #000000; stroke-width: 0.8"/>
      </g>
     </g>
     <g id="text_18">
      <!-- 150 -->
      <g transform="translate(250.31 359.091146) scale(0.14 -0.14)">
       <use xlink:href="#DejaVuSans-31"/>
       <use xlink:href="#DejaVuSans-35" x="63.623047"/>
       <use xlink:href="#DejaVuSans-30" x="127.246094"/>
      </g>
     </g>
    </g>
    <g id="xtick_10">
     <g id="line2d_21">
      <g>
       <use xlink:href="#mbb16ec27af" x="331.605" y="341.453333" style="stroke: #000000; stroke-width: 0.8"/>
      </g>
     </g>
     <g id="text_19">
      <!-- 200 -->
      <g transform="translate(318.24375 359.091146) scale(0.14 -0.14)">
       <use xlink:href="#DejaVuSans-32"/>
       <use xlink:href="#DejaVuSans-30" x="63.623047"/>
       <use xlink:href="#DejaVuSans-30" x="127.246094"/>
      </g>
     </g>
    </g>
   </g>
   <g id="matplotlib.axis_4">
    <g id="ytick_6">
     <g id="line2d_22">
      <g>
       <use xlink:href="#m27a1193ec8" x="59.87" y="341.453333" style="stroke: #000000; stroke-width: 0.8"/>
      </g>
     </g>
     <g id="text_20">
      <!-- 0 -->
      <g transform="translate(43.9625 346.77224) scale(0.14 -0.14)">
       <use xlink:href="#DejaVuSans-30"/>
      </g>
     </g>
    </g>
    <g id="ytick_7">
     <g id="line2d_23">
      <g>
       <use xlink:href="#m27a1193ec8" x="59.87" y="306.486667" style="stroke: #000000; stroke-width: 0.8"/>
      </g>
     </g>
     <g id="text_21">
      <!-- 5 -->
      <g transform="translate(43.9625 311.805573) scale(0.14 -0.14)">
       <use xlink:href="#DejaVuSans-35"/>
      </g>
     </g>
    </g>
    <g id="ytick_8">
     <g id="line2d_24">
      <g>
       <use xlink:href="#m27a1193ec8" x="59.87" y="271.52" style="stroke: #000000; stroke-width: 0.8"/>
      </g>
     </g>
     <g id="text_22">
      <!-- 10 -->
      <g transform="translate(35.055 276.838906) scale(0.14 -0.14)">
       <use xlink:href="#DejaVuSans-31"/>
       <use xlink:href="#DejaVuSans-30" x="63.623047"/>
      </g>
     </g>
    </g>
    <g id="ytick_9">
     <g id="line2d_25">
      <g>
       <use xlink:href="#m27a1193ec8" x="59.87" y="236.553333" style="stroke: #000000; stroke-width: 0.8"/>
      </g>
     </g>
     <g id="text_23">
      <!-- 15 -->
      <g transform="translate(35.055 241.87224) scale(0.14 -0.14)">
       <use xlink:href="#DejaVuSans-31"/>
       <use xlink:href="#DejaVuSans-35" x="63.623047"/>
      </g>
     </g>
    </g>
    <g id="ytick_10">
     <g id="line2d_26">
      <g>
       <use xlink:href="#m27a1193ec8" x="59.87" y="201.586667" style="stroke: #000000; stroke-width: 0.8"/>
      </g>
     </g>
     <g id="text_24">
      <!-- 20 -->
      <g transform="translate(35.055 206.905573) scale(0.14 -0.14)">
       <use xlink:href="#DejaVuSans-32"/>
       <use xlink:href="#DejaVuSans-30" x="63.623047"/>
      </g>
     </g>
    </g>
    <g id="text_25">
     <!-- mean GT error $g_{Na}$ -->
     <g transform="translate(28.115 336.34) rotate(-90) scale(0.14 -0.14)">
      <defs>
       <path id="DejaVuSans-6d" d="M 3328 2828 
Q 3544 3216 3844 3400 
Q 4144 3584 4550 3584 
Q 5097 3584 5394 3201 
Q 5691 2819 5691 2113 
L 5691 0 
L 5113 0 
L 5113 2094 
Q 5113 2597 4934 2840 
Q 4756 3084 4391 3084 
Q 3944 3084 3684 2787 
Q 3425 2491 3425 1978 
L 3425 0 
L 2847 0 
L 2847 2094 
Q 2847 2600 2669 2842 
Q 2491 3084 2119 3084 
Q 1678 3084 1418 2786 
Q 1159 2488 1159 1978 
L 1159 0 
L 581 0 
L 581 3500 
L 1159 3500 
L 1159 2956 
Q 1356 3278 1631 3431 
Q 1906 3584 2284 3584 
Q 2666 3584 2933 3390 
Q 3200 3197 3328 2828 
z
" transform="scale(0.015625)"/>
       <path id="DejaVuSans-61" d="M 2194 1759 
Q 1497 1759 1228 1600 
Q 959 1441 959 1056 
Q 959 750 1161 570 
Q 1363 391 1709 391 
Q 2188 391 2477 730 
Q 2766 1069 2766 1631 
L 2766 1759 
L 2194 1759 
z
M 3341 1997 
L 3341 0 
L 2766 0 
L 2766 531 
Q 2569 213 2275 61 
Q 1981 -91 1556 -91 
Q 1019 -91 701 211 
Q 384 513 384 1019 
Q 384 1609 779 1909 
Q 1175 2209 1959 2209 
L 2766 2209 
L 2766 2266 
Q 2766 2663 2505 2880 
Q 2244 3097 1772 3097 
Q 1472 3097 1187 3025 
Q 903 2953 641 2809 
L 641 3341 
Q 956 3463 1253 3523 
Q 1550 3584 1831 3584 
Q 2591 3584 2966 3190 
Q 3341 2797 3341 1997 
z
" transform="scale(0.015625)"/>
       <path id="DejaVuSans-6e" d="M 3513 2113 
L 3513 0 
L 2938 0 
L 2938 2094 
Q 2938 2591 2744 2837 
Q 2550 3084 2163 3084 
Q 1697 3084 1428 2787 
Q 1159 2491 1159 1978 
L 1159 0 
L 581 0 
L 581 3500 
L 1159 3500 
L 1159 2956 
Q 1366 3272 1645 3428 
Q 1925 3584 2291 3584 
Q 2894 3584 3203 3211 
Q 3513 2838 3513 2113 
z
" transform="scale(0.015625)"/>
       <path id="DejaVuSans-47" d="M 3809 666 
L 3809 1919 
L 2778 1919 
L 2778 2438 
L 4434 2438 
L 4434 434 
Q 4069 175 3628 42 
Q 3188 -91 2688 -91 
Q 1594 -91 976 548 
Q 359 1188 359 2328 
Q 359 3472 976 4111 
Q 1594 4750 2688 4750 
Q 3144 4750 3555 4637 
Q 3966 4525 4313 4306 
L 4313 3634 
Q 3963 3931 3569 4081 
Q 3175 4231 2741 4231 
Q 1884 4231 1454 3753 
Q 1025 3275 1025 2328 
Q 1025 1384 1454 906 
Q 1884 428 2741 428 
Q 3075 428 3337 486 
Q 3600 544 3809 666 
z
" transform="scale(0.015625)"/>
       <path id="DejaVuSans-54" d="M -19 4666 
L 3928 4666 
L 3928 4134 
L 2272 4134 
L 2272 0 
L 1638 0 
L 1638 4134 
L -19 4134 
L -19 4666 
z
" transform="scale(0.015625)"/>
       <path id="DejaVuSans-72" d="M 2631 2963 
Q 2534 3019 2420 3045 
Q 2306 3072 2169 3072 
Q 1681 3072 1420 2755 
Q 1159 2438 1159 1844 
L 1159 0 
L 581 0 
L 581 3500 
L 1159 3500 
L 1159 2956 
Q 1341 3275 1631 3429 
Q 1922 3584 2338 3584 
Q 2397 3584 2469 3576 
Q 2541 3569 2628 3553 
L 2631 2963 
z
" transform="scale(0.015625)"/>
       <path id="DejaVuSans-Oblique-67" d="M 3816 3500 
L 3219 434 
Q 3047 -456 2561 -893 
Q 2075 -1331 1253 -1331 
Q 950 -1331 690 -1286 
Q 431 -1241 206 -1147 
L 313 -588 
Q 525 -725 762 -790 
Q 1000 -856 1269 -856 
Q 1816 -856 2167 -557 
Q 2519 -259 2631 300 
L 2681 563 
Q 2441 288 2122 144 
Q 1803 0 1434 0 
Q 903 0 598 351 
Q 294 703 294 1319 
Q 294 1803 478 2267 
Q 663 2731 997 3091 
Q 1219 3328 1514 3456 
Q 1809 3584 2131 3584 
Q 2484 3584 2746 3420 
Q 3009 3256 3138 2956 
L 3238 3500 
L 3816 3500 
z
M 2950 2216 
Q 2950 2641 2750 2872 
Q 2550 3103 2181 3103 
Q 1953 3103 1747 3012 
Q 1541 2922 1394 2759 
Q 1156 2491 1023 2127 
Q 891 1763 891 1375 
Q 891 944 1092 712 
Q 1294 481 1672 481 
Q 2219 481 2584 976 
Q 2950 1472 2950 2216 
z
" transform="scale(0.015625)"/>
       <path id="DejaVuSans-Oblique-4e" d="M 1081 4666 
L 1931 4666 
L 3219 666 
L 4000 4666 
L 4616 4666 
L 3706 0 
L 2853 0 
L 1569 4025 
L 788 0 
L 172 0 
L 1081 4666 
z
" transform="scale(0.015625)"/>
       <path id="DejaVuSans-Oblique-61" d="M 3438 1997 
L 3047 0 
L 2472 0 
L 2578 531 
Q 2325 219 2001 64 
Q 1678 -91 1281 -91 
Q 834 -91 548 182 
Q 263 456 263 884 
Q 263 1497 752 1853 
Q 1241 2209 2100 2209 
L 2900 2209 
L 2931 2363 
Q 2938 2388 2941 2417 
Q 2944 2447 2944 2509 
Q 2944 2788 2717 2942 
Q 2491 3097 2081 3097 
Q 1800 3097 1504 3025 
Q 1209 2953 897 2809 
L 997 3341 
Q 1322 3463 1633 3523 
Q 1944 3584 2234 3584 
Q 2853 3584 3176 3315 
Q 3500 3047 3500 2534 
Q 3500 2431 3484 2292 
Q 3469 2153 3438 1997 
z
M 2816 1759 
L 2241 1759 
Q 1534 1759 1195 1570 
Q 856 1381 856 984 
Q 856 709 1029 553 
Q 1203 397 1509 397 
Q 1978 397 2328 733 
Q 2678 1069 2791 1631 
L 2816 1759 
z
" transform="scale(0.015625)"/>
      </defs>
      <use xlink:href="#DejaVuSans-6d" transform="translate(0 0.78125)"/>
      <use xlink:href="#DejaVuSans-65" transform="translate(97.412109 0.78125)"/>
      <use xlink:href="#DejaVuSans-61" transform="translate(158.935547 0.78125)"/>
      <use xlink:href="#DejaVuSans-6e" transform="translate(220.214844 0.78125)"/>
      <use xlink:href="#DejaVuSans-20" transform="translate(283.59375 0.78125)"/>
      <use xlink:href="#DejaVuSans-47" transform="translate(315.380859 0.78125)"/>
      <use xlink:href="#DejaVuSans-54" transform="translate(392.871094 0.78125)"/>
      <use xlink:href="#DejaVuSans-20" transform="translate(453.955078 0.78125)"/>
      <use xlink:href="#DejaVuSans-65" transform="translate(485.742188 0.78125)"/>
      <use xlink:href="#DejaVuSans-72" transform="translate(547.265625 0.78125)"/>
      <use xlink:href="#DejaVuSans-72" transform="translate(588.378906 0.78125)"/>
      <use xlink:href="#DejaVuSans-6f" transform="translate(629.492188 0.78125)"/>
      <use xlink:href="#DejaVuSans-72" transform="translate(690.673828 0.78125)"/>
      <use xlink:href="#DejaVuSans-20" transform="translate(731.787109 0.78125)"/>
      <use xlink:href="#DejaVuSans-Oblique-67" transform="translate(763.574219 0.78125)"/>
      <use xlink:href="#DejaVuSans-Oblique-4e" transform="translate(827.050781 -15.625) scale(0.7)"/>
      <use xlink:href="#DejaVuSans-Oblique-61" transform="translate(879.414062 -15.625) scale(0.7)"/>
     </g>
    </g>
   </g>
   <g id="line2d_27">
    <path d="M 59.87 223.169336 
L 68.02205 223.509535 
L 73.45675 223.79487 
L 77.532775 223.6191 
L 88.402175 222.719991 
L 92.4782 222.630104 
L 96.554225 222.744548 
L 103.3476 223.227046 
L 115.575675 224.411871 
L 133.23845 226.333621 
L 144.10785 227.1794 
L 176.71605 229.212712 
L 214.75895 230.841974 
L 231.06305 231.383816 
L 240.573775 231.534022 
L 259.595225 231.460427 
L 273.181975 231.127732 
L 285.41005 230.62767 
L 304.4315 229.626724 
L 330.246325 227.620315 
L 330.246325 227.620315 
" clip-path="url(#pb72d1f6692)" style="fill: none; stroke: #ff0000; stroke-opacity: 0.8; stroke-width: 2; stroke-linecap: square"/>
   </g>
   <g id="line2d_28">
    <path d="M 59.87 245.434992 
L 63.946025 246.222273 
L 66.663375 246.493177 
L 70.7394 246.580296 
L 76.1741 246.041651 
L 80.250125 245.602766 
L 88.402175 244.946071 
L 92.4782 244.855994 
L 97.9129 245.00914 
L 103.3476 245.362889 
L 108.7823 245.715066 
L 114.217 245.889159 
L 123.727725 245.961077 
L 137.314475 245.773341 
L 142.749175 245.504303 
L 152.2599 244.928965 
L 163.1293 243.908902 
L 184.8681 241.217134 
L 194.378825 239.905303 
L 207.965575 237.92965 
L 216.117625 236.673494 
L 235.139075 233.831261 
L 237.856425 233.35062 
L 246.008475 232.129721 
L 252.80185 231.10535 
L 265.029925 229.305562 
L 266.3886 229.209354 
L 270.464625 228.566278 
L 271.8233 228.489008 
L 275.899325 227.833195 
L 277.258 227.869455 
L 279.97535 227.535155 
L 281.334025 227.307541 
L 282.6927 227.203557 
L 282.6927 227.203557 
" clip-path="url(#pb72d1f6692)" style="fill: none; stroke: #00ff00; stroke-opacity: 0.8; stroke-width: 2; stroke-linecap: square"/>
   </g>
   <g id="line2d_29">
    <path d="M 59.87 238.544728 
L 63.946025 239.011867 
L 66.663375 239.307507 
L 72.098075 239.498532 
L 76.1741 239.254178 
L 82.967475 238.704036 
L 88.402175 238.186698 
L 92.4782 237.924231 
L 99.271575 237.839579 
L 106.06495 237.848322 
L 112.858325 238.001395 
L 123.727725 238.523047 
L 129.162425 238.923556 
L 134.597125 239.484371 
L 148.183875 241.032794 
L 157.6946 241.575979 
L 164.487975 241.836681 
L 172.640025 242.154578 
L 190.3028 242.803493 
L 205.248225 243.317873 
L 224.269675 243.804297 
L 239.2151 243.991603 
L 254.160525 244.10116 
L 267.747275 244.015613 
L 294.920775 243.356014 
L 328.88765 241.833613 
L 330.246325 241.72607 
L 330.246325 241.72607 
" clip-path="url(#pb72d1f6692)" style="fill: none; stroke: #0000ff; stroke-opacity: 0.8; stroke-width: 2; stroke-linecap: square"/>
   </g>
   <g id="patch_9">
    <path d="M 59.87 341.453333 
L 59.87 201.586667 
" style="fill: none; stroke: #000000; stroke-width: 0.8; stroke-linejoin: miter; stroke-linecap: square"/>
   </g>
   <g id="patch_10">
    <path d="M 331.605 341.453333 
L 331.605 201.586667 
" style="fill: none; stroke: #000000; stroke-width: 0.8; stroke-linejoin: miter; stroke-linecap: square"/>
   </g>
   <g id="patch_11">
    <path d="M 59.87 341.453333 
L 331.605 341.453333 
" style="fill: none; stroke: #000000; stroke-width: 0.8; stroke-linejoin: miter; stroke-linecap: square"/>
   </g>
   <g id="patch_12">
    <path d="M 59.87 201.586667 
L 331.605 201.586667 
" style="fill: none; stroke: #000000; stroke-width: 0.8; stroke-linejoin: miter; stroke-linecap: square"/>
   </g>
  </g>
  <g id="axes_3">
   <g id="patch_13">
    <path d="M 59.87 522.52 
L 331.605 522.52 
L 331.605 382.653333 
L 59.87 382.653333 
z
" style="fill: #ffffff"/>
   </g>
   <g id="matplotlib.axis_5">
    <g id="xtick_11">
     <g id="line2d_30">
      <g>
       <use xlink:href="#mbb16ec27af" x="59.87" y="522.52" style="stroke: #000000; stroke-width: 0.8"/>
      </g>
     </g>
     <g id="text_26">
      <!-- 0 -->
      <g transform="translate(55.41625 540.157812) scale(0.14 -0.14)">
       <use xlink:href="#DejaVuSans-30"/>
      </g>
     </g>
    </g>
    <g id="xtick_12">
     <g id="line2d_31">
      <g>
       <use xlink:href="#mbb16ec27af" x="127.80375" y="522.52" style="stroke: #000000; stroke-width: 0.8"/>
      </g>
     </g>
     <g id="text_27">
      <!-- 50 -->
      <g transform="translate(118.89625 540.157812) scale(0.14 -0.14)">
       <use xlink:href="#DejaVuSans-35"/>
       <use xlink:href="#DejaVuSans-30" x="63.623047"/>
      </g>
     </g>
    </g>
    <g id="xtick_13">
     <g id="line2d_32">
      <g>
       <use xlink:href="#mbb16ec27af" x="195.7375" y="522.52" style="stroke: #000000; stroke-width: 0.8"/>
      </g>
     </g>
     <g id="text_28">
      <!-- 100 -->
      <g transform="translate(182.37625 540.157812) scale(0.14 -0.14)">
       <use xlink:href="#DejaVuSans-31"/>
       <use xlink:href="#DejaVuSans-30" x="63.623047"/>
       <use xlink:href="#DejaVuSans-30" x="127.246094"/>
      </g>
     </g>
    </g>
    <g id="xtick_14">
     <g id="line2d_33">
      <g>
       <use xlink:href="#mbb16ec27af" x="263.67125" y="522.52" style="stroke: #000000; stroke-width: 0.8"/>
      </g>
     </g>
     <g id="text_29">
      <!-- 150 -->
      <g transform="translate(250.31 540.157812) scale(0.14 -0.14)">
       <use xlink:href="#DejaVuSans-31"/>
       <use xlink:href="#DejaVuSans-35" x="63.623047"/>
       <use xlink:href="#DejaVuSans-30" x="127.246094"/>
      </g>
     </g>
    </g>
    <g id="xtick_15">
     <g id="line2d_34">
      <g>
       <use xlink:href="#mbb16ec27af" x="331.605" y="522.52" style="stroke: #000000; stroke-width: 0.8"/>
      </g>
     </g>
     <g id="text_30">
      <!-- 200 -->
      <g transform="translate(318.24375 540.157812) scale(0.14 -0.14)">
       <use xlink:href="#DejaVuSans-32"/>
       <use xlink:href="#DejaVuSans-30" x="63.623047"/>
       <use xlink:href="#DejaVuSans-30" x="127.246094"/>
      </g>
     </g>
    </g>
    <g id="text_31">
     <!-- Epochs -->
     <g transform="translate(170.655625 557.707187) scale(0.14 -0.14)">
      <defs>
       <path id="DejaVuSans-45" d="M 628 4666 
L 3578 4666 
L 3578 4134 
L 1259 4134 
L 1259 2753 
L 3481 2753 
L 3481 2222 
L 1259 2222 
L 1259 531 
L 3634 531 
L 3634 0 
L 628 0 
L 628 4666 
z
" transform="scale(0.015625)"/>
       <path id="DejaVuSans-70" d="M 1159 525 
L 1159 -1331 
L 581 -1331 
L 581 3500 
L 1159 3500 
L 1159 2969 
Q 1341 3281 1617 3432 
Q 1894 3584 2278 3584 
Q 2916 3584 3314 3078 
Q 3713 2572 3713 1747 
Q 3713 922 3314 415 
Q 2916 -91 2278 -91 
Q 1894 -91 1617 61 
Q 1341 213 1159 525 
z
M 3116 1747 
Q 3116 2381 2855 2742 
Q 2594 3103 2138 3103 
Q 1681 3103 1420 2742 
Q 1159 2381 1159 1747 
Q 1159 1113 1420 752 
Q 1681 391 2138 391 
Q 2594 391 2855 752 
Q 3116 1113 3116 1747 
z
" transform="scale(0.015625)"/>
       <path id="DejaVuSans-63" d="M 3122 3366 
L 3122 2828 
Q 2878 2963 2633 3030 
Q 2388 3097 2138 3097 
Q 1578 3097 1268 2742 
Q 959 2388 959 1747 
Q 959 1106 1268 751 
Q 1578 397 2138 397 
Q 2388 397 2633 464 
Q 2878 531 3122 666 
L 3122 134 
Q 2881 22 2623 -34 
Q 2366 -91 2075 -91 
Q 1284 -91 818 406 
Q 353 903 353 1747 
Q 353 2603 823 3093 
Q 1294 3584 2113 3584 
Q 2378 3584 2631 3529 
Q 2884 3475 3122 3366 
z
" transform="scale(0.015625)"/>
       <path id="DejaVuSans-68" d="M 3513 2113 
L 3513 0 
L 2938 0 
L 2938 2094 
Q 2938 2591 2744 2837 
Q 2550 3084 2163 3084 
Q 1697 3084 1428 2787 
Q 1159 2491 1159 1978 
L 1159 0 
L 581 0 
L 581 4863 
L 1159 4863 
L 1159 2956 
Q 1366 3272 1645 3428 
Q 1925 3584 2291 3584 
Q 2894 3584 3203 3211 
Q 3513 2838 3513 2113 
z
" transform="scale(0.015625)"/>
      </defs>
      <use xlink:href="#DejaVuSans-45"/>
      <use xlink:href="#DejaVuSans-70" x="63.183594"/>
      <use xlink:href="#DejaVuSans-6f" x="126.660156"/>
      <use xlink:href="#DejaVuSans-63" x="187.841797"/>
      <use xlink:href="#DejaVuSans-68" x="242.822266"/>
      <use xlink:href="#DejaVuSans-73" x="306.201172"/>
     </g>
    </g>
   </g>
   <g id="matplotlib.axis_6">
    <g id="ytick_11">
     <g id="line2d_35">
      <g>
       <use xlink:href="#m27a1193ec8" x="59.87" y="522.52" style="stroke: #000000; stroke-width: 0.8"/>
      </g>
     </g>
     <g id="text_32">
      <!-- 0 -->
      <g transform="translate(43.9625 527.838906) scale(0.14 -0.14)">
       <use xlink:href="#DejaVuSans-30"/>
      </g>
     </g>
    </g>
    <g id="ytick_12">
     <g id="line2d_36">
      <g>
       <use xlink:href="#m27a1193ec8" x="59.87" y="487.553333" style="stroke: #000000; stroke-width: 0.8"/>
      </g>
     </g>
     <g id="text_33">
      <!-- 5 -->
      <g transform="translate(43.9625 492.87224) scale(0.14 -0.14)">
       <use xlink:href="#DejaVuSans-35"/>
      </g>
     </g>
    </g>
    <g id="ytick_13">
     <g id="line2d_37">
      <g>
       <use xlink:href="#m27a1193ec8" x="59.87" y="452.586667" style="stroke: #000000; stroke-width: 0.8"/>
      </g>
     </g>
     <g id="text_34">
      <!-- 10 -->
      <g transform="translate(35.055 457.905573) scale(0.14 -0.14)">
       <use xlink:href="#DejaVuSans-31"/>
       <use xlink:href="#DejaVuSans-30" x="63.623047"/>
      </g>
     </g>
    </g>
    <g id="ytick_14">
     <g id="line2d_38">
      <g>
       <use xlink:href="#m27a1193ec8" x="59.87" y="417.62" style="stroke: #000000; stroke-width: 0.8"/>
      </g>
     </g>
     <g id="text_35">
      <!-- 15 -->
      <g transform="translate(35.055 422.938906) scale(0.14 -0.14)">
       <use xlink:href="#DejaVuSans-31"/>
       <use xlink:href="#DejaVuSans-35" x="63.623047"/>
      </g>
     </g>
    </g>
    <g id="ytick_15">
     <g id="line2d_39">
      <g>
       <use xlink:href="#m27a1193ec8" x="59.87" y="382.653333" style="stroke: #000000; stroke-width: 0.8"/>
      </g>
     </g>
     <g id="text_36">
      <!-- 20 -->
      <g transform="translate(35.055 387.97224) scale(0.14 -0.14)">
       <use xlink:href="#DejaVuSans-32"/>
       <use xlink:href="#DejaVuSans-30" x="63.623047"/>
      </g>
     </g>
    </g>
    <g id="text_37">
     <!-- mean GT error $g_{K}$ -->
     <g transform="translate(28.115 513.906667) rotate(-90) scale(0.14 -0.14)">
      <defs>
       <path id="DejaVuSans-Oblique-4b" d="M 1081 4666 
L 1716 4666 
L 1331 2700 
L 3781 4666 
L 4622 4666 
L 1850 2438 
L 3878 0 
L 3109 0 
L 1247 2272 
L 806 0 
L 172 0 
L 1081 4666 
z
" transform="scale(0.015625)"/>
      </defs>
      <use xlink:href="#DejaVuSans-6d" transform="translate(0 0.78125)"/>
      <use xlink:href="#DejaVuSans-65" transform="translate(97.412109 0.78125)"/>
      <use xlink:href="#DejaVuSans-61" transform="translate(158.935547 0.78125)"/>
      <use xlink:href="#DejaVuSans-6e" transform="translate(220.214844 0.78125)"/>
      <use xlink:href="#DejaVuSans-20" transform="translate(283.59375 0.78125)"/>
      <use xlink:href="#DejaVuSans-47" transform="translate(315.380859 0.78125)"/>
      <use xlink:href="#DejaVuSans-54" transform="translate(392.871094 0.78125)"/>
      <use xlink:href="#DejaVuSans-20" transform="translate(453.955078 0.78125)"/>
      <use xlink:href="#DejaVuSans-65" transform="translate(485.742188 0.78125)"/>
      <use xlink:href="#DejaVuSans-72" transform="translate(547.265625 0.78125)"/>
      <use xlink:href="#DejaVuSans-72" transform="translate(588.378906 0.78125)"/>
      <use xlink:href="#DejaVuSans-6f" transform="translate(629.492188 0.78125)"/>
      <use xlink:href="#DejaVuSans-72" transform="translate(690.673828 0.78125)"/>
      <use xlink:href="#DejaVuSans-20" transform="translate(731.787109 0.78125)"/>
      <use xlink:href="#DejaVuSans-Oblique-67" transform="translate(763.574219 0.78125)"/>
      <use xlink:href="#DejaVuSans-Oblique-4b" transform="translate(827.050781 -15.625) scale(0.7)"/>
     </g>
    </g>
   </g>
   <g id="line2d_40">
    <path d="M 59.87 480.734729 
L 62.58735 485.233934 
L 65.3047 489.16387 
L 68.02205 492.586398 
L 70.7394 495.498108 
L 73.45675 498.094389 
L 76.1741 500.291044 
L 78.89145 502.323123 
L 82.967475 504.639249 
L 87.0435 506.646947 
L 88.402175 507.245016 
L 91.119525 508.077018 
L 93.836875 508.580767 
L 96.554225 508.724073 
L 100.63025 508.613134 
L 106.06495 508.472943 
L 114.217 508.233471 
L 121.010375 508.048092 
L 127.80375 508.065355 
L 141.3905 507.639214 
L 152.2599 507.222194 
L 165.84665 507.025049 
L 175.357375 507.018101 
L 186.226775 507.018242 
L 284.051375 506.722883 
L 330.246325 506.956896 
L 330.246325 506.956896 
" clip-path="url(#p0114cb9d73)" style="fill: none; stroke: #ff0000; stroke-opacity: 0.8; stroke-width: 2; stroke-linecap: square"/>
   </g>
   <g id="line2d_41">
    <path d="M 59.87 477.054876 
L 62.58735 481.422745 
L 65.3047 485.358992 
L 68.02205 488.903383 
L 69.380725 490.496655 
L 72.098075 493.213257 
L 76.1741 496.773465 
L 78.89145 498.85992 
L 80.250125 499.741289 
L 84.32615 501.727673 
L 87.0435 502.766156 
L 89.76085 503.456818 
L 93.836875 504.198937 
L 96.554225 504.343428 
L 99.271575 504.293872 
L 107.423625 503.75157 
L 111.49965 503.844212 
L 126.445075 504.747626 
L 144.10785 505.207177 
L 159.053275 505.471491 
L 193.02015 506.479944 
L 202.530875 506.658974 
L 209.32425 506.787086 
L 217.4763 506.91925 
L 220.19365 506.948141 
L 225.62835 507.035695 
L 232.421725 507.102312 
L 235.139075 507.105259 
L 237.856425 507.17926 
L 243.291125 507.119235 
L 256.877875 506.956479 
L 265.029925 507.060501 
L 266.3886 506.980077 
L 269.10595 507.140039 
L 273.181975 506.935059 
L 275.899325 507.060836 
L 277.258 506.919073 
L 279.97535 507.018918 
L 282.6927 507.110281 
L 282.6927 507.110281 
" clip-path="url(#p0114cb9d73)" style="fill: none; stroke: #00ff00; stroke-opacity: 0.8; stroke-width: 2; stroke-linecap: square"/>
   </g>
   <g id="line2d_42">
    <path d="M 59.87 477.522375 
L 63.946025 484.283097 
L 66.663375 488.357869 
L 69.380725 491.747033 
L 72.098075 494.75117 
L 74.815425 497.21666 
L 77.532775 499.357225 
L 78.89145 500.260976 
L 81.6088 501.690096 
L 82.967475 502.249617 
L 85.684825 503.049659 
L 89.76085 503.97836 
L 92.4782 504.281618 
L 95.19555 504.161857 
L 99.271575 503.634458 
L 107.423625 502.679486 
L 112.858325 502.361561 
L 115.575675 502.371333 
L 121.010375 502.618039 
L 134.597125 503.653972 
L 140.031825 503.796374 
L 150.901225 503.834686 
L 157.6946 504.107304 
L 168.564 504.364831 
L 236.49775 506.204016 
L 248.725825 506.396627 
L 275.899325 506.741471 
L 330.246325 506.906802 
L 330.246325 506.906802 
" clip-path="url(#p0114cb9d73)" style="fill: none; stroke: #0000ff; stroke-opacity: 0.8; stroke-width: 2; stroke-linecap: square"/>
   </g>
   <g id="patch_14">
    <path d="M 59.87 522.52 
L 59.87 382.653333 
" style="fill: none; stroke: #000000; stroke-width: 0.8; stroke-linejoin: miter; stroke-linecap: square"/>
   </g>
   <g id="patch_15">
    <path d="M 331.605 522.52 
L 331.605 382.653333 
" style="fill: none; stroke: #000000; stroke-width: 0.8; stroke-linejoin: miter; stroke-linecap: square"/>
   </g>
   <g id="patch_16">
    <path d="M 59.87 522.52 
L 331.605 522.52 
" style="fill: none; stroke: #000000; stroke-width: 0.8; stroke-linejoin: miter; stroke-linecap: square"/>
   </g>
   <g id="patch_17">
    <path d="M 59.87 382.653333 
L 331.605 382.653333 
" style="fill: none; stroke: #000000; stroke-width: 0.8; stroke-linejoin: miter; stroke-linecap: square"/>
   </g>
  </g>
 </g>
 <defs>
  <clipPath id="p6886ee6c80">
   <rect x="59.87" y="20.52" width="271.735" height="139.866667"/>
  </clipPath>
  <clipPath id="pb72d1f6692">
   <rect x="59.87" y="201.586667" width="271.735" height="139.866667"/>
  </clipPath>
  <clipPath id="p0114cb9d73">
   <rect x="59.87" y="382.653333" width="271.735" height="139.866667"/>
  </clipPath>
 </defs>
</svg>
