<?xml version="1.0" encoding="utf-8" standalone="no"?>
<!DOCTYPE svg PUBLIC "-//W3C//DTD SVG 1.1//EN"
  "http://www.w3.org/Graphics/SVG/1.1/DTD/svg11.dtd">
<svg xmlns:xlink="http://www.w3.org/1999/xlink" width="460.8pt" height="345.6pt" viewBox="0 0 460.8 345.6" xmlns="http://www.w3.org/2000/svg" version="1.1">
 <metadata>
  <rdf:RDF xmlns:dc="http://purl.org/dc/elements/1.1/" xmlns:cc="http://creativecommons.org/ns#" xmlns:rdf="http://www.w3.org/1999/02/22-rdf-syntax-ns#">
   <cc:Work>
    <dc:type rdf:resource="http://purl.org/dc/dcmitype/StillImage"/>
    <dc:date>2024-07-01T13:42:24.309116</dc:date>
    <dc:format>image/svg+xml</dc:format>
    <dc:creator>
     <cc:Agent>
      <dc:title>Matplotlib v3.8.3, https://matplotlib.org/</dc:title>
     </cc:Agent>
    </dc:creator>
   </cc:Work>
  </rdf:RDF>
 </metadata>
 <defs>
  <style type="text/css">*{stroke-linejoin: round; stroke-linecap: butt}</style>
 </defs>
 <g id="figure_1">
  <g id="patch_1">
   <path d="M 0 345.6 
L 460.8 345.6 
L 460.8 0 
L 0 0 
z
" style="fill: #ffffff"/>
  </g>
  <g id="axes_1">
   <g id="patch_2">
    <path d="M 57.6 307.584 
L 414.72 307.584 
L 414.72 41.472 
L 57.6 41.472 
z
" style="fill: #ffffff"/>
   </g>
   <g id="matplotlib.axis_1">
    <g id="xtick_1">
     <g id="line2d_1">
      <defs>
       <path id="m41f2fccfa9" d="M 0 0 
L 0 3.5 
" style="stroke: #000000; stroke-width: 0.8"/>
      </defs>
      <g>
       <use xlink:href="#m41f2fccfa9" x="57.6" y="307.584" style="stroke: #000000; stroke-width: 0.8"/>
      </g>
     </g>
     <g id="text_1">
      <!-- 0 -->
      <g transform="translate(53.14625 325.221812) scale(0.14 -0.14)">
       <defs>
        <path id="DejaVuSans-30" d="M 2034 4250 
Q 1547 4250 1301 3770 
Q 1056 3291 1056 2328 
Q 1056 1369 1301 889 
Q 1547 409 2034 409 
Q 2525 409 2770 889 
Q 3016 1369 3016 2328 
Q 3016 3291 2770 3770 
Q 2525 4250 2034 4250 
z
M 2034 4750 
Q 2819 4750 3233 4129 
Q 3647 3509 3647 2328 
Q 3647 1150 3233 529 
Q 2819 -91 2034 -91 
Q 1250 -91 836 529 
Q 422 1150 422 2328 
Q 422 3509 836 4129 
Q 1250 4750 2034 4750 
z
" transform="scale(0.015625)"/>
       </defs>
       <use xlink:href="#DejaVuSans-30"/>
      </g>
     </g>
    </g>
    <g id="xtick_2">
     <g id="line2d_2">
      <g>
       <use xlink:href="#m41f2fccfa9" x="102.24" y="307.584" style="stroke: #000000; stroke-width: 0.8"/>
      </g>
     </g>
     <g id="text_2">
      <!-- 25 -->
      <g transform="translate(93.3325 325.221812) scale(0.14 -0.14)">
       <defs>
        <path id="DejaVuSans-32" d="M 1228 531 
L 3431 531 
L 3431 0 
L 469 0 
L 469 531 
Q 828 903 1448 1529 
Q 2069 2156 2228 2338 
Q 2531 2678 2651 2914 
Q 2772 3150 2772 3378 
Q 2772 3750 2511 3984 
Q 2250 4219 1831 4219 
Q 1534 4219 1204 4116 
Q 875 4013 500 3803 
L 500 4441 
Q 881 4594 1212 4672 
Q 1544 4750 1819 4750 
Q 2544 4750 2975 4387 
Q 3406 4025 3406 3419 
Q 3406 3131 3298 2873 
Q 3191 2616 2906 2266 
Q 2828 2175 2409 1742 
Q 1991 1309 1228 531 
z
" transform="scale(0.015625)"/>
        <path id="DejaVuSans-35" d="M 691 4666 
L 3169 4666 
L 3169 4134 
L 1269 4134 
L 1269 2991 
Q 1406 3038 1543 3061 
Q 1681 3084 1819 3084 
Q 2600 3084 3056 2656 
Q 3513 2228 3513 1497 
Q 3513 744 3044 326 
Q 2575 -91 1722 -91 
Q 1428 -91 1123 -41 
Q 819 9 494 109 
L 494 744 
Q 775 591 1075 516 
Q 1375 441 1709 441 
Q 2250 441 2565 725 
Q 2881 1009 2881 1497 
Q 2881 1984 2565 2268 
Q 2250 2553 1709 2553 
Q 1456 2553 1204 2497 
Q 953 2441 691 2322 
L 691 4666 
z
" transform="scale(0.015625)"/>
       </defs>
       <use xlink:href="#DejaVuSans-32"/>
       <use xlink:href="#DejaVuSans-35" x="63.623047"/>
      </g>
     </g>
    </g>
    <g id="xtick_3">
     <g id="line2d_3">
      <g>
       <use xlink:href="#m41f2fccfa9" x="146.88" y="307.584" style="stroke: #000000; stroke-width: 0.8"/>
      </g>
     </g>
     <g id="text_3">
      <!-- 50 -->
      <g transform="translate(137.9725 325.221812) scale(0.14 -0.14)">
       <use xlink:href="#DejaVuSans-35"/>
       <use xlink:href="#DejaVuSans-30" x="63.623047"/>
      </g>
     </g>
    </g>
    <g id="xtick_4">
     <g id="line2d_4">
      <g>
       <use xlink:href="#m41f2fccfa9" x="191.52" y="307.584" style="stroke: #000000; stroke-width: 0.8"/>
      </g>
     </g>
     <g id="text_4">
      <!-- 75 -->
      <g transform="translate(182.6125 325.221812) scale(0.14 -0.14)">
       <defs>
        <path id="DejaVuSans-37" d="M 525 4666 
L 3525 4666 
L 3525 4397 
L 1831 0 
L 1172 0 
L 2766 4134 
L 525 4134 
L 525 4666 
z
" transform="scale(0.015625)"/>
       </defs>
       <use xlink:href="#DejaVuSans-37"/>
       <use xlink:href="#DejaVuSans-35" x="63.623047"/>
      </g>
     </g>
    </g>
    <g id="xtick_5">
     <g id="line2d_5">
      <g>
       <use xlink:href="#m41f2fccfa9" x="236.16" y="307.584" style="stroke: #000000; stroke-width: 0.8"/>
      </g>
     </g>
     <g id="text_5">
      <!-- 100 -->
      <g transform="translate(222.79875 325.221812) scale(0.14 -0.14)">
       <defs>
        <path id="DejaVuSans-31" d="M 794 531 
L 1825 531 
L 1825 4091 
L 703 3866 
L 703 4441 
L 1819 4666 
L 2450 4666 
L 2450 531 
L 3481 531 
L 3481 0 
L 794 0 
L 794 531 
z
" transform="scale(0.015625)"/>
       </defs>
       <use xlink:href="#DejaVuSans-31"/>
       <use xlink:href="#DejaVuSans-30" x="63.623047"/>
       <use xlink:href="#DejaVuSans-30" x="127.246094"/>
      </g>
     </g>
    </g>
    <g id="xtick_6">
     <g id="line2d_6">
      <g>
       <use xlink:href="#m41f2fccfa9" x="280.8" y="307.584" style="stroke: #000000; stroke-width: 0.8"/>
      </g>
     </g>
     <g id="text_6">
      <!-- 125 -->
      <g transform="translate(267.43875 325.221812) scale(0.14 -0.14)">
       <use xlink:href="#DejaVuSans-31"/>
       <use xlink:href="#DejaVuSans-32" x="63.623047"/>
       <use xlink:href="#DejaVuSans-35" x="127.246094"/>
      </g>
     </g>
    </g>
    <g id="xtick_7">
     <g id="line2d_7">
      <g>
       <use xlink:href="#m41f2fccfa9" x="325.44" y="307.584" style="stroke: #000000; stroke-width: 0.8"/>
      </g>
     </g>
     <g id="text_7">
      <!-- 150 -->
      <g transform="translate(312.07875 325.221812) scale(0.14 -0.14)">
       <use xlink:href="#DejaVuSans-31"/>
       <use xlink:href="#DejaVuSans-35" x="63.623047"/>
       <use xlink:href="#DejaVuSans-30" x="127.246094"/>
      </g>
     </g>
    </g>
    <g id="xtick_8">
     <g id="line2d_8">
      <g>
       <use xlink:href="#m41f2fccfa9" x="370.08" y="307.584" style="stroke: #000000; stroke-width: 0.8"/>
      </g>
     </g>
     <g id="text_8">
      <!-- 175 -->
      <g transform="translate(356.71875 325.221812) scale(0.14 -0.14)">
       <use xlink:href="#DejaVuSans-31"/>
       <use xlink:href="#DejaVuSans-37" x="63.623047"/>
       <use xlink:href="#DejaVuSans-35" x="127.246094"/>
      </g>
     </g>
    </g>
    <g id="xtick_9">
     <g id="line2d_9">
      <g>
       <use xlink:href="#m41f2fccfa9" x="414.72" y="307.584" style="stroke: #000000; stroke-width: 0.8"/>
      </g>
     </g>
     <g id="text_9">
      <!-- 200 -->
      <g transform="translate(401.35875 325.221812) scale(0.14 -0.14)">
       <use xlink:href="#DejaVuSans-32"/>
       <use xlink:href="#DejaVuSans-30" x="63.623047"/>
       <use xlink:href="#DejaVuSans-30" x="127.246094"/>
      </g>
     </g>
    </g>
    <g id="text_10">
     <!-- Epochs -->
     <g transform="translate(211.078125 342.771187) scale(0.14 -0.14)">
      <defs>
       <path id="DejaVuSans-45" d="M 628 4666 
L 3578 4666 
L 3578 4134 
L 1259 4134 
L 1259 2753 
L 3481 2753 
L 3481 2222 
L 1259 2222 
L 1259 531 
L 3634 531 
L 3634 0 
L 628 0 
L 628 4666 
z
" transform="scale(0.015625)"/>
       <path id="DejaVuSans-70" d="M 1159 525 
L 1159 -1331 
L 581 -1331 
L 581 3500 
L 1159 3500 
L 1159 2969 
Q 1341 3281 1617 3432 
Q 1894 3584 2278 3584 
Q 2916 3584 3314 3078 
Q 3713 2572 3713 1747 
Q 3713 922 3314 415 
Q 2916 -91 2278 -91 
Q 1894 -91 1617 61 
Q 1341 213 1159 525 
z
M 3116 1747 
Q 3116 2381 2855 2742 
Q 2594 3103 2138 3103 
Q 1681 3103 1420 2742 
Q 1159 2381 1159 1747 
Q 1159 1113 1420 752 
Q 1681 391 2138 391 
Q 2594 391 2855 752 
Q 3116 1113 3116 1747 
z
" transform="scale(0.015625)"/>
       <path id="DejaVuSans-6f" d="M 1959 3097 
Q 1497 3097 1228 2736 
Q 959 2375 959 1747 
Q 959 1119 1226 758 
Q 1494 397 1959 397 
Q 2419 397 2687 759 
Q 2956 1122 2956 1747 
Q 2956 2369 2687 2733 
Q 2419 3097 1959 3097 
z
M 1959 3584 
Q 2709 3584 3137 3096 
Q 3566 2609 3566 1747 
Q 3566 888 3137 398 
Q 2709 -91 1959 -91 
Q 1206 -91 779 398 
Q 353 888 353 1747 
Q 353 2609 779 3096 
Q 1206 3584 1959 3584 
z
" transform="scale(0.015625)"/>
       <path id="DejaVuSans-63" d="M 3122 3366 
L 3122 2828 
Q 2878 2963 2633 3030 
Q 2388 3097 2138 3097 
Q 1578 3097 1268 2742 
Q 959 2388 959 1747 
Q 959 1106 1268 751 
Q 1578 397 2138 397 
Q 2388 397 2633 464 
Q 2878 531 3122 666 
L 3122 134 
Q 2881 22 2623 -34 
Q 2366 -91 2075 -91 
Q 1284 -91 818 406 
Q 353 903 353 1747 
Q 353 2603 823 3093 
Q 1294 3584 2113 3584 
Q 2378 3584 2631 3529 
Q 2884 3475 3122 3366 
z
" transform="scale(0.015625)"/>
       <path id="DejaVuSans-68" d="M 3513 2113 
L 3513 0 
L 2938 0 
L 2938 2094 
Q 2938 2591 2744 2837 
Q 2550 3084 2163 3084 
Q 1697 3084 1428 2787 
Q 1159 2491 1159 1978 
L 1159 0 
L 581 0 
L 581 4863 
L 1159 4863 
L 1159 2956 
Q 1366 3272 1645 3428 
Q 1925 3584 2291 3584 
Q 2894 3584 3203 3211 
Q 3513 2838 3513 2113 
z
" transform="scale(0.015625)"/>
       <path id="DejaVuSans-73" d="M 2834 3397 
L 2834 2853 
Q 2591 2978 2328 3040 
Q 2066 3103 1784 3103 
Q 1356 3103 1142 2972 
Q 928 2841 928 2578 
Q 928 2378 1081 2264 
Q 1234 2150 1697 2047 
L 1894 2003 
Q 2506 1872 2764 1633 
Q 3022 1394 3022 966 
Q 3022 478 2636 193 
Q 2250 -91 1575 -91 
Q 1294 -91 989 -36 
Q 684 19 347 128 
L 347 722 
Q 666 556 975 473 
Q 1284 391 1588 391 
Q 1994 391 2212 530 
Q 2431 669 2431 922 
Q 2431 1156 2273 1281 
Q 2116 1406 1581 1522 
L 1381 1569 
Q 847 1681 609 1914 
Q 372 2147 372 2553 
Q 372 3047 722 3315 
Q 1072 3584 1716 3584 
Q 2034 3584 2315 3537 
Q 2597 3491 2834 3397 
z
" transform="scale(0.015625)"/>
      </defs>
      <use xlink:href="#DejaVuSans-45"/>
      <use xlink:href="#DejaVuSans-70" x="63.183594"/>
      <use xlink:href="#DejaVuSans-6f" x="126.660156"/>
      <use xlink:href="#DejaVuSans-63" x="187.841797"/>
      <use xlink:href="#DejaVuSans-68" x="242.822266"/>
      <use xlink:href="#DejaVuSans-73" x="306.201172"/>
     </g>
    </g>
   </g>
   <g id="matplotlib.axis_2">
    <g id="ytick_1">
     <g id="line2d_10">
      <defs>
       <path id="m1d552f46dd" d="M 0 0 
L -3.5 0 
" style="stroke: #000000; stroke-width: 0.8"/>
      </defs>
      <g>
       <use xlink:href="#m1d552f46dd" x="57.6" y="285.418387" style="stroke: #000000; stroke-width: 0.8"/>
      </g>
     </g>
     <g id="text_11">
      <!-- −2.0 -->
      <g transform="translate(16.604062 290.737294) scale(0.14 -0.14)">
       <defs>
        <path id="DejaVuSans-2212" d="M 678 2272 
L 4684 2272 
L 4684 1741 
L 678 1741 
L 678 2272 
z
" transform="scale(0.015625)"/>
        <path id="DejaVuSans-2e" d="M 684 794 
L 1344 794 
L 1344 0 
L 684 0 
L 684 794 
z
" transform="scale(0.015625)"/>
       </defs>
       <use xlink:href="#DejaVuSans-2212"/>
       <use xlink:href="#DejaVuSans-32" x="83.789062"/>
       <use xlink:href="#DejaVuSans-2e" x="147.412109"/>
       <use xlink:href="#DejaVuSans-30" x="179.199219"/>
      </g>
     </g>
    </g>
    <g id="ytick_2">
     <g id="line2d_11">
      <g>
       <use xlink:href="#m1d552f46dd" x="57.6" y="227.65715" style="stroke: #000000; stroke-width: 0.8"/>
      </g>
     </g>
     <g id="text_12">
      <!-- −1.5 -->
      <g transform="translate(16.604062 232.976056) scale(0.14 -0.14)">
       <use xlink:href="#DejaVuSans-2212"/>
       <use xlink:href="#DejaVuSans-31" x="83.789062"/>
       <use xlink:href="#DejaVuSans-2e" x="147.412109"/>
       <use xlink:href="#DejaVuSans-35" x="179.199219"/>
      </g>
     </g>
    </g>
    <g id="ytick_3">
     <g id="line2d_12">
      <g>
       <use xlink:href="#m1d552f46dd" x="57.6" y="169.895913" style="stroke: #000000; stroke-width: 0.8"/>
      </g>
     </g>
     <g id="text_13">
      <!-- −1.0 -->
      <g transform="translate(16.604062 175.214819) scale(0.14 -0.14)">
       <use xlink:href="#DejaVuSans-2212"/>
       <use xlink:href="#DejaVuSans-31" x="83.789062"/>
       <use xlink:href="#DejaVuSans-2e" x="147.412109"/>
       <use xlink:href="#DejaVuSans-30" x="179.199219"/>
      </g>
     </g>
    </g>
    <g id="ytick_4">
     <g id="line2d_13">
      <g>
       <use xlink:href="#m1d552f46dd" x="57.6" y="112.134675" style="stroke: #000000; stroke-width: 0.8"/>
      </g>
     </g>
     <g id="text_14">
      <!-- −0.5 -->
      <g transform="translate(16.604062 117.453582) scale(0.14 -0.14)">
       <use xlink:href="#DejaVuSans-2212"/>
       <use xlink:href="#DejaVuSans-30" x="83.789062"/>
       <use xlink:href="#DejaVuSans-2e" x="147.412109"/>
       <use xlink:href="#DejaVuSans-35" x="179.199219"/>
      </g>
     </g>
    </g>
    <g id="ytick_5">
     <g id="line2d_14">
      <g>
       <use xlink:href="#m1d552f46dd" x="57.6" y="54.373438" style="stroke: #000000; stroke-width: 0.8"/>
      </g>
     </g>
     <g id="text_15">
      <!-- 0.0 -->
      <g transform="translate(28.335625 59.692344) scale(0.14 -0.14)">
       <use xlink:href="#DejaVuSans-30"/>
       <use xlink:href="#DejaVuSans-2e" x="63.623047"/>
       <use xlink:href="#DejaVuSans-30" x="95.410156"/>
      </g>
     </g>
    </g>
    <g id="text_16">
     <!-- Loss Difference -->
     <g transform="translate(9.6925 228.29675) rotate(-90) scale(0.14 -0.14)">
      <defs>
       <path id="DejaVuSans-4c" d="M 628 4666 
L 1259 4666 
L 1259 531 
L 3531 531 
L 3531 0 
L 628 0 
L 628 4666 
z
" transform="scale(0.015625)"/>
       <path id="DejaVuSans-20" transform="scale(0.015625)"/>
       <path id="DejaVuSans-44" d="M 1259 4147 
L 1259 519 
L 2022 519 
Q 2988 519 3436 956 
Q 3884 1394 3884 2338 
Q 3884 3275 3436 3711 
Q 2988 4147 2022 4147 
L 1259 4147 
z
M 628 4666 
L 1925 4666 
Q 3281 4666 3915 4102 
Q 4550 3538 4550 2338 
Q 4550 1131 3912 565 
Q 3275 0 1925 0 
L 628 0 
L 628 4666 
z
" transform="scale(0.015625)"/>
       <path id="DejaVuSans-69" d="M 603 3500 
L 1178 3500 
L 1178 0 
L 603 0 
L 603 3500 
z
M 603 4863 
L 1178 4863 
L 1178 4134 
L 603 4134 
L 603 4863 
z
" transform="scale(0.015625)"/>
       <path id="DejaVuSans-66" d="M 2375 4863 
L 2375 4384 
L 1825 4384 
Q 1516 4384 1395 4259 
Q 1275 4134 1275 3809 
L 1275 3500 
L 2222 3500 
L 2222 3053 
L 1275 3053 
L 1275 0 
L 697 0 
L 697 3053 
L 147 3053 
L 147 3500 
L 697 3500 
L 697 3744 
Q 697 4328 969 4595 
Q 1241 4863 1831 4863 
L 2375 4863 
z
" transform="scale(0.015625)"/>
       <path id="DejaVuSans-65" d="M 3597 1894 
L 3597 1613 
L 953 1613 
Q 991 1019 1311 708 
Q 1631 397 2203 397 
Q 2534 397 2845 478 
Q 3156 559 3463 722 
L 3463 178 
Q 3153 47 2828 -22 
Q 2503 -91 2169 -91 
Q 1331 -91 842 396 
Q 353 884 353 1716 
Q 353 2575 817 3079 
Q 1281 3584 2069 3584 
Q 2775 3584 3186 3129 
Q 3597 2675 3597 1894 
z
M 3022 2063 
Q 3016 2534 2758 2815 
Q 2500 3097 2075 3097 
Q 1594 3097 1305 2825 
Q 1016 2553 972 2059 
L 3022 2063 
z
" transform="scale(0.015625)"/>
       <path id="DejaVuSans-72" d="M 2631 2963 
Q 2534 3019 2420 3045 
Q 2306 3072 2169 3072 
Q 1681 3072 1420 2755 
Q 1159 2438 1159 1844 
L 1159 0 
L 581 0 
L 581 3500 
L 1159 3500 
L 1159 2956 
Q 1341 3275 1631 3429 
Q 1922 3584 2338 3584 
Q 2397 3584 2469 3576 
Q 2541 3569 2628 3553 
L 2631 2963 
z
" transform="scale(0.015625)"/>
       <path id="DejaVuSans-6e" d="M 3513 2113 
L 3513 0 
L 2938 0 
L 2938 2094 
Q 2938 2591 2744 2837 
Q 2550 3084 2163 3084 
Q 1697 3084 1428 2787 
Q 1159 2491 1159 1978 
L 1159 0 
L 581 0 
L 581 3500 
L 1159 3500 
L 1159 2956 
Q 1366 3272 1645 3428 
Q 1925 3584 2291 3584 
Q 2894 3584 3203 3211 
Q 3513 2838 3513 2113 
z
" transform="scale(0.015625)"/>
      </defs>
      <use xlink:href="#DejaVuSans-4c"/>
      <use xlink:href="#DejaVuSans-6f" x="53.962891"/>
      <use xlink:href="#DejaVuSans-73" x="115.144531"/>
      <use xlink:href="#DejaVuSans-73" x="167.244141"/>
      <use xlink:href="#DejaVuSans-20" x="219.34375"/>
      <use xlink:href="#DejaVuSans-44" x="251.130859"/>
      <use xlink:href="#DejaVuSans-69" x="328.132812"/>
      <use xlink:href="#DejaVuSans-66" x="355.916016"/>
      <use xlink:href="#DejaVuSans-66" x="391.121094"/>
      <use xlink:href="#DejaVuSans-65" x="426.326172"/>
      <use xlink:href="#DejaVuSans-72" x="487.849609"/>
      <use xlink:href="#DejaVuSans-65" x="526.712891"/>
      <use xlink:href="#DejaVuSans-6e" x="588.236328"/>
      <use xlink:href="#DejaVuSans-63" x="651.615234"/>
      <use xlink:href="#DejaVuSans-65" x="706.595703"/>
     </g>
    </g>
   </g>
   <g id="line2d_15">
    <path d="M 57.6 295.488 
L 59.3856 279.158041 
L 61.1712 270.406512 
L 62.9568 263.197154 
L 64.7424 254.606034 
L 66.528 247.13513 
L 68.3136 240.967547 
L 70.0992 234.354654 
L 71.8848 224.620842 
L 73.6704 213.404792 
L 75.456 203.072642 
L 77.2416 198.816854 
L 79.0272 198.803413 
L 80.8128 196.980527 
L 82.5984 193.925931 
L 84.384 189.156856 
L 86.1696 179.817897 
L 87.9552 172.828109 
L 89.7408 171.708718 
L 91.5264 168.247041 
L 93.312 161.331399 
L 95.0976 146.356761 
L 96.8832 126.477181 
L 100.4544 95.519264 
L 102.24 78.824171 
L 104.0256 66.368589 
L 105.8112 60.356678 
L 107.5968 59.752666 
L 109.3824 61.487388 
L 111.168 64.096812 
L 112.9536 67.109818 
L 114.7392 69.590011 
L 116.5248 70.948335 
L 118.3104 70.530085 
L 120.096 68.327192 
L 121.8816 64.511949 
L 123.6672 60.27752 
L 125.4528 56.713976 
L 127.2384 54.669536 
L 129.024 54.528338 
L 130.8096 55.827762 
L 134.3808 59.511874 
L 136.1664 60.774053 
L 137.952 61.430512 
L 139.7376 61.469038 
L 141.5232 60.957563 
L 143.3088 60.029312 
L 145.0944 58.75403 
L 148.6656 55.721461 
L 150.4512 54.454841 
L 152.2368 53.715712 
L 154.0224 53.568 
L 155.808 53.94559 
L 161.1648 55.922516 
L 164.736 56.466918 
L 168.3072 56.435078 
L 173.664 55.82561 
L 175.4496 55.691508 
L 179.0208 55.75635 
L 182.592 55.851776 
L 187.9488 55.672755 
L 196.8768 55.134705 
L 200.448 55.19052 
L 205.8048 55.34498 
L 214.7328 55.155741 
L 220.0896 55.058783 
L 225.4464 55.083546 
L 237.9456 54.958896 
L 252.2304 54.897201 
L 266.5152 54.796441 
L 295.0848 54.669377 
L 304.0128 54.62066 
L 320.0832 54.572664 
L 354.0096 54.478498 
L 411.1488 54.404617 
L 411.1488 54.404617 
" clip-path="url(#p47e4734672)" style="fill: none; stroke: #1f77b4; stroke-width: 1.5; stroke-linecap: square"/>
   </g>
   <g id="line2d_16">
    <path d="M 57.6 295.488 
L 59.3856 279.158041 
L 61.1712 270.406512 
L 62.9568 263.197154 
L 64.7424 254.606034 
L 66.528 247.13513 
L 68.3136 240.967547 
L 70.0992 234.354654 
L 71.8848 224.620842 
L 73.6704 213.404792 
L 75.456 203.072642 
L 77.2416 198.816854 
L 79.0272 198.803413 
L 80.8128 196.980527 
L 82.5984 193.925931 
L 84.384 189.156856 
L 86.1696 179.817897 
L 87.9552 172.828109 
L 89.7408 171.708718 
L 91.5264 168.247041 
L 93.312 161.331399 
L 95.0976 146.356761 
L 96.8832 126.477181 
L 100.4544 95.519264 
L 102.24 78.824171 
L 104.0256 66.368589 
L 105.8112 60.356678 
L 107.5968 59.752666 
L 109.3824 61.487388 
L 111.168 64.096812 
L 112.9536 67.109818 
L 114.7392 69.590011 
L 116.5248 70.948335 
L 118.3104 70.530085 
L 120.096 68.327192 
L 121.8816 64.511949 
L 123.6672 60.27752 
L 125.4528 56.713976 
L 127.2384 54.669536 
L 129.024 54.528338 
L 130.8096 55.827762 
L 134.3808 59.511874 
L 136.1664 60.774053 
L 137.952 61.430512 
L 139.7376 61.469038 
L 141.5232 60.957563 
L 143.3088 60.029312 
L 145.0944 58.75403 
L 148.6656 55.721461 
L 150.4512 54.454841 
L 152.2368 53.715712 
L 154.0224 53.568 
L 155.808 53.94559 
L 161.1648 55.922516 
L 164.736 56.466918 
L 168.3072 56.435078 
L 173.664 55.82561 
L 175.4496 55.691508 
L 179.0208 55.75635 
L 182.592 55.851776 
L 187.9488 55.672755 
L 196.8768 55.134705 
L 200.448 55.19052 
L 205.8048 55.34498 
L 214.7328 55.155741 
L 220.0896 55.058783 
L 225.4464 55.083546 
L 237.9456 54.958896 
L 252.2304 54.897201 
L 266.5152 54.796441 
L 295.0848 54.669377 
L 304.0128 54.62066 
L 320.0832 54.572664 
L 346.8672 54.493331 
L 346.8672 54.493331 
" clip-path="url(#p47e4734672)" style="fill: none; stroke: #ff7f0e; stroke-width: 1.5; stroke-linecap: square"/>
   </g>
   <g id="line2d_17">
    <path d="M 57.6 295.488 
L 59.3856 279.158041 
L 61.1712 270.406512 
L 62.9568 263.197154 
L 64.7424 254.606034 
L 66.528 247.13513 
L 68.3136 240.967547 
L 70.0992 234.354654 
L 71.8848 224.620842 
L 73.6704 213.404792 
L 75.456 203.072642 
L 77.2416 198.816854 
L 79.0272 198.803413 
L 80.8128 196.980527 
L 82.5984 193.925931 
L 84.384 189.156856 
L 86.1696 179.817897 
L 87.9552 172.828109 
L 89.7408 171.708718 
L 91.5264 168.247041 
L 93.312 161.331399 
L 95.0976 146.356761 
L 96.8832 126.477181 
L 98.6688 111.226097 
L 100.4544 95.519264 
L 102.24 78.824171 
L 104.0256 66.368589 
L 105.8112 60.356678 
L 107.5968 59.752666 
L 109.3824 61.487388 
L 111.168 64.096812 
L 112.9536 67.109818 
L 114.7392 69.590011 
L 116.5248 70.948335 
L 118.3104 70.530085 
L 120.096 68.327192 
L 121.8816 64.511949 
L 123.6672 60.27752 
L 125.4528 56.713976 
L 127.2384 54.669536 
L 129.024 54.528338 
L 130.8096 55.827762 
L 132.5952 57.705706 
L 134.3808 59.511874 
L 136.1664 60.774053 
L 137.952 61.430512 
L 139.7376 61.469038 
L 141.5232 60.957563 
L 143.3088 60.029312 
L 145.0944 58.75403 
L 146.88 57.266138 
L 148.6656 55.721461 
L 150.4512 54.454841 
L 152.2368 53.715712 
L 154.0224 53.568 
L 155.808 53.94559 
L 157.5936 54.622128 
L 159.3792 55.325941 
L 161.1648 55.922516 
L 162.9504 56.245254 
L 164.736 56.466918 
L 166.5216 56.475153 
L 168.3072 56.435078 
L 170.0928 56.218861 
L 171.8784 55.998843 
L 173.664 55.82561 
L 175.4496 55.691508 
L 177.2352 55.696869 
L 179.0208 55.75635 
L 180.8064 55.829349 
L 182.592 55.851776 
L 184.3776 55.809195 
L 186.1632 55.766414 
L 187.9488 55.672755 
L 189.7344 55.555554 
L 191.52 55.389086 
L 193.3056 55.300371 
L 195.0912 55.182605 
L 196.8768 55.134705 
L 198.6624 55.132921 
L 200.448 55.19052 
L 202.2336 55.264297 
L 204.0192 55.312145 
L 205.8048 55.34498 
L 207.5904 55.3234 
L 209.376 55.288314 
L 211.1616 55.249644 
L 212.9472 55.207545 
L 214.7328 55.155741 
L 216.5184 55.098066 
L 218.304 55.084009 
L 220.0896 55.058783 
L 221.8752 55.094253 
L 223.6608 55.0732 
L 225.4464 55.083546 
L 227.232 55.050099 
L 229.0176 55.040139 
L 230.8032 55.025569 
L 232.5888 55.01109 
L 234.3744 54.971072 
L 236.16 54.977434 
L 237.9456 54.958896 
L 239.7312 54.962231 
L 241.5168 54.953534 
" clip-path="url(#p47e4734672)" style="fill: none; stroke: #2ca02c; stroke-width: 1.5; stroke-linecap: square"/>
   </g>
   <g id="line2d_18">
    <path d="M 57.6 295.488 
L 59.3856 279.158041 
L 61.1712 270.406512 
L 62.9568 263.197154 
L 64.7424 254.606034 
L 66.528 247.13513 
L 68.3136 240.967547 
L 70.0992 234.354654 
L 71.8848 224.620842 
L 73.6704 213.404792 
L 75.456 203.072642 
L 77.2416 198.816854 
L 79.0272 198.803413 
L 80.8128 196.980527 
L 82.5984 193.925931 
L 84.384 189.156856 
L 86.1696 179.817897 
L 87.9552 172.828109 
L 89.7408 171.708718 
L 91.5264 168.247041 
L 93.312 161.331399 
L 95.0976 146.356761 
L 96.8832 126.477181 
L 98.6688 111.226097 
L 100.4544 95.519264 
L 102.24 78.824171 
L 104.0256 66.368589 
L 105.8112 60.356678 
L 107.5968 59.752666 
L 109.3824 61.487388 
L 111.168 64.096812 
L 112.9536 67.109818 
L 114.7392 69.590011 
L 116.5248 70.948335 
L 118.3104 70.530085 
L 120.096 68.327192 
L 121.8816 64.511949 
L 123.6672 60.27752 
L 125.4528 56.713976 
L 127.2384 54.669536 
L 129.024 54.528338 
L 130.8096 55.827762 
L 132.5952 57.705706 
L 134.3808 59.511874 
L 136.1664 60.774053 
L 137.952 61.430512 
L 139.7376 61.469038 
L 141.5232 60.957563 
L 143.3088 60.029312 
L 145.0944 58.75403 
L 146.88 57.266138 
L 148.6656 55.721461 
L 150.4512 54.454841 
L 152.2368 53.715712 
L 154.0224 53.568 
L 155.808 53.94559 
L 157.5936 54.622128 
L 159.3792 55.325941 
L 161.1648 55.922516 
L 162.9504 56.245254 
L 164.736 56.466918 
L 166.5216 56.475153 
L 168.3072 56.435078 
L 170.0928 56.218861 
L 171.8784 55.998843 
L 173.664 55.82561 
L 175.4496 55.691508 
L 177.2352 55.696869 
L 179.0208 55.75635 
L 180.8064 55.829349 
L 182.592 55.851776 
L 184.3776 55.809195 
L 186.1632 55.766414 
L 187.9488 55.672755 
" clip-path="url(#p47e4734672)" style="fill: none; stroke: #d62728; stroke-width: 1.5; stroke-linecap: square"/>
   </g>
   <g id="line2d_19">
    <path d="M 189.7344 307.584 
L 189.7344 41.472 
" clip-path="url(#p47e4734672)" style="fill: none; stroke: #ff0000; stroke-width: 1.5; stroke-linecap: square"/>
   </g>
   <g id="line2d_20">
    <path d="M 243.3024 307.584 
L 243.3024 41.472 
" clip-path="url(#p47e4734672)" style="fill: none; stroke: #008000; stroke-width: 1.5; stroke-linecap: square"/>
   </g>
   <g id="line2d_21">
    <path d="M 348.6528 307.584 
L 348.6528 41.472 
" clip-path="url(#p47e4734672)" style="fill: none; stroke: #ffa500; stroke-width: 1.5; stroke-linecap: square"/>
   </g>
   <g id="patch_3">
    <path d="M 57.6 307.584 
L 57.6 41.472 
" style="fill: none; stroke: #000000; stroke-width: 0.8; stroke-linejoin: miter; stroke-linecap: square"/>
   </g>
   <g id="patch_4">
    <path d="M 414.72 307.584 
L 414.72 41.472 
" style="fill: none; stroke: #000000; stroke-width: 0.8; stroke-linejoin: miter; stroke-linecap: square"/>
   </g>
   <g id="patch_5">
    <path d="M 57.6 307.584 
L 414.72 307.584 
" style="fill: none; stroke: #000000; stroke-width: 0.8; stroke-linejoin: miter; stroke-linecap: square"/>
   </g>
   <g id="patch_6">
    <path d="M 57.6 41.472 
L 414.72 41.472 
" style="fill: none; stroke: #000000; stroke-width: 0.8; stroke-linejoin: miter; stroke-linecap: square"/>
   </g>
   <g id="legend_1">
    <g id="patch_7">
     <path d="M 293.2 300.584 
L 404.92 300.584 
Q 407.72 300.584 407.72 297.784 
L 407.72 237.535875 
Q 407.72 234.735875 404.92 234.735875 
L 293.2 234.735875 
Q 290.4 234.735875 290.4 237.535875 
L 290.4 297.784 
Q 290.4 300.584 293.2 300.584 
z
" style="fill: #ffffff; opacity: 0.8; stroke: #cccccc; stroke-linejoin: miter"/>
    </g>
    <g id="line2d_22">
     <path d="M 296 246.073687 
L 310 246.073687 
L 324 246.073687 
" style="fill: none; stroke: #ff0000; stroke-width: 1.5; stroke-linecap: square"/>
    </g>
    <g id="text_17">
     <!-- $\Delta=0.01$ -->
     <g transform="translate(335.2 250.973687) scale(0.14 -0.14)">
      <defs>
       <path id="DejaVuSans-394" d="M 2188 4044 
L 906 525 
L 3472 525 
L 2188 4044 
z
M 50 0 
L 1831 4666 
L 2547 4666 
L 4325 0 
L 50 0 
z
" transform="scale(0.015625)"/>
       <path id="DejaVuSans-3d" d="M 678 2906 
L 4684 2906 
L 4684 2381 
L 678 2381 
L 678 2906 
z
M 678 1631 
L 4684 1631 
L 4684 1100 
L 678 1100 
L 678 1631 
z
" transform="scale(0.015625)"/>
      </defs>
      <use xlink:href="#DejaVuSans-394" transform="translate(0 0.78125)"/>
      <use xlink:href="#DejaVuSans-3d" transform="translate(87.890625 0.78125)"/>
      <use xlink:href="#DejaVuSans-30" transform="translate(191.162109 0.78125)"/>
      <use xlink:href="#DejaVuSans-2e" transform="translate(254.785156 0.78125)"/>
      <use xlink:href="#DejaVuSans-30" transform="translate(286.572266 0.78125)"/>
      <use xlink:href="#DejaVuSans-31" transform="translate(350.195312 0.78125)"/>
     </g>
    </g>
    <g id="line2d_23">
     <path d="M 296 266.623063 
L 310 266.623063 
L 324 266.623063 
" style="fill: none; stroke: #008000; stroke-width: 1.5; stroke-linecap: square"/>
    </g>
    <g id="text_18">
     <!-- $\Delta=0.005$ -->
     <g transform="translate(335.2 271.523062) scale(0.14 -0.14)">
      <use xlink:href="#DejaVuSans-394" transform="translate(0 0.78125)"/>
      <use xlink:href="#DejaVuSans-3d" transform="translate(87.890625 0.78125)"/>
      <use xlink:href="#DejaVuSans-30" transform="translate(191.162109 0.78125)"/>
      <use xlink:href="#DejaVuSans-2e" transform="translate(254.785156 0.78125)"/>
      <use xlink:href="#DejaVuSans-30" transform="translate(286.572266 0.78125)"/>
      <use xlink:href="#DejaVuSans-30" transform="translate(350.195312 0.78125)"/>
      <use xlink:href="#DejaVuSans-35" transform="translate(413.818359 0.78125)"/>
     </g>
    </g>
    <g id="line2d_24">
     <path d="M 296 287.172438 
L 310 287.172438 
L 324 287.172438 
" style="fill: none; stroke: #ffa500; stroke-width: 1.5; stroke-linecap: square"/>
    </g>
    <g id="text_19">
     <!-- $\Delta=0.001$ -->
     <g transform="translate(335.2 292.072437) scale(0.14 -0.14)">
      <use xlink:href="#DejaVuSans-394" transform="translate(0 0.78125)"/>
      <use xlink:href="#DejaVuSans-3d" transform="translate(87.890625 0.78125)"/>
      <use xlink:href="#DejaVuSans-30" transform="translate(191.162109 0.78125)"/>
      <use xlink:href="#DejaVuSans-2e" transform="translate(254.785156 0.78125)"/>
      <use xlink:href="#DejaVuSans-30" transform="translate(286.572266 0.78125)"/>
      <use xlink:href="#DejaVuSans-30" transform="translate(350.195312 0.78125)"/>
      <use xlink:href="#DejaVuSans-31" transform="translate(413.818359 0.78125)"/>
     </g>
    </g>
   </g>
  </g>
 </g>
 <defs>
  <clipPath id="p47e4734672">
   <rect x="57.6" y="41.472" width="357.12" height="266.112"/>
  </clipPath>
 </defs>
</svg>
