<?xml version="1.0" encoding="utf-8" standalone="no"?>
<!DOCTYPE svg PUBLIC "-//W3C//DTD SVG 1.1//EN"
  "http://www.w3.org/Graphics/SVG/1.1/DTD/svg11.dtd">
<svg xmlns:xlink="http://www.w3.org/1999/xlink" width="1152pt" height="576pt" viewBox="0 0 1152 576" xmlns="http://www.w3.org/2000/svg" version="1.1">
 <metadata>
  <rdf:RDF xmlns:dc="http://purl.org/dc/elements/1.1/" xmlns:cc="http://creativecommons.org/ns#" xmlns:rdf="http://www.w3.org/1999/02/22-rdf-syntax-ns#">
   <cc:Work>
    <dc:type rdf:resource="http://purl.org/dc/dcmitype/StillImage"/>
    <dc:date>2024-07-01T13:42:25.710236</dc:date>
    <dc:format>image/svg+xml</dc:format>
    <dc:creator>
     <cc:Agent>
      <dc:title>Matplotlib v3.8.3, https://matplotlib.org/</dc:title>
     </cc:Agent>
    </dc:creator>
   </cc:Work>
  </rdf:RDF>
 </metadata>
 <defs>
  <style type="text/css">*{stroke-linejoin: round; stroke-linecap: butt}</style>
 </defs>
 <g id="figure_1">
  <g id="patch_1">
   <path d="M 0 576 
L 1152 576 
L 1152 0 
L 0 0 
z
" style="fill: #ffffff"/>
  </g>
  <g id="axes_1">
   <g id="patch_2">
    <path d="M 144 270.72 
L 406.588235 270.72 
L 406.588235 69.12 
L 144 69.12 
z
" style="fill: #ffffff"/>
   </g>
   <g id="matplotlib.axis_1">
    <g id="xtick_1">
     <g id="line2d_1">
      <defs>
       <path id="m561a97441f" d="M 0 0 
L 0 3.5 
" style="stroke: #000000; stroke-width: 0.8"/>
      </defs>
      <g>
       <use xlink:href="#m561a97441f" x="155.935829" y="270.72" style="stroke: #000000; stroke-width: 0.8"/>
      </g>
     </g>
     <g id="text_1">
      <!-- 0 -->
      <g transform="translate(151.482079 288.357812) scale(0.14 -0.14)">
       <defs>
        <path id="DejaVuSans-30" d="M 2034 4250 
Q 1547 4250 1301 3770 
Q 1056 3291 1056 2328 
Q 1056 1369 1301 889 
Q 1547 409 2034 409 
Q 2525 409 2770 889 
Q 3016 1369 3016 2328 
Q 3016 3291 2770 3770 
Q 2525 4250 2034 4250 
z
M 2034 4750 
Q 2819 4750 3233 4129 
Q 3647 3509 3647 2328 
Q 3647 1150 3233 529 
Q 2819 -91 2034 -91 
Q 1250 -91 836 529 
Q 422 1150 422 2328 
Q 422 3509 836 4129 
Q 1250 4750 2034 4750 
z
" transform="scale(0.015625)"/>
       </defs>
       <use xlink:href="#DejaVuSans-30"/>
      </g>
     </g>
    </g>
    <g id="xtick_2">
     <g id="line2d_2">
      <g>
       <use xlink:href="#m561a97441f" x="205.668447" y="270.72" style="stroke: #000000; stroke-width: 0.8"/>
      </g>
     </g>
     <g id="text_2">
      <!-- 1 -->
      <g transform="translate(201.214697 288.357812) scale(0.14 -0.14)">
       <defs>
        <path id="DejaVuSans-31" d="M 794 531 
L 1825 531 
L 1825 4091 
L 703 3866 
L 703 4441 
L 1819 4666 
L 2450 4666 
L 2450 531 
L 3481 531 
L 3481 0 
L 794 0 
L 794 531 
z
" transform="scale(0.015625)"/>
       </defs>
       <use xlink:href="#DejaVuSans-31"/>
      </g>
     </g>
    </g>
    <g id="xtick_3">
     <g id="line2d_3">
      <g>
       <use xlink:href="#m561a97441f" x="255.401066" y="270.72" style="stroke: #000000; stroke-width: 0.8"/>
      </g>
     </g>
     <g id="text_3">
      <!-- 2 -->
      <g transform="translate(250.947316 288.357812) scale(0.14 -0.14)">
       <defs>
        <path id="DejaVuSans-32" d="M 1228 531 
L 3431 531 
L 3431 0 
L 469 0 
L 469 531 
Q 828 903 1448 1529 
Q 2069 2156 2228 2338 
Q 2531 2678 2651 2914 
Q 2772 3150 2772 3378 
Q 2772 3750 2511 3984 
Q 2250 4219 1831 4219 
Q 1534 4219 1204 4116 
Q 875 4013 500 3803 
L 500 4441 
Q 881 4594 1212 4672 
Q 1544 4750 1819 4750 
Q 2544 4750 2975 4387 
Q 3406 4025 3406 3419 
Q 3406 3131 3298 2873 
Q 3191 2616 2906 2266 
Q 2828 2175 2409 1742 
Q 1991 1309 1228 531 
z
" transform="scale(0.015625)"/>
       </defs>
       <use xlink:href="#DejaVuSans-32"/>
      </g>
     </g>
    </g>
    <g id="xtick_4">
     <g id="line2d_4">
      <g>
       <use xlink:href="#m561a97441f" x="305.133684" y="270.72" style="stroke: #000000; stroke-width: 0.8"/>
      </g>
     </g>
     <g id="text_4">
      <!-- 3 -->
      <g transform="translate(300.679934 288.357812) scale(0.14 -0.14)">
       <defs>
        <path id="DejaVuSans-33" d="M 2597 2516 
Q 3050 2419 3304 2112 
Q 3559 1806 3559 1356 
Q 3559 666 3084 287 
Q 2609 -91 1734 -91 
Q 1441 -91 1130 -33 
Q 819 25 488 141 
L 488 750 
Q 750 597 1062 519 
Q 1375 441 1716 441 
Q 2309 441 2620 675 
Q 2931 909 2931 1356 
Q 2931 1769 2642 2001 
Q 2353 2234 1838 2234 
L 1294 2234 
L 1294 2753 
L 1863 2753 
Q 2328 2753 2575 2939 
Q 2822 3125 2822 3475 
Q 2822 3834 2567 4026 
Q 2313 4219 1838 4219 
Q 1578 4219 1281 4162 
Q 984 4106 628 3988 
L 628 4550 
Q 988 4650 1302 4700 
Q 1616 4750 1894 4750 
Q 2613 4750 3031 4423 
Q 3450 4097 3450 3541 
Q 3450 3153 3228 2886 
Q 3006 2619 2597 2516 
z
" transform="scale(0.015625)"/>
       </defs>
       <use xlink:href="#DejaVuSans-33"/>
      </g>
     </g>
    </g>
    <g id="xtick_5">
     <g id="line2d_5">
      <g>
       <use xlink:href="#m561a97441f" x="354.866302" y="270.72" style="stroke: #000000; stroke-width: 0.8"/>
      </g>
     </g>
     <g id="text_5">
      <!-- 4 -->
      <g transform="translate(350.412552 288.357812) scale(0.14 -0.14)">
       <defs>
        <path id="DejaVuSans-34" d="M 2419 4116 
L 825 1625 
L 2419 1625 
L 2419 4116 
z
M 2253 4666 
L 3047 4666 
L 3047 1625 
L 3713 1625 
L 3713 1100 
L 3047 1100 
L 3047 0 
L 2419 0 
L 2419 1100 
L 313 1100 
L 313 1709 
L 2253 4666 
z
" transform="scale(0.015625)"/>
       </defs>
       <use xlink:href="#DejaVuSans-34"/>
      </g>
     </g>
    </g>
    <g id="xtick_6">
     <g id="line2d_6">
      <g>
       <use xlink:href="#m561a97441f" x="404.598921" y="270.72" style="stroke: #000000; stroke-width: 0.8"/>
      </g>
     </g>
     <g id="text_6">
      <!-- 5 -->
      <g transform="translate(400.145171 288.357812) scale(0.14 -0.14)">
       <defs>
        <path id="DejaVuSans-35" d="M 691 4666 
L 3169 4666 
L 3169 4134 
L 1269 4134 
L 1269 2991 
Q 1406 3038 1543 3061 
Q 1681 3084 1819 3084 
Q 2600 3084 3056 2656 
Q 3513 2228 3513 1497 
Q 3513 744 3044 326 
Q 2575 -91 1722 -91 
Q 1428 -91 1123 -41 
Q 819 9 494 109 
L 494 744 
Q 775 591 1075 516 
Q 1375 441 1709 441 
Q 2250 441 2565 725 
Q 2881 1009 2881 1497 
Q 2881 1984 2565 2268 
Q 2250 2553 1709 2553 
Q 1456 2553 1204 2497 
Q 953 2441 691 2322 
L 691 4666 
z
" transform="scale(0.015625)"/>
       </defs>
       <use xlink:href="#DejaVuSans-35"/>
      </g>
     </g>
    </g>
   </g>
   <g id="matplotlib.axis_2">
    <g id="ytick_1">
     <g id="line2d_7">
      <defs>
       <path id="m0da113dfc2" d="M 0 0 
L -3.5 0 
" style="stroke: #000000; stroke-width: 0.8"/>
      </defs>
      <g>
       <use xlink:href="#m0da113dfc2" x="144" y="261.556364" style="stroke: #000000; stroke-width: 0.8"/>
      </g>
     </g>
     <g id="text_7">
      <!-- 0 -->
      <g transform="translate(128.0925 266.87527) scale(0.14 -0.14)">
       <use xlink:href="#DejaVuSans-30"/>
      </g>
     </g>
    </g>
    <g id="ytick_2">
     <g id="line2d_8">
      <g>
       <use xlink:href="#m0da113dfc2" x="144" y="210.647273" style="stroke: #000000; stroke-width: 0.8"/>
      </g>
     </g>
     <g id="text_8">
      <!-- 5 -->
      <g transform="translate(128.0925 215.966179) scale(0.14 -0.14)">
       <use xlink:href="#DejaVuSans-35"/>
      </g>
     </g>
    </g>
    <g id="ytick_3">
     <g id="line2d_9">
      <g>
       <use xlink:href="#m0da113dfc2" x="144" y="159.738182" style="stroke: #000000; stroke-width: 0.8"/>
      </g>
     </g>
     <g id="text_9">
      <!-- 10 -->
      <g transform="translate(119.185 165.057088) scale(0.14 -0.14)">
       <use xlink:href="#DejaVuSans-31"/>
       <use xlink:href="#DejaVuSans-30" x="63.623047"/>
      </g>
     </g>
    </g>
    <g id="ytick_4">
     <g id="line2d_10">
      <g>
       <use xlink:href="#m0da113dfc2" x="144" y="108.829091" style="stroke: #000000; stroke-width: 0.8"/>
      </g>
     </g>
     <g id="text_10">
      <!-- 15 -->
      <g transform="translate(119.185 114.147997) scale(0.14 -0.14)">
       <use xlink:href="#DejaVuSans-31"/>
       <use xlink:href="#DejaVuSans-35" x="63.623047"/>
      </g>
     </g>
    </g>
    <g id="text_11">
     <!-- Current (mA) -->
     <g transform="translate(112.273438 215.500937) rotate(-90) scale(0.14 -0.14)">
      <defs>
       <path id="DejaVuSans-43" d="M 4122 4306 
L 4122 3641 
Q 3803 3938 3442 4084 
Q 3081 4231 2675 4231 
Q 1875 4231 1450 3742 
Q 1025 3253 1025 2328 
Q 1025 1406 1450 917 
Q 1875 428 2675 428 
Q 3081 428 3442 575 
Q 3803 722 4122 1019 
L 4122 359 
Q 3791 134 3420 21 
Q 3050 -91 2638 -91 
Q 1578 -91 968 557 
Q 359 1206 359 2328 
Q 359 3453 968 4101 
Q 1578 4750 2638 4750 
Q 3056 4750 3426 4639 
Q 3797 4528 4122 4306 
z
" transform="scale(0.015625)"/>
       <path id="DejaVuSans-75" d="M 544 1381 
L 544 3500 
L 1119 3500 
L 1119 1403 
Q 1119 906 1312 657 
Q 1506 409 1894 409 
Q 2359 409 2629 706 
Q 2900 1003 2900 1516 
L 2900 3500 
L 3475 3500 
L 3475 0 
L 2900 0 
L 2900 538 
Q 2691 219 2414 64 
Q 2138 -91 1772 -91 
Q 1169 -91 856 284 
Q 544 659 544 1381 
z
M 1991 3584 
L 1991 3584 
z
" transform="scale(0.015625)"/>
       <path id="DejaVuSans-72" d="M 2631 2963 
Q 2534 3019 2420 3045 
Q 2306 3072 2169 3072 
Q 1681 3072 1420 2755 
Q 1159 2438 1159 1844 
L 1159 0 
L 581 0 
L 581 3500 
L 1159 3500 
L 1159 2956 
Q 1341 3275 1631 3429 
Q 1922 3584 2338 3584 
Q 2397 3584 2469 3576 
Q 2541 3569 2628 3553 
L 2631 2963 
z
" transform="scale(0.015625)"/>
       <path id="DejaVuSans-65" d="M 3597 1894 
L 3597 1613 
L 953 1613 
Q 991 1019 1311 708 
Q 1631 397 2203 397 
Q 2534 397 2845 478 
Q 3156 559 3463 722 
L 3463 178 
Q 3153 47 2828 -22 
Q 2503 -91 2169 -91 
Q 1331 -91 842 396 
Q 353 884 353 1716 
Q 353 2575 817 3079 
Q 1281 3584 2069 3584 
Q 2775 3584 3186 3129 
Q 3597 2675 3597 1894 
z
M 3022 2063 
Q 3016 2534 2758 2815 
Q 2500 3097 2075 3097 
Q 1594 3097 1305 2825 
Q 1016 2553 972 2059 
L 3022 2063 
z
" transform="scale(0.015625)"/>
       <path id="DejaVuSans-6e" d="M 3513 2113 
L 3513 0 
L 2938 0 
L 2938 2094 
Q 2938 2591 2744 2837 
Q 2550 3084 2163 3084 
Q 1697 3084 1428 2787 
Q 1159 2491 1159 1978 
L 1159 0 
L 581 0 
L 581 3500 
L 1159 3500 
L 1159 2956 
Q 1366 3272 1645 3428 
Q 1925 3584 2291 3584 
Q 2894 3584 3203 3211 
Q 3513 2838 3513 2113 
z
" transform="scale(0.015625)"/>
       <path id="DejaVuSans-74" d="M 1172 4494 
L 1172 3500 
L 2356 3500 
L 2356 3053 
L 1172 3053 
L 1172 1153 
Q 1172 725 1289 603 
Q 1406 481 1766 481 
L 2356 481 
L 2356 0 
L 1766 0 
Q 1100 0 847 248 
Q 594 497 594 1153 
L 594 3053 
L 172 3053 
L 172 3500 
L 594 3500 
L 594 4494 
L 1172 4494 
z
" transform="scale(0.015625)"/>
       <path id="DejaVuSans-20" transform="scale(0.015625)"/>
       <path id="DejaVuSans-28" d="M 1984 4856 
Q 1566 4138 1362 3434 
Q 1159 2731 1159 2009 
Q 1159 1288 1364 580 
Q 1569 -128 1984 -844 
L 1484 -844 
Q 1016 -109 783 600 
Q 550 1309 550 2009 
Q 550 2706 781 3412 
Q 1013 4119 1484 4856 
L 1984 4856 
z
" transform="scale(0.015625)"/>
       <path id="DejaVuSans-6d" d="M 3328 2828 
Q 3544 3216 3844 3400 
Q 4144 3584 4550 3584 
Q 5097 3584 5394 3201 
Q 5691 2819 5691 2113 
L 5691 0 
L 5113 0 
L 5113 2094 
Q 5113 2597 4934 2840 
Q 4756 3084 4391 3084 
Q 3944 3084 3684 2787 
Q 3425 2491 3425 1978 
L 3425 0 
L 2847 0 
L 2847 2094 
Q 2847 2600 2669 2842 
Q 2491 3084 2119 3084 
Q 1678 3084 1418 2786 
Q 1159 2488 1159 1978 
L 1159 0 
L 581 0 
L 581 3500 
L 1159 3500 
L 1159 2956 
Q 1356 3278 1631 3431 
Q 1906 3584 2284 3584 
Q 2666 3584 2933 3390 
Q 3200 3197 3328 2828 
z
" transform="scale(0.015625)"/>
       <path id="DejaVuSans-41" d="M 2188 4044 
L 1331 1722 
L 3047 1722 
L 2188 4044 
z
M 1831 4666 
L 2547 4666 
L 4325 0 
L 3669 0 
L 3244 1197 
L 1141 1197 
L 716 0 
L 50 0 
L 1831 4666 
z
" transform="scale(0.015625)"/>
       <path id="DejaVuSans-29" d="M 513 4856 
L 1013 4856 
Q 1481 4119 1714 3412 
Q 1947 2706 1947 2009 
Q 1947 1309 1714 600 
Q 1481 -109 1013 -844 
L 513 -844 
Q 928 -128 1133 580 
Q 1338 1288 1338 2009 
Q 1338 2731 1133 3434 
Q 928 4138 513 4856 
z
" transform="scale(0.015625)"/>
      </defs>
      <use xlink:href="#DejaVuSans-43"/>
      <use xlink:href="#DejaVuSans-75" x="69.824219"/>
      <use xlink:href="#DejaVuSans-72" x="133.203125"/>
      <use xlink:href="#DejaVuSans-72" x="172.566406"/>
      <use xlink:href="#DejaVuSans-65" x="211.429688"/>
      <use xlink:href="#DejaVuSans-6e" x="272.953125"/>
      <use xlink:href="#DejaVuSans-74" x="336.332031"/>
      <use xlink:href="#DejaVuSans-20" x="375.541016"/>
      <use xlink:href="#DejaVuSans-28" x="407.328125"/>
      <use xlink:href="#DejaVuSans-6d" x="446.341797"/>
      <use xlink:href="#DejaVuSans-41" x="543.753906"/>
      <use xlink:href="#DejaVuSans-29" x="612.162109"/>
     </g>
    </g>
   </g>
   <g id="line2d_11">
    <path d="M 155.935829 261.556364 
L 161.014905 88.465455 
L 166.093981 88.465455 
L 171.173057 88.465455 
L 176.252133 88.465455 
L 181.331208 88.465455 
L 186.410285 88.465455 
L 191.489361 88.465455 
L 196.568438 88.465455 
L 201.647511 88.465455 
L 206.726588 108.829091 
L 211.805664 108.829091 
L 216.884741 108.829091 
L 221.963817 108.829091 
L 227.042894 108.829091 
L 232.12197 108.829091 
L 237.201047 108.829091 
L 242.280117 108.829091 
L 247.359194 108.829091 
L 252.43827 108.829091 
L 257.517347 108.829091 
L 262.596418 108.829091 
L 267.6755 108.829091 
L 272.754571 108.829091 
L 277.833653 108.829091 
L 282.912735 200.465455 
L 287.991806 200.465455 
L 293.070888 200.465455 
L 298.149959 200.465455 
L 303.229029 200.465455 
L 308.308112 200.465455 
L 313.387182 200.465455 
L 318.466265 200.465455 
L 323.545347 200.465455 
L 328.624406 200.465455 
L 333.7035 200.465455 
L 338.782559 200.465455 
L 343.861641 200.465455 
L 348.940712 200.465455 
L 354.019794 200.465455 
L 359.098865 200.465455 
L 364.177959 200.465455 
L 369.257006 200.465455 
L 374.3361 200.465455 
L 379.415171 200.465455 
L 384.494242 200.465455 
L 389.573312 200.465455 
L 394.652406 261.556364 
" clip-path="url(#p104e8b724e)" style="fill: none; stroke: #1f77b4; stroke-width: 2; stroke-linecap: square"/>
   </g>
   <g id="line2d_12">
    <path d="M 155.935829 261.556364 
L 161.014905 139.374545 
L 166.093981 139.374545 
L 171.173057 139.374545 
L 176.252133 139.374545 
L 181.331208 139.374545 
L 186.410285 139.374545 
L 191.489361 139.374545 
L 196.568438 139.374545 
L 201.647511 139.374545 
L 206.726588 139.374545 
L 211.805664 139.374545 
L 216.884741 139.374545 
L 221.963817 139.374545 
L 227.042894 139.374545 
L 232.12197 139.374545 
L 237.201047 139.374545 
L 242.280117 139.374545 
L 247.359194 139.374545 
L 252.43827 139.374545 
L 257.517347 139.374545 
L 262.596418 139.374545 
L 267.6755 139.374545 
L 272.754571 139.374545 
L 277.833653 139.374545 
L 282.912735 139.374545 
L 287.991806 139.374545 
L 293.070888 139.374545 
L 298.149959 139.374545 
L 303.229029 139.374545 
L 308.308112 139.374545 
L 313.387182 139.374545 
L 318.466265 139.374545 
L 323.545347 139.374545 
L 328.624406 139.374545 
L 333.7035 139.374545 
L 338.782559 139.374545 
L 343.861641 139.374545 
L 348.940712 139.374545 
L 354.019794 159.738182 
L 359.098865 159.738182 
L 364.177959 159.738182 
L 369.257006 159.738182 
L 374.3361 159.738182 
L 379.415171 78.283636 
L 384.494242 78.283636 
L 389.573312 78.283636 
L 394.652406 261.556364 
" clip-path="url(#p104e8b724e)" style="fill: none; stroke: #ff7f0e; stroke-width: 2; stroke-linecap: square"/>
   </g>
   <g id="line2d_13">
    <path d="M 155.935829 261.556364 
L 161.014905 78.283636 
L 166.093981 78.283636 
L 171.173057 78.283636 
L 176.252133 78.283636 
L 181.331208 78.283636 
L 186.410285 78.283636 
L 191.489361 78.283636 
L 196.568438 78.283636 
L 201.647511 78.283636 
L 206.726588 78.283636 
L 211.805664 78.283636 
L 216.884741 78.283636 
L 221.963817 78.283636 
L 227.042894 78.283636 
L 232.12197 78.283636 
L 237.201047 78.283636 
L 242.280117 78.283636 
L 247.359194 78.283636 
L 252.43827 78.283636 
L 257.517347 78.283636 
L 262.596418 78.283636 
L 267.6755 149.556364 
L 272.754571 149.556364 
L 277.833653 149.556364 
L 282.912735 149.556364 
L 287.991806 149.556364 
L 293.070888 149.556364 
L 298.149959 149.556364 
L 303.229029 149.556364 
L 308.308112 149.556364 
L 313.387182 149.556364 
L 318.466265 149.556364 
L 323.545347 149.556364 
L 328.624406 149.556364 
L 333.7035 149.556364 
L 338.782559 149.556364 
L 343.861641 149.556364 
L 348.940712 149.556364 
L 354.019794 149.556364 
L 359.098865 149.556364 
L 364.177959 149.556364 
L 369.257006 149.556364 
L 374.3361 149.556364 
L 379.415171 129.192727 
L 384.494242 129.192727 
L 389.573312 129.192727 
L 394.652406 261.556364 
" clip-path="url(#p104e8b724e)" style="fill: none; stroke: #2ca02c; stroke-width: 2; stroke-linecap: square"/>
   </g>
   <g id="line2d_14">
    <path d="M 155.935829 261.556364 
L 161.014905 159.738182 
L 166.093981 159.738182 
L 171.173057 159.738182 
L 176.252133 159.738182 
L 181.331208 159.738182 
L 186.410285 159.738182 
L 191.489361 159.738182 
L 196.568438 159.738182 
L 201.647511 159.738182 
L 206.726588 159.738182 
L 211.805664 159.738182 
L 216.884741 159.738182 
L 221.963817 159.738182 
L 227.042894 159.738182 
L 232.12197 159.738182 
L 237.201047 159.738182 
L 242.280117 159.738182 
L 247.359194 159.738182 
L 252.43827 159.738182 
L 257.517347 159.738182 
L 262.596418 159.738182 
L 267.6755 159.738182 
L 272.754571 159.738182 
L 277.833653 159.738182 
L 282.912735 159.738182 
L 287.991806 159.738182 
L 293.070888 159.738182 
L 298.149959 159.738182 
L 303.229029 159.738182 
L 308.308112 220.829091 
L 313.387182 220.829091 
L 318.466265 220.829091 
L 323.545347 220.829091 
L 328.624406 220.829091 
L 333.7035 220.829091 
L 338.782559 220.829091 
L 343.861641 220.829091 
L 348.940712 220.829091 
L 354.019794 220.829091 
L 359.098865 220.829091 
L 364.177959 220.829091 
L 369.257006 220.829091 
L 374.3361 220.829091 
L 379.415171 220.829091 
L 384.494242 220.829091 
L 389.573312 220.829091 
L 394.652406 261.556364 
" clip-path="url(#p104e8b724e)" style="fill: none; stroke: #d62728; stroke-width: 2; stroke-linecap: square"/>
   </g>
   <g id="line2d_15">
    <path d="M 155.935829 261.556364 
L 161.014905 108.829091 
L 166.093981 108.829091 
L 171.173057 108.829091 
L 176.252133 108.829091 
L 181.331208 108.829091 
L 186.410285 108.829091 
L 191.489361 108.829091 
L 196.568438 108.829091 
L 201.647511 108.829091 
L 206.726588 108.829091 
L 211.805664 108.829091 
L 216.884741 108.829091 
L 221.963817 108.829091 
L 227.042894 108.829091 
L 232.12197 108.829091 
L 237.201047 108.829091 
L 242.280117 108.829091 
L 247.359194 108.829091 
L 252.43827 108.829091 
L 257.517347 108.829091 
L 262.596418 108.829091 
L 267.6755 108.829091 
L 272.754571 108.829091 
L 277.833653 108.829091 
L 282.912735 108.829091 
L 287.991806 108.829091 
L 293.070888 108.829091 
L 298.149959 108.829091 
L 303.229029 108.829091 
L 308.308112 108.829091 
L 313.387182 108.829091 
L 318.466265 108.829091 
L 323.545347 108.829091 
L 328.624406 108.829091 
L 333.7035 108.829091 
L 338.782559 108.829091 
L 343.861641 108.829091 
L 348.940712 108.829091 
L 354.019794 108.829091 
L 359.098865 108.829091 
L 364.177959 190.283636 
L 369.257006 190.283636 
L 374.3361 190.283636 
L 379.415171 190.283636 
L 384.494242 190.283636 
L 389.573312 190.283636 
L 394.652406 261.556364 
" clip-path="url(#p104e8b724e)" style="fill: none; stroke: #9467bd; stroke-width: 2; stroke-linecap: square"/>
   </g>
   <g id="line2d_16">
    <path d="M 155.935829 261.556364 
L 161.014905 88.465455 
L 166.093981 88.465455 
L 171.173057 88.465455 
L 176.252133 88.465455 
L 181.331208 88.465455 
L 186.410285 88.465455 
L 191.489361 88.465455 
L 196.568438 88.465455 
L 201.647511 88.465455 
L 206.726588 88.465455 
L 211.805664 88.465455 
L 216.884741 88.465455 
L 221.963817 88.465455 
L 227.042894 88.465455 
L 232.12197 88.465455 
L 237.201047 88.465455 
L 242.280117 88.465455 
L 247.359194 88.465455 
L 252.43827 88.465455 
L 257.517347 88.465455 
L 262.596418 88.465455 
L 267.6755 88.465455 
L 272.754571 88.465455 
L 277.833653 88.465455 
L 282.912735 139.374545 
L 287.991806 139.374545 
L 293.070888 139.374545 
L 298.149959 139.374545 
L 303.229029 139.374545 
L 308.308112 139.374545 
L 313.387182 139.374545 
L 318.466265 139.374545 
L 323.545347 139.374545 
L 328.624406 139.374545 
L 333.7035 139.374545 
L 338.782559 139.374545 
L 343.861641 139.374545 
L 348.940712 139.374545 
L 354.019794 139.374545 
L 359.098865 139.374545 
L 364.177959 139.374545 
L 369.257006 139.374545 
L 374.3361 139.374545 
L 379.415171 139.374545 
L 384.494242 139.374545 
L 389.573312 200.465455 
L 394.652406 261.556364 
" clip-path="url(#p104e8b724e)" style="fill: none; stroke: #8c564b; stroke-width: 2; stroke-linecap: square"/>
   </g>
   <g id="patch_3">
    <path d="M 144 270.72 
L 144 69.12 
" style="fill: none; stroke: #000000; stroke-width: 0.8; stroke-linejoin: miter; stroke-linecap: square"/>
   </g>
   <g id="patch_4">
    <path d="M 406.588235 270.72 
L 406.588235 69.12 
" style="fill: none; stroke: #000000; stroke-width: 0.8; stroke-linejoin: miter; stroke-linecap: square"/>
   </g>
   <g id="patch_5">
    <path d="M 144 270.72 
L 406.588235 270.72 
" style="fill: none; stroke: #000000; stroke-width: 0.8; stroke-linejoin: miter; stroke-linecap: square"/>
   </g>
   <g id="patch_6">
    <path d="M 144 69.12 
L 406.588235 69.12 
" style="fill: none; stroke: #000000; stroke-width: 0.8; stroke-linejoin: miter; stroke-linecap: square"/>
   </g>
   <g id="legend_1">
    <g id="patch_7">
     <path d="M 153.8 263.72 
L 207.5075 263.72 
Q 210.3075 263.72 210.3075 260.92 
L 210.3075 139.02375 
Q 210.3075 136.22375 207.5075 136.22375 
L 153.8 136.22375 
Q 151 136.22375 151 139.02375 
L 151 260.92 
Q 151 263.72 153.8 263.72 
z
" style="fill: #ffffff; opacity: 0.8; stroke: #cccccc; stroke-linejoin: miter"/>
    </g>
    <g id="line2d_17">
     <path d="M 156.6 147.561562 
L 170.6 147.561562 
L 184.6 147.561562 
" style="fill: none; stroke: #1f77b4; stroke-width: 2; stroke-linecap: square"/>
    </g>
    <g id="text_12">
     <!-- 0 -->
     <g transform="translate(195.8 152.461562) scale(0.14 -0.14)">
      <use xlink:href="#DejaVuSans-30"/>
     </g>
    </g>
    <g id="line2d_18">
     <path d="M 156.6 168.110937 
L 170.6 168.110937 
L 184.6 168.110937 
" style="fill: none; stroke: #ff7f0e; stroke-width: 2; stroke-linecap: square"/>
    </g>
    <g id="text_13">
     <!-- 1 -->
     <g transform="translate(195.8 173.010937) scale(0.14 -0.14)">
      <use xlink:href="#DejaVuSans-31"/>
     </g>
    </g>
    <g id="line2d_19">
     <path d="M 156.6 188.660312 
L 170.6 188.660312 
L 184.6 188.660312 
" style="fill: none; stroke: #2ca02c; stroke-width: 2; stroke-linecap: square"/>
    </g>
    <g id="text_14">
     <!-- 2 -->
     <g transform="translate(195.8 193.560312) scale(0.14 -0.14)">
      <use xlink:href="#DejaVuSans-32"/>
     </g>
    </g>
    <g id="line2d_20">
     <path d="M 156.6 209.209687 
L 170.6 209.209687 
L 184.6 209.209687 
" style="fill: none; stroke: #d62728; stroke-width: 2; stroke-linecap: square"/>
    </g>
    <g id="text_15">
     <!-- 3 -->
     <g transform="translate(195.8 214.109687) scale(0.14 -0.14)">
      <use xlink:href="#DejaVuSans-33"/>
     </g>
    </g>
    <g id="line2d_21">
     <path d="M 156.6 229.759062 
L 170.6 229.759062 
L 184.6 229.759062 
" style="fill: none; stroke: #9467bd; stroke-width: 2; stroke-linecap: square"/>
    </g>
    <g id="text_16">
     <!-- 4 -->
     <g transform="translate(195.8 234.659062) scale(0.14 -0.14)">
      <use xlink:href="#DejaVuSans-34"/>
     </g>
    </g>
    <g id="line2d_22">
     <path d="M 156.6 250.308437 
L 170.6 250.308437 
L 184.6 250.308437 
" style="fill: none; stroke: #8c564b; stroke-width: 2; stroke-linecap: square"/>
    </g>
    <g id="text_17">
     <!-- 5 -->
     <g transform="translate(195.8 255.208437) scale(0.14 -0.14)">
      <use xlink:href="#DejaVuSans-35"/>
     </g>
    </g>
   </g>
  </g>
  <g id="axes_2">
   <g id="patch_8">
    <path d="M 459.105882 270.72 
L 721.694118 270.72 
L 721.694118 69.12 
L 459.105882 69.12 
z
" style="fill: #ffffff"/>
   </g>
   <g id="matplotlib.axis_3">
    <g id="xtick_7">
     <g id="line2d_23">
      <g>
       <use xlink:href="#m561a97441f" x="471.041711" y="270.72" style="stroke: #000000; stroke-width: 0.8"/>
      </g>
     </g>
     <g id="text_18">
      <!-- 0 -->
      <g transform="translate(466.587961 288.357812) scale(0.14 -0.14)">
       <use xlink:href="#DejaVuSans-30"/>
      </g>
     </g>
    </g>
    <g id="xtick_8">
     <g id="line2d_24">
      <g>
       <use xlink:href="#m561a97441f" x="520.77433" y="270.72" style="stroke: #000000; stroke-width: 0.8"/>
      </g>
     </g>
     <g id="text_19">
      <!-- 1 -->
      <g transform="translate(516.32058 288.357812) scale(0.14 -0.14)">
       <use xlink:href="#DejaVuSans-31"/>
      </g>
     </g>
    </g>
    <g id="xtick_9">
     <g id="line2d_25">
      <g>
       <use xlink:href="#m561a97441f" x="570.506948" y="270.72" style="stroke: #000000; stroke-width: 0.8"/>
      </g>
     </g>
     <g id="text_20">
      <!-- 2 -->
      <g transform="translate(566.053198 288.357812) scale(0.14 -0.14)">
       <use xlink:href="#DejaVuSans-32"/>
      </g>
     </g>
    </g>
    <g id="xtick_10">
     <g id="line2d_26">
      <g>
       <use xlink:href="#m561a97441f" x="620.239566" y="270.72" style="stroke: #000000; stroke-width: 0.8"/>
      </g>
     </g>
     <g id="text_21">
      <!-- 3 -->
      <g transform="translate(615.785816 288.357812) scale(0.14 -0.14)">
       <use xlink:href="#DejaVuSans-33"/>
      </g>
     </g>
    </g>
    <g id="xtick_11">
     <g id="line2d_27">
      <g>
       <use xlink:href="#m561a97441f" x="669.972185" y="270.72" style="stroke: #000000; stroke-width: 0.8"/>
      </g>
     </g>
     <g id="text_22">
      <!-- 4 -->
      <g transform="translate(665.518435 288.357812) scale(0.14 -0.14)">
       <use xlink:href="#DejaVuSans-34"/>
      </g>
     </g>
    </g>
    <g id="xtick_12">
     <g id="line2d_28">
      <g>
       <use xlink:href="#m561a97441f" x="719.704803" y="270.72" style="stroke: #000000; stroke-width: 0.8"/>
      </g>
     </g>
     <g id="text_23">
      <!-- 5 -->
      <g transform="translate(715.251053 288.357812) scale(0.14 -0.14)">
       <use xlink:href="#DejaVuSans-35"/>
      </g>
     </g>
    </g>
   </g>
   <g id="matplotlib.axis_4">
    <g id="ytick_5">
     <g id="line2d_29">
      <g>
       <use xlink:href="#m0da113dfc2" x="459.105882" y="261.556364" style="stroke: #000000; stroke-width: 0.8"/>
      </g>
     </g>
     <g id="text_24">
      <!-- 0 -->
      <g transform="translate(443.198382 266.87527) scale(0.14 -0.14)">
       <use xlink:href="#DejaVuSans-30"/>
      </g>
     </g>
    </g>
    <g id="ytick_6">
     <g id="line2d_30">
      <g>
       <use xlink:href="#m0da113dfc2" x="459.105882" y="207.65262" style="stroke: #000000; stroke-width: 0.8"/>
      </g>
     </g>
     <g id="text_25">
      <!-- 5 -->
      <g transform="translate(443.198382 212.971527) scale(0.14 -0.14)">
       <use xlink:href="#DejaVuSans-35"/>
      </g>
     </g>
    </g>
    <g id="ytick_7">
     <g id="line2d_31">
      <g>
       <use xlink:href="#m0da113dfc2" x="459.105882" y="153.748877" style="stroke: #000000; stroke-width: 0.8"/>
      </g>
     </g>
     <g id="text_26">
      <!-- 10 -->
      <g transform="translate(434.290882 159.067783) scale(0.14 -0.14)">
       <use xlink:href="#DejaVuSans-31"/>
       <use xlink:href="#DejaVuSans-30" x="63.623047"/>
      </g>
     </g>
    </g>
    <g id="ytick_8">
     <g id="line2d_32">
      <g>
       <use xlink:href="#m0da113dfc2" x="459.105882" y="99.845134" style="stroke: #000000; stroke-width: 0.8"/>
      </g>
     </g>
     <g id="text_27">
      <!-- 15 -->
      <g transform="translate(434.290882 105.16404) scale(0.14 -0.14)">
       <use xlink:href="#DejaVuSans-31"/>
       <use xlink:href="#DejaVuSans-35" x="63.623047"/>
      </g>
     </g>
    </g>
   </g>
   <g id="line2d_33">
    <path d="M 471.041711 261.556364 
L 476.120787 250.775615 
L 481.199863 250.775615 
L 486.278939 250.775615 
L 491.358016 250.775615 
L 496.437091 250.775615 
L 501.516167 250.775615 
L 506.595244 250.775615 
L 511.67432 250.775615 
L 516.753394 250.775615 
L 521.83247 250.775615 
L 526.911547 250.775615 
L 531.990623 250.775615 
L 537.0697 250.775615 
L 542.148776 250.775615 
L 547.227853 250.775615 
L 552.306929 250.775615 
L 557.386 250.775615 
L 562.465076 250.775615 
L 567.544153 250.775615 
L 572.623229 250.775615 
L 577.7023 250.775615 
L 582.781382 250.775615 
L 587.860453 250.775615 
L 592.939535 250.775615 
L 598.018618 250.775615 
L 603.097688 250.775615 
L 608.176771 250.775615 
L 613.255841 250.775615 
L 618.334912 89.064385 
L 623.413994 89.064385 
L 628.493065 89.064385 
L 633.572147 89.064385 
L 638.65123 89.064385 
L 643.730288 89.064385 
L 648.809383 132.18738 
L 653.888441 132.18738 
L 658.967524 132.18738 
L 664.046594 132.18738 
L 669.125677 132.18738 
L 674.204747 132.18738 
L 679.283842 132.18738 
L 684.362889 132.18738 
L 689.441983 132.18738 
L 694.521053 132.18738 
L 699.600124 132.18738 
L 704.679194 132.18738 
L 709.758289 261.556364 
" clip-path="url(#pfb145fdf21)" style="fill: none; stroke: #1f77b4; stroke-width: 2; stroke-linecap: square"/>
   </g>
   <g id="line2d_34">
    <path d="M 471.041711 261.556364 
L 476.120787 121.406631 
L 481.199863 121.406631 
L 486.278939 121.406631 
L 491.358016 121.406631 
L 496.437091 121.406631 
L 501.516167 121.406631 
L 506.595244 121.406631 
L 511.67432 121.406631 
L 516.753394 121.406631 
L 521.83247 121.406631 
L 526.911547 121.406631 
L 531.990623 121.406631 
L 537.0697 121.406631 
L 542.148776 121.406631 
L 547.227853 121.406631 
L 552.306929 121.406631 
L 557.386 121.406631 
L 562.465076 121.406631 
L 567.544153 121.406631 
L 572.623229 261.556364 
L 577.7023 261.556364 
L 582.781382 261.556364 
L 587.860453 261.556364 
L 592.939535 261.556364 
L 598.018618 261.556364 
L 603.097688 261.556364 
L 608.176771 261.556364 
L 613.255841 261.556364 
L 618.334912 261.556364 
L 623.413994 261.556364 
L 628.493065 261.556364 
L 633.572147 261.556364 
L 638.65123 261.556364 
L 643.730288 261.556364 
L 648.809383 261.556364 
L 653.888441 261.556364 
L 658.967524 261.556364 
L 664.046594 78.283636 
L 669.125677 78.283636 
L 674.204747 78.283636 
L 679.283842 78.283636 
L 684.362889 78.283636 
L 689.441983 78.283636 
L 694.521053 78.283636 
L 699.600124 78.283636 
L 704.679194 78.283636 
L 709.758289 261.556364 
" clip-path="url(#pfb145fdf21)" style="fill: none; stroke: #ff7f0e; stroke-width: 2; stroke-linecap: square"/>
   </g>
   <g id="line2d_35">
    <path d="M 471.041711 261.556364 
L 476.120787 164.529626 
L 481.199863 164.529626 
L 486.278939 164.529626 
L 491.358016 164.529626 
L 496.437091 164.529626 
L 501.516167 164.529626 
L 506.595244 164.529626 
L 511.67432 164.529626 
L 516.753394 164.529626 
L 521.83247 164.529626 
L 526.911547 164.529626 
L 531.990623 164.529626 
L 537.0697 164.529626 
L 542.148776 164.529626 
L 547.227853 164.529626 
L 552.306929 164.529626 
L 557.386 164.529626 
L 562.465076 164.529626 
L 567.544153 164.529626 
L 572.623229 164.529626 
L 577.7023 164.529626 
L 582.781382 229.214118 
L 587.860453 229.214118 
L 592.939535 229.214118 
L 598.018618 229.214118 
L 603.097688 229.214118 
L 608.176771 229.214118 
L 613.255841 229.214118 
L 618.334912 229.214118 
L 623.413994 229.214118 
L 628.493065 229.214118 
L 633.572147 229.214118 
L 638.65123 229.214118 
L 643.730288 229.214118 
L 648.809383 229.214118 
L 653.888441 229.214118 
L 658.967524 229.214118 
L 664.046594 229.214118 
L 669.125677 229.214118 
L 674.204747 229.214118 
L 679.283842 229.214118 
L 684.362889 229.214118 
L 689.441983 229.214118 
L 694.521053 229.214118 
L 699.600124 229.214118 
L 704.679194 89.064385 
L 709.758289 261.556364 
" clip-path="url(#pfb145fdf21)" style="fill: none; stroke: #2ca02c; stroke-width: 2; stroke-linecap: square"/>
   </g>
   <g id="line2d_36">
    <path d="M 471.041711 261.556364 
L 476.120787 261.556364 
L 481.199863 261.556364 
L 486.278939 261.556364 
L 491.358016 261.556364 
L 496.437091 261.556364 
L 501.516167 261.556364 
L 506.595244 261.556364 
L 511.67432 261.556364 
L 516.753394 261.556364 
L 521.83247 261.556364 
L 526.911547 261.556364 
L 531.990623 261.556364 
L 537.0697 261.556364 
L 542.148776 261.556364 
L 547.227853 261.556364 
L 552.306929 89.064385 
L 557.386 89.064385 
L 562.465076 89.064385 
L 567.544153 89.064385 
L 572.623229 89.064385 
L 577.7023 89.064385 
L 582.781382 89.064385 
L 587.860453 89.064385 
L 592.939535 89.064385 
L 598.018618 218.433369 
L 603.097688 218.433369 
L 608.176771 218.433369 
L 613.255841 218.433369 
L 618.334912 218.433369 
L 623.413994 218.433369 
L 628.493065 218.433369 
L 633.572147 218.433369 
L 638.65123 218.433369 
L 643.730288 218.433369 
L 648.809383 218.433369 
L 653.888441 218.433369 
L 658.967524 218.433369 
L 664.046594 218.433369 
L 669.125677 218.433369 
L 674.204747 218.433369 
L 679.283842 218.433369 
L 684.362889 218.433369 
L 689.441983 218.433369 
L 694.521053 218.433369 
L 699.600124 218.433369 
L 704.679194 218.433369 
L 709.758289 261.556364 
" clip-path="url(#pfb145fdf21)" style="fill: none; stroke: #d62728; stroke-width: 2; stroke-linecap: square"/>
   </g>
   <g id="line2d_37">
    <path d="M 471.041711 261.556364 
L 476.120787 250.775615 
L 481.199863 250.775615 
L 486.278939 250.775615 
L 491.358016 250.775615 
L 496.437091 250.775615 
L 501.516167 250.775615 
L 506.595244 250.775615 
L 511.67432 250.775615 
L 516.753394 250.775615 
L 521.83247 250.775615 
L 526.911547 250.775615 
L 531.990623 250.775615 
L 537.0697 250.775615 
L 542.148776 250.775615 
L 547.227853 250.775615 
L 552.306929 250.775615 
L 557.386 250.775615 
L 562.465076 250.775615 
L 567.544153 250.775615 
L 572.623229 250.775615 
L 577.7023 250.775615 
L 582.781382 250.775615 
L 587.860453 250.775615 
L 592.939535 250.775615 
L 598.018618 78.283636 
L 603.097688 142.968128 
L 608.176771 142.968128 
L 613.255841 142.968128 
L 618.334912 142.968128 
L 623.413994 142.968128 
L 628.493065 142.968128 
L 633.572147 142.968128 
L 638.65123 142.968128 
L 643.730288 142.968128 
L 648.809383 142.968128 
L 653.888441 142.968128 
L 658.967524 142.968128 
L 664.046594 142.968128 
L 669.125677 142.968128 
L 674.204747 142.968128 
L 679.283842 142.968128 
L 684.362889 142.968128 
L 689.441983 142.968128 
L 694.521053 142.968128 
L 699.600124 142.968128 
L 704.679194 142.968128 
L 709.758289 261.556364 
" clip-path="url(#pfb145fdf21)" style="fill: none; stroke: #9467bd; stroke-width: 2; stroke-linecap: square"/>
   </g>
   <g id="line2d_38">
    <path d="M 471.041711 261.556364 
L 476.120787 164.529626 
L 481.199863 164.529626 
L 486.278939 164.529626 
L 491.358016 164.529626 
L 496.437091 164.529626 
L 501.516167 164.529626 
L 506.595244 164.529626 
L 511.67432 164.529626 
L 516.753394 164.529626 
L 521.83247 164.529626 
L 526.911547 164.529626 
L 531.990623 164.529626 
L 537.0697 164.529626 
L 542.148776 164.529626 
L 547.227853 164.529626 
L 552.306929 164.529626 
L 557.386 164.529626 
L 562.465076 164.529626 
L 567.544153 164.529626 
L 572.623229 164.529626 
L 577.7023 164.529626 
L 582.781382 164.529626 
L 587.860453 164.529626 
L 592.939535 164.529626 
L 598.018618 164.529626 
L 603.097688 164.529626 
L 608.176771 164.529626 
L 613.255841 164.529626 
L 618.334912 164.529626 
L 623.413994 164.529626 
L 628.493065 164.529626 
L 633.572147 164.529626 
L 638.65123 164.529626 
L 643.730288 164.529626 
L 648.809383 132.18738 
L 653.888441 132.18738 
L 658.967524 132.18738 
L 664.046594 132.18738 
L 669.125677 132.18738 
L 674.204747 132.18738 
L 679.283842 132.18738 
L 684.362889 132.18738 
L 689.441983 132.18738 
L 694.521053 132.18738 
L 699.600124 207.65262 
L 704.679194 207.65262 
L 709.758289 261.556364 
" clip-path="url(#pfb145fdf21)" style="fill: none; stroke: #8c564b; stroke-width: 2; stroke-linecap: square"/>
   </g>
   <g id="patch_9">
    <path d="M 459.105882 270.72 
L 459.105882 69.12 
" style="fill: none; stroke: #000000; stroke-width: 0.8; stroke-linejoin: miter; stroke-linecap: square"/>
   </g>
   <g id="patch_10">
    <path d="M 721.694118 270.72 
L 721.694118 69.12 
" style="fill: none; stroke: #000000; stroke-width: 0.8; stroke-linejoin: miter; stroke-linecap: square"/>
   </g>
   <g id="patch_11">
    <path d="M 459.105882 270.72 
L 721.694118 270.72 
" style="fill: none; stroke: #000000; stroke-width: 0.8; stroke-linejoin: miter; stroke-linecap: square"/>
   </g>
   <g id="patch_12">
    <path d="M 459.105882 69.12 
L 721.694118 69.12 
" style="fill: none; stroke: #000000; stroke-width: 0.8; stroke-linejoin: miter; stroke-linecap: square"/>
   </g>
  </g>
  <g id="axes_3">
   <g id="patch_13">
    <path d="M 774.211765 270.72 
L 1036.8 270.72 
L 1036.8 69.12 
L 774.211765 69.12 
z
" style="fill: #ffffff"/>
   </g>
   <g id="matplotlib.axis_5">
    <g id="xtick_13">
     <g id="line2d_39">
      <g>
       <use xlink:href="#m561a97441f" x="786.147594" y="270.72" style="stroke: #000000; stroke-width: 0.8"/>
      </g>
     </g>
     <g id="text_28">
      <!-- 0 -->
      <g transform="translate(781.693844 288.357812) scale(0.14 -0.14)">
       <use xlink:href="#DejaVuSans-30"/>
      </g>
     </g>
    </g>
    <g id="xtick_14">
     <g id="line2d_40">
      <g>
       <use xlink:href="#m561a97441f" x="835.880212" y="270.72" style="stroke: #000000; stroke-width: 0.8"/>
      </g>
     </g>
     <g id="text_29">
      <!-- 1 -->
      <g transform="translate(831.426462 288.357812) scale(0.14 -0.14)">
       <use xlink:href="#DejaVuSans-31"/>
      </g>
     </g>
    </g>
    <g id="xtick_15">
     <g id="line2d_41">
      <g>
       <use xlink:href="#m561a97441f" x="885.61283" y="270.72" style="stroke: #000000; stroke-width: 0.8"/>
      </g>
     </g>
     <g id="text_30">
      <!-- 2 -->
      <g transform="translate(881.15908 288.357812) scale(0.14 -0.14)">
       <use xlink:href="#DejaVuSans-32"/>
      </g>
     </g>
    </g>
    <g id="xtick_16">
     <g id="line2d_42">
      <g>
       <use xlink:href="#m561a97441f" x="935.345449" y="270.72" style="stroke: #000000; stroke-width: 0.8"/>
      </g>
     </g>
     <g id="text_31">
      <!-- 3 -->
      <g transform="translate(930.891699 288.357812) scale(0.14 -0.14)">
       <use xlink:href="#DejaVuSans-33"/>
      </g>
     </g>
    </g>
    <g id="xtick_17">
     <g id="line2d_43">
      <g>
       <use xlink:href="#m561a97441f" x="985.078067" y="270.72" style="stroke: #000000; stroke-width: 0.8"/>
      </g>
     </g>
     <g id="text_32">
      <!-- 4 -->
      <g transform="translate(980.624317 288.357812) scale(0.14 -0.14)">
       <use xlink:href="#DejaVuSans-34"/>
      </g>
     </g>
    </g>
    <g id="xtick_18">
     <g id="line2d_44">
      <g>
       <use xlink:href="#m561a97441f" x="1034.810685" y="270.72" style="stroke: #000000; stroke-width: 0.8"/>
      </g>
     </g>
     <g id="text_33">
      <!-- 5 -->
      <g transform="translate(1030.356935 288.357812) scale(0.14 -0.14)">
       <use xlink:href="#DejaVuSans-35"/>
      </g>
     </g>
    </g>
   </g>
   <g id="matplotlib.axis_6">
    <g id="ytick_9">
     <g id="line2d_45">
      <g>
       <use xlink:href="#m0da113dfc2" x="774.211765" y="261.556364" style="stroke: #000000; stroke-width: 0.8"/>
      </g>
     </g>
     <g id="text_34">
      <!-- 0 -->
      <g transform="translate(758.304265 266.87527) scale(0.14 -0.14)">
       <use xlink:href="#DejaVuSans-30"/>
      </g>
     </g>
    </g>
    <g id="ytick_10">
     <g id="line2d_46">
      <g>
       <use xlink:href="#m0da113dfc2" x="774.211765" y="207.65262" style="stroke: #000000; stroke-width: 0.8"/>
      </g>
     </g>
     <g id="text_35">
      <!-- 5 -->
      <g transform="translate(758.304265 212.971527) scale(0.14 -0.14)">
       <use xlink:href="#DejaVuSans-35"/>
      </g>
     </g>
    </g>
    <g id="ytick_11">
     <g id="line2d_47">
      <g>
       <use xlink:href="#m0da113dfc2" x="774.211765" y="153.748877" style="stroke: #000000; stroke-width: 0.8"/>
      </g>
     </g>
     <g id="text_36">
      <!-- 10 -->
      <g transform="translate(749.396765 159.067783) scale(0.14 -0.14)">
       <use xlink:href="#DejaVuSans-31"/>
       <use xlink:href="#DejaVuSans-30" x="63.623047"/>
      </g>
     </g>
    </g>
    <g id="ytick_12">
     <g id="line2d_48">
      <g>
       <use xlink:href="#m0da113dfc2" x="774.211765" y="99.845134" style="stroke: #000000; stroke-width: 0.8"/>
      </g>
     </g>
     <g id="text_37">
      <!-- 15 -->
      <g transform="translate(749.396765 105.16404) scale(0.14 -0.14)">
       <use xlink:href="#DejaVuSans-31"/>
       <use xlink:href="#DejaVuSans-35" x="63.623047"/>
      </g>
     </g>
    </g>
   </g>
   <g id="line2d_49">
    <path d="M 786.147594 261.556364 
L 791.22667 239.994866 
L 796.305746 239.994866 
L 801.384822 239.994866 
L 806.463898 239.994866 
L 811.542973 239.994866 
L 816.62205 239.994866 
L 821.701126 239.994866 
L 826.780203 239.994866 
L 831.859276 239.994866 
L 836.938353 239.994866 
L 842.017429 239.994866 
L 847.096506 239.994866 
L 852.175582 239.994866 
L 857.254659 239.994866 
L 862.333735 239.994866 
L 867.412812 239.994866 
L 872.491882 239.994866 
L 877.570959 239.994866 
L 882.650035 239.994866 
L 887.729112 239.994866 
L 892.808182 239.994866 
L 897.887265 239.994866 
L 902.966335 239.994866 
L 908.045418 239.994866 
L 913.1245 239.994866 
L 918.203571 239.994866 
L 923.282653 239.994866 
L 928.361724 239.994866 
L 933.440794 239.994866 
L 938.519877 239.994866 
L 943.598947 239.994866 
L 948.67803 239.994866 
L 953.757112 239.994866 
L 958.836171 239.994866 
L 963.915265 239.994866 
L 968.994324 239.994866 
L 974.073406 239.994866 
L 979.152477 239.994866 
L 984.231559 250.775615 
L 989.31063 250.775615 
L 994.389724 250.775615 
L 999.468771 250.775615 
L 1004.547865 250.775615 
L 1009.626936 250.775615 
L 1014.706006 250.775615 
L 1019.785077 250.775615 
L 1024.864171 261.556364 
" clip-path="url(#p0b86b658a4)" style="fill: none; stroke: #1f77b4; stroke-width: 2; stroke-linecap: square"/>
   </g>
   <g id="line2d_50">
    <path d="M 786.147594 261.556364 
L 791.22667 99.845134 
L 796.305746 99.845134 
L 801.384822 99.845134 
L 806.463898 99.845134 
L 811.542973 99.845134 
L 816.62205 99.845134 
L 821.701126 99.845134 
L 826.780203 99.845134 
L 831.859276 99.845134 
L 836.938353 99.845134 
L 842.017429 99.845134 
L 847.096506 99.845134 
L 852.175582 99.845134 
L 857.254659 99.845134 
L 862.333735 99.845134 
L 867.412812 99.845134 
L 872.491882 99.845134 
L 877.570959 99.845134 
L 882.650035 99.845134 
L 887.729112 99.845134 
L 892.808182 99.845134 
L 897.887265 99.845134 
L 902.966335 99.845134 
L 908.045418 99.845134 
L 913.1245 99.845134 
L 918.203571 99.845134 
L 923.282653 99.845134 
L 928.361724 99.845134 
L 933.440794 99.845134 
L 938.519877 99.845134 
L 943.598947 99.845134 
L 948.67803 99.845134 
L 953.757112 99.845134 
L 958.836171 99.845134 
L 963.915265 99.845134 
L 968.994324 99.845134 
L 974.073406 99.845134 
L 979.152477 99.845134 
L 984.231559 99.845134 
L 989.31063 99.845134 
L 994.389724 207.65262 
L 999.468771 207.65262 
L 1004.547865 207.65262 
L 1009.626936 207.65262 
L 1014.706006 207.65262 
L 1019.785077 207.65262 
L 1024.864171 261.556364 
" clip-path="url(#p0b86b658a4)" style="fill: none; stroke: #ff7f0e; stroke-width: 2; stroke-linecap: square"/>
   </g>
   <g id="line2d_51">
    <path d="M 786.147594 261.556364 
L 791.22667 239.994866 
L 796.305746 239.994866 
L 801.384822 239.994866 
L 806.463898 239.994866 
L 811.542973 239.994866 
L 816.62205 239.994866 
L 821.701126 239.994866 
L 826.780203 239.994866 
L 831.859276 239.994866 
L 836.938353 239.994866 
L 842.017429 239.994866 
L 847.096506 239.994866 
L 852.175582 239.994866 
L 857.254659 239.994866 
L 862.333735 239.994866 
L 867.412812 239.994866 
L 872.491882 239.994866 
L 877.570959 239.994866 
L 882.650035 239.994866 
L 887.729112 239.994866 
L 892.808182 239.994866 
L 897.887265 239.994866 
L 902.966335 239.994866 
L 908.045418 239.994866 
L 913.1245 239.994866 
L 918.203571 239.994866 
L 923.282653 239.994866 
L 928.361724 239.994866 
L 933.440794 239.994866 
L 938.519877 239.994866 
L 943.598947 239.994866 
L 948.67803 239.994866 
L 953.757112 239.994866 
L 958.836171 186.091123 
L 963.915265 186.091123 
L 968.994324 186.091123 
L 974.073406 186.091123 
L 979.152477 186.091123 
L 984.231559 207.65262 
L 989.31063 207.65262 
L 994.389724 207.65262 
L 999.468771 207.65262 
L 1004.547865 207.65262 
L 1009.626936 207.65262 
L 1014.706006 207.65262 
L 1019.785077 207.65262 
L 1024.864171 261.556364 
" clip-path="url(#p0b86b658a4)" style="fill: none; stroke: #2ca02c; stroke-width: 2; stroke-linecap: square"/>
   </g>
   <g id="line2d_52">
    <path d="M 786.147594 261.556364 
L 791.22667 142.968128 
L 796.305746 142.968128 
L 801.384822 142.968128 
L 806.463898 142.968128 
L 811.542973 142.968128 
L 816.62205 142.968128 
L 821.701126 142.968128 
L 826.780203 142.968128 
L 831.859276 142.968128 
L 836.938353 142.968128 
L 842.017429 142.968128 
L 847.096506 142.968128 
L 852.175582 142.968128 
L 857.254659 142.968128 
L 862.333735 142.968128 
L 867.412812 142.968128 
L 872.491882 142.968128 
L 877.570959 142.968128 
L 882.650035 142.968128 
L 887.729112 142.968128 
L 892.808182 142.968128 
L 897.887265 142.968128 
L 902.966335 142.968128 
L 908.045418 142.968128 
L 913.1245 142.968128 
L 918.203571 142.968128 
L 923.282653 142.968128 
L 928.361724 142.968128 
L 933.440794 142.968128 
L 938.519877 142.968128 
L 943.598947 142.968128 
L 948.67803 142.968128 
L 953.757112 229.214118 
L 958.836171 229.214118 
L 963.915265 229.214118 
L 968.994324 229.214118 
L 974.073406 229.214118 
L 979.152477 229.214118 
L 984.231559 229.214118 
L 989.31063 229.214118 
L 994.389724 229.214118 
L 999.468771 229.214118 
L 1004.547865 229.214118 
L 1009.626936 164.529626 
L 1014.706006 164.529626 
L 1019.785077 164.529626 
L 1024.864171 261.556364 
" clip-path="url(#p0b86b658a4)" style="fill: none; stroke: #d62728; stroke-width: 2; stroke-linecap: square"/>
   </g>
   <g id="line2d_53">
    <path d="M 786.147594 261.556364 
L 791.22667 110.625882 
L 796.305746 110.625882 
L 801.384822 110.625882 
L 806.463898 110.625882 
L 811.542973 110.625882 
L 816.62205 110.625882 
L 821.701126 110.625882 
L 826.780203 110.625882 
L 831.859276 110.625882 
L 836.938353 110.625882 
L 842.017429 110.625882 
L 847.096506 110.625882 
L 852.175582 110.625882 
L 857.254659 110.625882 
L 862.333735 110.625882 
L 867.412812 110.625882 
L 872.491882 110.625882 
L 877.570959 110.625882 
L 882.650035 110.625882 
L 887.729112 110.625882 
L 892.808182 110.625882 
L 897.887265 110.625882 
L 902.966335 110.625882 
L 908.045418 110.625882 
L 913.1245 110.625882 
L 918.203571 110.625882 
L 923.282653 110.625882 
L 928.361724 110.625882 
L 933.440794 110.625882 
L 938.519877 110.625882 
L 943.598947 110.625882 
L 948.67803 110.625882 
L 953.757112 110.625882 
L 958.836171 110.625882 
L 963.915265 110.625882 
L 968.994324 110.625882 
L 974.073406 99.845134 
L 979.152477 99.845134 
L 984.231559 78.283636 
L 989.31063 78.283636 
L 994.389724 78.283636 
L 999.468771 78.283636 
L 1004.547865 78.283636 
L 1009.626936 78.283636 
L 1014.706006 78.283636 
L 1019.785077 78.283636 
L 1024.864171 261.556364 
" clip-path="url(#p0b86b658a4)" style="fill: none; stroke: #9467bd; stroke-width: 2; stroke-linecap: square"/>
   </g>
   <g id="line2d_54">
    <path d="M 786.147594 261.556364 
L 791.22667 196.871872 
L 796.305746 196.871872 
L 801.384822 196.871872 
L 806.463898 196.871872 
L 811.542973 196.871872 
L 816.62205 196.871872 
L 821.701126 196.871872 
L 826.780203 196.871872 
L 831.859276 196.871872 
L 836.938353 196.871872 
L 842.017429 196.871872 
L 847.096506 196.871872 
L 852.175582 196.871872 
L 857.254659 196.871872 
L 862.333735 196.871872 
L 867.412812 196.871872 
L 872.491882 196.871872 
L 877.570959 196.871872 
L 882.650035 196.871872 
L 887.729112 196.871872 
L 892.808182 196.871872 
L 897.887265 99.845134 
L 902.966335 99.845134 
L 908.045418 99.845134 
L 913.1245 99.845134 
L 918.203571 99.845134 
L 923.282653 99.845134 
L 928.361724 99.845134 
L 933.440794 99.845134 
L 938.519877 99.845134 
L 943.598947 99.845134 
L 948.67803 99.845134 
L 953.757112 99.845134 
L 958.836171 99.845134 
L 963.915265 99.845134 
L 968.994324 99.845134 
L 974.073406 99.845134 
L 979.152477 99.845134 
L 984.231559 99.845134 
L 989.31063 99.845134 
L 994.389724 99.845134 
L 999.468771 99.845134 
L 1004.547865 142.968128 
L 1009.626936 142.968128 
L 1014.706006 142.968128 
L 1019.785077 142.968128 
L 1024.864171 261.556364 
" clip-path="url(#p0b86b658a4)" style="fill: none; stroke: #8c564b; stroke-width: 2; stroke-linecap: square"/>
   </g>
   <g id="patch_14">
    <path d="M 774.211765 270.72 
L 774.211765 69.12 
" style="fill: none; stroke: #000000; stroke-width: 0.8; stroke-linejoin: miter; stroke-linecap: square"/>
   </g>
   <g id="patch_15">
    <path d="M 1036.8 270.72 
L 1036.8 69.12 
" style="fill: none; stroke: #000000; stroke-width: 0.8; stroke-linejoin: miter; stroke-linecap: square"/>
   </g>
   <g id="patch_16">
    <path d="M 774.211765 270.72 
L 1036.8 270.72 
" style="fill: none; stroke: #000000; stroke-width: 0.8; stroke-linejoin: miter; stroke-linecap: square"/>
   </g>
   <g id="patch_17">
    <path d="M 774.211765 69.12 
L 1036.8 69.12 
" style="fill: none; stroke: #000000; stroke-width: 0.8; stroke-linejoin: miter; stroke-linecap: square"/>
   </g>
  </g>
  <g id="axes_4">
   <g id="patch_18">
    <path d="M 144 512.64 
L 406.588235 512.64 
L 406.588235 311.04 
L 144 311.04 
z
" style="fill: #ffffff"/>
   </g>
   <g id="matplotlib.axis_7">
    <g id="xtick_19">
     <g id="line2d_55">
      <g>
       <use xlink:href="#m561a97441f" x="155.935829" y="512.64" style="stroke: #000000; stroke-width: 0.8"/>
      </g>
     </g>
     <g id="text_38">
      <!-- 0 -->
      <g transform="translate(151.482079 530.277812) scale(0.14 -0.14)">
       <use xlink:href="#DejaVuSans-30"/>
      </g>
     </g>
    </g>
    <g id="xtick_20">
     <g id="line2d_56">
      <g>
       <use xlink:href="#m561a97441f" x="205.668447" y="512.64" style="stroke: #000000; stroke-width: 0.8"/>
      </g>
     </g>
     <g id="text_39">
      <!-- 1 -->
      <g transform="translate(201.214697 530.277812) scale(0.14 -0.14)">
       <use xlink:href="#DejaVuSans-31"/>
      </g>
     </g>
    </g>
    <g id="xtick_21">
     <g id="line2d_57">
      <g>
       <use xlink:href="#m561a97441f" x="255.401066" y="512.64" style="stroke: #000000; stroke-width: 0.8"/>
      </g>
     </g>
     <g id="text_40">
      <!-- 2 -->
      <g transform="translate(250.947316 530.277812) scale(0.14 -0.14)">
       <use xlink:href="#DejaVuSans-32"/>
      </g>
     </g>
    </g>
    <g id="xtick_22">
     <g id="line2d_58">
      <g>
       <use xlink:href="#m561a97441f" x="305.133684" y="512.64" style="stroke: #000000; stroke-width: 0.8"/>
      </g>
     </g>
     <g id="text_41">
      <!-- 3 -->
      <g transform="translate(300.679934 530.277812) scale(0.14 -0.14)">
       <use xlink:href="#DejaVuSans-33"/>
      </g>
     </g>
    </g>
    <g id="xtick_23">
     <g id="line2d_59">
      <g>
       <use xlink:href="#m561a97441f" x="354.866302" y="512.64" style="stroke: #000000; stroke-width: 0.8"/>
      </g>
     </g>
     <g id="text_42">
      <!-- 4 -->
      <g transform="translate(350.412552 530.277812) scale(0.14 -0.14)">
       <use xlink:href="#DejaVuSans-34"/>
      </g>
     </g>
    </g>
    <g id="xtick_24">
     <g id="line2d_60">
      <g>
       <use xlink:href="#m561a97441f" x="404.598921" y="512.64" style="stroke: #000000; stroke-width: 0.8"/>
      </g>
     </g>
     <g id="text_43">
      <!-- 5 -->
      <g transform="translate(400.145171 530.277812) scale(0.14 -0.14)">
       <use xlink:href="#DejaVuSans-35"/>
      </g>
     </g>
    </g>
   </g>
   <g id="matplotlib.axis_8">
    <g id="ytick_13">
     <g id="line2d_61">
      <g>
       <use xlink:href="#m0da113dfc2" x="144" y="503.224023" style="stroke: #000000; stroke-width: 0.8"/>
      </g>
     </g>
     <g id="text_44">
      <!-- 125 -->
      <g transform="translate(98.545937 508.54293) scale(0.14 -0.14)">
       <defs>
        <path id="DejaVuSans-2212" d="M 678 2272 
L 4684 2272 
L 4684 1741 
L 678 1741 
L 678 2272 
z
" transform="scale(0.015625)"/>
       </defs>
       <use xlink:href="#DejaVuSans-2212"/>
       <use xlink:href="#DejaVuSans-31" x="83.789062"/>
       <use xlink:href="#DejaVuSans-32" x="147.412109"/>
       <use xlink:href="#DejaVuSans-35" x="211.035156"/>
      </g>
     </g>
    </g>
    <g id="ytick_14">
     <g id="line2d_62">
      <g>
       <use xlink:href="#m0da113dfc2" x="144" y="473.477354" style="stroke: #000000; stroke-width: 0.8"/>
      </g>
     </g>
     <g id="text_45">
      <!-- 100 -->
      <g transform="translate(98.545937 478.796261) scale(0.14 -0.14)">
       <use xlink:href="#DejaVuSans-2212"/>
       <use xlink:href="#DejaVuSans-31" x="83.789062"/>
       <use xlink:href="#DejaVuSans-30" x="147.412109"/>
       <use xlink:href="#DejaVuSans-30" x="211.035156"/>
      </g>
     </g>
    </g>
    <g id="ytick_15">
     <g id="line2d_63">
      <g>
       <use xlink:href="#m0da113dfc2" x="144" y="443.730685" style="stroke: #000000; stroke-width: 0.8"/>
      </g>
     </g>
     <g id="text_46">
      <!-- 75 -->
      <g transform="translate(107.453437 449.049592) scale(0.14 -0.14)">
       <defs>
        <path id="DejaVuSans-37" d="M 525 4666 
L 3525 4666 
L 3525 4397 
L 1831 0 
L 1172 0 
L 2766 4134 
L 525 4134 
L 525 4666 
z
" transform="scale(0.015625)"/>
       </defs>
       <use xlink:href="#DejaVuSans-2212"/>
       <use xlink:href="#DejaVuSans-37" x="83.789062"/>
       <use xlink:href="#DejaVuSans-35" x="147.412109"/>
      </g>
     </g>
    </g>
    <g id="ytick_16">
     <g id="line2d_64">
      <g>
       <use xlink:href="#m0da113dfc2" x="144" y="413.984016" style="stroke: #000000; stroke-width: 0.8"/>
      </g>
     </g>
     <g id="text_47">
      <!-- 50 -->
      <g transform="translate(107.453437 419.302923) scale(0.14 -0.14)">
       <use xlink:href="#DejaVuSans-2212"/>
       <use xlink:href="#DejaVuSans-35" x="83.789062"/>
       <use xlink:href="#DejaVuSans-30" x="147.412109"/>
      </g>
     </g>
    </g>
    <g id="ytick_17">
     <g id="line2d_65">
      <g>
       <use xlink:href="#m0da113dfc2" x="144" y="384.237347" style="stroke: #000000; stroke-width: 0.8"/>
      </g>
     </g>
     <g id="text_48">
      <!-- 25 -->
      <g transform="translate(107.453437 389.556253) scale(0.14 -0.14)">
       <use xlink:href="#DejaVuSans-2212"/>
       <use xlink:href="#DejaVuSans-32" x="83.789062"/>
       <use xlink:href="#DejaVuSans-35" x="147.412109"/>
      </g>
     </g>
    </g>
    <g id="ytick_18">
     <g id="line2d_66">
      <g>
       <use xlink:href="#m0da113dfc2" x="144" y="354.490678" style="stroke: #000000; stroke-width: 0.8"/>
      </g>
     </g>
     <g id="text_49">
      <!-- 0 -->
      <g transform="translate(128.0925 359.809584) scale(0.14 -0.14)">
       <use xlink:href="#DejaVuSans-30"/>
      </g>
     </g>
    </g>
    <g id="ytick_19">
     <g id="line2d_67">
      <g>
       <use xlink:href="#m0da113dfc2" x="144" y="324.744009" style="stroke: #000000; stroke-width: 0.8"/>
      </g>
     </g>
     <g id="text_50">
      <!-- 25 -->
      <g transform="translate(119.185 330.062915) scale(0.14 -0.14)">
       <use xlink:href="#DejaVuSans-32"/>
       <use xlink:href="#DejaVuSans-35" x="63.623047"/>
      </g>
     </g>
    </g>
    <g id="text_51">
     <!-- Voltage (mV) -->
     <g transform="translate(91.634375 457.3925) rotate(-90) scale(0.14 -0.14)">
      <defs>
       <path id="DejaVuSans-56" d="M 1831 0 
L 50 4666 
L 709 4666 
L 2188 738 
L 3669 4666 
L 4325 4666 
L 2547 0 
L 1831 0 
z
" transform="scale(0.015625)"/>
       <path id="DejaVuSans-6f" d="M 1959 3097 
Q 1497 3097 1228 2736 
Q 959 2375 959 1747 
Q 959 1119 1226 758 
Q 1494 397 1959 397 
Q 2419 397 2687 759 
Q 2956 1122 2956 1747 
Q 2956 2369 2687 2733 
Q 2419 3097 1959 3097 
z
M 1959 3584 
Q 2709 3584 3137 3096 
Q 3566 2609 3566 1747 
Q 3566 888 3137 398 
Q 2709 -91 1959 -91 
Q 1206 -91 779 398 
Q 353 888 353 1747 
Q 353 2609 779 3096 
Q 1206 3584 1959 3584 
z
" transform="scale(0.015625)"/>
       <path id="DejaVuSans-6c" d="M 603 4863 
L 1178 4863 
L 1178 0 
L 603 0 
L 603 4863 
z
" transform="scale(0.015625)"/>
       <path id="DejaVuSans-61" d="M 2194 1759 
Q 1497 1759 1228 1600 
Q 959 1441 959 1056 
Q 959 750 1161 570 
Q 1363 391 1709 391 
Q 2188 391 2477 730 
Q 2766 1069 2766 1631 
L 2766 1759 
L 2194 1759 
z
M 3341 1997 
L 3341 0 
L 2766 0 
L 2766 531 
Q 2569 213 2275 61 
Q 1981 -91 1556 -91 
Q 1019 -91 701 211 
Q 384 513 384 1019 
Q 384 1609 779 1909 
Q 1175 2209 1959 2209 
L 2766 2209 
L 2766 2266 
Q 2766 2663 2505 2880 
Q 2244 3097 1772 3097 
Q 1472 3097 1187 3025 
Q 903 2953 641 2809 
L 641 3341 
Q 956 3463 1253 3523 
Q 1550 3584 1831 3584 
Q 2591 3584 2966 3190 
Q 3341 2797 3341 1997 
z
" transform="scale(0.015625)"/>
       <path id="DejaVuSans-67" d="M 2906 1791 
Q 2906 2416 2648 2759 
Q 2391 3103 1925 3103 
Q 1463 3103 1205 2759 
Q 947 2416 947 1791 
Q 947 1169 1205 825 
Q 1463 481 1925 481 
Q 2391 481 2648 825 
Q 2906 1169 2906 1791 
z
M 3481 434 
Q 3481 -459 3084 -895 
Q 2688 -1331 1869 -1331 
Q 1566 -1331 1297 -1286 
Q 1028 -1241 775 -1147 
L 775 -588 
Q 1028 -725 1275 -790 
Q 1522 -856 1778 -856 
Q 2344 -856 2625 -561 
Q 2906 -266 2906 331 
L 2906 616 
Q 2728 306 2450 153 
Q 2172 0 1784 0 
Q 1141 0 747 490 
Q 353 981 353 1791 
Q 353 2603 747 3093 
Q 1141 3584 1784 3584 
Q 2172 3584 2450 3431 
Q 2728 3278 2906 2969 
L 2906 3500 
L 3481 3500 
L 3481 434 
z
" transform="scale(0.015625)"/>
      </defs>
      <use xlink:href="#DejaVuSans-56"/>
      <use xlink:href="#DejaVuSans-6f" x="60.658203"/>
      <use xlink:href="#DejaVuSans-6c" x="121.839844"/>
      <use xlink:href="#DejaVuSans-74" x="149.623047"/>
      <use xlink:href="#DejaVuSans-61" x="188.832031"/>
      <use xlink:href="#DejaVuSans-67" x="250.111328"/>
      <use xlink:href="#DejaVuSans-65" x="313.587891"/>
      <use xlink:href="#DejaVuSans-20" x="375.111328"/>
      <use xlink:href="#DejaVuSans-28" x="406.898438"/>
      <use xlink:href="#DejaVuSans-6d" x="445.912109"/>
      <use xlink:href="#DejaVuSans-56" x="543.324219"/>
      <use xlink:href="#DejaVuSans-29" x="611.732422"/>
     </g>
    </g>
   </g>
   <g id="line2d_68">
    <path d="M 155.935829 425.882684 
L 161.014905 421.849921 
L 166.093981 417.971121 
L 171.173057 414.193173 
L 176.252133 410.394526 
L 181.331208 406.198637 
L 186.410285 400.147217 
L 191.489361 380.40553 
L 196.568438 320.203636 
L 201.647511 335.672721 
L 206.726588 355.131888 
L 211.805664 373.706713 
L 216.884741 404.355652 
L 221.963817 473.124349 
L 227.042894 498.330566 
L 232.12197 502.142012 
L 237.201047 501.949641 
L 242.280117 500.550936 
L 247.359194 498.538151 
L 252.43827 496.117286 
L 257.517347 493.400487 
L 262.596418 490.464738 
L 267.6755 487.376959 
L 272.754571 484.192628 
L 277.833653 482.126275 
L 282.912735 480.999681 
L 287.991806 479.63933 
L 293.070888 478.103748 
L 298.149959 476.434165 
L 303.229029 474.660785 
L 308.308112 472.80613 
L 313.387182 470.889145 
L 318.466265 468.923803 
L 323.545347 466.922185 
L 328.624406 464.893687 
L 333.7035 462.845734 
L 338.782559 460.784229 
L 343.861641 458.7135 
L 348.940712 456.654482 
L 354.019794 454.638475 
L 359.098865 452.655086 
L 364.177959 450.696261 
L 369.257006 448.756591 
L 374.3361 446.746566 
L 379.415171 444.566829 
L 384.494242 442.266728 
L 389.573312 441.550068 
L 394.652406 441.147188 
" clip-path="url(#p1a40e0d0f3)" style="fill: none; stroke: #0000ff; stroke-opacity: 0.5; stroke-width: 2; stroke-linecap: square"/>
   </g>
   <g id="line2d_69">
    <path d="M 155.935829 425.882684 
L 161.014905 421.853217 
L 166.093981 417.984956 
L 171.173057 414.223865 
L 176.252133 410.436961 
L 181.331208 406.198456 
L 186.410285 399.763696 
L 191.489361 373.680173 
L 196.568438 322.660805 
L 201.647511 339.333712 
L 206.726588 359.045777 
L 211.805664 377.820069 
L 216.884741 420.744294 
L 221.963817 488.20329 
L 227.042894 502.286778 
L 232.12197 503.476364 
L 237.201047 502.536386 
L 242.280117 500.821686 
L 247.359194 498.62688 
L 252.43827 496.079031 
L 257.517347 493.264863 
L 262.596418 490.251978 
L 267.6755 487.102451 
L 272.754571 483.869389 
L 277.833653 481.764972 
L 282.912735 480.609846 
L 287.991806 479.22877 
L 293.070888 477.678382 
L 298.149959 475.999004 
L 303.229029 474.219905 
L 308.308112 472.362835 
L 313.387182 470.445306 
L 318.466265 468.48157 
L 323.545347 466.48322 
L 328.624406 464.458843 
L 333.7035 462.416002 
L 338.782559 460.360134 
L 343.861641 458.295696 
L 348.940712 456.243277 
L 354.019794 454.234097 
L 359.098865 452.257752 
L 364.177959 450.306235 
L 369.257006 448.374145 
L 374.3361 446.371882 
L 379.415171 444.200252 
L 384.494242 441.908992 
L 389.573312 441.201855 
L 394.652406 440.809588 
" clip-path="url(#p1a40e0d0f3)" style="fill: none; stroke: #00ffff; stroke-opacity: 0.5; stroke-width: 2; stroke-linecap: square"/>
   </g>
   <g id="line2d_70">
    <path d="M 155.935829 425.882684 
L 161.014905 421.853149 
L 166.093981 417.98487 
L 171.173057 414.22362 
L 176.252133 410.43623 
L 181.331208 406.196368 
L 186.410285 399.756102 
L 191.489361 373.592596 
L 196.568438 322.669636 
L 201.647511 339.34204 
L 206.726588 359.051575 
L 211.805664 377.824994 
L 216.884741 420.763457 
L 221.963817 488.200431 
L 227.042894 502.275685 
L 232.12197 503.468511 
L 237.201047 502.530703 
L 242.280117 500.817011 
L 247.359194 498.622704 
L 252.43827 496.075209 
L 257.517347 493.260877 
L 262.596418 490.24801 
L 267.6755 487.098284 
L 272.754571 483.865149 
L 277.833653 481.760878 
L 282.912735 480.605362 
L 287.991806 479.224077 
L 293.070888 477.673688 
L 298.149959 475.994329 
L 303.229029 474.215202 
L 308.308112 472.357769 
L 313.387182 470.440558 
L 318.466265 468.47684 
L 323.545347 466.478463 
L 328.624406 464.454241 
L 333.7035 462.41139 
L 338.782559 460.355513 
L 343.861641 458.291175 
L 348.940712 456.238775 
L 354.019794 454.229713 
L 359.098865 452.253395 
L 364.177959 450.301959 
L 369.257006 448.369924 
L 374.3361 446.367561 
L 379.415171 444.196094 
L 384.494242 441.904826 
L 389.573312 441.197879 
L 394.652406 440.805593 
" clip-path="url(#p1a40e0d0f3)" style="fill: none; stroke-dasharray: 7.4,3.2; stroke-dashoffset: 0; stroke: #ff00ff; stroke-opacity: 0.5; stroke-width: 2"/>
   </g>
   <g id="patch_19">
    <path d="M 144 512.64 
L 144 311.04 
" style="fill: none; stroke: #000000; stroke-width: 0.8; stroke-linejoin: miter; stroke-linecap: square"/>
   </g>
   <g id="patch_20">
    <path d="M 406.588235 512.64 
L 406.588235 311.04 
" style="fill: none; stroke: #000000; stroke-width: 0.8; stroke-linejoin: miter; stroke-linecap: square"/>
   </g>
   <g id="patch_21">
    <path d="M 144 512.64 
L 406.588235 512.64 
" style="fill: none; stroke: #000000; stroke-width: 0.8; stroke-linejoin: miter; stroke-linecap: square"/>
   </g>
   <g id="patch_22">
    <path d="M 144 311.04 
L 406.588235 311.04 
" style="fill: none; stroke: #000000; stroke-width: 0.8; stroke-linejoin: miter; stroke-linecap: square"/>
   </g>
   <g id="legend_2">
    <g id="patch_23">
     <path d="M 309.419485 383.888125 
L 396.788235 383.888125 
Q 399.588235 383.888125 399.588235 381.088125 
L 399.588235 320.84 
Q 399.588235 318.04 396.788235 318.04 
L 309.419485 318.04 
Q 306.619485 318.04 306.619485 320.84 
L 306.619485 381.088125 
Q 306.619485 383.888125 309.419485 383.888125 
z
" style="fill: #ffffff; opacity: 0.8; stroke: #cccccc; stroke-linejoin: miter"/>
    </g>
    <g id="line2d_71">
     <path d="M 312.219485 329.377813 
L 326.219485 329.377813 
L 340.219485 329.377813 
" style="fill: none; stroke: #0000ff; stroke-opacity: 0.5; stroke-width: 2; stroke-linecap: square"/>
    </g>
    <g id="text_52">
     <!-- init -->
     <g transform="translate(351.419485 334.277812) scale(0.14 -0.14)">
      <defs>
       <path id="DejaVuSans-69" d="M 603 3500 
L 1178 3500 
L 1178 0 
L 603 0 
L 603 3500 
z
M 603 4863 
L 1178 4863 
L 1178 4134 
L 603 4134 
L 603 4863 
z
" transform="scale(0.015625)"/>
      </defs>
      <use xlink:href="#DejaVuSans-69"/>
      <use xlink:href="#DejaVuSans-6e" x="27.783203"/>
      <use xlink:href="#DejaVuSans-69" x="91.162109"/>
      <use xlink:href="#DejaVuSans-74" x="118.945312"/>
     </g>
    </g>
    <g id="line2d_72">
     <path d="M 312.219485 349.927188 
L 326.219485 349.927188 
L 340.219485 349.927188 
" style="fill: none; stroke: #00ffff; stroke-opacity: 0.5; stroke-width: 2; stroke-linecap: square"/>
    </g>
    <g id="text_53">
     <!-- final -->
     <g transform="translate(351.419485 354.827187) scale(0.14 -0.14)">
      <defs>
       <path id="DejaVuSans-66" d="M 2375 4863 
L 2375 4384 
L 1825 4384 
Q 1516 4384 1395 4259 
Q 1275 4134 1275 3809 
L 1275 3500 
L 2222 3500 
L 2222 3053 
L 1275 3053 
L 1275 0 
L 697 0 
L 697 3053 
L 147 3053 
L 147 3500 
L 697 3500 
L 697 3744 
Q 697 4328 969 4595 
Q 1241 4863 1831 4863 
L 2375 4863 
z
" transform="scale(0.015625)"/>
      </defs>
      <use xlink:href="#DejaVuSans-66"/>
      <use xlink:href="#DejaVuSans-69" x="35.205078"/>
      <use xlink:href="#DejaVuSans-6e" x="62.988281"/>
      <use xlink:href="#DejaVuSans-61" x="126.367188"/>
      <use xlink:href="#DejaVuSans-6c" x="187.646484"/>
     </g>
    </g>
    <g id="line2d_73">
     <path d="M 312.219485 370.476562 
L 326.219485 370.476562 
L 340.219485 370.476562 
" style="fill: none; stroke-dasharray: 7.4,3.2; stroke-dashoffset: 0; stroke: #ff00ff; stroke-opacity: 0.5; stroke-width: 2"/>
    </g>
    <g id="text_54">
     <!-- target -->
     <g transform="translate(351.419485 375.376562) scale(0.14 -0.14)">
      <use xlink:href="#DejaVuSans-74"/>
      <use xlink:href="#DejaVuSans-61" x="39.208984"/>
      <use xlink:href="#DejaVuSans-72" x="100.488281"/>
      <use xlink:href="#DejaVuSans-67" x="139.851562"/>
      <use xlink:href="#DejaVuSans-65" x="203.328125"/>
      <use xlink:href="#DejaVuSans-74" x="264.851562"/>
     </g>
    </g>
   </g>
  </g>
  <g id="axes_5">
   <g id="patch_24">
    <path d="M 459.105882 512.64 
L 721.694118 512.64 
L 721.694118 311.04 
L 459.105882 311.04 
z
" style="fill: #ffffff"/>
   </g>
   <g id="matplotlib.axis_9">
    <g id="xtick_25">
     <g id="line2d_74">
      <g>
       <use xlink:href="#m561a97441f" x="471.041711" y="512.64" style="stroke: #000000; stroke-width: 0.8"/>
      </g>
     </g>
     <g id="text_55">
      <!-- 0 -->
      <g transform="translate(466.587961 530.277812) scale(0.14 -0.14)">
       <use xlink:href="#DejaVuSans-30"/>
      </g>
     </g>
    </g>
    <g id="xtick_26">
     <g id="line2d_75">
      <g>
       <use xlink:href="#m561a97441f" x="520.77433" y="512.64" style="stroke: #000000; stroke-width: 0.8"/>
      </g>
     </g>
     <g id="text_56">
      <!-- 1 -->
      <g transform="translate(516.32058 530.277812) scale(0.14 -0.14)">
       <use xlink:href="#DejaVuSans-31"/>
      </g>
     </g>
    </g>
    <g id="xtick_27">
     <g id="line2d_76">
      <g>
       <use xlink:href="#m561a97441f" x="570.506948" y="512.64" style="stroke: #000000; stroke-width: 0.8"/>
      </g>
     </g>
     <g id="text_57">
      <!-- 2 -->
      <g transform="translate(566.053198 530.277812) scale(0.14 -0.14)">
       <use xlink:href="#DejaVuSans-32"/>
      </g>
     </g>
    </g>
    <g id="xtick_28">
     <g id="line2d_77">
      <g>
       <use xlink:href="#m561a97441f" x="620.239566" y="512.64" style="stroke: #000000; stroke-width: 0.8"/>
      </g>
     </g>
     <g id="text_58">
      <!-- 3 -->
      <g transform="translate(615.785816 530.277812) scale(0.14 -0.14)">
       <use xlink:href="#DejaVuSans-33"/>
      </g>
     </g>
    </g>
    <g id="xtick_29">
     <g id="line2d_78">
      <g>
       <use xlink:href="#m561a97441f" x="669.972185" y="512.64" style="stroke: #000000; stroke-width: 0.8"/>
      </g>
     </g>
     <g id="text_59">
      <!-- 4 -->
      <g transform="translate(665.518435 530.277812) scale(0.14 -0.14)">
       <use xlink:href="#DejaVuSans-34"/>
      </g>
     </g>
    </g>
    <g id="xtick_30">
     <g id="line2d_79">
      <g>
       <use xlink:href="#m561a97441f" x="719.704803" y="512.64" style="stroke: #000000; stroke-width: 0.8"/>
      </g>
     </g>
     <g id="text_60">
      <!-- 5 -->
      <g transform="translate(715.251053 530.277812) scale(0.14 -0.14)">
       <use xlink:href="#DejaVuSans-35"/>
      </g>
     </g>
    </g>
    <g id="text_61">
     <!-- Duration (msec) -->
     <g transform="translate(533.690156 547.827188) scale(0.14 -0.14)">
      <defs>
       <path id="DejaVuSans-44" d="M 1259 4147 
L 1259 519 
L 2022 519 
Q 2988 519 3436 956 
Q 3884 1394 3884 2338 
Q 3884 3275 3436 3711 
Q 2988 4147 2022 4147 
L 1259 4147 
z
M 628 4666 
L 1925 4666 
Q 3281 4666 3915 4102 
Q 4550 3538 4550 2338 
Q 4550 1131 3912 565 
Q 3275 0 1925 0 
L 628 0 
L 628 4666 
z
" transform="scale(0.015625)"/>
       <path id="DejaVuSans-73" d="M 2834 3397 
L 2834 2853 
Q 2591 2978 2328 3040 
Q 2066 3103 1784 3103 
Q 1356 3103 1142 2972 
Q 928 2841 928 2578 
Q 928 2378 1081 2264 
Q 1234 2150 1697 2047 
L 1894 2003 
Q 2506 1872 2764 1633 
Q 3022 1394 3022 966 
Q 3022 478 2636 193 
Q 2250 -91 1575 -91 
Q 1294 -91 989 -36 
Q 684 19 347 128 
L 347 722 
Q 666 556 975 473 
Q 1284 391 1588 391 
Q 1994 391 2212 530 
Q 2431 669 2431 922 
Q 2431 1156 2273 1281 
Q 2116 1406 1581 1522 
L 1381 1569 
Q 847 1681 609 1914 
Q 372 2147 372 2553 
Q 372 3047 722 3315 
Q 1072 3584 1716 3584 
Q 2034 3584 2315 3537 
Q 2597 3491 2834 3397 
z
" transform="scale(0.015625)"/>
       <path id="DejaVuSans-63" d="M 3122 3366 
L 3122 2828 
Q 2878 2963 2633 3030 
Q 2388 3097 2138 3097 
Q 1578 3097 1268 2742 
Q 959 2388 959 1747 
Q 959 1106 1268 751 
Q 1578 397 2138 397 
Q 2388 397 2633 464 
Q 2878 531 3122 666 
L 3122 134 
Q 2881 22 2623 -34 
Q 2366 -91 2075 -91 
Q 1284 -91 818 406 
Q 353 903 353 1747 
Q 353 2603 823 3093 
Q 1294 3584 2113 3584 
Q 2378 3584 2631 3529 
Q 2884 3475 3122 3366 
z
" transform="scale(0.015625)"/>
      </defs>
      <use xlink:href="#DejaVuSans-44"/>
      <use xlink:href="#DejaVuSans-75" x="77.001953"/>
      <use xlink:href="#DejaVuSans-72" x="140.380859"/>
      <use xlink:href="#DejaVuSans-61" x="181.494141"/>
      <use xlink:href="#DejaVuSans-74" x="242.773438"/>
      <use xlink:href="#DejaVuSans-69" x="281.982422"/>
      <use xlink:href="#DejaVuSans-6f" x="309.765625"/>
      <use xlink:href="#DejaVuSans-6e" x="370.947266"/>
      <use xlink:href="#DejaVuSans-20" x="434.326172"/>
      <use xlink:href="#DejaVuSans-28" x="466.113281"/>
      <use xlink:href="#DejaVuSans-6d" x="505.126953"/>
      <use xlink:href="#DejaVuSans-73" x="602.539062"/>
      <use xlink:href="#DejaVuSans-65" x="654.638672"/>
      <use xlink:href="#DejaVuSans-63" x="716.162109"/>
      <use xlink:href="#DejaVuSans-29" x="771.142578"/>
     </g>
    </g>
   </g>
   <g id="matplotlib.axis_10">
    <g id="ytick_20">
     <g id="line2d_80">
      <g>
       <use xlink:href="#m0da113dfc2" x="459.105882" y="500.396849" style="stroke: #000000; stroke-width: 0.8"/>
      </g>
     </g>
     <g id="text_62">
      <!-- 125 -->
      <g transform="translate(413.65182 505.715755) scale(0.14 -0.14)">
       <use xlink:href="#DejaVuSans-2212"/>
       <use xlink:href="#DejaVuSans-31" x="83.789062"/>
       <use xlink:href="#DejaVuSans-32" x="147.412109"/>
       <use xlink:href="#DejaVuSans-35" x="211.035156"/>
      </g>
     </g>
    </g>
    <g id="ytick_21">
     <g id="line2d_81">
      <g>
       <use xlink:href="#m0da113dfc2" x="459.105882" y="471.103388" style="stroke: #000000; stroke-width: 0.8"/>
      </g>
     </g>
     <g id="text_63">
      <!-- 100 -->
      <g transform="translate(413.65182 476.422294) scale(0.14 -0.14)">
       <use xlink:href="#DejaVuSans-2212"/>
       <use xlink:href="#DejaVuSans-31" x="83.789062"/>
       <use xlink:href="#DejaVuSans-30" x="147.412109"/>
       <use xlink:href="#DejaVuSans-30" x="211.035156"/>
      </g>
     </g>
    </g>
    <g id="ytick_22">
     <g id="line2d_82">
      <g>
       <use xlink:href="#m0da113dfc2" x="459.105882" y="441.809926" style="stroke: #000000; stroke-width: 0.8"/>
      </g>
     </g>
     <g id="text_64">
      <!-- 75 -->
      <g transform="translate(422.55932 447.128833) scale(0.14 -0.14)">
       <use xlink:href="#DejaVuSans-2212"/>
       <use xlink:href="#DejaVuSans-37" x="83.789062"/>
       <use xlink:href="#DejaVuSans-35" x="147.412109"/>
      </g>
     </g>
    </g>
    <g id="ytick_23">
     <g id="line2d_83">
      <g>
       <use xlink:href="#m0da113dfc2" x="459.105882" y="412.516465" style="stroke: #000000; stroke-width: 0.8"/>
      </g>
     </g>
     <g id="text_65">
      <!-- 50 -->
      <g transform="translate(422.55932 417.835371) scale(0.14 -0.14)">
       <use xlink:href="#DejaVuSans-2212"/>
       <use xlink:href="#DejaVuSans-35" x="83.789062"/>
       <use xlink:href="#DejaVuSans-30" x="147.412109"/>
      </g>
     </g>
    </g>
    <g id="ytick_24">
     <g id="line2d_84">
      <g>
       <use xlink:href="#m0da113dfc2" x="459.105882" y="383.223003" style="stroke: #000000; stroke-width: 0.8"/>
      </g>
     </g>
     <g id="text_66">
      <!-- 25 -->
      <g transform="translate(422.55932 388.54191) scale(0.14 -0.14)">
       <use xlink:href="#DejaVuSans-2212"/>
       <use xlink:href="#DejaVuSans-32" x="83.789062"/>
       <use xlink:href="#DejaVuSans-35" x="147.412109"/>
      </g>
     </g>
    </g>
    <g id="ytick_25">
     <g id="line2d_85">
      <g>
       <use xlink:href="#m0da113dfc2" x="459.105882" y="353.929542" style="stroke: #000000; stroke-width: 0.8"/>
      </g>
     </g>
     <g id="text_67">
      <!-- 0 -->
      <g transform="translate(443.198382 359.248448) scale(0.14 -0.14)">
       <use xlink:href="#DejaVuSans-30"/>
      </g>
     </g>
    </g>
    <g id="ytick_26">
     <g id="line2d_86">
      <g>
       <use xlink:href="#m0da113dfc2" x="459.105882" y="324.63608" style="stroke: #000000; stroke-width: 0.8"/>
      </g>
     </g>
     <g id="text_68">
      <!-- 25 -->
      <g transform="translate(434.290882 329.954987) scale(0.14 -0.14)">
       <use xlink:href="#DejaVuSans-32"/>
       <use xlink:href="#DejaVuSans-35" x="63.623047"/>
      </g>
     </g>
    </g>
   </g>
   <g id="line2d_87">
    <path d="M 471.041711 424.233849 
L 476.120787 424.267601 
L 481.199863 424.045576 
L 486.278939 423.636162 
L 491.358016 423.090423 
L 496.437091 422.446383 
L 501.516167 421.732087 
L 506.595244 420.967085 
L 511.67432 420.163303 
L 516.753394 419.324312 
L 521.83247 418.443233 
L 526.911547 417.495634 
L 531.990623 416.416952 
L 537.0697 415.003767 
L 542.148776 411.898569 
L 547.227853 403.113816 
L 552.306929 391.627432 
L 557.386 329.249575 
L 562.465076 328.755838 
L 567.544153 347.26354 
L 572.623229 366.753867 
L 577.7023 389.21377 
L 582.781382 454.049199 
L 587.860453 495.311625 
L 592.939535 502.003484 
L 598.018618 503.21032 
L 603.097688 503.409057 
L 608.176771 503.305437 
L 613.255841 500.898766 
L 618.334912 497.298445 
L 623.413994 494.008393 
L 628.493065 490.932776 
L 633.572147 488.027281 
L 638.65123 485.268557 
L 643.730288 483.352726 
L 648.809383 481.765375 
L 653.888441 480.193193 
L 658.967524 478.506548 
L 664.046594 476.464463 
L 669.125677 474.171549 
L 674.204747 471.711776 
L 679.283842 469.144164 
L 684.362889 466.509916 
L 689.441983 463.838702 
L 694.521053 461.1507 
L 699.600124 458.455197 
L 704.679194 458.787028 
L 709.758289 459.373318 
" clip-path="url(#p4dce7430da)" style="fill: none; stroke: #0000ff; stroke-opacity: 0.5; stroke-width: 2; stroke-linecap: square"/>
   </g>
   <g id="line2d_88">
    <path d="M 471.041711 424.233849 
L 476.120787 424.270547 
L 481.199863 424.057139 
L 486.278939 423.663119 
L 491.358016 423.140485 
L 496.437091 422.528704 
L 501.516167 421.857975 
L 506.595244 421.151166 
L 511.67432 420.42468 
L 516.753394 419.689644 
L 521.83247 418.952024 
L 526.911547 418.21254 
L 531.990623 417.465239 
L 537.0697 416.694176 
L 542.148776 415.864156 
L 547.227853 414.890274 
L 552.306929 413.497453 
L 557.386 409.788887 
L 562.465076 401.361483 
L 567.544153 387.136541 
L 572.623229 320.225268 
L 577.7023 333.959016 
L 582.781382 353.442504 
L 587.860453 372.127786 
L 592.939535 403.617275 
L 598.018618 478.498512 
L 603.097688 500.765833 
L 608.176771 503.472511 
L 613.255841 501.941246 
L 618.334912 499.383718 
L 623.413994 496.935871 
L 628.493065 494.445774 
L 633.572147 491.911758 
L 638.65123 489.36468 
L 643.730288 487.542832 
L 648.809383 485.960719 
L 653.888441 484.341434 
L 658.967524 482.579098 
L 664.046594 480.448286 
L 669.125677 478.062847 
L 674.204747 475.511648 
L 679.283842 472.856275 
L 684.362889 470.139353 
L 689.441983 467.390713 
L 694.521053 464.630988 
L 699.600124 461.869162 
L 704.679194 462.139167 
L 709.758289 462.667679 
" clip-path="url(#p4dce7430da)" style="fill: none; stroke: #00ffff; stroke-opacity: 0.5; stroke-width: 2; stroke-linecap: square"/>
   </g>
   <g id="line2d_89">
    <path d="M 471.041711 424.233849 
L 476.120787 424.270484 
L 481.199863 424.05709 
L 486.278939 423.66295 
L 491.358016 423.14015 
L 496.437091 422.52811 
L 501.516167 421.857072 
L 506.595244 421.149655 
L 511.67432 420.422517 
L 516.753394 419.686694 
L 521.83247 418.948131 
L 526.911547 418.207516 
L 531.990623 417.458883 
L 537.0697 416.686286 
L 542.148776 415.854219 
L 547.227853 414.877589 
L 552.306929 413.479976 
L 557.386 409.758765 
L 562.465076 401.324674 
L 567.544153 386.989322 
L 572.623229 320.203636 
L 577.7023 334.037158 
L 582.781382 353.524115 
L 587.860453 372.20574 
L 592.939535 403.873079 
L 598.018618 478.726088 
L 603.097688 500.794816 
L 608.176771 503.476364 
L 613.255841 501.939789 
L 618.334912 499.379123 
L 623.413994 496.929497 
L 628.493065 494.437711 
L 633.572147 491.903015 
L 638.65123 489.355329 
L 643.730288 487.533142 
L 648.809383 485.951243 
L 653.888441 484.332092 
L 658.967524 482.56997 
L 664.046594 480.43949 
L 669.125677 478.054264 
L 674.204747 475.50328 
L 679.283842 472.848149 
L 684.362889 470.131468 
L 689.441983 467.382909 
L 694.521053 464.623184 
L 699.600124 461.861572 
L 704.679194 462.131809 
L 709.758289 462.66034 
" clip-path="url(#p4dce7430da)" style="fill: none; stroke-dasharray: 7.4,3.2; stroke-dashoffset: 0; stroke: #ff00ff; stroke-opacity: 0.5; stroke-width: 2"/>
   </g>
   <g id="patch_25">
    <path d="M 459.105882 512.64 
L 459.105882 311.04 
" style="fill: none; stroke: #000000; stroke-width: 0.8; stroke-linejoin: miter; stroke-linecap: square"/>
   </g>
   <g id="patch_26">
    <path d="M 721.694118 512.64 
L 721.694118 311.04 
" style="fill: none; stroke: #000000; stroke-width: 0.8; stroke-linejoin: miter; stroke-linecap: square"/>
   </g>
   <g id="patch_27">
    <path d="M 459.105882 512.64 
L 721.694118 512.64 
" style="fill: none; stroke: #000000; stroke-width: 0.8; stroke-linejoin: miter; stroke-linecap: square"/>
   </g>
   <g id="patch_28">
    <path d="M 459.105882 311.04 
L 721.694118 311.04 
" style="fill: none; stroke: #000000; stroke-width: 0.8; stroke-linejoin: miter; stroke-linecap: square"/>
   </g>
  </g>
  <g id="axes_6">
   <g id="patch_29">
    <path d="M 774.211765 512.64 
L 1036.8 512.64 
L 1036.8 311.04 
L 774.211765 311.04 
z
" style="fill: #ffffff"/>
   </g>
   <g id="matplotlib.axis_11">
    <g id="xtick_31">
     <g id="line2d_90">
      <g>
       <use xlink:href="#m561a97441f" x="786.147594" y="512.64" style="stroke: #000000; stroke-width: 0.8"/>
      </g>
     </g>
     <g id="text_69">
      <!-- 0 -->
      <g transform="translate(781.693844 530.277812) scale(0.14 -0.14)">
       <use xlink:href="#DejaVuSans-30"/>
      </g>
     </g>
    </g>
    <g id="xtick_32">
     <g id="line2d_91">
      <g>
       <use xlink:href="#m561a97441f" x="835.880212" y="512.64" style="stroke: #000000; stroke-width: 0.8"/>
      </g>
     </g>
     <g id="text_70">
      <!-- 1 -->
      <g transform="translate(831.426462 530.277812) scale(0.14 -0.14)">
       <use xlink:href="#DejaVuSans-31"/>
      </g>
     </g>
    </g>
    <g id="xtick_33">
     <g id="line2d_92">
      <g>
       <use xlink:href="#m561a97441f" x="885.61283" y="512.64" style="stroke: #000000; stroke-width: 0.8"/>
      </g>
     </g>
     <g id="text_71">
      <!-- 2 -->
      <g transform="translate(881.15908 530.277812) scale(0.14 -0.14)">
       <use xlink:href="#DejaVuSans-32"/>
      </g>
     </g>
    </g>
    <g id="xtick_34">
     <g id="line2d_93">
      <g>
       <use xlink:href="#m561a97441f" x="935.345449" y="512.64" style="stroke: #000000; stroke-width: 0.8"/>
      </g>
     </g>
     <g id="text_72">
      <!-- 3 -->
      <g transform="translate(930.891699 530.277812) scale(0.14 -0.14)">
       <use xlink:href="#DejaVuSans-33"/>
      </g>
     </g>
    </g>
    <g id="xtick_35">
     <g id="line2d_94">
      <g>
       <use xlink:href="#m561a97441f" x="985.078067" y="512.64" style="stroke: #000000; stroke-width: 0.8"/>
      </g>
     </g>
     <g id="text_73">
      <!-- 4 -->
      <g transform="translate(980.624317 530.277812) scale(0.14 -0.14)">
       <use xlink:href="#DejaVuSans-34"/>
      </g>
     </g>
    </g>
    <g id="xtick_36">
     <g id="line2d_95">
      <g>
       <use xlink:href="#m561a97441f" x="1034.810685" y="512.64" style="stroke: #000000; stroke-width: 0.8"/>
      </g>
     </g>
     <g id="text_74">
      <!-- 5 -->
      <g transform="translate(1030.356935 530.277812) scale(0.14 -0.14)">
       <use xlink:href="#DejaVuSans-35"/>
      </g>
     </g>
    </g>
   </g>
   <g id="matplotlib.axis_12">
    <g id="ytick_27">
     <g id="line2d_96">
      <g>
       <use xlink:href="#m0da113dfc2" x="774.211765" y="500.816774" style="stroke: #000000; stroke-width: 0.8"/>
      </g>
     </g>
     <g id="text_75">
      <!-- 125 -->
      <g transform="translate(728.757702 506.13568) scale(0.14 -0.14)">
       <use xlink:href="#DejaVuSans-2212"/>
       <use xlink:href="#DejaVuSans-31" x="83.789062"/>
       <use xlink:href="#DejaVuSans-32" x="147.412109"/>
       <use xlink:href="#DejaVuSans-35" x="211.035156"/>
      </g>
     </g>
    </g>
    <g id="ytick_28">
     <g id="line2d_97">
      <g>
       <use xlink:href="#m0da113dfc2" x="774.211765" y="471.231363" style="stroke: #000000; stroke-width: 0.8"/>
      </g>
     </g>
     <g id="text_76">
      <!-- 100 -->
      <g transform="translate(728.757702 476.550269) scale(0.14 -0.14)">
       <use xlink:href="#DejaVuSans-2212"/>
       <use xlink:href="#DejaVuSans-31" x="83.789062"/>
       <use xlink:href="#DejaVuSans-30" x="147.412109"/>
       <use xlink:href="#DejaVuSans-30" x="211.035156"/>
      </g>
     </g>
    </g>
    <g id="ytick_29">
     <g id="line2d_98">
      <g>
       <use xlink:href="#m0da113dfc2" x="774.211765" y="441.645952" style="stroke: #000000; stroke-width: 0.8"/>
      </g>
     </g>
     <g id="text_77">
      <!-- 75 -->
      <g transform="translate(737.665202 446.964858) scale(0.14 -0.14)">
       <use xlink:href="#DejaVuSans-2212"/>
       <use xlink:href="#DejaVuSans-37" x="83.789062"/>
       <use xlink:href="#DejaVuSans-35" x="147.412109"/>
      </g>
     </g>
    </g>
    <g id="ytick_30">
     <g id="line2d_99">
      <g>
       <use xlink:href="#m0da113dfc2" x="774.211765" y="412.060541" style="stroke: #000000; stroke-width: 0.8"/>
      </g>
     </g>
     <g id="text_78">
      <!-- 50 -->
      <g transform="translate(737.665202 417.379447) scale(0.14 -0.14)">
       <use xlink:href="#DejaVuSans-2212"/>
       <use xlink:href="#DejaVuSans-35" x="83.789062"/>
       <use xlink:href="#DejaVuSans-30" x="147.412109"/>
      </g>
     </g>
    </g>
    <g id="ytick_31">
     <g id="line2d_100">
      <g>
       <use xlink:href="#m0da113dfc2" x="774.211765" y="382.47513" style="stroke: #000000; stroke-width: 0.8"/>
      </g>
     </g>
     <g id="text_79">
      <!-- 25 -->
      <g transform="translate(737.665202 387.794036) scale(0.14 -0.14)">
       <use xlink:href="#DejaVuSans-2212"/>
       <use xlink:href="#DejaVuSans-32" x="83.789062"/>
       <use xlink:href="#DejaVuSans-35" x="147.412109"/>
      </g>
     </g>
    </g>
    <g id="ytick_32">
     <g id="line2d_101">
      <g>
       <use xlink:href="#m0da113dfc2" x="774.211765" y="352.889719" style="stroke: #000000; stroke-width: 0.8"/>
      </g>
     </g>
     <g id="text_80">
      <!-- 0 -->
      <g transform="translate(758.304265 358.208625) scale(0.14 -0.14)">
       <use xlink:href="#DejaVuSans-30"/>
      </g>
     </g>
    </g>
    <g id="ytick_33">
     <g id="line2d_102">
      <g>
       <use xlink:href="#m0da113dfc2" x="774.211765" y="323.304308" style="stroke: #000000; stroke-width: 0.8"/>
      </g>
     </g>
     <g id="text_81">
      <!-- 25 -->
      <g transform="translate(749.396765 328.623214) scale(0.14 -0.14)">
       <use xlink:href="#DejaVuSans-32"/>
       <use xlink:href="#DejaVuSans-35" x="63.623047"/>
      </g>
     </g>
    </g>
   </g>
   <g id="line2d_103">
    <path d="M 786.147594 423.894705 
L 791.22667 423.651588 
L 796.305746 423.148781 
L 801.384822 422.469594 
L 806.463898 421.670915 
L 811.542973 420.790639 
L 816.62205 419.853053 
L 821.701126 418.87114 
L 826.780203 417.845952 
L 831.859276 416.762954 
L 836.938353 415.57719 
L 842.017429 414.157021 
L 847.096506 411.884124 
L 852.175582 404.422443 
L 857.254659 393.445094 
L 862.333735 341.893511 
L 867.412812 325.068154 
L 872.491882 343.152167 
L 877.570959 363.038393 
L 882.650035 383.908333 
L 887.729112 442.73063 
L 892.808182 493.046017 
L 897.887265 501.712317 
L 902.966335 502.946999 
L 908.045418 502.780428 
L 913.1245 502.09919 
L 918.203571 501.114948 
L 923.282653 499.914548 
L 928.361724 498.551045 
L 933.440794 497.064289 
L 938.519877 495.485314 
L 943.598947 493.836718 
L 948.67803 492.137228 
L 953.757112 490.399473 
L 958.836171 488.62694 
L 963.915265 486.821207 
L 968.994324 484.98541 
L 974.073406 483.125035 
L 979.152477 481.445498 
L 984.231559 479.787648 
L 989.31063 478.196972 
L 994.389724 476.813966 
L 999.468771 475.580187 
L 1004.547865 474.450582 
L 1009.626936 473.392394 
L 1014.706006 472.38037 
L 1019.785077 471.697481 
L 1024.864171 471.14131 
" clip-path="url(#p73ae2aced3)" style="fill: none; stroke: #0000ff; stroke-opacity: 0.5; stroke-width: 2; stroke-linecap: square"/>
   </g>
   <g id="line2d_104">
    <path d="M 786.147594 423.894705 
L 791.22667 423.654622 
L 796.305746 423.160722 
L 801.384822 422.497858 
L 806.463898 421.72423 
L 811.542973 420.879974 
L 816.62205 419.992682 
L 821.701126 419.079853 
L 826.780203 418.151318 
L 831.859276 417.208093 
L 836.938353 416.240311 
L 842.017429 415.218315 
L 847.096506 414.054134 
L 852.175582 412.436927 
L 857.254659 408.200587 
L 862.333735 399.039506 
L 867.412812 378.133937 
L 872.491882 320.222983 
L 877.570959 336.57305 
L 882.650035 356.530364 
L 887.729112 375.428264 
L 892.808182 417.706002 
L 897.887265 487.705628 
L 902.966335 501.952374 
L 908.045418 503.476364 
L 913.1245 503.291708 
L 918.203571 502.588801 
L 923.282653 501.583802 
L 928.361724 500.354745 
L 933.440794 498.9524 
L 938.519877 497.417422 
L 943.598947 495.783137 
L 948.67803 494.076025 
L 953.757112 492.315681 
L 958.836171 490.51096 
L 963.915265 488.666747 
L 968.994324 486.789517 
L 974.073406 484.886048 
L 979.152477 483.163047 
L 984.231559 481.46184 
L 989.31063 479.828548 
L 994.389724 478.403884 
L 999.468771 477.129701 
L 1004.547865 475.961119 
L 1009.626936 474.865092 
L 1014.706006 473.8167 
L 1019.785077 473.098707 
L 1024.864171 472.508795 
" clip-path="url(#p73ae2aced3)" style="fill: none; stroke: #00ffff; stroke-opacity: 0.5; stroke-width: 2; stroke-linecap: square"/>
   </g>
   <g id="line2d_105">
    <path d="M 786.147594 423.894705 
L 791.22667 423.654662 
L 796.305746 423.160668 
L 801.384822 422.497641 
L 806.463898 421.7239 
L 811.542973 420.879351 
L 816.62205 419.991662 
L 821.701126 419.078259 
L 826.780203 418.149115 
L 831.859276 417.205227 
L 836.938353 416.236474 
L 842.017429 415.213584 
L 847.096506 414.048645 
L 852.175582 412.431938 
L 857.254659 408.214347 
L 862.333735 399.055636 
L 867.412812 378.18357 
L 872.491882 320.203636 
L 877.570959 336.53981 
L 882.650035 356.492406 
L 887.729112 375.390005 
L 892.808182 417.570589 
L 897.887265 487.649722 
L 902.966335 501.946704 
L 908.045418 503.475091 
L 913.1245 503.290778 
L 918.203571 502.58788 
L 923.282653 501.582583 
L 928.361724 500.353346 
L 933.440794 498.950702 
L 938.519877 497.415481 
L 943.598947 495.780852 
L 948.67803 494.073407 
L 953.757112 492.312828 
L 958.836171 490.507791 
L 963.915265 488.663353 
L 968.994324 486.785959 
L 974.073406 484.88241 
L 979.152477 483.159218 
L 984.231559 481.457877 
L 989.31063 479.824458 
L 994.389724 478.399532 
L 999.468771 477.125277 
L 1004.547865 475.956595 
L 1009.626936 474.860261 
L 1014.706006 473.811861 
L 1019.785077 473.093777 
L 1024.864171 472.503812 
" clip-path="url(#p73ae2aced3)" style="fill: none; stroke-dasharray: 7.4,3.2; stroke-dashoffset: 0; stroke: #ff00ff; stroke-opacity: 0.5; stroke-width: 2"/>
   </g>
   <g id="patch_30">
    <path d="M 774.211765 512.64 
L 774.211765 311.04 
" style="fill: none; stroke: #000000; stroke-width: 0.8; stroke-linejoin: miter; stroke-linecap: square"/>
   </g>
   <g id="patch_31">
    <path d="M 1036.8 512.64 
L 1036.8 311.04 
" style="fill: none; stroke: #000000; stroke-width: 0.8; stroke-linejoin: miter; stroke-linecap: square"/>
   </g>
   <g id="patch_32">
    <path d="M 774.211765 512.64 
L 1036.8 512.64 
" style="fill: none; stroke: #000000; stroke-width: 0.8; stroke-linejoin: miter; stroke-linecap: square"/>
   </g>
   <g id="patch_33">
    <path d="M 774.211765 311.04 
L 1036.8 311.04 
" style="fill: none; stroke: #000000; stroke-width: 0.8; stroke-linejoin: miter; stroke-linecap: square"/>
   </g>
  </g>
 </g>
 <defs>
  <clipPath id="p104e8b724e">
   <rect x="144" y="69.12" width="262.588235" height="201.6"/>
  </clipPath>
  <clipPath id="pfb145fdf21">
   <rect x="459.105882" y="69.12" width="262.588235" height="201.6"/>
  </clipPath>
  <clipPath id="p0b86b658a4">
   <rect x="774.211765" y="69.12" width="262.588235" height="201.6"/>
  </clipPath>
  <clipPath id="p1a40e0d0f3">
   <rect x="144" y="311.04" width="262.588235" height="201.6"/>
  </clipPath>
  <clipPath id="p4dce7430da">
   <rect x="459.105882" y="311.04" width="262.588235" height="201.6"/>
  </clipPath>
  <clipPath id="p73ae2aced3">
   <rect x="774.211765" y="311.04" width="262.588235" height="201.6"/>
  </clipPath>
 </defs>
</svg>
