<?xml version="1.0" encoding="utf-8" standalone="no"?>
<!DOCTYPE svg PUBLIC "-//W3C//DTD SVG 1.1//EN"
  "http://www.w3.org/Graphics/SVG/1.1/DTD/svg11.dtd">
<svg xmlns:xlink="http://www.w3.org/1999/xlink" width="360pt" height="576pt" viewBox="0 0 360 576" xmlns="http://www.w3.org/2000/svg" version="1.1">
 <metadata>
  <rdf:RDF xmlns:dc="http://purl.org/dc/elements/1.1/" xmlns:cc="http://creativecommons.org/ns#" xmlns:rdf="http://www.w3.org/1999/02/22-rdf-syntax-ns#">
   <cc:Work>
    <dc:type rdf:resource="http://purl.org/dc/dcmitype/StillImage"/>
    <dc:date>2024-06-27T15:35:24.801162</dc:date>
    <dc:format>image/svg+xml</dc:format>
    <dc:creator>
     <cc:Agent>
      <dc:title>Matplotlib v3.8.3, https://matplotlib.org/</dc:title>
     </cc:Agent>
    </dc:creator>
   </cc:Work>
  </rdf:RDF>
 </metadata>
 <defs>
  <style type="text/css">*{stroke-linejoin: round; stroke-linecap: butt}</style>
 </defs>
 <g id="figure_1">
  <g id="patch_1">
   <path d="M 0 576 
L 360 576 
L 360 0 
L 0 0 
z
" style="fill: #ffffff"/>
  </g>
  <g id="axes_1">
   <g id="patch_2">
    <path d="M 70.85 160.386667 
L 331.605 160.386667 
L 331.605 20.52 
L 70.85 20.52 
z
" style="fill: #ffffff"/>
   </g>
   <g id="matplotlib.axis_1">
    <g id="xtick_1">
     <g id="line2d_1">
      <defs>
       <path id="mea96dc5927" d="M 0 0 
L 0 3.5 
" style="stroke: #000000; stroke-width: 0.8"/>
      </defs>
      <g>
       <use xlink:href="#mea96dc5927" x="70.85" y="160.386667" style="stroke: #000000; stroke-width: 0.8"/>
      </g>
     </g>
     <g id="text_1">
      <!-- 0 -->
      <g transform="translate(66.39625 178.024479) scale(0.14 -0.14)">
       <defs>
        <path id="DejaVuSans-30" d="M 2034 4250 
Q 1547 4250 1301 3770 
Q 1056 3291 1056 2328 
Q 1056 1369 1301 889 
Q 1547 409 2034 409 
Q 2525 409 2770 889 
Q 3016 1369 3016 2328 
Q 3016 3291 2770 3770 
Q 2525 4250 2034 4250 
z
M 2034 4750 
Q 2819 4750 3233 4129 
Q 3647 3509 3647 2328 
Q 3647 1150 3233 529 
Q 2819 -91 2034 -91 
Q 1250 -91 836 529 
Q 422 1150 422 2328 
Q 422 3509 836 4129 
Q 1250 4750 2034 4750 
z
" transform="scale(0.015625)"/>
       </defs>
       <use xlink:href="#DejaVuSans-30"/>
      </g>
     </g>
    </g>
    <g id="xtick_2">
     <g id="line2d_2">
      <g>
       <use xlink:href="#mea96dc5927" x="136.03875" y="160.386667" style="stroke: #000000; stroke-width: 0.8"/>
      </g>
     </g>
     <g id="text_2">
      <!-- 50 -->
      <g transform="translate(127.13125 178.024479) scale(0.14 -0.14)">
       <defs>
        <path id="DejaVuSans-35" d="M 691 4666 
L 3169 4666 
L 3169 4134 
L 1269 4134 
L 1269 2991 
Q 1406 3038 1543 3061 
Q 1681 3084 1819 3084 
Q 2600 3084 3056 2656 
Q 3513 2228 3513 1497 
Q 3513 744 3044 326 
Q 2575 -91 1722 -91 
Q 1428 -91 1123 -41 
Q 819 9 494 109 
L 494 744 
Q 775 591 1075 516 
Q 1375 441 1709 441 
Q 2250 441 2565 725 
Q 2881 1009 2881 1497 
Q 2881 1984 2565 2268 
Q 2250 2553 1709 2553 
Q 1456 2553 1204 2497 
Q 953 2441 691 2322 
L 691 4666 
z
" transform="scale(0.015625)"/>
       </defs>
       <use xlink:href="#DejaVuSans-35"/>
       <use xlink:href="#DejaVuSans-30" x="63.623047"/>
      </g>
     </g>
    </g>
    <g id="xtick_3">
     <g id="line2d_3">
      <g>
       <use xlink:href="#mea96dc5927" x="201.2275" y="160.386667" style="stroke: #000000; stroke-width: 0.8"/>
      </g>
     </g>
     <g id="text_3">
      <!-- 100 -->
      <g transform="translate(187.86625 178.024479) scale(0.14 -0.14)">
       <defs>
        <path id="DejaVuSans-31" d="M 794 531 
L 1825 531 
L 1825 4091 
L 703 3866 
L 703 4441 
L 1819 4666 
L 2450 4666 
L 2450 531 
L 3481 531 
L 3481 0 
L 794 0 
L 794 531 
z
" transform="scale(0.015625)"/>
       </defs>
       <use xlink:href="#DejaVuSans-31"/>
       <use xlink:href="#DejaVuSans-30" x="63.623047"/>
       <use xlink:href="#DejaVuSans-30" x="127.246094"/>
      </g>
     </g>
    </g>
    <g id="xtick_4">
     <g id="line2d_4">
      <g>
       <use xlink:href="#mea96dc5927" x="266.41625" y="160.386667" style="stroke: #000000; stroke-width: 0.8"/>
      </g>
     </g>
     <g id="text_4">
      <!-- 150 -->
      <g transform="translate(253.055 178.024479) scale(0.14 -0.14)">
       <use xlink:href="#DejaVuSans-31"/>
       <use xlink:href="#DejaVuSans-35" x="63.623047"/>
       <use xlink:href="#DejaVuSans-30" x="127.246094"/>
      </g>
     </g>
    </g>
    <g id="xtick_5">
     <g id="line2d_5">
      <g>
       <use xlink:href="#mea96dc5927" x="331.605" y="160.386667" style="stroke: #000000; stroke-width: 0.8"/>
      </g>
     </g>
     <g id="text_5">
      <!-- 200 -->
      <g transform="translate(318.24375 178.024479) scale(0.14 -0.14)">
       <defs>
        <path id="DejaVuSans-32" d="M 1228 531 
L 3431 531 
L 3431 0 
L 469 0 
L 469 531 
Q 828 903 1448 1529 
Q 2069 2156 2228 2338 
Q 2531 2678 2651 2914 
Q 2772 3150 2772 3378 
Q 2772 3750 2511 3984 
Q 2250 4219 1831 4219 
Q 1534 4219 1204 4116 
Q 875 4013 500 3803 
L 500 4441 
Q 881 4594 1212 4672 
Q 1544 4750 1819 4750 
Q 2544 4750 2975 4387 
Q 3406 4025 3406 3419 
Q 3406 3131 3298 2873 
Q 3191 2616 2906 2266 
Q 2828 2175 2409 1742 
Q 1991 1309 1228 531 
z
" transform="scale(0.015625)"/>
       </defs>
       <use xlink:href="#DejaVuSans-32"/>
       <use xlink:href="#DejaVuSans-30" x="63.623047"/>
       <use xlink:href="#DejaVuSans-30" x="127.246094"/>
      </g>
     </g>
    </g>
   </g>
   <g id="matplotlib.axis_2">
    <g id="ytick_1">
     <g id="line2d_6">
      <defs>
       <path id="m9096457ff7" d="M 0 0 
L -3.5 0 
" style="stroke: #000000; stroke-width: 0.8"/>
      </defs>
      <g>
       <use xlink:href="#m9096457ff7" x="70.85" y="160.386667" style="stroke: #000000; stroke-width: 0.8"/>
      </g>
     </g>
     <g id="text_6">
      <!-- 0.0 -->
      <g transform="translate(41.585625 165.705573) scale(0.14 -0.14)">
       <defs>
        <path id="DejaVuSans-2e" d="M 684 794 
L 1344 794 
L 1344 0 
L 684 0 
L 684 794 
z
" transform="scale(0.015625)"/>
       </defs>
       <use xlink:href="#DejaVuSans-30"/>
       <use xlink:href="#DejaVuSans-2e" x="63.623047"/>
       <use xlink:href="#DejaVuSans-30" x="95.410156"/>
      </g>
     </g>
    </g>
    <g id="ytick_2">
     <g id="line2d_7">
      <g>
       <use xlink:href="#m9096457ff7" x="70.85" y="125.42" style="stroke: #000000; stroke-width: 0.8"/>
      </g>
     </g>
     <g id="text_7">
      <!-- 2.5 -->
      <g transform="translate(41.585625 130.738906) scale(0.14 -0.14)">
       <use xlink:href="#DejaVuSans-32"/>
       <use xlink:href="#DejaVuSans-2e" x="63.623047"/>
       <use xlink:href="#DejaVuSans-35" x="95.410156"/>
      </g>
     </g>
    </g>
    <g id="ytick_3">
     <g id="line2d_8">
      <g>
       <use xlink:href="#m9096457ff7" x="70.85" y="90.453333" style="stroke: #000000; stroke-width: 0.8"/>
      </g>
     </g>
     <g id="text_8">
      <!-- 5.0 -->
      <g transform="translate(41.585625 95.77224) scale(0.14 -0.14)">
       <use xlink:href="#DejaVuSans-35"/>
       <use xlink:href="#DejaVuSans-2e" x="63.623047"/>
       <use xlink:href="#DejaVuSans-30" x="95.410156"/>
      </g>
     </g>
    </g>
    <g id="ytick_4">
     <g id="line2d_9">
      <g>
       <use xlink:href="#m9096457ff7" x="70.85" y="55.486667" style="stroke: #000000; stroke-width: 0.8"/>
      </g>
     </g>
     <g id="text_9">
      <!-- 7.5 -->
      <g transform="translate(41.585625 60.805573) scale(0.14 -0.14)">
       <defs>
        <path id="DejaVuSans-37" d="M 525 4666 
L 3525 4666 
L 3525 4397 
L 1831 0 
L 1172 0 
L 2766 4134 
L 525 4134 
L 525 4666 
z
" transform="scale(0.015625)"/>
       </defs>
       <use xlink:href="#DejaVuSans-37"/>
       <use xlink:href="#DejaVuSans-2e" x="63.623047"/>
       <use xlink:href="#DejaVuSans-35" x="95.410156"/>
      </g>
     </g>
    </g>
    <g id="ytick_5">
     <g id="line2d_10">
      <g>
       <use xlink:href="#m9096457ff7" x="70.85" y="20.52" style="stroke: #000000; stroke-width: 0.8"/>
      </g>
     </g>
     <g id="text_10">
      <!-- 10.0 -->
      <g transform="translate(32.678125 25.838906) scale(0.14 -0.14)">
       <use xlink:href="#DejaVuSans-31"/>
       <use xlink:href="#DejaVuSans-30" x="63.623047"/>
       <use xlink:href="#DejaVuSans-2e" x="127.246094"/>
       <use xlink:href="#DejaVuSans-30" x="159.033203"/>
      </g>
     </g>
    </g>
    <g id="text_11">
     <!-- Normalized Loss -->
     <g transform="translate(25.766563 147.72974) rotate(-90) scale(0.14 -0.14)">
      <defs>
       <path id="DejaVuSans-4e" d="M 628 4666 
L 1478 4666 
L 3547 763 
L 3547 4666 
L 4159 4666 
L 4159 0 
L 3309 0 
L 1241 3903 
L 1241 0 
L 628 0 
L 628 4666 
z
" transform="scale(0.015625)"/>
       <path id="DejaVuSans-6f" d="M 1959 3097 
Q 1497 3097 1228 2736 
Q 959 2375 959 1747 
Q 959 1119 1226 758 
Q 1494 397 1959 397 
Q 2419 397 2687 759 
Q 2956 1122 2956 1747 
Q 2956 2369 2687 2733 
Q 2419 3097 1959 3097 
z
M 1959 3584 
Q 2709 3584 3137 3096 
Q 3566 2609 3566 1747 
Q 3566 888 3137 398 
Q 2709 -91 1959 -91 
Q 1206 -91 779 398 
Q 353 888 353 1747 
Q 353 2609 779 3096 
Q 1206 3584 1959 3584 
z
" transform="scale(0.015625)"/>
       <path id="DejaVuSans-72" d="M 2631 2963 
Q 2534 3019 2420 3045 
Q 2306 3072 2169 3072 
Q 1681 3072 1420 2755 
Q 1159 2438 1159 1844 
L 1159 0 
L 581 0 
L 581 3500 
L 1159 3500 
L 1159 2956 
Q 1341 3275 1631 3429 
Q 1922 3584 2338 3584 
Q 2397 3584 2469 3576 
Q 2541 3569 2628 3553 
L 2631 2963 
z
" transform="scale(0.015625)"/>
       <path id="DejaVuSans-6d" d="M 3328 2828 
Q 3544 3216 3844 3400 
Q 4144 3584 4550 3584 
Q 5097 3584 5394 3201 
Q 5691 2819 5691 2113 
L 5691 0 
L 5113 0 
L 5113 2094 
Q 5113 2597 4934 2840 
Q 4756 3084 4391 3084 
Q 3944 3084 3684 2787 
Q 3425 2491 3425 1978 
L 3425 0 
L 2847 0 
L 2847 2094 
Q 2847 2600 2669 2842 
Q 2491 3084 2119 3084 
Q 1678 3084 1418 2786 
Q 1159 2488 1159 1978 
L 1159 0 
L 581 0 
L 581 3500 
L 1159 3500 
L 1159 2956 
Q 1356 3278 1631 3431 
Q 1906 3584 2284 3584 
Q 2666 3584 2933 3390 
Q 3200 3197 3328 2828 
z
" transform="scale(0.015625)"/>
       <path id="DejaVuSans-61" d="M 2194 1759 
Q 1497 1759 1228 1600 
Q 959 1441 959 1056 
Q 959 750 1161 570 
Q 1363 391 1709 391 
Q 2188 391 2477 730 
Q 2766 1069 2766 1631 
L 2766 1759 
L 2194 1759 
z
M 3341 1997 
L 3341 0 
L 2766 0 
L 2766 531 
Q 2569 213 2275 61 
Q 1981 -91 1556 -91 
Q 1019 -91 701 211 
Q 384 513 384 1019 
Q 384 1609 779 1909 
Q 1175 2209 1959 2209 
L 2766 2209 
L 2766 2266 
Q 2766 2663 2505 2880 
Q 2244 3097 1772 3097 
Q 1472 3097 1187 3025 
Q 903 2953 641 2809 
L 641 3341 
Q 956 3463 1253 3523 
Q 1550 3584 1831 3584 
Q 2591 3584 2966 3190 
Q 3341 2797 3341 1997 
z
" transform="scale(0.015625)"/>
       <path id="DejaVuSans-6c" d="M 603 4863 
L 1178 4863 
L 1178 0 
L 603 0 
L 603 4863 
z
" transform="scale(0.015625)"/>
       <path id="DejaVuSans-69" d="M 603 3500 
L 1178 3500 
L 1178 0 
L 603 0 
L 603 3500 
z
M 603 4863 
L 1178 4863 
L 1178 4134 
L 603 4134 
L 603 4863 
z
" transform="scale(0.015625)"/>
       <path id="DejaVuSans-7a" d="M 353 3500 
L 3084 3500 
L 3084 2975 
L 922 459 
L 3084 459 
L 3084 0 
L 275 0 
L 275 525 
L 2438 3041 
L 353 3041 
L 353 3500 
z
" transform="scale(0.015625)"/>
       <path id="DejaVuSans-65" d="M 3597 1894 
L 3597 1613 
L 953 1613 
Q 991 1019 1311 708 
Q 1631 397 2203 397 
Q 2534 397 2845 478 
Q 3156 559 3463 722 
L 3463 178 
Q 3153 47 2828 -22 
Q 2503 -91 2169 -91 
Q 1331 -91 842 396 
Q 353 884 353 1716 
Q 353 2575 817 3079 
Q 1281 3584 2069 3584 
Q 2775 3584 3186 3129 
Q 3597 2675 3597 1894 
z
M 3022 2063 
Q 3016 2534 2758 2815 
Q 2500 3097 2075 3097 
Q 1594 3097 1305 2825 
Q 1016 2553 972 2059 
L 3022 2063 
z
" transform="scale(0.015625)"/>
       <path id="DejaVuSans-64" d="M 2906 2969 
L 2906 4863 
L 3481 4863 
L 3481 0 
L 2906 0 
L 2906 525 
Q 2725 213 2448 61 
Q 2172 -91 1784 -91 
Q 1150 -91 751 415 
Q 353 922 353 1747 
Q 353 2572 751 3078 
Q 1150 3584 1784 3584 
Q 2172 3584 2448 3432 
Q 2725 3281 2906 2969 
z
M 947 1747 
Q 947 1113 1208 752 
Q 1469 391 1925 391 
Q 2381 391 2643 752 
Q 2906 1113 2906 1747 
Q 2906 2381 2643 2742 
Q 2381 3103 1925 3103 
Q 1469 3103 1208 2742 
Q 947 2381 947 1747 
z
" transform="scale(0.015625)"/>
       <path id="DejaVuSans-20" transform="scale(0.015625)"/>
       <path id="DejaVuSans-4c" d="M 628 4666 
L 1259 4666 
L 1259 531 
L 3531 531 
L 3531 0 
L 628 0 
L 628 4666 
z
" transform="scale(0.015625)"/>
       <path id="DejaVuSans-73" d="M 2834 3397 
L 2834 2853 
Q 2591 2978 2328 3040 
Q 2066 3103 1784 3103 
Q 1356 3103 1142 2972 
Q 928 2841 928 2578 
Q 928 2378 1081 2264 
Q 1234 2150 1697 2047 
L 1894 2003 
Q 2506 1872 2764 1633 
Q 3022 1394 3022 966 
Q 3022 478 2636 193 
Q 2250 -91 1575 -91 
Q 1294 -91 989 -36 
Q 684 19 347 128 
L 347 722 
Q 666 556 975 473 
Q 1284 391 1588 391 
Q 1994 391 2212 530 
Q 2431 669 2431 922 
Q 2431 1156 2273 1281 
Q 2116 1406 1581 1522 
L 1381 1569 
Q 847 1681 609 1914 
Q 372 2147 372 2553 
Q 372 3047 722 3315 
Q 1072 3584 1716 3584 
Q 2034 3584 2315 3537 
Q 2597 3491 2834 3397 
z
" transform="scale(0.015625)"/>
      </defs>
      <use xlink:href="#DejaVuSans-4e"/>
      <use xlink:href="#DejaVuSans-6f" x="74.804688"/>
      <use xlink:href="#DejaVuSans-72" x="135.986328"/>
      <use xlink:href="#DejaVuSans-6d" x="175.349609"/>
      <use xlink:href="#DejaVuSans-61" x="272.761719"/>
      <use xlink:href="#DejaVuSans-6c" x="334.041016"/>
      <use xlink:href="#DejaVuSans-69" x="361.824219"/>
      <use xlink:href="#DejaVuSans-7a" x="389.607422"/>
      <use xlink:href="#DejaVuSans-65" x="442.097656"/>
      <use xlink:href="#DejaVuSans-64" x="503.621094"/>
      <use xlink:href="#DejaVuSans-20" x="567.097656"/>
      <use xlink:href="#DejaVuSans-4c" x="598.884766"/>
      <use xlink:href="#DejaVuSans-6f" x="652.847656"/>
      <use xlink:href="#DejaVuSans-73" x="714.029297"/>
      <use xlink:href="#DejaVuSans-73" x="766.128906"/>
     </g>
    </g>
   </g>
   <g id="line2d_11">
    <path d="M 70.85 80.53205 
L 73.45755 89.933363 
L 76.0651 98.506488 
L 78.67265 106.43666 
L 81.2802 113.83373 
L 83.88775 120.478199 
L 87.799075 129.307911 
L 91.7104 137.721344 
L 94.31795 142.642948 
L 96.9255 147.308478 
L 98.229275 149.466767 
L 99.53305 151.322886 
L 100.836825 152.777856 
L 102.1406 153.925078 
L 103.444375 154.755353 
L 104.74815 155.248741 
L 106.051925 155.490789 
L 111.267025 156.059829 
L 113.874575 156.623887 
L 117.7859 157.565943 
L 120.39345 157.889664 
L 129.519875 158.275427 
L 136.03875 158.896396 
L 139.950075 158.983612 
L 147.772725 159.000951 
L 169.9369 159.532383 
L 207.746375 159.969417 
L 248.1634 160.223593 
L 306.833275 160.356641 
L 330.301225 160.373056 
L 330.301225 160.373056 
" clip-path="url(#pa285210a74)" style="fill: none; stroke: #ff0000; stroke-opacity: 0.8; stroke-width: 2; stroke-linecap: square"/>
   </g>
   <g id="line2d_12">
    <path d="M 70.85 60.63158 
L 73.45755 72.788327 
L 76.0651 83.844529 
L 79.976425 98.330324 
L 82.583975 107.578602 
L 85.191525 115.79611 
L 87.799075 122.799517 
L 91.7104 132.61158 
L 93.014175 135.655389 
L 95.621725 140.917082 
L 98.229275 145.729724 
L 99.53305 147.90747 
L 100.836825 149.654895 
L 102.1406 151.044864 
L 103.444375 152.130382 
L 104.74815 152.913132 
L 106.051925 153.410915 
L 112.5708 155.061283 
L 119.089675 157.186453 
L 121.697225 157.686638 
L 124.304775 157.844159 
L 132.127425 157.778566 
L 143.8614 158.606203 
L 156.89915 158.967178 
L 168.633125 159.289364 
L 186.885975 159.642957 
L 218.176575 159.998704 
L 258.5936 160.221499 
L 326.3899 160.348033 
L 330.301225 160.351178 
L 330.301225 160.351178 
" clip-path="url(#pa285210a74)" style="fill: none; stroke: #ccff00; stroke-opacity: 0.8; stroke-width: 2; stroke-linecap: square"/>
   </g>
   <g id="line2d_13">
    <path d="M 70.85 59.468463 
L 74.761325 78.961682 
L 76.0651 84.733848 
L 77.368875 89.673151 
L 83.88775 111.729123 
L 86.4953 119.105658 
L 93.014175 135.306528 
L 94.31795 138.07445 
L 95.621725 140.438972 
L 100.836825 149.08122 
L 102.1406 150.768528 
L 103.444375 152.002714 
L 104.74815 152.926719 
L 106.051925 153.583719 
L 107.3557 153.874118 
L 111.267025 153.989982 
L 113.874575 154.437329 
L 116.482125 155.13859 
L 121.697225 156.748983 
L 124.304775 157.24362 
L 128.2161 157.538816 
L 139.950075 158.133328 
L 145.165175 158.504847 
L 152.987825 158.72149 
L 163.418025 159.072909 
L 173.848225 159.360927 
L 201.2275 159.787941 
L 235.12565 160.051669 
L 295.0993 160.245564 
L 330.301225 160.299288 
L 330.301225 160.299288 
" clip-path="url(#pa285210a74)" style="fill: none; stroke: #00ff66; stroke-opacity: 0.8; stroke-width: 2; stroke-linecap: square"/>
   </g>
   <g id="line2d_14">
    <path d="M 70.85 65.000132 
L 72.153775 71.040093 
L 74.761325 81.573057 
L 77.368875 91.019129 
L 82.583975 108.948392 
L 85.191525 117.079669 
L 89.10285 127.974219 
L 91.7104 134.788817 
L 95.621725 143.515276 
L 96.9255 146.114573 
L 98.229275 148.021543 
L 99.53305 149.436951 
L 100.836825 150.354914 
L 102.1406 150.731729 
L 103.444375 150.883657 
L 104.74815 151.178338 
L 106.051925 151.67117 
L 107.3557 152.337318 
L 109.96325 154.014744 
L 112.5708 155.708972 
L 113.874575 156.330451 
L 116.482125 157.17501 
L 119.089675 157.788486 
L 121.697225 158.207424 
L 125.60855 158.474152 
L 129.519875 158.747501 
L 136.03875 159.459919 
L 139.950075 159.545035 
L 146.46895 159.531179 
L 155.595375 159.730982 
L 166.025575 159.810804 
L 185.5822 159.977725 
L 250.77095 160.253882 
L 330.301225 160.35564 
L 330.301225 160.35564 
" clip-path="url(#pa285210a74)" style="fill: none; stroke: #0066ff; stroke-opacity: 0.8; stroke-width: 2; stroke-linecap: square"/>
   </g>
   <g id="line2d_15">
    <path d="M 70.85 67.042451 
L 74.761325 86.099987 
L 76.0651 91.780023 
L 77.368875 96.415163 
L 79.976425 103.860139 
L 83.88775 114.909198 
L 87.799075 123.744036 
L 91.7104 134.075509 
L 94.31795 139.482287 
L 96.9255 145.020501 
L 98.229275 147.291921 
L 99.53305 148.840008 
L 100.836825 149.951579 
L 102.1406 150.717188 
L 103.444375 150.950679 
L 104.74815 150.972895 
L 106.051925 151.167484 
L 107.3557 151.598519 
L 108.659475 152.232541 
L 111.267025 153.926703 
L 112.5708 154.765854 
L 113.874575 155.417108 
L 117.7859 156.873056 
L 120.39345 157.735896 
L 123.001 158.367781 
L 125.60855 158.713857 
L 130.82365 158.95239 
L 136.03875 159.335297 
L 141.25385 159.724762 
L 146.46895 159.826091 
L 160.810475 159.888942 
L 175.152 159.930306 
L 233.821875 160.090081 
L 330.301225 160.239158 
L 330.301225 160.239158 
" clip-path="url(#pa285210a74)" style="fill: none; stroke: #cc00ff; stroke-opacity: 0.8; stroke-width: 2; stroke-linecap: square"/>
   </g>
   <g id="patch_3">
    <path d="M 70.85 160.386667 
L 70.85 20.52 
" style="fill: none; stroke: #000000; stroke-width: 0.8; stroke-linejoin: miter; stroke-linecap: square"/>
   </g>
   <g id="patch_4">
    <path d="M 331.605 160.386667 
L 331.605 20.52 
" style="fill: none; stroke: #000000; stroke-width: 0.8; stroke-linejoin: miter; stroke-linecap: square"/>
   </g>
   <g id="patch_5">
    <path d="M 70.85 160.386667 
L 331.605 160.386667 
" style="fill: none; stroke: #000000; stroke-width: 0.8; stroke-linejoin: miter; stroke-linecap: square"/>
   </g>
   <g id="patch_6">
    <path d="M 70.85 20.52 
L 331.605 20.52 
" style="fill: none; stroke: #000000; stroke-width: 0.8; stroke-linejoin: miter; stroke-linecap: square"/>
   </g>
   <g id="legend_1">
    <g id="patch_7">
     <path d="M 181.238812 120.12 
L 325.518188 120.12 
Q 327.918187 120.12 327.918187 117.72 
L 327.918187 28.92 
Q 327.918187 26.52 325.518188 26.52 
L 181.238812 26.52 
Q 178.838812 26.52 178.838812 28.92 
L 178.838812 117.72 
Q 178.838812 120.12 181.238812 120.12 
z
" style="fill: #ffffff; opacity: 0.8; stroke: #cccccc; stroke-linejoin: miter"/>
    </g>
    <g id="line2d_16">
     <path d="M 183.638812 36.290625 
L 195.638812 36.290625 
L 207.638812 36.290625 
" style="fill: none; stroke: #ff0000; stroke-opacity: 0.8; stroke-width: 2; stroke-linecap: square"/>
    </g>
    <g id="text_12">
     <!-- S/R: All | All -->
     <g transform="translate(217.238812 40.490625) scale(0.12 -0.12)">
      <defs>
       <path id="DejaVuSans-53" d="M 3425 4513 
L 3425 3897 
Q 3066 4069 2747 4153 
Q 2428 4238 2131 4238 
Q 1616 4238 1336 4038 
Q 1056 3838 1056 3469 
Q 1056 3159 1242 3001 
Q 1428 2844 1947 2747 
L 2328 2669 
Q 3034 2534 3370 2195 
Q 3706 1856 3706 1288 
Q 3706 609 3251 259 
Q 2797 -91 1919 -91 
Q 1588 -91 1214 -16 
Q 841 59 441 206 
L 441 856 
Q 825 641 1194 531 
Q 1563 422 1919 422 
Q 2459 422 2753 634 
Q 3047 847 3047 1241 
Q 3047 1584 2836 1778 
Q 2625 1972 2144 2069 
L 1759 2144 
Q 1053 2284 737 2584 
Q 422 2884 422 3419 
Q 422 4038 858 4394 
Q 1294 4750 2059 4750 
Q 2388 4750 2728 4690 
Q 3069 4631 3425 4513 
z
" transform="scale(0.015625)"/>
       <path id="DejaVuSans-2f" d="M 1625 4666 
L 2156 4666 
L 531 -594 
L 0 -594 
L 1625 4666 
z
" transform="scale(0.015625)"/>
       <path id="DejaVuSans-52" d="M 2841 2188 
Q 3044 2119 3236 1894 
Q 3428 1669 3622 1275 
L 4263 0 
L 3584 0 
L 2988 1197 
Q 2756 1666 2539 1819 
Q 2322 1972 1947 1972 
L 1259 1972 
L 1259 0 
L 628 0 
L 628 4666 
L 2053 4666 
Q 2853 4666 3247 4331 
Q 3641 3997 3641 3322 
Q 3641 2881 3436 2590 
Q 3231 2300 2841 2188 
z
M 1259 4147 
L 1259 2491 
L 2053 2491 
Q 2509 2491 2742 2702 
Q 2975 2913 2975 3322 
Q 2975 3731 2742 3939 
Q 2509 4147 2053 4147 
L 1259 4147 
z
" transform="scale(0.015625)"/>
       <path id="DejaVuSans-3a" d="M 750 794 
L 1409 794 
L 1409 0 
L 750 0 
L 750 794 
z
M 750 3309 
L 1409 3309 
L 1409 2516 
L 750 2516 
L 750 3309 
z
" transform="scale(0.015625)"/>
       <path id="DejaVuSans-41" d="M 2188 4044 
L 1331 1722 
L 3047 1722 
L 2188 4044 
z
M 1831 4666 
L 2547 4666 
L 4325 0 
L 3669 0 
L 3244 1197 
L 1141 1197 
L 716 0 
L 50 0 
L 1831 4666 
z
" transform="scale(0.015625)"/>
       <path id="DejaVuSans-7c" d="M 1344 4891 
L 1344 -1509 
L 813 -1509 
L 813 4891 
L 1344 4891 
z
" transform="scale(0.015625)"/>
      </defs>
      <use xlink:href="#DejaVuSans-53"/>
      <use xlink:href="#DejaVuSans-2f" x="63.476562"/>
      <use xlink:href="#DejaVuSans-52" x="97.167969"/>
      <use xlink:href="#DejaVuSans-3a" x="163.525391"/>
      <use xlink:href="#DejaVuSans-20" x="197.216797"/>
      <use xlink:href="#DejaVuSans-41" x="229.003906"/>
      <use xlink:href="#DejaVuSans-6c" x="297.412109"/>
      <use xlink:href="#DejaVuSans-6c" x="325.195312"/>
      <use xlink:href="#DejaVuSans-20" x="352.978516"/>
      <use xlink:href="#DejaVuSans-7c" x="384.765625"/>
      <use xlink:href="#DejaVuSans-20" x="418.457031"/>
      <use xlink:href="#DejaVuSans-41" x="450.244141"/>
      <use xlink:href="#DejaVuSans-6c" x="518.652344"/>
      <use xlink:href="#DejaVuSans-6c" x="546.435547"/>
     </g>
    </g>
    <g id="line2d_17">
     <path d="M 183.638812 54.290625 
L 195.638812 54.290625 
L 207.638812 54.290625 
" style="fill: none; stroke: #ccff00; stroke-opacity: 0.8; stroke-width: 2; stroke-linecap: square"/>
    </g>
    <g id="text_13">
     <!-- S/R: All | [0, 1, -1] -->
     <g transform="translate(217.238812 58.490625) scale(0.12 -0.12)">
      <defs>
       <path id="DejaVuSans-5b" d="M 550 4863 
L 1875 4863 
L 1875 4416 
L 1125 4416 
L 1125 -397 
L 1875 -397 
L 1875 -844 
L 550 -844 
L 550 4863 
z
" transform="scale(0.015625)"/>
       <path id="DejaVuSans-2c" d="M 750 794 
L 1409 794 
L 1409 256 
L 897 -744 
L 494 -744 
L 750 256 
L 750 794 
z
" transform="scale(0.015625)"/>
       <path id="DejaVuSans-2d" d="M 313 2009 
L 1997 2009 
L 1997 1497 
L 313 1497 
L 313 2009 
z
" transform="scale(0.015625)"/>
       <path id="DejaVuSans-5d" d="M 1947 4863 
L 1947 -844 
L 622 -844 
L 622 -397 
L 1369 -397 
L 1369 4416 
L 622 4416 
L 622 4863 
L 1947 4863 
z
" transform="scale(0.015625)"/>
      </defs>
      <use xlink:href="#DejaVuSans-53"/>
      <use xlink:href="#DejaVuSans-2f" x="63.476562"/>
      <use xlink:href="#DejaVuSans-52" x="97.167969"/>
      <use xlink:href="#DejaVuSans-3a" x="163.525391"/>
      <use xlink:href="#DejaVuSans-20" x="197.216797"/>
      <use xlink:href="#DejaVuSans-41" x="229.003906"/>
      <use xlink:href="#DejaVuSans-6c" x="297.412109"/>
      <use xlink:href="#DejaVuSans-6c" x="325.195312"/>
      <use xlink:href="#DejaVuSans-20" x="352.978516"/>
      <use xlink:href="#DejaVuSans-7c" x="384.765625"/>
      <use xlink:href="#DejaVuSans-20" x="418.457031"/>
      <use xlink:href="#DejaVuSans-5b" x="450.244141"/>
      <use xlink:href="#DejaVuSans-30" x="489.257812"/>
      <use xlink:href="#DejaVuSans-2c" x="552.880859"/>
      <use xlink:href="#DejaVuSans-20" x="584.667969"/>
      <use xlink:href="#DejaVuSans-31" x="616.455078"/>
      <use xlink:href="#DejaVuSans-2c" x="680.078125"/>
      <use xlink:href="#DejaVuSans-20" x="711.865234"/>
      <use xlink:href="#DejaVuSans-2d" x="743.652344"/>
      <use xlink:href="#DejaVuSans-31" x="779.736328"/>
      <use xlink:href="#DejaVuSans-5d" x="843.359375"/>
     </g>
    </g>
    <g id="line2d_18">
     <path d="M 183.638812 72.290625 
L 195.638812 72.290625 
L 207.638812 72.290625 
" style="fill: none; stroke: #00ff66; stroke-opacity: 0.8; stroke-width: 2; stroke-linecap: square"/>
    </g>
    <g id="text_14">
     <!-- S/R: All | [0, -1] -->
     <g transform="translate(217.238812 76.490625) scale(0.12 -0.12)">
      <use xlink:href="#DejaVuSans-53"/>
      <use xlink:href="#DejaVuSans-2f" x="63.476562"/>
      <use xlink:href="#DejaVuSans-52" x="97.167969"/>
      <use xlink:href="#DejaVuSans-3a" x="163.525391"/>
      <use xlink:href="#DejaVuSans-20" x="197.216797"/>
      <use xlink:href="#DejaVuSans-41" x="229.003906"/>
      <use xlink:href="#DejaVuSans-6c" x="297.412109"/>
      <use xlink:href="#DejaVuSans-6c" x="325.195312"/>
      <use xlink:href="#DejaVuSans-20" x="352.978516"/>
      <use xlink:href="#DejaVuSans-7c" x="384.765625"/>
      <use xlink:href="#DejaVuSans-20" x="418.457031"/>
      <use xlink:href="#DejaVuSans-5b" x="450.244141"/>
      <use xlink:href="#DejaVuSans-30" x="489.257812"/>
      <use xlink:href="#DejaVuSans-2c" x="552.880859"/>
      <use xlink:href="#DejaVuSans-20" x="584.667969"/>
      <use xlink:href="#DejaVuSans-2d" x="616.455078"/>
      <use xlink:href="#DejaVuSans-31" x="652.539062"/>
      <use xlink:href="#DejaVuSans-5d" x="716.162109"/>
     </g>
    </g>
    <g id="line2d_19">
     <path d="M 183.638812 90.290625 
L 195.638812 90.290625 
L 207.638812 90.290625 
" style="fill: none; stroke: #0066ff; stroke-opacity: 0.8; stroke-width: 2; stroke-linecap: square"/>
    </g>
    <g id="text_15">
     <!-- S/R: All | [0, 1] -->
     <g transform="translate(217.238812 94.490625) scale(0.12 -0.12)">
      <use xlink:href="#DejaVuSans-53"/>
      <use xlink:href="#DejaVuSans-2f" x="63.476562"/>
      <use xlink:href="#DejaVuSans-52" x="97.167969"/>
      <use xlink:href="#DejaVuSans-3a" x="163.525391"/>
      <use xlink:href="#DejaVuSans-20" x="197.216797"/>
      <use xlink:href="#DejaVuSans-41" x="229.003906"/>
      <use xlink:href="#DejaVuSans-6c" x="297.412109"/>
      <use xlink:href="#DejaVuSans-6c" x="325.195312"/>
      <use xlink:href="#DejaVuSans-20" x="352.978516"/>
      <use xlink:href="#DejaVuSans-7c" x="384.765625"/>
      <use xlink:href="#DejaVuSans-20" x="418.457031"/>
      <use xlink:href="#DejaVuSans-5b" x="450.244141"/>
      <use xlink:href="#DejaVuSans-30" x="489.257812"/>
      <use xlink:href="#DejaVuSans-2c" x="552.880859"/>
      <use xlink:href="#DejaVuSans-20" x="584.667969"/>
      <use xlink:href="#DejaVuSans-31" x="616.455078"/>
      <use xlink:href="#DejaVuSans-5d" x="680.078125"/>
     </g>
    </g>
    <g id="line2d_20">
     <path d="M 183.638812 108.290625 
L 195.638812 108.290625 
L 207.638812 108.290625 
" style="fill: none; stroke: #cc00ff; stroke-opacity: 0.8; stroke-width: 2; stroke-linecap: square"/>
    </g>
    <g id="text_16">
     <!-- S/R: All | [0] -->
     <g transform="translate(217.238812 112.490625) scale(0.12 -0.12)">
      <use xlink:href="#DejaVuSans-53"/>
      <use xlink:href="#DejaVuSans-2f" x="63.476562"/>
      <use xlink:href="#DejaVuSans-52" x="97.167969"/>
      <use xlink:href="#DejaVuSans-3a" x="163.525391"/>
      <use xlink:href="#DejaVuSans-20" x="197.216797"/>
      <use xlink:href="#DejaVuSans-41" x="229.003906"/>
      <use xlink:href="#DejaVuSans-6c" x="297.412109"/>
      <use xlink:href="#DejaVuSans-6c" x="325.195312"/>
      <use xlink:href="#DejaVuSans-20" x="352.978516"/>
      <use xlink:href="#DejaVuSans-7c" x="384.765625"/>
      <use xlink:href="#DejaVuSans-20" x="418.457031"/>
      <use xlink:href="#DejaVuSans-5b" x="450.244141"/>
      <use xlink:href="#DejaVuSans-30" x="489.257812"/>
      <use xlink:href="#DejaVuSans-5d" x="552.880859"/>
     </g>
    </g>
   </g>
  </g>
  <g id="axes_2">
   <g id="patch_8">
    <path d="M 70.85 341.453333 
L 331.605 341.453333 
L 331.605 201.586667 
L 70.85 201.586667 
z
" style="fill: #ffffff"/>
   </g>
   <g id="matplotlib.axis_3">
    <g id="xtick_6">
     <g id="line2d_21">
      <g>
       <use xlink:href="#mea96dc5927" x="70.85" y="341.453333" style="stroke: #000000; stroke-width: 0.8"/>
      </g>
     </g>
     <g id="text_17">
      <!-- 0 -->
      <g transform="translate(66.39625 359.091146) scale(0.14 -0.14)">
       <use xlink:href="#DejaVuSans-30"/>
      </g>
     </g>
    </g>
    <g id="xtick_7">
     <g id="line2d_22">
      <g>
       <use xlink:href="#mea96dc5927" x="136.03875" y="341.453333" style="stroke: #000000; stroke-width: 0.8"/>
      </g>
     </g>
     <g id="text_18">
      <!-- 50 -->
      <g transform="translate(127.13125 359.091146) scale(0.14 -0.14)">
       <use xlink:href="#DejaVuSans-35"/>
       <use xlink:href="#DejaVuSans-30" x="63.623047"/>
      </g>
     </g>
    </g>
    <g id="xtick_8">
     <g id="line2d_23">
      <g>
       <use xlink:href="#mea96dc5927" x="201.2275" y="341.453333" style="stroke: #000000; stroke-width: 0.8"/>
      </g>
     </g>
     <g id="text_19">
      <!-- 100 -->
      <g transform="translate(187.86625 359.091146) scale(0.14 -0.14)">
       <use xlink:href="#DejaVuSans-31"/>
       <use xlink:href="#DejaVuSans-30" x="63.623047"/>
       <use xlink:href="#DejaVuSans-30" x="127.246094"/>
      </g>
     </g>
    </g>
    <g id="xtick_9">
     <g id="line2d_24">
      <g>
       <use xlink:href="#mea96dc5927" x="266.41625" y="341.453333" style="stroke: #000000; stroke-width: 0.8"/>
      </g>
     </g>
     <g id="text_20">
      <!-- 150 -->
      <g transform="translate(253.055 359.091146) scale(0.14 -0.14)">
       <use xlink:href="#DejaVuSans-31"/>
       <use xlink:href="#DejaVuSans-35" x="63.623047"/>
       <use xlink:href="#DejaVuSans-30" x="127.246094"/>
      </g>
     </g>
    </g>
    <g id="xtick_10">
     <g id="line2d_25">
      <g>
       <use xlink:href="#mea96dc5927" x="331.605" y="341.453333" style="stroke: #000000; stroke-width: 0.8"/>
      </g>
     </g>
     <g id="text_21">
      <!-- 200 -->
      <g transform="translate(318.24375 359.091146) scale(0.14 -0.14)">
       <use xlink:href="#DejaVuSans-32"/>
       <use xlink:href="#DejaVuSans-30" x="63.623047"/>
       <use xlink:href="#DejaVuSans-30" x="127.246094"/>
      </g>
     </g>
    </g>
   </g>
   <g id="matplotlib.axis_4">
    <g id="ytick_6">
     <g id="line2d_26">
      <g>
       <use xlink:href="#m9096457ff7" x="70.85" y="341.453333" style="stroke: #000000; stroke-width: 0.8"/>
      </g>
     </g>
     <g id="text_22">
      <!-- 0 -->
      <g transform="translate(54.9425 346.77224) scale(0.14 -0.14)">
       <use xlink:href="#DejaVuSans-30"/>
      </g>
     </g>
    </g>
    <g id="ytick_7">
     <g id="line2d_27">
      <g>
       <use xlink:href="#m9096457ff7" x="70.85" y="306.486667" style="stroke: #000000; stroke-width: 0.8"/>
      </g>
     </g>
     <g id="text_23">
      <!-- 5 -->
      <g transform="translate(54.9425 311.805573) scale(0.14 -0.14)">
       <use xlink:href="#DejaVuSans-35"/>
      </g>
     </g>
    </g>
    <g id="ytick_8">
     <g id="line2d_28">
      <g>
       <use xlink:href="#m9096457ff7" x="70.85" y="271.52" style="stroke: #000000; stroke-width: 0.8"/>
      </g>
     </g>
     <g id="text_24">
      <!-- 10 -->
      <g transform="translate(46.035 276.838906) scale(0.14 -0.14)">
       <use xlink:href="#DejaVuSans-31"/>
       <use xlink:href="#DejaVuSans-30" x="63.623047"/>
      </g>
     </g>
    </g>
    <g id="ytick_9">
     <g id="line2d_29">
      <g>
       <use xlink:href="#m9096457ff7" x="70.85" y="236.553333" style="stroke: #000000; stroke-width: 0.8"/>
      </g>
     </g>
     <g id="text_25">
      <!-- 15 -->
      <g transform="translate(46.035 241.87224) scale(0.14 -0.14)">
       <use xlink:href="#DejaVuSans-31"/>
       <use xlink:href="#DejaVuSans-35" x="63.623047"/>
      </g>
     </g>
    </g>
    <g id="ytick_10">
     <g id="line2d_30">
      <g>
       <use xlink:href="#m9096457ff7" x="70.85" y="201.586667" style="stroke: #000000; stroke-width: 0.8"/>
      </g>
     </g>
     <g id="text_26">
      <!-- 20 -->
      <g transform="translate(46.035 206.905573) scale(0.14 -0.14)">
       <use xlink:href="#DejaVuSans-32"/>
       <use xlink:href="#DejaVuSans-30" x="63.623047"/>
      </g>
     </g>
    </g>
    <g id="text_27">
     <!-- Mean GT error $g_{Na}$ -->
     <g transform="translate(39.095 335.5) rotate(-90) scale(0.14 -0.14)">
      <defs>
       <path id="DejaVuSans-4d" d="M 628 4666 
L 1569 4666 
L 2759 1491 
L 3956 4666 
L 4897 4666 
L 4897 0 
L 4281 0 
L 4281 4097 
L 3078 897 
L 2444 897 
L 1241 4097 
L 1241 0 
L 628 0 
L 628 4666 
z
" transform="scale(0.015625)"/>
       <path id="DejaVuSans-6e" d="M 3513 2113 
L 3513 0 
L 2938 0 
L 2938 2094 
Q 2938 2591 2744 2837 
Q 2550 3084 2163 3084 
Q 1697 3084 1428 2787 
Q 1159 2491 1159 1978 
L 1159 0 
L 581 0 
L 581 3500 
L 1159 3500 
L 1159 2956 
Q 1366 3272 1645 3428 
Q 1925 3584 2291 3584 
Q 2894 3584 3203 3211 
Q 3513 2838 3513 2113 
z
" transform="scale(0.015625)"/>
       <path id="DejaVuSans-47" d="M 3809 666 
L 3809 1919 
L 2778 1919 
L 2778 2438 
L 4434 2438 
L 4434 434 
Q 4069 175 3628 42 
Q 3188 -91 2688 -91 
Q 1594 -91 976 548 
Q 359 1188 359 2328 
Q 359 3472 976 4111 
Q 1594 4750 2688 4750 
Q 3144 4750 3555 4637 
Q 3966 4525 4313 4306 
L 4313 3634 
Q 3963 3931 3569 4081 
Q 3175 4231 2741 4231 
Q 1884 4231 1454 3753 
Q 1025 3275 1025 2328 
Q 1025 1384 1454 906 
Q 1884 428 2741 428 
Q 3075 428 3337 486 
Q 3600 544 3809 666 
z
" transform="scale(0.015625)"/>
       <path id="DejaVuSans-54" d="M -19 4666 
L 3928 4666 
L 3928 4134 
L 2272 4134 
L 2272 0 
L 1638 0 
L 1638 4134 
L -19 4134 
L -19 4666 
z
" transform="scale(0.015625)"/>
       <path id="DejaVuSans-Oblique-67" d="M 3816 3500 
L 3219 434 
Q 3047 -456 2561 -893 
Q 2075 -1331 1253 -1331 
Q 950 -1331 690 -1286 
Q 431 -1241 206 -1147 
L 313 -588 
Q 525 -725 762 -790 
Q 1000 -856 1269 -856 
Q 1816 -856 2167 -557 
Q 2519 -259 2631 300 
L 2681 563 
Q 2441 288 2122 144 
Q 1803 0 1434 0 
Q 903 0 598 351 
Q 294 703 294 1319 
Q 294 1803 478 2267 
Q 663 2731 997 3091 
Q 1219 3328 1514 3456 
Q 1809 3584 2131 3584 
Q 2484 3584 2746 3420 
Q 3009 3256 3138 2956 
L 3238 3500 
L 3816 3500 
z
M 2950 2216 
Q 2950 2641 2750 2872 
Q 2550 3103 2181 3103 
Q 1953 3103 1747 3012 
Q 1541 2922 1394 2759 
Q 1156 2491 1023 2127 
Q 891 1763 891 1375 
Q 891 944 1092 712 
Q 1294 481 1672 481 
Q 2219 481 2584 976 
Q 2950 1472 2950 2216 
z
" transform="scale(0.015625)"/>
       <path id="DejaVuSans-Oblique-4e" d="M 1081 4666 
L 1931 4666 
L 3219 666 
L 4000 4666 
L 4616 4666 
L 3706 0 
L 2853 0 
L 1569 4025 
L 788 0 
L 172 0 
L 1081 4666 
z
" transform="scale(0.015625)"/>
       <path id="DejaVuSans-Oblique-61" d="M 3438 1997 
L 3047 0 
L 2472 0 
L 2578 531 
Q 2325 219 2001 64 
Q 1678 -91 1281 -91 
Q 834 -91 548 182 
Q 263 456 263 884 
Q 263 1497 752 1853 
Q 1241 2209 2100 2209 
L 2900 2209 
L 2931 2363 
Q 2938 2388 2941 2417 
Q 2944 2447 2944 2509 
Q 2944 2788 2717 2942 
Q 2491 3097 2081 3097 
Q 1800 3097 1504 3025 
Q 1209 2953 897 2809 
L 997 3341 
Q 1322 3463 1633 3523 
Q 1944 3584 2234 3584 
Q 2853 3584 3176 3315 
Q 3500 3047 3500 2534 
Q 3500 2431 3484 2292 
Q 3469 2153 3438 1997 
z
M 2816 1759 
L 2241 1759 
Q 1534 1759 1195 1570 
Q 856 1381 856 984 
Q 856 709 1029 553 
Q 1203 397 1509 397 
Q 1978 397 2328 733 
Q 2678 1069 2791 1631 
L 2816 1759 
z
" transform="scale(0.015625)"/>
      </defs>
      <use xlink:href="#DejaVuSans-4d" transform="translate(0 0.78125)"/>
      <use xlink:href="#DejaVuSans-65" transform="translate(86.279297 0.78125)"/>
      <use xlink:href="#DejaVuSans-61" transform="translate(147.802734 0.78125)"/>
      <use xlink:href="#DejaVuSans-6e" transform="translate(209.082031 0.78125)"/>
      <use xlink:href="#DejaVuSans-20" transform="translate(272.460938 0.78125)"/>
      <use xlink:href="#DejaVuSans-47" transform="translate(304.248047 0.78125)"/>
      <use xlink:href="#DejaVuSans-54" transform="translate(381.738281 0.78125)"/>
      <use xlink:href="#DejaVuSans-20" transform="translate(442.822266 0.78125)"/>
      <use xlink:href="#DejaVuSans-65" transform="translate(474.609375 0.78125)"/>
      <use xlink:href="#DejaVuSans-72" transform="translate(536.132812 0.78125)"/>
      <use xlink:href="#DejaVuSans-72" transform="translate(577.246094 0.78125)"/>
      <use xlink:href="#DejaVuSans-6f" transform="translate(618.359375 0.78125)"/>
      <use xlink:href="#DejaVuSans-72" transform="translate(679.541016 0.78125)"/>
      <use xlink:href="#DejaVuSans-20" transform="translate(720.654297 0.78125)"/>
      <use xlink:href="#DejaVuSans-Oblique-67" transform="translate(752.441406 0.78125)"/>
      <use xlink:href="#DejaVuSans-Oblique-4e" transform="translate(815.917969 -15.625) scale(0.7)"/>
      <use xlink:href="#DejaVuSans-Oblique-61" transform="translate(868.28125 -15.625) scale(0.7)"/>
     </g>
    </g>
   </g>
   <g id="line2d_31">
    <path d="M 70.85 225.501023 
L 72.153775 226.838177 
L 73.45755 228.581708 
L 76.0651 232.613578 
L 78.67265 236.974434 
L 81.2802 241.650261 
L 83.88775 246.761723 
L 86.4953 252.344522 
L 90.406625 261.378244 
L 100.836825 285.984981 
L 104.74815 294.53176 
L 107.3557 299.664919 
L 109.96325 304.058749 
L 111.267025 305.925094 
L 112.5708 307.349488 
L 115.17835 309.69127 
L 117.7859 311.70644 
L 120.39345 313.44661 
L 123.001 314.93852 
L 125.60855 316.202479 
L 128.2161 317.261032 
L 130.82365 318.151978 
L 133.4312 318.892633 
L 136.03875 319.075696 
L 139.950075 319.623251 
L 146.46895 320.864908 
L 151.68405 322.052259 
L 160.810475 324.221581 
L 164.7218 324.878519 
L 171.240675 325.723501 
L 175.152 326.07186 
L 182.97465 326.372203 
L 189.493525 326.581701 
L 194.708625 327.050869 
L 203.83505 328.201325 
L 235.12565 332.526815 
L 248.1634 333.851075 
L 263.8087 335.266349 
L 279.454 336.459649 
L 297.70685 337.644715 
L 314.655925 338.560089 
L 330.301225 339.22892 
L 330.301225 339.22892 
" clip-path="url(#p1187f31da0)" style="fill: none; stroke: #ff0000; stroke-opacity: 0.8; stroke-width: 2; stroke-linecap: square"/>
   </g>
   <g id="line2d_32">
    <path d="M 70.85 224.335467 
L 72.153775 224.500521 
L 73.45755 225.098673 
L 74.761325 226.086877 
L 76.0651 227.409821 
L 77.368875 229.018542 
L 79.976425 232.857134 
L 82.583975 237.246455 
L 86.4953 244.444528 
L 98.229275 266.576612 
L 104.74815 278.521155 
L 107.3557 282.995479 
L 109.96325 287.007652 
L 112.5708 290.373155 
L 113.874575 291.778114 
L 115.17835 292.997424 
L 116.482125 294.041589 
L 117.7859 294.925066 
L 120.39345 296.293041 
L 123.001 297.282001 
L 129.519875 299.484429 
L 139.950075 303.646555 
L 142.557625 304.314888 
L 143.8614 304.512783 
L 159.5067 305.479565 
L 164.7218 306.11849 
L 168.633125 306.799637 
L 172.54445 307.696034 
L 176.455775 308.625919 
L 184.278425 310.00653 
L 192.101075 311.114472 
L 198.61995 312.150473 
L 207.746375 313.949831 
L 220.784125 316.74344 
L 232.5181 319.147914 
L 245.55585 321.62351 
L 258.5936 323.821377 
L 276.84645 326.631917 
L 292.49175 328.817343 
L 309.440825 330.900656 
L 326.3899 332.712757 
L 330.301225 333.091692 
L 330.301225 333.091692 
" clip-path="url(#p1187f31da0)" style="fill: none; stroke: #ccff00; stroke-opacity: 0.8; stroke-width: 2; stroke-linecap: square"/>
   </g>
   <g id="line2d_33">
    <path d="M 70.85 224.335467 
L 72.153775 224.395856 
L 73.45755 224.593527 
L 74.761325 225.055536 
L 76.0651 225.815781 
L 77.368875 226.8404 
L 78.67265 228.117431 
L 79.976425 229.641559 
L 81.2802 231.395272 
L 83.88775 235.519863 
L 86.4953 240.320728 
L 90.406625 248.18661 
L 95.621725 258.653472 
L 98.229275 263.548944 
L 100.836825 268.106635 
L 104.74815 274.42269 
L 108.659475 280.201657 
L 111.267025 283.707278 
L 113.874575 286.830327 
L 116.482125 289.474436 
L 119.089675 291.570332 
L 120.39345 292.40065 
L 121.697225 293.0906 
L 124.304775 294.084015 
L 126.912325 294.66994 
L 133.4312 295.624424 
L 138.6463 295.819056 
L 142.557625 296.395378 
L 150.380275 297.748325 
L 156.89915 298.547279 
L 164.7218 299.514247 
L 171.240675 300.555584 
L 180.3671 302.252012 
L 202.531275 306.556721 
L 224.69545 310.408286 
L 242.9483 313.473241 
L 274.2389 318.389343 
L 291.187975 320.793835 
L 312.048375 323.480583 
L 330.301225 325.603103 
L 330.301225 325.603103 
" clip-path="url(#p1187f31da0)" style="fill: none; stroke: #00ff66; stroke-opacity: 0.8; stroke-width: 2; stroke-linecap: square"/>
   </g>
   <g id="line2d_34">
    <path d="M 70.85 224.335467 
L 72.153775 224.400053 
L 73.45755 224.702273 
L 74.761325 225.404593 
L 76.0651 226.512365 
L 77.368875 227.953249 
L 79.976425 231.520033 
L 82.583975 235.599522 
L 104.74815 271.782965 
L 107.3557 275.398658 
L 109.96325 278.467329 
L 112.5708 280.936612 
L 115.17835 282.861648 
L 117.7859 284.393707 
L 124.304775 287.923534 
L 126.912325 289.689696 
L 129.519875 291.745736 
L 137.342525 298.312115 
L 139.950075 300.063018 
L 142.557625 301.402946 
L 143.8614 301.870569 
L 146.46895 302.344298 
L 149.0765 302.589926 
L 158.202925 303.19369 
L 162.11425 303.843811 
L 171.240675 305.640501 
L 173.848225 305.980443 
L 176.455775 306.104402 
L 189.493525 306.325336 
L 194.708625 306.768182 
L 207.746375 307.995833 
L 216.8728 308.850935 
L 229.91055 310.463951 
L 249.467175 312.688966 
L 262.504925 314.079377 
L 285.972875 316.272966 
L 305.5295 317.845183 
L 326.3899 319.324163 
L 330.301225 319.576505 
L 330.301225 319.576505 
" clip-path="url(#p1187f31da0)" style="fill: none; stroke: #0066ff; stroke-opacity: 0.8; stroke-width: 2; stroke-linecap: square"/>
   </g>
   <g id="line2d_35">
    <path d="M 70.85 224.335467 
L 74.761325 224.479463 
L 76.0651 224.732543 
L 77.368875 225.192934 
L 78.67265 225.884342 
L 79.976425 226.806164 
L 81.2802 227.93759 
L 82.583975 229.269212 
L 85.191525 232.486317 
L 87.799075 236.281798 
L 90.406625 240.464297 
L 94.31795 247.234687 
L 100.836825 258.703154 
L 103.444375 262.987259 
L 106.051925 266.811276 
L 108.659475 270.097146 
L 111.267025 272.807726 
L 113.874575 274.978915 
L 116.482125 276.711046 
L 119.089675 278.131282 
L 128.2161 282.664679 
L 132.127425 285.064084 
L 137.342525 288.499706 
L 142.557625 290.720435 
L 146.46895 292.133397 
L 149.0765 292.886217 
L 152.987825 293.721284 
L 156.89915 294.2669 
L 162.11425 294.722373 
L 172.54445 295.585228 
L 189.493525 297.313891 
L 196.0124 297.64591 
L 210.353925 298.278068 
L 220.784125 299.045676 
L 289.8842 304.65316 
L 319.871025 306.984965 
L 330.301225 307.735277 
L 330.301225 307.735277 
" clip-path="url(#p1187f31da0)" style="fill: none; stroke: #cc00ff; stroke-opacity: 0.8; stroke-width: 2; stroke-linecap: square"/>
   </g>
   <g id="patch_9">
    <path d="M 70.85 341.453333 
L 70.85 201.586667 
" style="fill: none; stroke: #000000; stroke-width: 0.8; stroke-linejoin: miter; stroke-linecap: square"/>
   </g>
   <g id="patch_10">
    <path d="M 331.605 341.453333 
L 331.605 201.586667 
" style="fill: none; stroke: #000000; stroke-width: 0.8; stroke-linejoin: miter; stroke-linecap: square"/>
   </g>
   <g id="patch_11">
    <path d="M 70.85 341.453333 
L 331.605 341.453333 
" style="fill: none; stroke: #000000; stroke-width: 0.8; stroke-linejoin: miter; stroke-linecap: square"/>
   </g>
   <g id="patch_12">
    <path d="M 70.85 201.586667 
L 331.605 201.586667 
" style="fill: none; stroke: #000000; stroke-width: 0.8; stroke-linejoin: miter; stroke-linecap: square"/>
   </g>
  </g>
  <g id="axes_3">
   <g id="patch_13">
    <path d="M 70.85 522.52 
L 331.605 522.52 
L 331.605 382.653333 
L 70.85 382.653333 
z
" style="fill: #ffffff"/>
   </g>
   <g id="matplotlib.axis_5">
    <g id="xtick_11">
     <g id="line2d_36">
      <g>
       <use xlink:href="#mea96dc5927" x="70.85" y="522.52" style="stroke: #000000; stroke-width: 0.8"/>
      </g>
     </g>
     <g id="text_28">
      <!-- 0 -->
      <g transform="translate(66.39625 540.157812) scale(0.14 -0.14)">
       <use xlink:href="#DejaVuSans-30"/>
      </g>
     </g>
    </g>
    <g id="xtick_12">
     <g id="line2d_37">
      <g>
       <use xlink:href="#mea96dc5927" x="136.03875" y="522.52" style="stroke: #000000; stroke-width: 0.8"/>
      </g>
     </g>
     <g id="text_29">
      <!-- 50 -->
      <g transform="translate(127.13125 540.157812) scale(0.14 -0.14)">
       <use xlink:href="#DejaVuSans-35"/>
       <use xlink:href="#DejaVuSans-30" x="63.623047"/>
      </g>
     </g>
    </g>
    <g id="xtick_13">
     <g id="line2d_38">
      <g>
       <use xlink:href="#mea96dc5927" x="201.2275" y="522.52" style="stroke: #000000; stroke-width: 0.8"/>
      </g>
     </g>
     <g id="text_30">
      <!-- 100 -->
      <g transform="translate(187.86625 540.157812) scale(0.14 -0.14)">
       <use xlink:href="#DejaVuSans-31"/>
       <use xlink:href="#DejaVuSans-30" x="63.623047"/>
       <use xlink:href="#DejaVuSans-30" x="127.246094"/>
      </g>
     </g>
    </g>
    <g id="xtick_14">
     <g id="line2d_39">
      <g>
       <use xlink:href="#mea96dc5927" x="266.41625" y="522.52" style="stroke: #000000; stroke-width: 0.8"/>
      </g>
     </g>
     <g id="text_31">
      <!-- 150 -->
      <g transform="translate(253.055 540.157812) scale(0.14 -0.14)">
       <use xlink:href="#DejaVuSans-31"/>
       <use xlink:href="#DejaVuSans-35" x="63.623047"/>
       <use xlink:href="#DejaVuSans-30" x="127.246094"/>
      </g>
     </g>
    </g>
    <g id="xtick_15">
     <g id="line2d_40">
      <g>
       <use xlink:href="#mea96dc5927" x="331.605" y="522.52" style="stroke: #000000; stroke-width: 0.8"/>
      </g>
     </g>
     <g id="text_32">
      <!-- 200 -->
      <g transform="translate(318.24375 540.157812) scale(0.14 -0.14)">
       <use xlink:href="#DejaVuSans-32"/>
       <use xlink:href="#DejaVuSans-30" x="63.623047"/>
       <use xlink:href="#DejaVuSans-30" x="127.246094"/>
      </g>
     </g>
    </g>
    <g id="text_33">
     <!-- Epochs -->
     <g transform="translate(176.145625 557.707187) scale(0.14 -0.14)">
      <defs>
       <path id="DejaVuSans-45" d="M 628 4666 
L 3578 4666 
L 3578 4134 
L 1259 4134 
L 1259 2753 
L 3481 2753 
L 3481 2222 
L 1259 2222 
L 1259 531 
L 3634 531 
L 3634 0 
L 628 0 
L 628 4666 
z
" transform="scale(0.015625)"/>
       <path id="DejaVuSans-70" d="M 1159 525 
L 1159 -1331 
L 581 -1331 
L 581 3500 
L 1159 3500 
L 1159 2969 
Q 1341 3281 1617 3432 
Q 1894 3584 2278 3584 
Q 2916 3584 3314 3078 
Q 3713 2572 3713 1747 
Q 3713 922 3314 415 
Q 2916 -91 2278 -91 
Q 1894 -91 1617 61 
Q 1341 213 1159 525 
z
M 3116 1747 
Q 3116 2381 2855 2742 
Q 2594 3103 2138 3103 
Q 1681 3103 1420 2742 
Q 1159 2381 1159 1747 
Q 1159 1113 1420 752 
Q 1681 391 2138 391 
Q 2594 391 2855 752 
Q 3116 1113 3116 1747 
z
" transform="scale(0.015625)"/>
       <path id="DejaVuSans-63" d="M 3122 3366 
L 3122 2828 
Q 2878 2963 2633 3030 
Q 2388 3097 2138 3097 
Q 1578 3097 1268 2742 
Q 959 2388 959 1747 
Q 959 1106 1268 751 
Q 1578 397 2138 397 
Q 2388 397 2633 464 
Q 2878 531 3122 666 
L 3122 134 
Q 2881 22 2623 -34 
Q 2366 -91 2075 -91 
Q 1284 -91 818 406 
Q 353 903 353 1747 
Q 353 2603 823 3093 
Q 1294 3584 2113 3584 
Q 2378 3584 2631 3529 
Q 2884 3475 3122 3366 
z
" transform="scale(0.015625)"/>
       <path id="DejaVuSans-68" d="M 3513 2113 
L 3513 0 
L 2938 0 
L 2938 2094 
Q 2938 2591 2744 2837 
Q 2550 3084 2163 3084 
Q 1697 3084 1428 2787 
Q 1159 2491 1159 1978 
L 1159 0 
L 581 0 
L 581 4863 
L 1159 4863 
L 1159 2956 
Q 1366 3272 1645 3428 
Q 1925 3584 2291 3584 
Q 2894 3584 3203 3211 
Q 3513 2838 3513 2113 
z
" transform="scale(0.015625)"/>
      </defs>
      <use xlink:href="#DejaVuSans-45"/>
      <use xlink:href="#DejaVuSans-70" x="63.183594"/>
      <use xlink:href="#DejaVuSans-6f" x="126.660156"/>
      <use xlink:href="#DejaVuSans-63" x="187.841797"/>
      <use xlink:href="#DejaVuSans-68" x="242.822266"/>
      <use xlink:href="#DejaVuSans-73" x="306.201172"/>
     </g>
    </g>
   </g>
   <g id="matplotlib.axis_6">
    <g id="ytick_11">
     <g id="line2d_41">
      <g>
       <use xlink:href="#m9096457ff7" x="70.85" y="522.52" style="stroke: #000000; stroke-width: 0.8"/>
      </g>
     </g>
     <g id="text_34">
      <!-- 0 -->
      <g transform="translate(54.9425 527.838906) scale(0.14 -0.14)">
       <use xlink:href="#DejaVuSans-30"/>
      </g>
     </g>
    </g>
    <g id="ytick_12">
     <g id="line2d_42">
      <g>
       <use xlink:href="#m9096457ff7" x="70.85" y="487.553333" style="stroke: #000000; stroke-width: 0.8"/>
      </g>
     </g>
     <g id="text_35">
      <!-- 5 -->
      <g transform="translate(54.9425 492.87224) scale(0.14 -0.14)">
       <use xlink:href="#DejaVuSans-35"/>
      </g>
     </g>
    </g>
    <g id="ytick_13">
     <g id="line2d_43">
      <g>
       <use xlink:href="#m9096457ff7" x="70.85" y="452.586667" style="stroke: #000000; stroke-width: 0.8"/>
      </g>
     </g>
     <g id="text_36">
      <!-- 10 -->
      <g transform="translate(46.035 457.905573) scale(0.14 -0.14)">
       <use xlink:href="#DejaVuSans-31"/>
       <use xlink:href="#DejaVuSans-30" x="63.623047"/>
      </g>
     </g>
    </g>
    <g id="ytick_14">
     <g id="line2d_44">
      <g>
       <use xlink:href="#m9096457ff7" x="70.85" y="417.62" style="stroke: #000000; stroke-width: 0.8"/>
      </g>
     </g>
     <g id="text_37">
      <!-- 15 -->
      <g transform="translate(46.035 422.938906) scale(0.14 -0.14)">
       <use xlink:href="#DejaVuSans-31"/>
       <use xlink:href="#DejaVuSans-35" x="63.623047"/>
      </g>
     </g>
    </g>
    <g id="ytick_15">
     <g id="line2d_45">
      <g>
       <use xlink:href="#m9096457ff7" x="70.85" y="382.653333" style="stroke: #000000; stroke-width: 0.8"/>
      </g>
     </g>
     <g id="text_38">
      <!-- 20 -->
      <g transform="translate(46.035 387.97224) scale(0.14 -0.14)">
       <use xlink:href="#DejaVuSans-32"/>
       <use xlink:href="#DejaVuSans-30" x="63.623047"/>
      </g>
     </g>
    </g>
    <g id="text_39">
     <!-- Mean GT error $g_{K}$ -->
     <g transform="translate(39.095 513.136667) rotate(-90) scale(0.14 -0.14)">
      <defs>
       <path id="DejaVuSans-Oblique-4b" d="M 1081 4666 
L 1716 4666 
L 1331 2700 
L 3781 4666 
L 4622 4666 
L 1850 2438 
L 3878 0 
L 3109 0 
L 1247 2272 
L 806 0 
L 172 0 
L 1081 4666 
z
" transform="scale(0.015625)"/>
      </defs>
      <use xlink:href="#DejaVuSans-4d" transform="translate(0 0.78125)"/>
      <use xlink:href="#DejaVuSans-65" transform="translate(86.279297 0.78125)"/>
      <use xlink:href="#DejaVuSans-61" transform="translate(147.802734 0.78125)"/>
      <use xlink:href="#DejaVuSans-6e" transform="translate(209.082031 0.78125)"/>
      <use xlink:href="#DejaVuSans-20" transform="translate(272.460938 0.78125)"/>
      <use xlink:href="#DejaVuSans-47" transform="translate(304.248047 0.78125)"/>
      <use xlink:href="#DejaVuSans-54" transform="translate(381.738281 0.78125)"/>
      <use xlink:href="#DejaVuSans-20" transform="translate(442.822266 0.78125)"/>
      <use xlink:href="#DejaVuSans-65" transform="translate(474.609375 0.78125)"/>
      <use xlink:href="#DejaVuSans-72" transform="translate(536.132812 0.78125)"/>
      <use xlink:href="#DejaVuSans-72" transform="translate(577.246094 0.78125)"/>
      <use xlink:href="#DejaVuSans-6f" transform="translate(618.359375 0.78125)"/>
      <use xlink:href="#DejaVuSans-72" transform="translate(679.541016 0.78125)"/>
      <use xlink:href="#DejaVuSans-20" transform="translate(720.654297 0.78125)"/>
      <use xlink:href="#DejaVuSans-Oblique-67" transform="translate(752.441406 0.78125)"/>
      <use xlink:href="#DejaVuSans-Oblique-4b" transform="translate(815.917969 -15.625) scale(0.7)"/>
     </g>
    </g>
   </g>
   <g id="line2d_46">
    <path d="M 70.85 470.896647 
L 73.45755 475.711157 
L 76.0651 481.155687 
L 81.2802 492.626688 
L 83.88775 497.691797 
L 85.191525 499.883185 
L 86.4953 500.805203 
L 89.10285 502.116902 
L 99.53305 506.587491 
L 100.836825 506.690068 
L 103.444375 505.633388 
L 108.659475 503.173118 
L 109.96325 502.758919 
L 111.267025 502.49865 
L 112.5708 502.387231 
L 113.874575 502.418573 
L 115.17835 502.573893 
L 116.482125 502.398113 
L 119.089675 501.889138 
L 123.001 501.588704 
L 124.304775 501.741459 
L 126.912325 502.436736 
L 130.82365 503.993147 
L 134.734975 505.480575 
L 137.342525 506.255057 
L 139.950075 506.822324 
L 143.8614 507.286183 
L 147.772725 507.694641 
L 150.380275 508.119177 
L 158.202925 509.666903 
L 162.11425 510.200543 
L 167.32935 510.595289 
L 177.75955 511.677233 
L 185.5822 512.66194 
L 190.7973 513.244549 
L 250.77095 517.719348 
L 276.84645 519.143115 
L 300.3144 520.134938 
L 327.693675 521.005032 
L 330.301225 521.07273 
L 330.301225 521.07273 
" clip-path="url(#pb27a485725)" style="fill: none; stroke: #ff0000; stroke-opacity: 0.8; stroke-width: 2; stroke-linecap: square"/>
   </g>
   <g id="line2d_47">
    <path d="M 70.85 472.062202 
L 73.45755 478.664604 
L 74.761325 481.569827 
L 77.368875 486.57863 
L 79.976425 490.708486 
L 82.583975 494.158591 
L 85.191525 497.096637 
L 86.4953 497.428887 
L 89.10285 497.877117 
L 91.7104 498.597902 
L 98.229275 500.771175 
L 99.53305 500.972568 
L 100.836825 500.896695 
L 104.74815 498.902725 
L 108.659475 496.170621 
L 109.96325 495.441264 
L 111.267025 494.864582 
L 112.5708 494.465949 
L 113.874575 494.238377 
L 115.17835 494.162267 
L 117.7859 494.326875 
L 128.2161 495.594179 
L 133.4312 495.595539 
L 134.734975 495.449359 
L 138.6463 494.527973 
L 141.25385 494.305181 
L 143.8614 494.525416 
L 146.46895 495.087341 
L 151.68405 496.367552 
L 155.595375 496.951437 
L 160.810475 497.641342 
L 164.7218 498.495994 
L 169.9369 499.712602 
L 172.54445 500.1199 
L 176.455775 500.484834 
L 180.3671 500.848079 
L 184.278425 501.457329 
L 193.40485 503.096 
L 205.138825 504.629807 
L 215.569025 505.830452 
L 242.9483 508.88398 
L 272.935125 512.150438 
L 289.8842 513.732384 
L 309.440825 515.335592 
L 325.086125 516.443502 
L 330.301225 516.784106 
L 330.301225 516.784106 
" clip-path="url(#pb27a485725)" style="fill: none; stroke: #ccff00; stroke-opacity: 0.8; stroke-width: 2; stroke-linecap: square"/>
   </g>
   <g id="line2d_48">
    <path d="M 70.85 472.062202 
L 74.761325 482.138809 
L 76.0651 485.109747 
L 77.368875 487.781387 
L 78.67265 490.170073 
L 79.976425 492.311334 
L 81.2802 494.236116 
L 82.583975 495.950062 
L 83.88775 497.42424 
L 85.191525 498.654377 
L 86.4953 498.711049 
L 89.10285 498.118076 
L 93.014175 497.076273 
L 95.621725 496.567036 
L 96.9255 496.411035 
L 98.229275 496.368507 
L 102.1406 496.55599 
L 116.482125 490.253829 
L 119.089675 489.542751 
L 121.697225 489.222461 
L 124.304775 489.311648 
L 126.912325 489.779811 
L 132.127425 491.005198 
L 134.734975 491.19668 
L 137.342525 491.210534 
L 141.25385 490.933418 
L 146.46895 490.450089 
L 149.0765 490.376108 
L 151.68405 490.498015 
L 154.2916 490.818651 
L 158.202925 491.575415 
L 166.025575 493.231347 
L 172.54445 494.31085 
L 188.18975 496.657754 
L 214.26525 499.676979 
L 239.036975 502.15217 
L 291.187975 507.495699 
L 313.35215 509.435456 
L 330.301225 510.761841 
L 330.301225 510.761841 
" clip-path="url(#pb27a485725)" style="fill: none; stroke: #00ff66; stroke-opacity: 0.8; stroke-width: 2; stroke-linecap: square"/>
   </g>
   <g id="line2d_49">
    <path d="M 70.85 472.062202 
L 73.45755 478.806911 
L 74.761325 481.819871 
L 76.0651 484.519309 
L 77.368875 486.926673 
L 78.67265 489.059535 
L 81.2802 492.722678 
L 83.88775 496.086486 
L 85.191525 497.602508 
L 89.10285 498.993448 
L 91.7104 500.048559 
L 100.836825 496.792992 
L 102.1406 495.831595 
L 103.444375 495.0807 
L 104.74815 494.569778 
L 106.051925 494.292306 
L 107.3557 494.229716 
L 108.659475 494.364846 
L 109.96325 494.665612 
L 111.267025 495.107587 
L 113.874575 496.355958 
L 117.7859 496.741336 
L 121.697225 497.368967 
L 124.304775 497.565998 
L 126.912325 497.47501 
L 129.519875 497.077712 
L 132.127425 496.432667 
L 136.03875 494.519645 
L 138.6463 493.53619 
L 141.25385 492.961851 
L 143.8614 492.76277 
L 146.46895 492.838005 
L 149.0765 493.117332 
L 152.987825 493.824493 
L 156.89915 494.563254 
L 159.5067 494.871209 
L 163.418025 495.028833 
L 168.633125 495.185047 
L 172.54445 495.515114 
L 176.455775 496.038895 
L 182.97465 497.218527 
L 186.885975 497.83659 
L 192.101075 498.447428 
L 222.0879 501.250752 
L 233.821875 502.079269 
L 255.98605 503.614037 
L 291.187975 505.798066 
L 313.35215 506.964657 
L 330.301225 507.740669 
L 330.301225 507.740669 
" clip-path="url(#pb27a485725)" style="fill: none; stroke: #0066ff; stroke-opacity: 0.8; stroke-width: 2; stroke-linecap: square"/>
   </g>
   <g id="line2d_50">
    <path d="M 70.85 472.062202 
L 74.761325 482.419651 
L 77.368875 488.693311 
L 79.976425 494.006979 
L 82.583975 498.512391 
L 83.88775 500.39485 
L 85.191525 501.971456 
L 86.4953 502.142103 
L 87.799075 502.109734 
L 89.10285 501.931613 
L 90.406625 501.610661 
L 93.014175 500.584407 
L 94.31795 499.866099 
L 96.9255 497.645339 
L 99.53305 495.835687 
L 100.836825 495.136751 
L 102.1406 494.60306 
L 103.444375 494.278351 
L 104.74815 494.164305 
L 106.051925 494.214706 
L 107.3557 493.882407 
L 108.659475 493.709035 
L 109.96325 493.678547 
L 111.267025 493.414876 
L 113.874575 492.453349 
L 116.482125 491.89246 
L 119.089675 491.639287 
L 124.304775 491.541865 
L 128.2161 491.350588 
L 130.82365 491.02523 
L 134.734975 490.261112 
L 138.6463 489.252183 
L 142.557625 487.982999 
L 145.165175 487.340134 
L 147.772725 486.898289 
L 150.380275 486.648019 
L 154.2916 486.567987 
L 159.5067 486.791379 
L 168.633125 487.508122 
L 176.455775 488.066045 
L 190.7973 488.933223 
L 215.569025 491.134406 
L 254.682275 493.499948 
L 330.301225 497.721784 
L 330.301225 497.721784 
" clip-path="url(#pb27a485725)" style="fill: none; stroke: #cc00ff; stroke-opacity: 0.8; stroke-width: 2; stroke-linecap: square"/>
   </g>
   <g id="patch_14">
    <path d="M 70.85 522.52 
L 70.85 382.653333 
" style="fill: none; stroke: #000000; stroke-width: 0.8; stroke-linejoin: miter; stroke-linecap: square"/>
   </g>
   <g id="patch_15">
    <path d="M 331.605 522.52 
L 331.605 382.653333 
" style="fill: none; stroke: #000000; stroke-width: 0.8; stroke-linejoin: miter; stroke-linecap: square"/>
   </g>
   <g id="patch_16">
    <path d="M 70.85 522.52 
L 331.605 522.52 
" style="fill: none; stroke: #000000; stroke-width: 0.8; stroke-linejoin: miter; stroke-linecap: square"/>
   </g>
   <g id="patch_17">
    <path d="M 70.85 382.653333 
L 331.605 382.653333 
" style="fill: none; stroke: #000000; stroke-width: 0.8; stroke-linejoin: miter; stroke-linecap: square"/>
   </g>
  </g>
 </g>
 <defs>
  <clipPath id="pa285210a74">
   <rect x="70.85" y="20.52" width="260.755" height="139.866667"/>
  </clipPath>
  <clipPath id="p1187f31da0">
   <rect x="70.85" y="201.586667" width="260.755" height="139.866667"/>
  </clipPath>
  <clipPath id="pb27a485725">
   <rect x="70.85" y="382.653333" width="260.755" height="139.866667"/>
  </clipPath>
 </defs>
</svg>
